<svg width="370" height="285" viewBox="0 0 370 285" fill="none" xmlns="http://www.w3.org/2000/svg">
<g clip-path="url(#clip0_955_65826)">
<path d="M60.6502 281.501V232.401H0.950195V203.301L52.9502 81.8008H92.6502V205.301H113.15V232.401H92.6502V281.501H60.6502ZM29.5502 205.301H60.6502V118.501L29.5502 205.301ZM183.15 284.501C171.45 284.501 161.85 282.001 154.15 277.101C146.55 272.201 140.75 265.401 136.85 256.601C132.95 247.901 131.05 237.901 131.05 226.501V138.001C131.05 126.301 132.85 116.101 136.55 107.301C140.25 98.5008 145.95 91.6008 153.55 86.7008C161.15 81.8008 171.05 79.3008 183.05 79.3008C195.05 79.3008 204.85 81.8008 212.55 86.7008C220.15 91.6008 225.85 98.5008 229.55 107.301C233.25 116.101 235.05 126.301 235.05 138.001V226.501C235.05 237.801 233.15 247.901 229.25 256.601C225.35 265.301 219.65 272.101 211.95 277.101C204.45 282.001 194.85 284.501 183.15 284.501ZM183.15 255.101C188.25 255.101 192.05 253.501 194.45 250.401C196.95 247.301 198.55 243.501 199.35 239.101C200.15 234.701 200.55 230.301 200.55 226.001V138.501C200.55 133.901 200.15 129.301 199.45 124.801C198.75 120.301 197.15 116.501 194.65 113.301C192.15 110.201 188.35 108.601 183.05 108.601C177.75 108.601 173.95 110.201 171.45 113.301C168.95 116.401 167.35 120.201 166.65 124.801C165.95 129.301 165.55 133.901 165.55 138.501V226.001C165.55 230.301 165.95 234.601 166.95 239.101C167.85 243.501 169.55 247.301 172.05 250.401C174.55 253.601 178.25 255.101 183.15 255.101ZM316.55 281.501V232.401H256.85V203.301L308.85 81.8008H348.55V205.301H369.05V232.401H348.55V281.501H316.55ZM285.45 205.301H316.55V118.501L285.45 205.301Z" fill="#F3D9DE" stroke="#CC6276" stroke-miterlimit="10"/>
<g opacity="0.3">
<path d="M259.45 227.8L259.55 227.9C259.75 228 259.95 228.2 260.15 228.3C260.15 228.3 260.25 228.4 260.35 228.4C260.55 228.5 260.75 228.6 260.95 228.7C261.05 228.7 261.05 228.8 261.15 228.8C261.45 228.9 261.65 229 261.95 229.1H262.05C262.35 229.2 262.55 229.2 262.85 229.3C262.95 229.3 263.05 229.3 263.15 229.3C263.55 229.3 263.85 229.4 264.25 229.4C265.65 229.5 267.05 229.2 268.35 228.6C269.05 228.3 269.75 228 270.35 227.6C270.75 227.3 271.25 227 271.65 226.7C271.85 226.5 272.05 226.4 272.25 226.2C272.65 225.8 273.05 225.5 273.45 225.1C276.75 221.5 278.75 215.8 277.05 209.1C276.65 207.4 276.25 205.9 275.75 204.4C274.95 201.9 274.15 199.6 273.25 197.6C273.05 197.1 272.75 196.5 272.55 196C271.95 194.8 271.35 193.7 270.65 192.6C270.25 191.9 269.75 191.3 269.25 190.6C268.05 189.1 266.85 187.9 265.55 186.9C265.25 186.7 264.85 186.4 264.55 186.2C264.45 186.1 264.35 186.1 264.25 186.1L256.85 203.4V222.6C257.55 224.6 258.05 226.4 259.25 227.6C259.35 227.6 259.45 227.7 259.45 227.8Z" fill="#770D21"/>
<path d="M235.15 222.6V188.3C234.15 188.3 233.25 188.4 232.45 188.4C232.45 187.3 232.65 180.1 230.65 172.3C230.55 165.4 227.75 159.2 223.25 154.9C222.75 148.3 219.05 140.5 214.95 135.1C215.05 135.1 215.15 135.1 215.25 135.1C216.95 134.9 217.95 132.8 218.65 129.3C218.75 128.8 218.85 128.3 218.85 127.9C220.15 127 221.75 125.7 222.55 124.2C222.95 123.4 223.35 122.1 223.55 120.6C224.85 119.8 226.65 118.5 228.45 116.5C229.75 115.1 230.65 113.1 230.95 110.9C230.55 109.6 230.05 108.4 229.55 107.2C227.35 101.9 224.35 97.3996 220.75 93.4996C219.75 92.9996 218.55 92.4996 217.35 92.1996C216.25 91.8996 215.15 91.7996 214.05 91.6996C210.95 91.0996 204.55 89.9996 195.65 89.7996C192.65 89.6996 189.95 89.6996 187.55 89.8996C185.55 88.9996 183.25 88.5996 180.95 88.8996C179.55 89.0996 178.25 89.3996 176.95 89.9996C173.15 88.9996 169.25 88.6996 166.15 89.0996C165.35 89.1996 164.65 89.2996 163.95 89.3996C163.95 88.9996 163.85 88.5996 163.85 88.2996C163.75 87.5996 163.65 86.7996 163.55 86.0996C163.65 84.7996 163.65 83.3996 163.55 82.0996C159.95 83.2996 156.55 84.7996 153.55 86.6996C145.95 91.5996 140.25 98.4996 136.55 107.3C132.85 116.1 131.05 126.3 131.05 138V146.8C134.65 151.4 138.95 156.6 141.85 158.6C142.05 158.8 142.25 159 142.45 159.2C142.65 162.6 143.25 170.4 144.75 173C144.75 173 143.55 177.1 145.55 179.2C144.95 183.8 144.15 195.4 148.95 206.8C152.65 215.7 159.05 220.4 165.55 222V138.5C165.55 133.9 165.95 129.3 166.65 124.8C167.35 120.3 168.95 116.5 171.45 113.3C173.95 110.2 177.75 108.6 183.05 108.6C188.35 108.6 192.15 110.2 194.65 113.3C197.15 116.4 198.75 120.2 199.45 124.8C200.15 129.3 200.55 133.9 200.55 138.5V226C200.55 227.5 200.45 229 200.35 230.5C200.45 230.8 200.45 231.1 200.55 231.3C200.65 231.6 200.75 231.9 200.85 232.1C200.85 232.1 200.85 232.2 200.95 232.2C201.05 232.4 201.15 232.6 201.25 232.7L201.35 232.8C201.45 233 201.65 233.1 201.75 233.3C201.95 233.4 202.05 233.6 202.25 233.7L202.35 233.8C202.55 233.9 202.65 234 202.85 234H202.95C203.15 234.1 203.35 234.2 203.65 234.2C203.75 234.2 203.75 234.2 203.85 234.2C204.05 234.3 204.25 234.3 204.45 234.4C204.55 234.4 204.65 234.4 204.65 234.5C204.85 234.6 205.15 234.6 205.35 234.7C208.95 235.5 215.15 230.6 216.75 225.7C217.05 224.7 217.25 223.6 217.45 222.4C217.65 222.4 217.85 222.3 218.05 222.3C221.45 223 228.05 224 235.15 222.6ZM212.25 131.9C212.25 131.9 212.15 131.9 212.25 131.9C212.25 131.7 212.25 131.6 212.25 131.4C212.25 131.7 212.25 131.8 212.25 131.9ZM212.55 129.4C212.65 128.9 212.65 128.4 212.75 127.9C212.65 128.5 212.55 129 212.55 129.4Z" fill="#770D21"/>
<path d="M92.6499 149.9C91.3499 153.1 90.2499 156 89.6499 157.7C87.8499 162.9 85.8499 168.7 85.9499 172C85.9499 175.4 88.0499 179.6 89.6499 179.8C91.2499 179.9 92.4499 178.9 92.6499 176.6V149.9Z" fill="#770D21"/>
</g>
<path d="M207.95 159.801C207.95 159.801 208.95 167.301 208.85 174.901C208.75 182.501 210.55 182.701 214.15 183.501C217.75 184.301 223.95 179.401 225.55 174.501C227.15 169.601 226.95 160.001 226.95 160.001L207.95 159.801Z" fill="#F3D9DE" stroke="#CC6276" stroke-miterlimit="10"/>
<path d="M224.45 169C224.25 172.4 223.25 177.8 218.25 180.4C214.05 182.7 210.35 180.7 209.25 180C209.95 182.6 211.65 182.9 214.15 183.5C217.75 184.3 223.95 179.4 225.55 174.5C227.15 169.6 226.95 160 226.95 160H224.75C224.75 162.5 224.55 166.7 224.45 169Z" fill="#F3D9DE" stroke="#CC6276" stroke-miterlimit="10"/>
<path d="M190.65 167.001C190.65 167.001 196.65 166.901 204.75 163.901C212.85 160.901 222.05 154.101 220.05 147.401C218.05 140.701 207.45 138.901 203.25 139.301C199.05 139.801 194.25 141.001 194.25 141.001C194.25 141.001 195.35 159.801 190.65 167.001Z" fill="#F3D9DE" stroke="#CC6276" stroke-miterlimit="10"/>
<path d="M186.75 169.702C186.75 169.702 192.15 168.602 195.35 164.402C198.55 160.202 199.75 153.302 198.05 148.702C196.35 144.102 186.75 169.702 186.75 169.702Z" fill="#F3D9DE" stroke="#CC6276" stroke-miterlimit="10"/>
<path d="M154.65 125.9C154.65 125.9 151.55 140.9 157.65 155.6C163.85 170.3 177.25 173.8 186.75 169.7C196.25 165.7 198.45 152.4 198.55 143.5C198.65 134.7 198.35 130.6 198.35 130.6C198.35 130.6 166.65 133.8 154.65 125.9Z" fill="#F3D9DE" stroke="#CC6276" stroke-miterlimit="10"/>
<path d="M153.45 121.801C153.45 121.801 152.05 126.701 154.85 128.501C157.65 130.301 172.45 139.001 189.85 135.601C199.65 133.801 197.45 130.901 197.25 129.301C197.25 127.801 153.45 121.801 153.45 121.801Z" fill="#F3D9DE" stroke="#CC6276" stroke-miterlimit="10"/>
<path d="M151.05 106.3C151.05 106.3 151.45 118.4 153.45 121.8C155.35 125.1 181.25 135.2 194.35 132.4C207.45 129.6 228.75 117.9 231.35 109.3C233.95 100.7 227.15 87.2004 220.85 80.7004C214.45 74.2004 211.75 72.9004 211.75 72.9004C211.75 72.9004 196.15 93.7004 176.75 100.5C157.35 107.4 151.05 106.3 151.05 106.3Z" fill="white" stroke="#CC6276" stroke-miterlimit="10"/>
<path d="M254.05 137C254.05 137 267.75 131.6 273.25 134.9C278.75 138.2 282.95 145.9 285.75 157.7C288.65 169.6 280.25 178.3 272.95 178C265.65 177.7 266.95 173 264.15 168.2C261.35 163.4 257.85 160.6 257.65 160.1C257.35 159.6 260.85 144.4 254.05 137Z" fill="white" stroke="#CC6276" stroke-miterlimit="10"/>
<path d="M273.25 134.9C271.75 134 269.75 133.8 267.55 133.9C270.35 136 275.85 141 279.35 150.5C284.35 163.7 282.05 170.7 279.55 173.3C277.05 175.9 271.65 176.8 269.35 176.5C268.95 176.5 268.55 176.4 268.05 176.3C269.05 177.3 270.55 177.9 273.05 178C280.35 178.3 288.75 169.6 285.85 157.7C282.85 145.9 278.65 138.2 273.25 134.9Z" fill="white" stroke="#CC6276" stroke-miterlimit="10"/>
<path d="M225.05 170.7C225.05 170.7 237.95 174.4 250.05 169.6C262.05 164.8 269.15 156.8 266.45 147C263.75 137.2 258.85 136.9 247.85 137C236.95 137.1 234.75 138.1 234.75 138.1C234.75 138.1 234.35 165.6 225.05 170.7Z" fill="white" stroke="#CC6276" stroke-miterlimit="10"/>
<path d="M239.213 123.856C240.459 110.659 231.618 99.0312 219.466 97.884C207.315 96.7369 196.454 106.505 195.208 119.701C193.962 132.898 202.803 144.526 214.955 145.673C227.107 146.82 237.968 137.052 239.213 123.856Z" fill="#F3D9DE" stroke="#CC6276" stroke-miterlimit="10"/>
<path d="M243.981 151.582C245.107 139.65 237.061 129.132 226.009 128.088C214.956 127.045 205.084 135.872 203.957 147.804C202.831 159.736 210.877 170.254 221.93 171.297C232.982 172.341 242.854 163.514 243.981 151.582Z" fill="#F3D9DE" stroke="#CC6276" stroke-miterlimit="10"/>
<path d="M241.15 137.301C241.15 137.301 242.05 118.001 232.55 107.301C223.05 96.7008 201.65 105.401 198.05 121.301C194.45 137.201 202.05 161.101 211.85 167.301C221.65 173.501 230.05 167.401 235.65 158.901C241.35 150.401 241.15 137.301 241.15 137.301Z" fill="white" stroke="#CC6276" stroke-miterlimit="10"/>
<path d="M107.65 83.0996C107.65 83.0996 100.15 101.2 98.3501 106.4C96.5501 111.6 94.5501 117.4 94.6501 120.7C94.6501 124.1 96.7501 128.3 98.3501 128.5C99.9501 128.6 101.15 127.6 101.35 125.3C101.55 123 101.45 122.1 102.65 120.8C103.75 119.6 107.35 117.1 107.85 116.9C108.35 116.7 108.65 118.4 107.55 120.3C106.45 122.2 104.05 123.9 105.55 125.8C107.05 127.7 109.95 125.5 111.55 123.9C113.15 122.3 114.75 119.5 115.45 116.8C116.15 114 115.75 108.1 115.75 108.1L128.95 95.5996C129.05 95.4996 111.45 93.3996 107.65 83.0996Z" fill="#F3D9DE" stroke="#CC6276" stroke-miterlimit="10"/>
<path d="M108.45 118.699C108.45 118.699 108.25 121.299 113.05 121.399" stroke="#CC6276" stroke-miterlimit="10"/>
<path d="M95.75 116.6C95.75 116.6 97.05 121.6 102.65 120.8" stroke="#CC6276" stroke-miterlimit="10"/>
<path d="M95.3496 123.499C95.3496 123.499 98.6496 125.999 101.05 123.299" stroke="#CC6276" stroke-miterlimit="10"/>
<path d="M102.05 98.6992C102.05 98.6992 101.65 108.599 115.75 107.999" stroke="#CC6276" stroke-miterlimit="10"/>
<path d="M111.35 77.8014C111.35 77.8014 107.85 77.9014 107.65 83.2014C107.45 88.5014 111.65 96.7014 119.85 98.0014C128.05 99.4014 133.05 94.5014 134.55 90.5014C136.05 86.4014 116.95 74.6014 111.35 77.8014Z" fill="#F3D9DE" stroke="#CC6276" stroke-miterlimit="10"/>
<path d="M120.55 63.3008C120.55 63.3008 111.95 73.7008 110.45 79.0008C108.95 84.3008 112.75 94.0008 122.25 95.2008C131.85 96.4008 137.55 88.4008 137.55 88.4008L120.55 63.3008Z" fill="#F3D9DE" stroke="#CC6276" stroke-miterlimit="10"/>
<path d="M125.45 54.9004C125.45 54.9004 119.25 60.1004 118.85 68.6004C118.45 77.1004 126.25 86.8004 136.45 85.9004C146.65 85.0004 133.85 54.5004 125.45 54.9004Z" fill="#F3D9DE" stroke="#CC6276" stroke-miterlimit="10"/>
<path d="M129.75 61.2C129.75 61.2 125.25 66.7 127.85 75.8C130.45 85 136.85 90 136.85 90C136.85 90 149.35 108 154.65 110.8C159.95 113.6 169.25 113.7 188.05 106C206.85 98.3 214.35 87.1 217.25 81.4C220.15 75.6 203.15 49.1 197.35 45.3C191.45 41.5 183.85 40.2 178.25 40.8C172.65 41.4 167.55 42.8 167.55 42.8L129.75 61.2Z" fill="#F3D9DE" stroke="#CC6276" stroke-miterlimit="10"/>
<path d="M126.35 58.2C126.35 58.2 121.85 63.7 124.45 72.8C127.05 82 133.55 87 133.55 87C133.55 87 146.05 105 151.35 107.8C156.65 110.6 165.95 110.7 184.75 103C203.55 95.3 211.05 84.1 213.95 78.4C216.85 72.6 199.85 46.1 194.05 42.3C188.15 38.5 180.55 37.2 174.95 37.8C169.45 38.4 164.25 39.8 164.25 39.8L126.35 58.2Z" fill="white" stroke="#CC6276" stroke-miterlimit="10"/>
<path d="M147.336 68.441C162.985 66.7411 174.293 52.6771 172.593 37.0283C170.893 21.3795 156.829 10.0717 141.18 11.7716C125.532 13.4715 114.224 27.5355 115.924 43.1843C117.624 58.8331 131.688 70.1409 147.336 68.441Z" fill="#F3D9DE" stroke="#CC6276" stroke-miterlimit="10"/>
<path d="M143.637 64.7188C161.318 62.7982 174.094 46.9084 172.173 29.228C170.252 11.5475 154.363 -1.2283 136.682 0.692322C119.002 2.61295 106.226 18.5027 108.147 36.1832C110.067 53.8636 125.957 66.6394 143.637 64.7188Z" fill="#F3D9DE" stroke="#CC6276" stroke-miterlimit="10"/>
<path d="M162.25 37.2015C162.55 36.5015 163.05 35.3015 162.85 33.8015C162.65 31.4015 159.95 26.9015 158.85 25.7015C157.75 24.5015 155.95 25.9015 155.95 25.9015L153.95 22.3015C149.15 13.6015 138.25 10.5015 129.55 15.3015C120.85 20.1015 117.75 31.0015 122.55 39.7015L126.65 47.1015L124.35 43.3015C124.35 43.3015 122.25 44.0015 122.65 45.6015C123.05 47.2015 125.45 51.9015 127.35 53.3015C128.75 54.3015 130.15 54.5015 130.85 54.6015L136.35 64.4015C138.75 64.7015 141.15 64.7015 143.55 64.4015C154.35 63.2015 163.35 56.8015 168.25 47.9015L162.25 37.2015Z" fill="#CC6276" stroke="#CC6276" stroke-miterlimit="10"/>
<path d="M153.851 28.2019C150.251 21.7019 141.951 19.3019 135.451 22.9019L132.951 24.3019C126.451 27.9019 124.051 36.2019 127.651 42.7019L139.951 64.8019C141.151 64.8019 142.451 64.8019 143.651 64.6019C153.251 63.6019 161.451 58.4019 166.551 51.0019L153.851 28.2019Z" fill="white" stroke="#CC6276" stroke-miterlimit="10"/>
<path d="M138.675 43.5863C139.158 43.3178 139.179 42.435 138.723 41.6146C138.266 40.7942 137.505 40.3468 137.022 40.6154C136.54 40.8839 136.518 41.7666 136.975 42.587C137.431 43.4074 138.193 43.8548 138.675 43.5863Z" fill="#CC6276"/>
<path d="M148.854 37.8655C149.337 37.5969 149.358 36.7141 148.901 35.8937C148.445 35.0733 147.684 34.626 147.201 34.8946C146.718 35.1631 146.697 36.0459 147.154 36.8663C147.61 37.6867 148.372 38.1341 148.854 37.8655Z" fill="#CC6276"/>
<path d="M143.95 37.3008L149.15 43.8008L144.35 46.0008" stroke="#CC6276" stroke-miterlimit="10"/>
<path d="M150.996 51.4938C151.817 51.0372 152.112 50.002 151.655 49.1817C151.198 48.3613 150.163 48.0663 149.343 48.5229C148.522 48.9795 148.228 50.0147 148.684 50.8351C149.141 51.6555 150.176 51.9504 150.996 51.4938Z" fill="#CC6276"/>
<path d="M131.65 40.4023C131.65 40.4023 132.45 37.2023 136.65 36.9023" stroke="#CC6276" stroke-miterlimit="10"/>
<path d="M143.15 33.1017C143.15 33.1017 144.25 29.7017 148.65 30.7017" stroke="#CC6276" stroke-miterlimit="10"/>
<path d="M146.15 59.9008C146.15 59.9008 149.65 60.9008 152.15 60.4008C154.65 59.9008 156.65 58.6008 157.55 57.4008C158.45 56.2008 159.75 52.3008 159.75 52.3008" stroke="#CC6276" stroke-miterlimit="10"/>
<path d="M116.55 51.3017C114.65 33.6017 127.35 17.8017 145.05 15.8017C155.25 14.7017 164.85 18.5017 171.55 25.3017C167.85 9.70166 153.15 -1.09834 136.75 0.701658C119.05 2.60166 106.35 18.5017 108.25 36.2017C109.05 43.7017 112.35 50.2017 117.25 55.2017C116.85 53.9017 116.65 52.6017 116.55 51.3017Z" fill="white" stroke="#CC6276" stroke-miterlimit="10"/>
<path d="M193.227 70.2137C201.189 69.3488 206.85 61.3477 205.872 52.3428C204.893 43.3379 197.646 36.739 189.684 37.6039C181.723 38.4688 176.062 46.4699 177.04 55.4748C178.018 64.4797 185.265 71.0786 193.227 70.2137Z" fill="#F3D9DE" stroke="#CC6276" stroke-miterlimit="10"/>
<path d="M224.85 41.0005C224.85 41.0005 217.05 38.9005 204.45 38.6005C191.85 38.3005 184.35 39.5005 181.95 45.8005C179.55 52.1005 180.05 62.3005 187.85 65.6005C192.15 67.5005 198.55 66.4005 203.25 65.3005C207.85 64.2005 219.25 59.5005 222.85 53.8005C226.45 48.1005 226.55 43.6005 224.85 41.0005Z" fill="white" stroke="#CC6276" stroke-miterlimit="10"/>
<path d="M238.05 50.6006C238.05 50.6006 233.85 43.1006 226.05 41.0006C218.25 38.9006 211.15 44.0006 207.85 49.0006C204.65 54.0006 206.05 55.6006 206.05 55.6006C206.05 55.6006 217.45 49.9006 223.35 48.8006C229.35 47.8006 238.05 50.6006 238.05 50.6006Z" fill="#F3D9DE" stroke="#CC6276" stroke-miterlimit="10"/>
<path d="M205.85 60.7005C205.85 60.7005 204.05 55.4005 211.45 48.6005C218.85 41.8005 232.45 44.2005 236.85 48.8005C241.25 53.4005 240.75 61.4005 237.25 65.3005C233.75 69.2005 230.25 70.4005 230.25 70.4005C230.25 70.4005 223.25 58.7005 205.85 60.7005Z" fill="white" stroke="#CC6276" stroke-miterlimit="10"/>
<path d="M199.65 71.1003C199.65 71.1003 202.45 63.6003 205.85 60.8003C209.15 57.9003 219.15 56.7003 226.55 59.3003C233.95 61.9003 232.65 70.4003 231.25 73.1003C229.85 75.8003 225.65 77.9003 225.65 77.9003L199.65 71.1003Z" fill="white" stroke="#CC6276" stroke-miterlimit="10"/>
<path d="M200.55 69.7998C200.55 69.7998 199.05 70.0998 197.55 71.6998C196.05 73.2998 195.55 73.9998 192.55 75.6998C189.55 77.3998 186.35 77.4998 187.45 80.6998C188.65 83.8998 193.05 83.4998 195.25 82.8998C197.45 82.3998 198.35 81.5998 200.05 80.2998C201.75 78.9998 202.95 69.9998 203.05 69.5998C203.15 69.2998 200.55 69.7998 200.55 69.7998Z" fill="white" stroke="#CC6276" stroke-miterlimit="10"/>
<path d="M208.45 66.8992C208.45 66.8992 203.95 65.7992 201.85 67.5992C199.65 69.3992 199.85 76.1992 200.05 80.3992C200.25 84.5992 201.75 87.8992 203.35 88.4992C204.95 88.9992 206.55 88.6992 207.25 88.0992C207.85 87.4992 207.25 81.3992 207.65 76.3992C207.95 71.3992 208.45 66.8992 208.45 66.8992Z" fill="white" stroke="#CC6276" stroke-miterlimit="10"/>
<path d="M208.45 66.8999C208.45 66.8999 206.45 71.6999 205.85 76.6999C205.25 81.6999 207.95 88.3999 209.05 88.9999C210.05 89.5999 213.05 89.3999 213.65 87.8999C214.35 86.3999 213.85 81.3999 213.95 78.4999C214.05 75.5999 215.45 69.1999 215.25 67.2999C215.05 65.2999 210.65 65.0999 208.45 66.8999Z" fill="white" stroke="#CC6276" stroke-miterlimit="10"/>
<path d="M215.25 67.3001C215.25 67.3001 217.95 66.0001 219.85 67.1001C221.75 68.2001 222.25 71.0001 221.95 72.5001C221.65 73.9001 220.75 82.4001 220.15 84.5001C219.55 86.5001 217.95 87.5001 216.65 87.4001C215.35 87.3001 214.55 85.7001 214.35 83.9001C214.15 82.1001 213.95 78.6001 213.95 78.6001L215.25 67.3001Z" fill="white" stroke="#CC6276" stroke-miterlimit="10"/>
<path d="M221.95 69.8008C221.95 69.8008 225.55 70.7008 226.65 71.4008C227.75 72.1008 228.15 74.5008 227.35 78.0008C226.65 81.6008 225.55 83.7008 223.95 83.8008C222.25 84.0008 220.95 81.9008 220.95 80.6008C220.85 79.4008 222.25 72.7008 221.95 69.8008Z" fill="white" stroke="#CC6276" stroke-miterlimit="10"/>
<path d="M172.705 82.635C175.946 80.6294 176.758 76.0722 174.52 72.4562C172.282 68.8403 167.841 67.5348 164.6 69.5404C161.36 71.546 160.548 76.1032 162.786 79.7192C165.024 83.3352 169.465 84.6406 172.705 82.635Z" fill="#F3D9DE" stroke="#CC6276" stroke-miterlimit="10"/>
<path d="M155.468 91.8015C157.722 90.4063 158.277 87.2195 156.707 84.6837C155.137 82.1478 152.038 81.2231 149.784 82.6183C147.529 84.0135 146.975 87.2003 148.544 89.7361C150.114 92.272 153.214 93.1967 155.468 91.8015Z" fill="#CC6276"/>
<path d="M169.974 97.905C172.229 96.5098 172.783 93.3231 171.214 90.7872C169.644 88.2513 166.545 87.3266 164.29 88.7218C162.036 90.117 161.481 93.3038 163.051 95.8397C164.621 98.3756 167.72 99.3002 169.974 97.905Z" fill="#F3D9DE" stroke="#CC6276" stroke-miterlimit="10"/>
</g>
<defs>
<clipPath id="clip0_955_65826">
<rect width="369.1" height="285" fill="white" transform="translate(0.450195)"/>
</clipPath>
</defs>
</svg>
