<svg width="206" height="236" viewBox="0 0 206 236" fill="none" xmlns="http://www.w3.org/2000/svg">
<g clip-path="url(#clip0_958_65217)">
<path d="M157.568 106.436C157.568 106.436 156.128 104.196 150.096 99.916C121.236 108.029 114.476 145.846 139.996 162.685C142.044 161.207 144.793 159.062 146.868 157.47C121.957 141.997 133.053 109.314 157.568 106.436Z" fill="#F3D9DE"/>
<path d="M148.855 98.997C127.441 83.1695 103.29 82.2647 87.9618 91.4076H87.9254C83.8775 93.6212 80.2796 96.5728 77.3174 100.11C77.8036 101.945 78.5654 104.4 78.5654 104.4C94.0484 108.436 102.536 123.462 98.4996 138.943C97.7898 141.667 97.2113 145.267 95.7501 147.672C101.611 158.286 108.471 168.317 116.237 177.629C124.223 173.368 131.904 168.56 139.226 163.238C114.582 146.175 120.347 107.884 148.855 98.997Z" fill="#F3D9DE"/>
<path d="M45.9227 228.367C45.9227 227.617 44.8827 227.535 68.7065 227.535H72.6494C73.7219 227.228 73.7167 229.066 72.6494 228.766C53.7786 228.842 67.8303 228.607 46.7794 228.97C46.6494 228.935 46.0449 229.035 45.9227 228.367ZM69.9493 234.546C69.9727 233.896 70.7605 233.86 70.6305 233.914C80.1699 233.667 88.2403 233.707 88.1103 233.708C88.2704 233.696 88.4291 233.746 88.5531 233.847C88.6772 233.949 88.7568 234.095 88.7753 234.255C88.7939 234.414 88.7498 234.575 88.6525 234.703C88.5551 234.83 88.412 234.915 88.2533 234.939C87.7021 235.002 83.2002 234.817 70.6877 235.145C70.5105 235.162 70.3336 235.109 70.1953 234.997C70.0571 234.885 69.9687 234.723 69.9493 234.546Z" fill="#D0D5DD"/>
<path d="M124.947 218.89C122.273 218.84 119.698 217.863 117.663 216.127C115.628 214.391 114.258 212.002 113.788 209.369C112.078 194.393 110.928 192.1 115.478 186.979C116.785 185.652 118.478 184.772 120.315 184.465C122.152 184.159 124.039 184.441 125.706 185.272C129.534 187.209 137.861 190.732 145.206 193.852C158.758 199.598 164.281 201.088 164.249 207.074C164.639 211.845 159.736 214.614 156.115 215.054C139.445 217.088 149.044 216.471 124.947 218.89ZM116.381 187.82C112.146 192.586 113.391 194.648 115.015 209.23C115.443 211.585 116.681 213.717 118.514 215.256C120.348 216.794 122.663 217.643 125.056 217.655C130.453 217.595 147.181 214.898 155.972 213.828C158.434 213.529 163.401 211.502 163.028 207.15C162.717 206.63 164.198 203.57 157.372 200.468C142.48 193.696 130.798 189.225 125.164 186.372C123.734 185.662 122.116 185.42 120.54 185.681C118.964 185.941 117.51 186.691 116.384 187.824L116.381 187.82ZM185.331 177.736C183.543 179.726 181.12 181.034 178.476 181.437C175.831 181.84 173.129 181.313 170.829 179.946C166.866 177.241 162.239 173.872 159.864 172.386C153.893 168.7 152.785 158.346 160.429 155.156C164.64 153.417 192.262 139.985 192.132 140.042C194.548 138.969 198.586 137.171 202.142 140.286C206.003 143.116 204.883 148.633 202.848 151.657C197.851 159.146 187.443 175.711 185.331 177.736ZM158.079 158.296C154.412 162.513 156.737 169.016 160.496 171.341C162.836 172.786 167.091 175.902 171.522 178.929C173.583 180.147 176.006 180.605 178.369 180.226C180.733 179.846 182.889 178.651 184.465 176.849C187.888 172.81 197.325 157.635 201.817 150.968C203.205 148.916 204.919 143.825 201.387 141.262H201.342C197.702 138.053 194.287 140.265 180.215 147.169C158.184 157.988 159.765 156.356 158.079 158.296Z" fill="#E5B1BB"/>
<path d="M3.14341 92.3341C5.35341 92.4524 5.85131 91.7387 4.71511 89.8277C4.57464 89.655 4.47127 89.4552 4.41143 89.2407C4.35159 89.0262 4.33657 88.8018 4.36731 88.5812C4.39804 88.3607 4.47387 88.1489 4.59007 87.959C4.70627 87.769 4.86036 87.6051 5.04271 87.4773C7.26608 85.4698 9.9831 84.0893 12.9155 83.4772C14.0959 83.0495 14.2272 84.5172 14.5522 85.1672C15.2906 86.6804 16.1317 86.7506 17.0508 85.3843C18.33 83.485 18.8591 83.2926 20.9599 84.252C23.097 85.2541 25.0186 86.6627 26.6175 88.399C28.7508 90.6818 24.7975 90.7052 26.1326 92.7839C27.1297 94.366 29.1577 91.5853 29.7882 94.2529C30.3537 95.2331 29.9351 100.541 29.5282 101.793C28.9003 103.753 29.1668 104.077 27.1362 104.16C25.3318 104.233 24.9262 104.767 25.9064 106.24C26.1079 106.454 26.2581 106.711 26.3457 106.992C26.4333 107.272 26.456 107.569 26.412 107.859C26.3681 108.15 26.2586 108.427 26.092 108.669C25.9253 108.911 25.7058 109.112 25.4501 109.256C23.2931 110.899 20.8433 112.118 18.2312 112.846C15.6624 113.637 16.991 110.177 14.7966 110.246C12.8687 110.307 13.9373 113.719 11.3178 112.586C8.63273 111.525 6.16911 109.973 4.05341 108.008C2.65591 106.65 4.04561 106.127 4.52921 105.342C5.27151 104.065 4.88151 103.291 3.42161 103.132C1.16481 102.872 0.734505 102.612 0.611005 100.544C0.368406 98.2885 0.524177 96.0083 1.07121 93.807C1.38321 92.7436 1.65101 91.6243 3.14341 92.3341ZM28.6429 97.369C28.6715 95.0472 28.6429 95.029 26.4732 94.9406C25.0913 94.8873 23.5612 92.3276 24.1969 91.1329C25.2304 89.2011 25.2369 89.1829 23.6145 87.9583C19.0528 84.4483 19.0853 85.1217 18.1246 86.748C17.8746 87.1021 17.5485 87.3958 17.1704 87.6077C16.7922 87.8195 16.3714 87.9442 15.9389 87.9724C15.5063 88.0007 15.0729 87.932 14.6704 87.7712C14.2678 87.6104 13.9063 87.3616 13.6123 87.0431C12.259 84.9917 12.2304 84.9917 10.1621 85.9433C2.26721 89.9083 9.10781 89.4299 6.71321 92.3809C6.09701 93.1349 5.78111 94.2503 4.5032 93.9968C2.8132 93.664 2.63251 94.6364 2.45181 95.9702C2.11641 98.4194 1.8499 101.636 4.3225 101.636C5.86821 101.636 7.16951 104.281 6.49221 105.454C6.15161 106.045 5.20781 106.382 5.53671 107.243C5.97351 108.393 9.02981 109.96 10.1764 110.409C11.323 110.859 12.0588 111.022 12.7192 109.557C13.3354 108.194 16.3085 108.281 17.1249 109.486C18.3846 111.345 18.356 111.306 20.5049 110.451C28.8574 106.655 21.4838 107.016 24.0045 104.089C24.7026 103.268 24.895 101.729 26.6045 102.41C28.3192 103.096 28.1463 100.879 28.6429 97.369Z" fill="#D88998"/>
<path d="M6.58982 98.2803C6.58043 97.1228 6.79912 95.9749 7.23339 94.9019C7.66766 93.829 8.30901 92.852 9.12082 92.0269C9.93264 91.2018 10.899 90.5447 11.9648 90.0931C13.0306 89.6415 14.1749 89.4042 15.3323 89.3948C16.4898 89.3854 17.6378 89.6041 18.7107 90.0384C19.7837 90.4727 20.7606 91.114 21.5857 91.9258C22.4108 92.7376 23.0679 93.704 23.5195 94.7698C23.9712 95.8356 24.2084 96.9798 24.2178 98.1373C24.5506 109.936 6.37272 109.905 6.58982 98.2803ZM15.3765 91.0315C9.26652 91.1212 5.75652 98.7535 10.2077 103.289C14.7057 107.664 22.7696 104.631 22.5577 98.1373C22.4865 96.2733 21.715 94.5048 20.3971 93.1847C19.0792 91.8646 17.3119 91.0902 15.448 91.0159L15.3765 91.0315Z" fill="#D88998"/>
<path d="M161.376 34.4759C159.755 35.198 158.074 35.7787 156.352 36.2114L159.551 46.2461C161.535 53.1361 151.318 56.3861 148.955 49.6261L145.756 39.5914L140.693 41.2099L144.056 51.762C144.49 53.1228 145.188 54.3848 146.109 55.4761C147.031 56.5673 148.158 57.4664 149.427 58.1219C151.99 59.4459 154.973 59.6976 157.721 58.8216C159.082 58.3879 160.344 57.6904 161.436 56.769C162.527 55.8475 163.426 54.7202 164.081 53.4513C164.737 52.1824 165.136 50.7968 165.256 49.3736C165.376 47.9504 165.215 46.5175 164.781 45.1567C164.739 45.0176 161.334 34.3407 161.376 34.4759ZM81.5954 196.348C85.5292 195.409 87.2374 198.273 95.6419 202.99L98.5669 198.285L88.5686 192.074C85.9648 190.471 82.8322 189.966 79.8565 190.668C76.8808 191.37 74.3045 193.222 72.6915 195.819C71.0786 198.417 70.5604 201.547 71.2504 204.526C71.9405 207.504 73.7825 210.088 76.3733 211.711L86.4769 217.988C87.282 216.321 88.2233 214.724 89.2914 213.213L79.8014 207.306C78.7948 206.676 77.9971 205.762 77.5086 204.679C77.0201 203.597 76.8627 202.394 77.0561 201.222C77.2495 200.051 77.7852 198.962 78.5957 198.094C79.4062 197.226 80.4553 196.617 81.611 196.344L81.5954 196.348Z" fill="#F3D9DE"/>
<path d="M191.117 48.207C190.106 48.207 189.119 48.5066 188.279 49.0678C187.439 49.6291 186.784 50.4268 186.398 51.3601C186.011 52.2934 185.91 53.3204 186.107 54.3112C186.304 55.302 186.79 56.2121 187.505 56.9264C188.219 57.6407 189.129 58.1272 190.12 58.3243C191.111 58.5214 192.138 58.4202 193.071 58.0336C194.004 57.647 194.802 56.9924 195.363 56.1524C195.925 55.3125 196.224 54.3249 196.224 53.3147C196.224 51.9601 195.686 50.6609 194.728 49.703C193.77 48.7452 192.471 48.207 191.117 48.207ZM191.092 57.3473C190.017 57.348 188.987 56.9222 188.226 56.1633C187.466 55.4045 187.038 54.3748 187.036 53.3004C187.036 47.9431 195.145 47.934 195.143 53.3004C195.14 54.3741 194.712 55.403 193.952 56.1617C193.192 56.9203 192.163 57.3466 191.089 57.3473H191.092Z" fill="#D88998"/>
<path d="M199.389 53.2525C198.532 52.4361 198.739 52.0916 199.467 51.3415C200.493 50.269 200.106 48.9651 197.223 48.9625C197.171 48.7031 197.145 48.4393 197.145 48.1747C197.556 45.8776 197.231 45.5617 195.036 46.1519C194.216 46.369 193.978 46.0817 193.674 45.3316C193.014 43.7352 192.234 43.6078 191.082 44.9663C190.454 45.7008 190.138 45.7333 189.346 45.2263C186.13 43.1346 187.656 47.3791 185.618 47.3063C181.364 47.1542 185.507 49.9921 183.102 51.0854C179.612 52.6181 184.64 53.1823 182.98 55.4625C182.07 56.6923 182.33 57.3488 183.858 57.6036C184.973 57.7882 185.141 58.0911 184.982 59.1636C184.731 60.8536 185.552 61.5036 187.009 60.8042C189.519 59.6147 188.561 64.4312 191.348 61.6869C191.887 61.1539 192.193 60.8913 192.895 61.4113C194.684 62.7451 194.947 62.6424 195.356 60.4025C195.541 59.434 195.857 59.2741 196.801 59.4678C198.654 59.8448 199.225 59.135 198.483 57.4164C198.182 56.7274 197.978 56.3764 198.892 55.9929C200.702 55.2051 200.818 54.6136 199.389 53.2525ZM191.114 59.6485C189.861 59.648 188.636 59.2759 187.595 58.5793C186.553 57.8826 185.741 56.8927 185.262 55.7347C184.783 54.5767 184.658 53.3027 184.903 52.0737C185.148 50.8447 185.752 49.7159 186.638 48.8301C187.525 47.9444 188.654 47.3414 189.883 47.0974C191.113 46.8534 192.386 46.9794 193.544 47.4595C194.702 47.9395 195.691 48.752 196.387 49.7943C197.083 50.8366 197.454 52.0618 197.453 53.3149C197.453 54.1469 197.289 54.9707 196.971 55.7393C196.652 56.5079 196.186 57.2062 195.597 57.7944C195.009 58.3826 194.31 58.849 193.541 59.1672C192.773 59.4853 191.949 59.6489 191.117 59.6485H191.114Z" fill="#D88998"/>
<path d="M31.1581 142.366C31.0646 142.273 30.992 142.162 30.9453 142.039C30.8986 141.915 30.8788 141.784 30.8873 141.652C30.8958 141.521 30.9324 141.393 30.9946 141.277C31.0568 141.161 31.1431 141.06 31.2478 140.98C32.0278 140.102 32.1058 138.982 30.9982 138.548C30.0297 138.165 29.5994 138.015 29.5422 136.795C29.5123 135.667 29.3771 134.675 27.1788 135.729C26.4274 136.16 26.235 135.803 25.8866 135.257C24.857 133.636 24.5866 133.567 23.2281 134.9C22.5924 135.524 22.4078 135.459 21.7721 134.9C20.6229 133.86 19.5894 134.161 19.3099 135.606C19.1253 136.607 19.2618 137.288 17.772 136.894C16.4434 136.542 15.9091 137.305 16.2913 138.818C16.4928 139.638 16.6189 140.015 15.7206 140.516C12.4381 142.336 16.6553 142.891 16.2666 143.839C15.7375 144.786 13.8668 146.248 16.1275 146.9C17.4938 147.178 17.6875 147.749 17.6121 148.88C17.6121 151.143 19.4555 149.218 20.5163 149.968C21.2014 150.452 21.009 151.658 22.2154 151.839C23.5076 152.031 23.4049 150.608 24.2174 150.366C25.1885 150.092 25.5499 151.782 26.8343 151.137C27.8847 150.608 27.535 149.496 28.1512 148.95C28.7674 148.404 29.7593 149.361 30.5718 148.43C31.5845 147.294 30.0258 146.322 30.2507 145.787C30.5016 145.08 33.7594 145.08 31.1581 142.366ZM23.3581 149.247C20.8226 149.244 18.3918 148.235 16.6001 146.441C14.8084 144.647 13.8026 142.215 13.8037 139.68C13.8048 137.144 14.8128 134.713 16.6061 132.92C18.3993 131.128 20.831 130.121 23.3665 130.121C25.902 130.121 28.3337 131.128 30.1269 132.92C31.9202 134.713 32.9282 137.144 32.9293 139.68C32.9304 142.215 31.9246 144.647 30.1329 146.441C28.3412 148.235 25.9104 149.244 23.375 149.247H23.3581Z" fill="#D0D5DD"/>
<path d="M23.3805 137.799C22.3702 137.799 21.3826 138.098 20.5424 138.659C19.7023 139.22 19.0474 140.018 18.6607 140.951C18.2739 141.884 18.1725 142.911 18.3695 143.902C18.5664 144.893 19.0528 145.803 19.767 146.518C20.4813 147.232 21.3914 147.719 22.3822 147.916C23.3731 148.113 24.4001 148.012 25.3335 147.626C26.2669 147.239 27.0647 146.584 27.626 145.744C28.1873 144.904 28.4869 143.917 28.4869 142.907C28.4871 142.236 28.3551 141.572 28.0986 140.952C27.842 140.332 27.4659 139.769 26.9917 139.295C26.5175 138.821 25.9545 138.444 25.3349 138.188C24.7153 137.931 24.0512 137.799 23.3805 137.799ZM19.3271 142.903C19.3271 137.544 27.4339 137.536 27.4339 142.903C27.4339 148.269 19.3271 148.308 19.3271 142.903Z" fill="#D0D5DD"/>
<path d="M160.437 206.382C160.214 205.415 159.759 204.517 159.111 203.766C158.463 203.016 157.641 202.434 156.718 202.072C129.497 190.129 133.037 192.377 124.608 188.422C119.408 185.982 114.598 191.749 115.705 197.486C116.095 199.773 116.485 204.024 116.99 208.146C117.351 210.28 118.497 212.202 120.202 213.536C121.908 214.869 124.05 215.516 126.208 215.352C131.206 214.91 146.782 213.142 154.486 212.254C156.966 211.995 160.779 210.145 160.437 206.382ZM199.437 142.56C198.548 142.084 197.557 141.831 196.549 141.824C195.542 141.817 194.547 142.056 193.652 142.519C166.228 155.436 170.434 154.158 161.885 157.922C156.569 160.262 157.828 167.793 162.998 170.783C164.86 171.907 168.093 174.268 172.073 176.947C173.944 178.1 176.178 178.51 178.336 178.098C180.494 177.686 182.42 176.481 183.734 174.72C186.696 170.605 195.633 157.53 200.054 151.06C201.481 148.962 202.573 144.793 199.437 142.56Z" fill="#F3D9DE"/>
<path d="M86.2074 115.83C86.4783 115.83 86.7382 115.938 86.9299 116.129C87.1215 116.321 87.2291 116.581 87.2291 116.852C87.2291 117.123 87.1215 117.383 86.9299 117.574C86.7382 117.766 86.4783 117.874 86.2074 117.874C85.9364 117.874 85.6765 117.766 85.4848 117.574C85.2932 117.383 85.1855 117.123 85.1855 116.852C85.1855 116.581 85.2932 116.321 85.4848 116.129C85.6765 115.938 85.9364 115.83 86.2074 115.83ZM116.237 169.302C116.508 169.302 116.768 169.409 116.96 169.601C117.151 169.793 117.259 170.052 117.259 170.323C117.259 170.594 117.151 170.854 116.96 171.046C116.768 171.238 116.508 171.345 116.237 171.345C115.966 171.345 115.706 171.238 115.515 171.046C115.323 170.854 115.216 170.594 115.216 170.323C115.216 170.052 115.323 169.793 115.515 169.601C115.706 169.409 115.966 169.302 116.237 169.302ZM107.691 173.95C107.956 173.96 108.206 174.072 108.39 174.262C108.574 174.453 108.677 174.707 108.677 174.972C108.677 175.236 108.574 175.491 108.39 175.681C108.206 175.872 107.956 175.983 107.691 175.993C107.427 175.983 107.176 175.872 106.992 175.681C106.809 175.491 106.706 175.236 106.706 174.972C106.706 174.707 106.809 174.453 106.992 174.262C107.176 174.072 107.427 173.96 107.691 173.95Z" fill="#94112A"/>
<path d="M54.0242 87.038C55.4203 86.9362 56.7822 86.5574 58.0304 85.9237C59.2785 85.2901 60.3881 84.4143 61.2943 83.3474C62.2005 82.2805 62.8852 81.0438 63.3085 79.7096C63.7319 78.3753 63.8853 76.9701 63.7599 75.5759C63.5325 73.7844 62.8643 72.0773 61.8152 70.6073C60.766 69.1374 59.3687 67.9507 57.7484 67.1533C56.128 66.3559 54.3352 65.9729 52.5305 66.0384C50.7258 66.104 48.9655 66.6161 47.4072 67.5289C47.3631 68.6118 47.3605 69.6959 47.3994 70.7789C48.9917 69.4869 51.0216 68.8601 53.0651 69.0297C55.1086 69.1993 57.0075 70.1521 58.3649 71.6889C63.4778 77.2984 57.8163 84.3691 51.9481 84.4614C52.0794 84.5745 52.6462 85.5066 54.0242 87.038Z" fill="#F3D9DE"/>
<path d="M47.5302 66.2724C48.8732 65.5711 50.343 65.146 51.853 65.0222C53.363 64.8985 54.8824 65.0786 56.3216 65.552C57.7608 66.0253 59.0906 66.7823 60.2323 67.7782C61.374 68.774 62.3046 69.9886 62.969 71.3502C66.6207 78.3546 62.7285 86.1273 55.0741 88.128C58.3421 91.3561 62.4279 93.6329 66.8924 94.7138C69.0582 95.2598 67.8609 94.8906 77.2599 87.231C97.0472 71.1019 100.211 72.9544 100.286 70.2933C100.642 63.8046 98.5826 57.4138 94.5057 52.3533C94.3826 52.7752 94.161 53.1618 93.8593 53.4813C93.5576 53.8009 93.1843 54.0443 92.7702 54.1915H92.7494C92.2908 54.3487 91.7993 54.3845 91.3228 54.2953C90.8463 54.2062 90.4009 53.9953 90.0301 53.683C89.6593 53.3707 89.3757 52.9677 89.2068 52.5132C89.0379 52.0588 88.9896 51.5684 89.0665 51.0897C89.144 50.5448 89.3816 50.0352 89.7491 49.6255C90.1167 49.2159 90.5976 48.9246 91.1309 48.7887C75.3476 34.9307 49.6336 43.8942 47.5068 66.0397V66.2841L47.5302 66.2724ZM82.4716 73.3886L82.0608 72.7646C81.0294 71.1996 80.584 69.3204 80.8033 67.4589C81.0226 65.5974 81.8925 63.8733 83.2594 62.5908C89.0236 57.149 95.5626 62.9808 95.7056 63.0341C85.1665 70.1373 83.1203 72.8361 82.4651 73.3886H82.4716Z" fill="#F3D9DE"/>
<path d="M95.583 148.822C95.1722 148.062 94.0412 145.702 92.2888 142.262C90.4785 144.062 88.1587 145.263 85.6434 145.701C83.1282 146.139 80.539 145.793 78.2267 144.711L70.9883 152.619C72.096 155.519 73.3655 158.354 74.7908 161.112C78.9386 160.687 82.9451 159.368 86.5344 157.246C90.1238 155.125 93.2108 152.25 95.583 148.822Z" fill="#E5B1BB"/>
<path d="M65.2773 15.3724C64.3451 15.3726 63.4316 15.6336 62.64 16.1258C61.8484 16.618 61.2102 17.3218 60.7976 18.1577C60.385 18.9936 60.2144 19.9282 60.3051 20.8559C60.3959 21.7837 60.7443 22.6676 61.311 23.4077C53.4772 30.0065 52.0667 38.6567 59.0048 46.5321C59.3515 46.3007 59.7029 46.0792 60.0591 45.8678C53.4824 38.5124 54.6654 30.6149 62.1716 24.2735C62.7969 24.7699 63.532 25.1094 64.3154 25.2635C65.0988 25.4177 65.9077 25.3821 66.6745 25.1596C67.4412 24.9372 68.1436 24.5344 68.7229 23.9849C69.3021 23.4355 69.7414 22.7553 70.004 22.0013C70.2666 21.2473 70.3448 20.4414 70.2322 19.651C70.1195 18.8606 69.8193 18.1086 69.3565 17.458C68.8938 16.8074 68.282 16.277 67.5723 15.9112C66.8627 15.5454 66.0757 15.3549 65.2773 15.3555V15.3724ZM65.2773 24.1461C64.2774 24.1461 63.3185 23.7489 62.6115 23.0419C61.9045 22.3348 61.5073 21.3759 61.5073 20.3761C61.5073 15.3932 69.0473 15.3841 69.0473 20.3761C69.0473 21.3759 68.6501 22.3348 67.9431 23.0419C67.2361 23.7489 66.2772 24.1461 65.2773 24.1461Z" fill="#94112A"/>
<path d="M92.5289 140.36L92.4379 140.178L92.5289 140.36C93.4319 139.197 94.0967 137.867 94.4853 136.446C94.874 135.026 94.9787 133.543 94.7936 132.082C94.6085 130.621 94.1372 129.211 93.4066 127.932C92.6761 126.653 91.7006 125.531 90.536 124.63C80.994 117.48 67.8016 127.573 73.6542 138.939L75.3728 137.093C74.9439 136.014 74.7326 134.86 74.7512 133.699C74.7698 132.538 75.0178 131.392 75.4811 130.327C75.9443 129.262 76.6136 128.299 77.4504 127.494C78.2872 126.689 79.275 126.057 80.357 125.635C81.3865 125.175 82.4991 124.931 83.6264 124.917C84.7537 124.904 85.8719 125.121 86.9123 125.555C87.9526 125.99 88.8931 126.632 89.6759 127.444C90.4587 128.255 91.0673 129.218 91.4642 130.273C91.936 131.305 92.1933 132.421 92.2206 133.556C92.2479 134.69 92.0445 135.817 91.6228 136.871C91.2011 137.924 90.5698 138.88 89.7674 139.682C88.9649 140.484 88.0079 141.114 86.9545 141.535C85.0332 142.455 82.8431 142.644 80.7925 142.068C78.2081 144.842 79.2325 143.758 79.0648 143.923C81.3816 144.937 83.9734 145.136 86.4182 144.489C88.8629 143.842 91.0167 142.387 92.5289 140.36Z" fill="#E5B1BB"/>
<path d="M74.9714 103.674C75.7631 103.76 76.547 103.879 77.3114 104.026C77.3114 104.026 76.8317 102.325 76.5769 101.389C75.6058 102.693 75.0832 103.513 74.9714 103.674ZM95.5829 148.823C93.2112 152.246 90.1265 155.114 86.5409 157.231C82.9553 159.348 78.9539 160.664 74.8115 161.087C79.5621 170.122 85.8315 178.272 93.3456 185.181C93.681 185.563 94.1319 185.824 94.6296 185.925C95.1272 186.026 95.6442 185.961 96.1016 185.74C102.767 183.572 109.265 180.919 115.543 177.801C108.063 168.739 101.384 159.043 95.5829 148.823Z" fill="#F3D9DE"/>
<path d="M65.2768 12.7129C63.8233 12.7136 62.3999 13.1272 61.1725 13.9057C59.9451 14.6841 58.9641 15.7953 58.3438 17.1098C57.7236 18.4243 57.4896 19.8879 57.6691 21.3303C57.8486 22.7726 58.4343 24.1343 59.3579 25.2566C60.0075 24.5935 60.6909 23.9643 61.4054 23.3716C60.9999 22.8613 60.6999 22.2756 60.5228 21.6484C60.3457 21.0211 60.295 20.365 60.3736 19.718C60.4522 19.071 60.6586 18.4461 60.9808 17.8796C61.303 17.3131 61.7345 16.8162 62.2504 16.4179C63.3045 15.6135 64.6349 15.2606 65.9491 15.4368C67.2633 15.6131 68.4538 16.304 69.2587 17.3578C72.8116 22.0092 66.7679 27.7942 62.1711 24.1451C61.4583 24.7429 60.7783 25.3786 60.134 26.0496C61.6625 27.4051 63.6641 28.1029 65.704 27.9914C67.7439 27.8799 69.6575 26.9682 71.0293 25.4542C71.9968 24.3464 72.6254 22.9837 72.8401 21.5287C73.0548 20.0736 72.8467 18.5874 72.2404 17.2474C71.6342 15.9073 70.6554 14.7698 69.4207 13.9704C68.186 13.1711 66.7476 12.7436 65.2768 12.7389V12.7129Z" fill="#D88998"/>
<path d="M65.2768 16.6016C64.277 16.6016 63.3181 16.9988 62.611 17.7058C61.904 18.4128 61.5068 19.3717 61.5068 20.3716C61.5068 25.3558 69.0468 25.3636 69.0468 20.3716C69.0468 19.3717 68.6496 18.4128 67.9426 17.7058C67.2356 16.9988 66.2767 16.6016 65.2768 16.6016Z" fill="#F3D9DE"/>
<path d="M132.775 134.31C132.774 139.08 133.989 143.771 136.306 147.941C138.623 152.11 141.965 155.62 146.016 158.138C156.819 149.635 164.814 141.94 171.895 130.15C172.367 129.576 172.652 128.871 172.71 128.13C172.768 127.388 172.596 126.647 172.219 126.007C168.355 118.778 163.415 112.179 157.568 106.436C150.738 107.238 144.441 110.52 139.871 115.658C135.301 120.797 132.776 127.434 132.775 134.31Z" fill="#E5B1BB"/>
<path d="M150.096 99.9158C149.686 99.5999 149.266 99.3061 148.855 98.998C119.784 108.015 114.415 146.44 138.942 163.438L140.009 162.677C115.144 145.923 121.659 107.911 150.096 99.9158Z" fill="#E5B1BB"/>
<path d="M138.941 163.437L139.225 163.238L138.941 163.437Z" fill="#F3D9DE"/>
<path d="M49.5159 190.955C48.5056 190.955 47.5181 191.255 46.6781 191.816C45.8381 192.377 45.1834 193.175 44.7969 194.108C44.4103 195.042 44.3093 196.069 44.5064 197.06C44.7036 198.051 45.1902 198.961 45.9047 199.675C46.6191 200.389 47.5294 200.876 48.5202 201.072C49.5111 201.269 50.5382 201.168 51.4714 200.781C52.4047 200.395 53.2023 199.74 53.7634 198.9C54.3245 198.059 54.6239 197.072 54.6236 196.061C54.6236 195.391 54.4915 194.727 54.2348 194.107C53.9781 193.487 53.6018 192.924 53.1275 192.45C52.6532 191.976 52.0901 191.6 51.4704 191.343C50.8508 191.087 50.1866 190.955 49.5159 190.955ZM49.4912 200.094C48.959 200.094 48.4319 199.989 47.9402 199.786C47.4485 199.582 47.0018 199.283 46.6255 198.907C46.2492 198.53 45.9507 198.084 45.7472 197.592C45.5436 197.1 45.4389 196.573 45.4391 196.041C45.4391 190.682 53.5472 190.676 53.5446 196.041C53.5439 197.115 53.1166 198.146 52.3566 198.906C51.5966 199.666 50.566 200.093 49.4912 200.094Z" fill="#D88998"/>
<path d="M57.7901 195.999C56.9347 195.181 57.1466 194.838 57.8681 194.086C58.8938 193.014 58.5077 191.71 55.6243 191.707C55.2629 189.912 56.8827 187.97 53.4377 188.898C52.6174 189.115 52.3795 188.828 52.0753 188.078C51.4149 186.481 50.6362 186.354 49.4831 187.712C48.8552 188.446 48.5393 188.479 47.7476 187.966C44.5301 185.876 46.0576 190.12 44.0192 190.046C41.9808 189.972 41.726 190.255 42.2343 192.183C42.4644 193.053 42.4072 193.414 41.5037 193.825C38.0106 195.358 43.0429 195.919 41.3815 198.202C40.4715 199.432 40.7315 200.088 42.259 200.342C43.3744 200.528 43.5434 200.831 43.3835 201.902C43.1326 203.592 43.9529 204.242 45.4089 203.543C47.9205 202.352 46.9689 207.168 49.7496 204.425C50.2865 203.891 50.5946 203.628 51.2966 204.15C53.0854 205.483 53.348 205.381 53.7575 203.141C53.9421 202.172 54.258 202.012 55.2018 202.205C57.0556 202.582 57.6263 201.872 56.884 200.155C56.5837 199.464 56.3783 199.115 57.2935 198.731C59.1031 197.963 59.2136 197.357 57.7901 195.999ZM49.5156 202.393C48.2624 202.393 47.0376 202.021 45.9959 201.324C44.9542 200.627 44.1424 199.637 43.6633 198.479C43.1842 197.322 43.0593 196.047 43.3043 194.818C43.5493 193.589 44.1532 192.461 45.0397 191.575C45.9262 190.689 47.0554 190.086 48.2846 189.842C49.5138 189.598 50.7878 189.724 51.9454 190.204C53.103 190.684 54.0922 191.497 54.788 192.539C55.4838 193.581 55.8549 194.807 55.8544 196.06C55.8546 196.892 55.6907 197.716 55.3722 198.485C55.0536 199.254 54.5866 199.952 53.9979 200.54C53.4092 201.129 52.7103 201.595 51.9412 201.913C51.1721 202.231 50.3479 202.394 49.5156 202.393Z" fill="#D88998"/>
<path d="M107.69 173.949C107.955 173.959 108.205 174.07 108.389 174.261C108.573 174.451 108.676 174.706 108.676 174.97C108.676 175.235 108.573 175.489 108.389 175.68C108.205 175.87 107.955 175.982 107.69 175.992C107.426 175.982 107.175 175.87 106.992 175.68C106.808 175.489 106.705 175.235 106.705 174.97C106.705 174.706 106.808 174.451 106.992 174.261C107.175 174.07 107.426 173.959 107.69 173.949Z" fill="#94112A"/>
<path d="M96.1115 147.668C98.4754 143.792 99.8986 139.416 100.267 134.892C100.636 130.367 99.939 125.819 98.2333 121.612C96.5277 117.405 93.8602 113.656 90.4448 110.665C87.0293 107.675 82.9609 105.526 78.5654 104.391C80.206 110.134 82.1859 115.741 84.2373 121.21C86.4892 121.434 88.6408 122.253 90.4709 123.585C92.301 124.916 93.7435 126.71 94.6501 128.784C95.5567 130.857 95.8946 133.135 95.6292 135.382C95.3637 137.629 94.5045 139.765 93.1397 141.571L96.1115 147.668ZM86.2068 117.879C85.9358 117.879 85.6759 117.772 85.4843 117.58C85.2927 117.389 85.185 117.129 85.185 116.858C85.185 116.587 85.2927 116.327 85.4843 116.135C85.6759 115.943 85.9358 115.836 86.2068 115.836C86.4778 115.836 86.7377 115.943 86.9293 116.135C87.121 116.327 87.2286 116.587 87.2286 116.858C87.2286 117.129 87.121 117.389 86.9293 117.58C86.7377 117.772 86.4778 117.879 86.2068 117.879Z" fill="#E5B1BB"/>
<path d="M82.0547 72.7647C83.1259 74.3897 79.9994 73.6201 95.7047 63.0342C95.5746 62.9835 89.0344 57.1387 83.2585 62.5909C81.8907 63.8727 81.0198 65.5965 80.7995 67.458C80.5793 69.3196 81.0238 71.1991 82.0547 72.7647ZM93.5506 62.9991C89.7048 65.5044 86.0744 68.3256 82.6968 71.4335C79.608 65.3235 86.7594 58.3997 93.5506 62.9991ZM69.6657 61.9617C70.2231 61.9614 70.7682 62.1265 71.2318 62.436C71.6955 62.7456 72.0569 63.1856 72.2704 63.7006C72.484 64.2156 72.54 64.7823 72.4314 65.3291C72.3228 65.8759 72.0544 66.3782 71.6603 66.7725C71.2662 67.1668 70.764 67.4354 70.2173 67.5442C69.6705 67.6531 69.1038 67.5973 68.5887 67.3841C68.0736 67.1708 67.6334 66.8095 67.3236 66.346C67.0139 65.8825 66.8486 65.3376 66.8486 64.7801C66.8484 64.41 66.9211 64.0436 67.0626 63.7016C67.2041 63.3597 67.4116 63.049 67.6732 62.7872C67.9348 62.5255 68.2454 62.3179 68.5873 62.1762C68.9292 62.0346 69.2956 61.9617 69.6657 61.9617ZM91.7968 48.7277C92.5337 48.7435 93.235 49.0473 93.7505 49.574C94.266 50.1007 94.5547 50.8084 94.5547 51.5454C94.5547 52.2824 94.266 52.9901 93.7505 53.5168C93.235 54.0435 92.5337 54.3473 91.7968 54.3632C91.06 54.3473 90.3587 54.0435 89.8432 53.5168C89.3277 52.9901 89.039 52.2824 89.039 51.5454C89.039 50.8084 89.3277 50.1007 89.8432 49.574C90.3587 49.0473 91.06 48.7435 91.7968 48.7277ZM62.1426 54.631C62.1849 54.5619 62.2131 54.4852 62.2256 54.4052C62.2381 54.3251 62.2347 54.2435 62.2155 54.1648C62.1962 54.0861 62.1616 54.012 62.1137 53.9468C62.0657 53.8815 62.0052 53.8264 61.9359 53.7847C60.5657 52.9553 58.6196 58.3347 60.1367 63.9546C60.1832 64.1076 60.2874 64.2365 60.4273 64.3141C60.5672 64.3916 60.7317 64.4118 60.8862 64.3703C61.0406 64.3287 61.1729 64.2288 61.255 64.0915C61.3371 63.9543 61.3626 63.7905 61.3262 63.6348C60.8434 62.1572 60.6668 60.5968 60.8072 59.0488C60.9476 57.5008 61.4019 55.9976 62.1426 54.631ZM86.5721 41.6674C94.454 40.9082 95.1742 45.2411 96.1492 43.828C96.2258 43.7171 96.2638 43.5842 96.2575 43.4496C96.2512 43.315 96.2008 43.1862 96.1142 43.0831C93.5571 40.7327 89.9067 40.1282 86.4201 40.4454C86.3374 40.4523 86.2569 40.476 86.1836 40.5148C86.1103 40.5536 86.0455 40.6068 85.9932 40.6713C85.941 40.7357 85.9023 40.81 85.8794 40.8898C85.8566 40.9696 85.8501 41.0532 85.8604 41.1355C85.8706 41.2178 85.8974 41.2973 85.9391 41.369C85.9808 41.4408 86.0365 41.5033 86.103 41.553C86.1695 41.6027 86.2453 41.6384 86.3259 41.6581C86.4065 41.6777 86.4903 41.6809 86.5721 41.6674ZM79.3442 118.261C79.5072 118.472 79.5815 118.738 79.5511 119.002C79.5207 119.267 79.3882 119.51 79.1816 119.678C78.9751 119.846 78.7109 119.927 78.4455 119.904C78.1801 119.88 77.9344 119.754 77.7607 119.552C77.5977 119.341 77.5234 119.075 77.5538 118.81C77.5841 118.545 77.7167 118.303 77.9233 118.134C78.1298 117.966 78.394 117.885 78.6594 117.909C78.9248 117.932 79.1705 118.059 79.3442 118.261ZM72.0135 9.85767C72.0865 9.89256 72.1656 9.91263 72.2464 9.91673C72.3272 9.92083 72.4081 9.90887 72.4842 9.88155C72.5604 9.85424 72.6304 9.81209 72.6901 9.75757C72.7499 9.70304 72.7983 9.63721 72.8325 9.56387C75.7276 3.19387 76.8092 2.25917 75.8576 1.76387C75.782 1.72426 75.699 1.70077 75.6139 1.69489C75.5288 1.689 75.4434 1.70086 75.3631 1.7297C75.2828 1.75854 75.2094 1.80374 75.1475 1.86243C75.0856 1.92113 75.0365 1.99204 75.0034 2.07067C72.4268 8.14817 70.9969 9.37797 72.0135 9.85767ZM74.6707 13.2052C74.7141 13.2734 74.7706 13.3324 74.837 13.3786C74.9033 13.4249 74.9782 13.4576 75.0573 13.4747C75.1363 13.4919 75.218 13.4932 75.2976 13.4786C75.3771 13.4641 75.453 13.4339 75.5209 13.3898C81.5243 9.41437 82.7554 9.29737 82.2354 8.38737C82.1924 8.31259 82.1343 8.24763 82.0647 8.19667C81.9951 8.14572 81.9156 8.1099 81.8314 8.09153C81.7471 8.07316 81.66 8.07265 81.5755 8.09001C81.491 8.10738 81.4111 8.14225 81.3409 8.19237C75.9004 12.03 74.0558 12.2484 74.6707 13.2052ZM67.0409 8.33667C67.0644 8.49993 67.1517 8.64718 67.2837 8.74604C67.4158 8.8449 67.5816 8.88727 67.7449 8.86382C67.9082 8.84038 68.0554 8.75304 68.1543 8.62102C68.2531 8.48901 68.2955 8.32313 68.272 8.15987L67.1593 0.534072C67.1478 0.453216 67.1205 0.375416 67.0789 0.305119C67.0373 0.234823 66.9823 0.173409 66.917 0.12439C66.8517 0.0753711 66.7773 0.0397082 66.6982 0.0194406C66.6191 -0.000827084 66.5368 -0.00530174 66.456 0.00627226C65.3133 0.171372 66.1868 1.67547 67.0409 8.33667ZM60.0587 45.8677C53.482 38.5123 54.665 30.6148 62.1712 24.2734C63.1753 25.0712 64.4458 25.4559 65.7239 25.3493C67.0019 25.2426 68.1911 24.6525 69.049 23.6993C69.907 22.7461 70.3691 21.5015 70.3411 20.2194C70.3132 18.9372 69.7973 17.714 68.8986 16.7991C67.9998 15.8842 66.786 15.3465 65.5046 15.2957C64.2231 15.2448 62.9705 15.6846 62.0022 16.5254C61.0338 17.3662 60.4226 18.5447 60.2931 19.8206C60.1636 21.0965 60.5256 22.3738 61.3054 23.392C53.4716 29.9895 52.0624 38.6397 59.0005 46.5164C59.3506 46.2919 59.7033 46.0757 60.0587 45.8677ZM65.2769 16.6021C66.2767 16.6021 67.2356 16.9993 67.9426 17.7063C68.6497 18.4133 69.0468 19.3722 69.0468 20.3721C69.0468 25.3576 61.5069 25.3628 61.5069 20.3721C61.5069 19.3722 61.904 18.4133 62.6111 17.7063C63.3181 16.9993 64.277 16.6021 65.2769 16.6021ZM86.2069 115.83C86.4778 115.83 86.7377 115.937 86.9294 116.129C87.121 116.321 87.2286 116.581 87.2286 116.852C87.2286 117.123 87.121 117.382 86.9294 117.574C86.7377 117.766 86.4778 117.873 86.2069 117.873C85.9359 117.873 85.676 117.766 85.4843 117.574C85.2927 117.382 85.185 117.123 85.185 116.852C85.185 116.581 85.2927 116.321 85.4843 116.129C85.676 115.937 85.9359 115.83 86.2069 115.83ZM116.237 169.301C116.508 169.301 116.768 169.409 116.959 169.601C117.151 169.792 117.259 170.052 117.259 170.323C117.259 170.594 117.151 170.854 116.959 171.046C116.768 171.237 116.508 171.345 116.237 171.345C115.966 171.345 115.706 171.237 115.514 171.046C115.323 170.854 115.215 170.594 115.215 170.323C115.215 170.052 115.323 169.792 115.514 169.601C115.706 169.409 115.966 169.301 116.237 169.301ZM107.691 173.95C107.955 173.96 108.206 174.071 108.389 174.262C108.573 174.452 108.676 174.707 108.676 174.971C108.676 175.236 108.573 175.49 108.389 175.681C108.206 175.871 107.955 175.983 107.691 175.992C107.426 175.983 107.176 175.871 106.992 175.681C106.808 175.49 106.705 175.236 106.705 174.971C106.705 174.707 106.808 174.452 106.992 174.262C107.176 174.071 107.426 173.96 107.691 173.95Z" fill="#94112A"/>
<path d="M82.9245 121.218C75.7966 102.026 79.8045 104.175 74.9711 103.668C71.1042 109.639 68.5335 116.355 67.4255 123.382C66.3175 130.408 66.6967 137.59 68.5387 144.461L72.8781 139.887C71.8102 138.041 71.2343 135.951 71.2055 133.818C71.1767 131.685 71.696 129.581 72.7136 127.706C73.7313 125.832 75.2133 124.25 77.0175 123.112C78.8218 121.975 80.888 121.319 83.0181 121.209L82.9245 121.218ZM78.5526 117.877C78.824 117.877 79.0842 117.985 79.2761 118.177C79.4679 118.368 79.5757 118.629 79.5757 118.9C79.5757 119.171 79.4679 119.432 79.2761 119.623C79.0842 119.815 78.824 119.923 78.5526 119.923C78.2813 119.923 78.021 119.815 77.8292 119.623C77.6373 119.432 77.5295 119.171 77.5295 118.9C77.5295 118.629 77.6373 118.368 77.8292 118.177C78.021 117.985 78.2813 117.877 78.5526 117.877ZM64.653 76.6111C64.6505 74.5963 64.1289 72.6161 63.1386 70.8615C62.1483 69.1069 60.7227 67.6371 58.9991 66.5936C57.2756 65.5502 55.3123 64.9684 53.2985 64.9044C51.2848 64.8403 49.2885 65.2962 47.5021 66.228C47.4553 66.7259 47.4293 67.2173 47.4072 67.7009C49.7692 66.2834 52.5941 65.8523 55.2713 66.5007C57.9486 67.1492 60.2632 68.8251 61.7148 71.1663C63.1664 73.5074 63.6384 76.3258 63.0288 79.0122C62.4193 81.6985 60.7771 84.0372 58.4572 85.5226C54.3895 88.0446 52.8828 85.9672 55.0694 88.1226C57.7583 87.6219 60.1876 86.1974 61.9376 84.0954C63.6875 81.9935 64.648 79.3461 64.653 76.6111Z" fill="#E5B1BB"/>
<path d="M47.4277 70.7931C47.8177 77.7962 49.8119 81.5012 51.9608 84.4899C53.2704 84.6202 54.5917 84.4212 55.8047 83.9109C57.0177 83.4007 58.084 82.5953 58.9066 81.568C59.7291 80.5408 60.2819 79.3243 60.5146 78.029C60.7474 76.7338 60.6527 75.4009 60.2392 74.1515C59.8257 72.9022 59.1066 71.776 58.1471 70.8753C57.1876 69.9747 56.0182 69.3281 54.7452 68.9944C53.4722 68.6607 52.136 68.6505 50.8581 68.9646C49.5801 69.2787 48.4009 69.9073 47.4277 70.7931Z" fill="#E5B1BB"/>
<path d="M169.344 94.249C177.251 94.249 178.824 82.9585 171.181 80.8317L161.032 57.082C160.7 57.3365 160.352 57.5709 159.992 57.784L169.75 80.599C168.279 80.5194 166.821 80.9135 165.59 81.7235L155.97 59.2335C155.542 59.2951 155.11 59.3307 154.678 59.3401L164.597 82.5165C163.871 83.2151 163.309 84.0662 162.952 85.0085C162.595 85.9508 162.452 86.9606 162.534 87.9648L149.55 97.9748C104.123 64.4348 55.8647 96.0352 67.5205 145.541L54.8117 159.176C53.8834 158.887 52.9042 158.8 51.9395 158.92C50.9747 159.04 50.0466 159.364 49.2172 159.871C48.3877 160.378 47.6759 161.056 47.1294 161.86C46.5829 162.664 46.2142 163.575 46.048 164.533C45.8817 165.491 45.9217 166.473 46.1653 167.414C46.4089 168.355 46.8505 169.234 47.4606 169.991C48.0706 170.747 48.8352 171.365 49.7031 171.803C50.5711 172.241 51.5225 172.489 52.4938 172.53L71.5609 198.075C71.7176 197.624 71.903 197.185 72.116 196.758L53.9667 172.439C55.6962 172.132 57.2412 171.171 58.2814 169.756L75.4297 192.729C75.756 192.479 76.0958 192.246 76.4476 192.032L58.9626 168.609C59.5186 167.454 59.7281 166.163 59.5658 164.892L70.0867 153.595C75.0482 165.959 82.7156 177.054 92.526 186.067C92.8407 186.407 93.2211 186.681 93.6443 186.87C94.0674 187.06 94.5245 187.162 94.9882 187.17C98.1706 187.182 127.731 176.617 155.748 151.558C162.482 145.529 168.275 138.525 172.934 130.779C173.516 130.018 173.859 129.101 173.921 128.145C173.983 127.188 173.761 126.235 173.282 125.405C168.61 116.65 162.381 108.821 154.9 102.301L166.287 93.5197C167.235 93.9991 168.282 94.2489 169.344 94.249ZM76.5867 101.387C78.4197 108.186 80.5335 114.796 82.9281 121.216C80.7972 121.326 78.7302 121.98 76.925 123.118C75.1197 124.255 73.6368 125.837 72.6182 127.712C71.5996 129.586 71.0794 131.691 71.1076 133.825C71.1357 135.958 71.7112 138.049 72.779 139.896L68.5384 144.446C64.6982 127.204 68.6567 111.829 76.5867 101.387ZM79.0762 143.916L80.8039 142.062C82.7285 142.689 84.8096 142.638 86.7013 141.918C88.5931 141.198 90.1816 139.853 91.2027 138.105C92.2239 136.357 92.6162 134.313 92.3146 132.312C92.0129 130.31 91.0353 128.472 89.5444 127.103C88.0535 125.734 86.139 124.917 84.1191 124.786C82.0992 124.656 80.0956 125.221 78.4413 126.387C76.7869 127.554 75.5815 129.251 75.0254 131.197C74.4692 133.143 74.5958 135.221 75.3842 137.085L73.6656 138.931C72.4127 136.595 72.0279 133.89 72.5795 131.297C73.1312 128.704 74.5836 126.391 76.679 124.767C78.7745 123.143 81.3774 122.313 84.0261 122.426C86.6748 122.539 89.1979 123.586 91.1477 125.382C93.0976 127.179 94.3481 129.607 94.6774 132.238C95.0067 134.868 94.3935 137.531 92.9466 139.752C91.4997 141.973 89.3126 143.61 86.7735 144.373C84.2343 145.135 81.5072 144.973 79.0762 143.916ZM75.9172 133.646V133.629C75.9194 130.93 76.9933 128.343 78.9026 126.436C80.812 124.529 83.4005 123.458 86.0991 123.459C88.7976 123.461 91.3853 124.533 93.2931 126.442C95.2008 128.35 96.2726 130.939 96.2726 133.637C96.2726 136.336 95.2008 138.924 93.2931 140.832C91.3853 142.741 88.7976 143.814 86.0991 143.815C83.4005 143.816 80.812 142.745 78.9026 140.838C76.9933 138.931 75.9194 136.344 75.9172 133.646ZM52.7772 171.296C51.668 171.296 50.5837 170.967 49.6614 170.351C48.7391 169.735 48.0203 168.859 47.5959 167.834C47.1714 166.809 47.0603 165.682 47.2767 164.594C47.4931 163.506 48.0272 162.507 48.8116 161.722C49.5959 160.938 50.5952 160.404 51.6831 160.187C52.7709 159.971 53.8986 160.082 54.9233 160.507C55.9481 160.931 56.824 161.65 57.4402 162.572C58.0564 163.494 58.3854 164.579 58.3854 165.688C58.3859 166.425 58.2409 167.156 57.9587 167.837C57.6765 168.519 57.2626 169.138 56.7408 169.659C56.219 170.18 55.5995 170.593 54.9178 170.875C54.2361 171.156 53.5056 171.3 52.7681 171.299L52.7772 171.296ZM59.2265 163.432C58.6635 161.827 57.5249 160.488 56.0311 159.674L75.9757 138.242C76.8451 139.662 78.0942 140.81 79.5819 141.557L59.2265 163.432ZM96.1348 185.733C95.6782 185.957 95.1604 186.023 94.6619 185.922C94.1635 185.822 93.7124 185.559 93.3788 185.175C83.5389 176.171 75.8895 165.035 71.0162 152.619C71.0162 152.619 71.7273 151.831 78.1987 144.887C80.4996 145.987 83.0834 146.352 85.5993 145.934C88.1151 145.515 90.4413 144.333 92.2621 142.547C98.6067 155.101 106.31 166.921 115.234 177.795C109.07 180.91 102.683 183.564 96.1257 185.735L96.1348 185.733ZM172.228 126.003C172.603 126.644 172.773 127.385 172.715 128.125C172.657 128.866 172.374 129.571 171.904 130.146C167.312 137.792 161.598 144.707 154.953 150.657C143.254 161.109 130.275 170.032 116.326 177.212C107.293 166.233 99.5134 154.28 93.1318 141.576C94.596 139.8 95.5395 137.653 95.8577 135.373C96.1758 133.094 95.8562 130.771 94.9342 128.662C94.0123 126.553 92.524 124.74 90.6346 123.426C88.7452 122.111 86.5286 121.346 84.2307 121.215C81.6757 114.418 79.438 107.404 77.5175 100.173C98.1667 74.9531 147.715 81.847 172.219 126.005L172.228 126.003ZM165.18 92.7943L153.969 101.451C152.854 100.502 151.719 99.5899 150.564 98.7145L162.784 89.2791C163.187 90.6752 164.023 91.9071 165.171 92.7969L165.18 92.7943ZM163.75 87.4084C163.747 86.2985 164.073 85.2124 164.687 84.2877C165.301 83.3631 166.175 82.6414 167.2 82.2142C168.224 81.7869 169.352 81.6733 170.441 81.8876C171.531 82.1019 172.532 82.6346 173.318 83.4182C174.104 84.2018 174.64 85.201 174.858 86.2894C175.076 87.3778 174.966 88.5063 174.542 89.5322C174.118 90.558 173.399 91.435 172.476 92.052C171.554 92.669 170.469 92.9984 169.359 92.9984C167.873 93.0009 166.447 92.4141 165.393 91.3667C164.339 90.3194 163.743 88.8969 163.736 87.411L163.75 87.4084Z" fill="#94112A"/>
<path d="M145.736 200.93C146.987 200.93 148.187 201.427 149.072 202.311C149.956 203.196 150.453 204.396 150.453 205.647C150.453 206.899 149.956 208.099 149.072 208.983C148.187 209.868 146.987 210.365 145.736 210.365C139.5 210.365 139.489 200.93 145.736 200.93Z" fill="#E5B1BB"/>
<path d="M128.267 211.872C133.1 211.872 137.017 207.954 137.017 203.121C137.017 198.289 133.1 194.371 128.267 194.371C123.434 194.371 119.517 198.289 119.517 203.121C119.517 207.954 123.434 211.872 128.267 211.872Z" fill="#E5B1BB"/>
<path d="M168.952 159.171C170.085 157.864 171.58 156.922 173.249 156.464C174.917 156.006 176.684 156.053 178.326 156.599C179.968 157.145 181.411 158.166 182.473 159.532C183.535 160.898 184.168 162.548 184.292 164.274C184.416 166 184.026 167.723 183.171 169.227C182.316 170.732 181.034 171.948 179.487 172.724C177.94 173.5 176.199 173.799 174.482 173.585C172.765 173.371 171.15 172.653 169.841 171.521C168.971 170.769 168.258 169.853 167.743 168.825C167.227 167.797 166.92 166.677 166.837 165.531C166.754 164.384 166.899 163.232 167.262 162.14C167.624 161.049 168.199 160.04 168.952 159.171ZM185.349 150.264C185.754 149.795 186.248 149.411 186.802 149.133C187.355 148.855 187.959 148.69 188.577 148.645C189.195 148.6 189.815 148.678 190.403 148.874C190.991 149.069 191.535 149.378 192.003 149.784C196.718 153.866 190.55 161.006 185.827 156.918C185.359 156.513 184.975 156.019 184.697 155.465C184.42 154.911 184.254 154.308 184.21 153.69C184.165 153.072 184.243 152.452 184.438 151.864C184.634 151.276 184.943 150.732 185.349 150.264Z" fill="#E5B1BB"/>
</g>
<defs>
<clipPath id="clip0_958_65217">
<rect width="205" height="236" fill="white" transform="translate(0.5)"/>
</clipPath>
</defs>
</svg>
