<svg width="20" height="20" viewBox="0 0 20 20" fill="none" xmlns="http://www.w3.org/2000/svg">
<path d="M17.7208 17.4985H2.27667C2.13039 17.4985 1.98669 17.46 1.86001 17.3869C1.73333 17.3137 1.62814 17.2085 1.555 17.0818C1.48186 16.9552 1.44336 16.8115 1.44336 16.6652C1.44336 16.5189 1.48187 16.3752 1.555 16.2485L9.27667 2.91519C9.34993 2.78891 9.45507 2.68409 9.58158 2.61122C9.70809 2.53835 9.85151 2.5 9.99751 2.5C10.1435 2.5 10.2869 2.53835 10.4134 2.61122C10.5399 2.68409 10.6451 2.78891 10.7183 2.91519L18.4408 16.2485C18.5139 16.3751 18.5524 16.5188 18.5525 16.665C18.5525 16.8112 18.5141 16.9548 18.4411 17.0815C18.368 17.2081 18.2629 17.3134 18.1364 17.3866C18.0098 17.4598 17.8662 17.4984 17.72 17.4985H17.7208ZM9.16584 13.3319V14.9985H10.8308V13.3319H9.16584V13.3319ZM9.16584 7.49852V11.6652H10.8325V7.49852H9.16584Z" fill="#F26359"/>
</svg>
