<svg width="40" height="40" viewBox="0 0 40 40" fill="none" xmlns="http://www.w3.org/2000/svg">
<path d="M0 20C0 8.95431 8.95431 0 20 0C31.0457 0 40 8.95431 40 20C40 31.0457 31.0457 40 20 40C8.95431 40 0 31.0457 0 20Z" fill="#EEE0FF"/>
<path d="M9.41122 14.3636H11.5419L15.2464 23.4091H15.3828L19.0874 14.3636H21.218V26H19.5476V17.5795H19.4396L16.0078 25.983H14.6214L11.1896 17.5739H11.0817V26H9.41122V14.3636ZM23.7706 26V14.3636H30.9865V15.875H25.5263V19.4205H30.4695V20.9261H25.5263V26H23.7706Z" fill="#7142AA"/>
</svg>
