<svg width="96" height="96" viewBox="0 0 96 96" fill="none" xmlns="http://www.w3.org/2000/svg">
<path d="M0 48C0 21.4903 21.4903 0 48 0C74.5097 0 96 21.4903 96 48C96 74.5097 74.5097 96 48 96C21.4903 96 0 74.5097 0 48Z" fill="#FFE0EA"/>
<path d="M25.7178 61V34.8182H35.7405C37.6326 34.8182 39.205 35.1165 40.4578 35.7131C41.7192 36.3011 42.661 37.1065 43.2831 38.1293C43.9138 39.152 44.2291 40.3111 44.2291 41.6065C44.2291 42.6719 44.0246 43.5838 43.6155 44.3423C43.2064 45.0923 42.6567 45.7017 41.9664 46.1705C41.276 46.6392 40.5047 46.9759 39.6524 47.1804V47.4361C40.5814 47.4872 41.472 47.7727 42.3243 48.2926C43.1851 48.804 43.8882 49.5284 44.4337 50.4659C44.9791 51.4034 45.2519 52.5369 45.2519 53.8665C45.2519 55.2216 44.9237 56.4403 44.2675 57.5227C43.6112 58.5966 42.6226 59.4446 41.3016 60.0668C39.9806 60.6889 38.3186 61 36.3158 61H25.7178ZM30.4607 57.0369H35.5615C37.2831 57.0369 38.5232 56.7088 39.2817 56.0526C40.0487 55.3878 40.4323 54.5355 40.4323 53.4957C40.4323 52.7202 40.2405 52.0213 39.857 51.3991C39.4735 50.7685 38.928 50.2741 38.2206 49.9162C37.5132 49.5497 36.6695 49.3665 35.6894 49.3665H30.4607V57.0369ZM30.4607 45.9531H35.1524C35.9706 45.9531 36.7078 45.804 37.3641 45.5057C38.0203 45.1989 38.536 44.7685 38.911 44.2145C39.2945 43.652 39.4862 42.9872 39.4862 42.2202C39.4862 41.206 39.1283 40.3707 38.4124 39.7145C37.705 39.0582 36.6524 38.7301 35.2547 38.7301H30.4607V45.9531ZM48.6579 61V34.8182H53.4008V45.902H65.5329V34.8182H70.2886V61H65.5329V49.8778H53.4008V61H48.6579Z" fill="#7F324B"/>
</svg>
