<?xml version="1.0" encoding="utf-8"?>
<!-- Generator: Adobe Illustrator 24.0.2, SVG Export Plug-In . SVG Version: 6.00 Build 0)  -->
<svg version="1.1" id="Layer_1" xmlns="http://www.w3.org/2000/svg" xmlns:xlink="http://www.w3.org/1999/xlink" x="0px" y="0px"
	 viewBox="0 0 152 152" style="enable-background:new 0 0 152 152;" xml:space="preserve">
<style type="text/css">
	.st0{fill:#1D2939;}
	.st1{fill-rule:evenodd;clip-rule:evenodd;fill:#FFFFFF;}
</style>
<g>
	<circle class="st0" cx="76" cy="76" r="76"/>
	<path class="st1" d="M39.6,36.8H58v65.9c0,7,3.6,13,5.4,13H39.6c0,0,5.9-2.6,5.9-12.8V51.3C45.5,44.5,42.8,37.7,39.6,36.8z
		 M62.4,37.1H80v24C80,61.1,78.6,40.3,62.4,37.1z M64.7,77.6c0,0,9.2,0.8,11.1-11.7v23.8C75.8,89.7,74.1,78.1,64.7,77.6z M84.9,36.6
		c3.9,0.5,25.9-0.6,25.9,18.6c0,16-14.1,17.8-16.9,18.4c0,0,19.8,2.7,19.8,20.6c0,17.9-13.3,21.6-28.1,21.6c0,0,12.1-4.6,12.1-20.8
		c0-16.2-7.4-21.4-10.9-21.4c0,0,9-1,9-18.1C95.9,38.4,85.8,37.3,84.9,36.6z"/>
</g>
</svg>
