<?xml version="1.0" encoding="utf-8"?>
<!-- Generator: Adobe Illustrator 24.0.2, SVG Export Plug-In . SVG Version: 6.00 Build 0)  -->
<svg version="1.1" id="Layer_1" xmlns="http://www.w3.org/2000/svg" xmlns:xlink="http://www.w3.org/1999/xlink" x="0px" y="0px"
	 viewBox="0 0 159.7 160" style="enable-background:new 0 0 159.7 160;" xml:space="preserve">
<style type="text/css">
	.st0{fill:#1D2939;}
	.st1{fill-rule:evenodd;clip-rule:evenodd;fill:#F9FAFB;}
</style>
<g>
	<path class="st0" d="M0,80C0,35.8,35.8,0,80,0l0,0c44.2,0,80,35.8,80,80l0,0c0,44.2-35.8,80-80,80l0,0C35.8,160,0,124.2,0,80L0,80z
		"/>
	<path class="st1" d="M98.1,60.8c0.1,0.2,0.4,0.4,0.7,0.4c8,0,14.5,6.5,14.5,14.5v19.8c0,8-6.5,14.5-14.5,14.5H61.2
		c-8,0-14.5-6.5-14.5-14.5V75.7c0-8,6.5-14.5,14.5-14.5c0.3,0,0.5-0.1,0.6-0.4l0.2-0.4c0.1-0.2,0.2-0.5,0.4-0.7
		c0.9-1.8,1.8-3.8,2.4-5c1.5-3,4.1-4.7,7.4-4.7h15.7c3.2,0,5.9,1.7,7.4,4.7c0.5,1,1.3,2.7,2.1,4.4c0.2,0.3,0.3,0.7,0.5,1L98.1,60.8z
		 M95.7,73.6c0,1.7,1.3,3,3,3s3-1.3,3-3s-1.4-3-3-3S95.7,71.9,95.7,73.6z M74.2,78.7c1.6-1.6,3.6-2.4,5.8-2.4c2.2,0,4.2,0.8,5.7,2.4
		c1.5,1.5,2.4,3.6,2.4,5.7c0,4.5-3.6,8.1-8.1,8.1c-2.2,0-4.2-0.8-5.7-2.4c-1.5-1.5-2.4-3.6-2.4-5.7v0C71.9,82.3,72.7,80.3,74.2,78.7
		z M89.2,93.7c-2.4,2.4-5.6,3.8-9.2,3.8c-3.5,0-6.8-1.4-9.3-3.8c-2.5-2.5-3.8-5.8-3.8-9.3c0-3.5,1.3-6.7,3.8-9.2
		c2.5-2.5,5.8-3.9,9.3-3.9s6.8,1.4,9.3,3.8c2.5,2.5,3.8,5.8,3.8,9.3C93.1,88.1,91.6,91.3,89.2,93.7z"/>
</g>
</svg>
