<svg width="40" height="40" viewBox="0 0 40 40" fill="none" xmlns="http://www.w3.org/2000/svg">
<path d="M0 20C0 8.95431 8.95431 0 20 0C31.0457 0 40 8.95431 40 20C40 31.0457 31.0457 40 20 40C8.95431 40 0 31.0457 0 20Z" fill="#FFE0EA"/>
<path d="M11.5426 26H9.67898L13.8665 14.3636H15.8949L20.0824 26H18.2188L14.929 16.4773H14.8381L11.5426 26ZM11.8551 21.4432H17.9006V22.9205H11.8551V21.4432ZM21.7628 26V14.3636H25.9105C26.8158 14.3636 27.5658 14.5284 28.1605 14.858C28.7552 15.1875 29.2003 15.6383 29.4957 16.2102C29.7912 16.7784 29.9389 17.4186 29.9389 18.1307C29.9389 18.8466 29.7893 19.4905 29.4901 20.0625C29.1946 20.6307 28.7476 21.0814 28.1491 21.4148C27.5545 21.7443 26.8063 21.9091 25.9048 21.9091H23.0526V20.4205H25.7457C26.3177 20.4205 26.7817 20.322 27.1378 20.125C27.4938 19.9242 27.7552 19.6515 27.9219 19.3068C28.0885 18.9621 28.1719 18.5701 28.1719 18.1307C28.1719 17.6913 28.0885 17.3011 27.9219 16.9602C27.7552 16.6193 27.492 16.3523 27.1321 16.1591C26.776 15.9659 26.3063 15.8693 25.723 15.8693H23.5185V26H21.7628Z" fill="#AA4364"/>
</svg>
