<svg width="20" height="20" viewBox="0 0 20 20" fill="none" xmlns="http://www.w3.org/2000/svg">
<path d="M13.563 3.38709C13.0606 3.33615 12.7083 3.74909 12.7083 4.16742V15.8341C12.7083 16.1793 12.9881 16.4591 13.3333 16.4591C13.6784 16.4591 13.9583 16.1793 13.9583 15.8341L13.9583 4.88696C13.9701 4.8962 13.9822 4.90576 13.9945 4.91566C14.2634 5.13158 14.583 5.45271 15.0578 5.93179L16.2227 7.1071C16.4657 7.35227 16.8614 7.35403 17.1066 7.11105C17.3517 6.86806 17.3535 6.47234 17.1105 6.22717L15.9202 5.02623C15.4774 4.57941 15.1081 4.20675 14.7772 3.94105C14.4302 3.66236 14.0655 3.45038 13.6212 3.39375C13.6018 3.39128 13.5824 3.38906 13.563 3.38709Z" fill="#98A2B3"/>
<path d="M7.29159 4.16742C7.29159 3.82225 7.01176 3.54242 6.66659 3.54242C6.32141 3.54242 6.04159 3.82225 6.04159 4.16742L6.04159 14.9477C6.02974 14.9384 6.01766 14.9289 6.00533 14.919C5.73647 14.7031 5.41686 14.3819 4.94203 13.9029L3.77716 12.7275C3.53418 12.4824 3.13845 12.4806 2.89329 12.7236C2.64812 12.9666 2.64636 13.3623 2.88934 13.6075L4.07961 14.8084C4.52243 15.2552 4.89177 15.6279 5.22262 15.8936C5.56964 16.1723 5.93434 16.3843 6.37867 16.4409C6.92085 16.51 7.29159 16.0604 7.29159 15.6246L7.29159 4.16742Z" fill="#98A2B3"/>
<path d="M13.563 3.38709C13.0606 3.33615 12.7083 3.74909 12.7083 4.16742V15.8341C12.7083 16.1793 12.9881 16.4591 13.3333 16.4591C13.6784 16.4591 13.9583 16.1793 13.9583 15.8341L13.9583 4.88696C13.9701 4.8962 13.9822 4.90576 13.9945 4.91566C14.2634 5.13158 14.583 5.45271 15.0578 5.93179L16.2227 7.1071C16.4657 7.35227 16.8614 7.35403 17.1066 7.11105C17.3517 6.86806 17.3535 6.47234 17.1105 6.22717L15.9202 5.02623C15.4774 4.57941 15.1081 4.20675 14.7772 3.94105C14.4302 3.66236 14.0655 3.45038 13.6212 3.39375C13.6018 3.39128 13.5824 3.38906 13.563 3.38709Z" stroke="#98A2B3" stroke-width="0.5" stroke-linecap="round"/>
<path d="M7.29159 4.16742C7.29159 3.82225 7.01176 3.54242 6.66659 3.54242C6.32141 3.54242 6.04159 3.82225 6.04159 4.16742L6.04159 14.9477C6.02974 14.9384 6.01766 14.9289 6.00533 14.919C5.73647 14.7031 5.41686 14.3819 4.94203 13.9029L3.77716 12.7275C3.53418 12.4824 3.13845 12.4806 2.89329 12.7236C2.64812 12.9666 2.64636 13.3623 2.88934 13.6075L4.07961 14.8084C4.52243 15.2552 4.89177 15.6279 5.22262 15.8936C5.56964 16.1723 5.93434 16.3843 6.37867 16.4409C6.92085 16.51 7.29159 16.0604 7.29159 15.6246L7.29159 4.16742Z" stroke="#98A2B3" stroke-width="0.5" stroke-linecap="round"/>
</svg>
