<svg width="24" height="25" viewBox="0 0 24 25" fill="none" xmlns="http://www.w3.org/2000/svg">
<g clip-path="url(#clip0_235_26918)">
<path d="M22.5549 14.1622L20.6549 7.32618C20.0979 5.32351 18.8876 3.56447 17.2162 2.32865C15.5448 1.09283 13.5083 0.451165 11.4303 0.505645C9.35238 0.560125 7.35227 1.30763 5.74792 2.62933C4.14358 3.95103 3.02706 5.77108 2.57586 7.80018L1.10486 14.4152C0.942375 15.1461 0.946132 15.9042 1.11585 16.6335C1.28557 17.3628 1.61692 18.0446 2.08544 18.6287C2.55396 19.2128 3.14768 19.6842 3.82277 20.0081C4.49786 20.332 5.23708 20.5002 5.98586 20.5002H7.09986C7.32937 21.6305 7.94259 22.6467 8.8356 23.3766C9.72861 24.1065 10.8465 24.5052 11.9999 24.5052C13.1532 24.5052 14.2711 24.1065 15.1641 23.3766C16.0571 22.6467 16.6703 21.6305 16.8999 20.5002H17.7379C18.5087 20.5002 19.2691 20.3221 19.9596 19.9796C20.6502 19.6372 21.2522 19.1397 21.7187 18.526C22.1852 17.9124 22.5034 17.1992 22.6487 16.4422C22.7939 15.6852 22.7621 14.9049 22.5559 14.1622H22.5549ZM11.9999 22.5002C11.3816 22.4976 10.7792 22.3041 10.2752 21.9461C9.77109 21.5881 9.38994 21.0831 9.18386 20.5002H14.8159C14.6098 21.0831 14.2286 21.5881 13.7246 21.9461C13.2205 22.3041 12.6181 22.4976 11.9999 22.5002ZM20.1259 17.3152C19.8472 17.6848 19.4862 17.9844 19.0715 18.1901C18.6568 18.3958 18.1998 18.502 17.7369 18.5002H5.98586C5.53664 18.5001 5.09318 18.3991 4.6882 18.2048C4.28322 18.0104 3.92707 17.7275 3.64602 17.3771C3.36498 17.0266 3.16622 16.6176 3.06442 16.18C2.96262 15.7425 2.96038 15.2877 3.05786 14.8492L4.52786 8.23318C4.88221 6.63939 5.75917 5.20978 7.01932 4.17163C8.27946 3.13347 9.85048 2.54635 11.4826 2.50359C13.1148 2.46083 14.7144 2.9649 16.0272 3.93565C17.3399 4.9064 18.2905 6.28813 18.7279 7.86118L20.6279 14.6972C20.7534 15.1426 20.7734 15.6111 20.6863 16.0655C20.5991 16.52 20.4072 16.9478 20.1259 17.3152Z" fill="#344054"/>
</g>
<defs>
<clipPath id="clip0_235_26918">
<rect width="24" height="24" fill="white" transform="translate(0 0.5)"/>
</clipPath>
</defs>
</svg>
