<svg width="20" height="20" viewBox="0 0 20 20" fill="none" xmlns="http://www.w3.org/2000/svg">
<path d="M10.1 2.40076V2.4L10.0001 2.4L10 2.4C8.49686 2.4 7.02748 2.84573 5.77767 3.68083C4.52786 4.51593 3.55374 5.70289 2.97852 7.0916C2.40329 8.48032 2.25279 10.0084 2.54604 11.4827C2.83928 12.9569 3.56311 14.3111 4.62599 15.374C5.68887 16.4369 7.04306 17.1607 8.51732 17.454C9.99157 17.7472 11.5197 17.5967 12.9084 17.0215C14.2971 16.4463 15.4841 15.4721 16.3192 14.2223C17.1543 12.9725 17.6 11.5031 17.6 10V9.99989C17.5978 7.98494 16.7964 6.05315 15.3716 4.62836C13.9704 3.22714 12.0788 2.42885 10.1 2.40076ZM9.99992 3.85L10.0001 3.85C11.3816 3.8489 12.7217 4.31538 13.8031 5.17172L5.17183 13.803C4.47423 12.9195 4.03226 11.8606 3.89527 10.7419C3.7538 9.58648 3.94339 8.41468 4.44198 7.36286C4.94057 6.31103 5.72765 5.42246 6.7116 4.80056C7.69556 4.17866 8.83591 3.84901 9.99992 3.85ZM10.0001 16.15H9.99992C8.61838 16.1511 7.27827 15.6846 6.19689 14.8283L14.8282 6.197C15.5258 7.08052 15.9677 8.13935 16.1047 9.25814C16.2462 10.4135 16.0566 11.5853 15.558 12.6371C15.0594 13.689 14.2724 14.5775 13.2884 15.1994C12.3044 15.8213 11.1641 16.151 10.0001 16.15Z" fill="#98A2B3" stroke="#98A2B3" stroke-width="0.2"/>
</svg>
