<svg width="613" height="295" viewBox="0 0 613 295" fill="none" xmlns="http://www.w3.org/2000/svg">
<path d="M6.62251 6.71968C6.57138 6.28786 6.36399 5.95264 6.00036 5.714C5.63672 5.47536 5.1907 5.35605 4.66229 5.35605C4.27592 5.35605 3.93786 5.41855 3.64808 5.54355C3.36115 5.66855 3.13672 5.84042 2.97479 6.05917C2.8157 6.27792 2.73615 6.5265 2.73615 6.80491C2.73615 7.03786 2.79155 7.23815 2.90234 7.40576C3.01598 7.57053 3.16087 7.70832 3.337 7.81911C3.51314 7.92707 3.6978 8.01656 3.89098 8.08758C4.08416 8.15576 4.26172 8.21116 4.42365 8.25377L5.31001 8.49241C5.53729 8.55207 5.79013 8.63445 6.06854 8.73957C6.34979 8.84468 6.61825 8.98815 6.87393 9.16997C7.13246 9.34894 7.34553 9.57906 7.51314 9.86031C7.68075 10.1416 7.76456 10.4867 7.76456 10.8958C7.76456 11.3674 7.64098 11.7935 7.39382 12.1742C7.1495 12.5549 6.79155 12.8575 6.31996 13.0819C5.85121 13.3063 5.28161 13.4185 4.61115 13.4185C3.98615 13.4185 3.44496 13.3177 2.98757 13.116C2.53303 12.9143 2.17507 12.633 1.91371 12.2722C1.65518 11.9114 1.50888 11.4924 1.47479 11.0151H2.5657C2.59411 11.3447 2.7049 11.6174 2.89808 11.8333C3.09411 12.0464 3.34126 12.2055 3.63956 12.3106C3.9407 12.4129 4.26456 12.464 4.61115 12.464C5.01456 12.464 5.37678 12.3987 5.6978 12.268C6.01882 12.1345 6.27308 11.9498 6.46058 11.714C6.64808 11.4754 6.74183 11.197 6.74183 10.8788C6.74183 10.589 6.66087 10.3532 6.49893 10.1714C6.337 9.98957 6.12393 9.84184 5.85973 9.7282C5.59553 9.61457 5.31001 9.51514 5.0032 9.42991L3.92933 9.12309C3.24751 8.92707 2.70774 8.64724 2.31001 8.2836C1.91229 7.91997 1.71342 7.44411 1.71342 6.85605C1.71342 6.36741 1.84553 5.94127 2.10973 5.57764C2.37678 5.21116 2.73473 4.92707 3.18359 4.72536C3.6353 4.52082 4.13956 4.41855 4.69638 4.41855C5.25888 4.41855 5.75888 4.5194 6.19638 4.7211C6.63388 4.91997 6.98047 5.19269 7.23615 5.53928C7.49467 5.88587 7.63104 6.27934 7.64524 6.71968H6.62251ZM9.86009 13.2651H8.75213L11.9567 4.53786H13.0476L16.2521 13.2651H15.1442L12.5362 5.91855H12.468L9.86009 13.2651ZM10.2692 9.85605H14.7351V10.7935H10.2692V9.85605ZM17.6115 13.2651V4.53786H20.5604C21.2422 4.53786 21.8018 4.65434 22.2393 4.8873C22.6768 5.11741 23.0007 5.43417 23.2109 5.83758C23.4212 6.24099 23.5263 6.6998 23.5263 7.214C23.5263 7.7282 23.4212 8.18417 23.2109 8.5819C23.0007 8.97963 22.6783 9.29213 22.2436 9.5194C21.8089 9.74383 21.2536 9.85605 20.5774 9.85605H18.1911V8.9015H20.5433C21.0092 8.9015 21.3842 8.83332 21.6683 8.69695C21.9553 8.56059 22.1626 8.36741 22.2905 8.11741C22.4212 7.86457 22.4865 7.56343 22.4865 7.214C22.4865 6.86457 22.4212 6.55917 22.2905 6.29781C22.1598 6.03644 21.951 5.83474 21.6641 5.69269C21.3771 5.54781 20.9979 5.47536 20.5263 5.47536H18.6683V13.2651H17.6115ZM21.7195 9.34468L23.8672 13.2651H22.6399L20.5263 9.34468H21.7195ZM31.4577 13.3845C30.8952 13.3845 30.3938 13.2879 29.9535 13.0947C29.516 12.9015 29.168 12.633 28.9094 12.2893C28.6538 11.9427 28.5146 11.5407 28.4918 11.0833H29.5657C29.5884 11.3646 29.685 11.6075 29.8555 11.812C30.0259 12.0137 30.2489 12.17 30.5245 12.2808C30.8001 12.3916 31.1055 12.447 31.4407 12.447C31.8157 12.447 32.1481 12.3816 32.4379 12.2509C32.7276 12.1203 32.9549 11.9384 33.1197 11.7055C33.2844 11.4725 33.3668 11.2026 33.3668 10.8958C33.3668 10.5748 33.2873 10.2921 33.1282 10.0478C32.9691 9.80065 32.7362 9.60747 32.4293 9.46826C32.1225 9.32906 31.7475 9.25945 31.3043 9.25945H30.6055V8.32195H31.3043C31.6509 8.32195 31.9549 8.25945 32.2163 8.13445C32.4805 8.00945 32.6864 7.83332 32.8342 7.60605C32.9847 7.37877 33.06 7.11173 33.06 6.80491C33.06 6.50945 32.9947 6.25235 32.864 6.0336C32.7333 5.81485 32.5487 5.6444 32.31 5.52224C32.0742 5.40008 31.7958 5.339 31.4748 5.339C31.1737 5.339 30.8896 5.3944 30.6225 5.50519C30.3583 5.61315 30.1424 5.77082 29.9748 5.9782C29.8072 6.18275 29.7163 6.42991 29.7021 6.71968H28.6793C28.6964 6.2623 28.8342 5.86173 29.0927 5.51798C29.3512 5.17139 29.6893 4.9015 30.1069 4.70832C30.5273 4.51514 30.989 4.41855 31.4918 4.41855C32.0316 4.41855 32.4947 4.52792 32.881 4.74667C33.2674 4.96258 33.5643 5.24809 33.7717 5.6032C33.979 5.95832 34.0827 6.34184 34.0827 6.75377C34.0827 7.24525 33.9535 7.66428 33.695 8.01088C33.4393 8.35747 33.0913 8.59752 32.6509 8.73105V8.79923C33.2021 8.89014 33.6325 9.12451 33.9421 9.50235C34.2518 9.87735 34.4066 10.3418 34.4066 10.8958C34.4066 11.3703 34.2773 11.7964 34.0188 12.1742C33.7631 12.5492 33.4137 12.8447 32.9705 13.0606C32.5273 13.2765 32.0231 13.3845 31.4577 13.3845ZM38.9961 13.3845C38.354 13.3845 37.8072 13.2097 37.3555 12.8603C36.9038 12.508 36.5586 11.9981 36.32 11.3305C36.0813 10.66 35.962 9.85036 35.962 8.9015C35.962 7.95832 36.0813 7.15292 36.32 6.48531C36.5614 5.81485 36.908 5.30349 37.3597 4.95122C37.8143 4.5961 38.3597 4.41855 38.9961 4.41855C39.6325 4.41855 40.1765 4.5961 40.6282 4.95122C41.0827 5.30349 41.4293 5.81485 41.668 6.48531C41.9094 7.15292 42.0302 7.95832 42.0302 8.9015C42.0302 9.85036 41.9109 10.66 41.6722 11.3305C41.4336 11.9981 41.0884 12.508 40.6367 12.8603C40.185 13.2097 39.6381 13.3845 38.9961 13.3845ZM38.9961 12.447C39.6325 12.447 40.1268 12.1401 40.479 11.5265C40.8313 10.9129 41.0075 10.0379 41.0075 8.9015C41.0075 8.14582 40.9265 7.50235 40.7646 6.9711C40.6055 6.43985 40.3754 6.03502 40.0742 5.75661C39.7759 5.4782 39.4165 5.339 38.9961 5.339C38.3654 5.339 37.8725 5.65008 37.5174 6.27224C37.1623 6.89156 36.9847 7.76798 36.9847 8.9015C36.9847 9.65718 37.0643 10.2992 37.2234 10.8276C37.3825 11.356 37.6112 11.758 37.9094 12.0336C38.2106 12.3092 38.5728 12.447 38.9961 12.447ZM44.8619 12.072L44.7937 12.5322C44.7454 12.856 44.6715 13.2026 44.5721 13.572C44.4755 13.9413 44.3746 14.2893 44.2695 14.616C44.1644 14.9427 44.0778 15.2026 44.0096 15.3958H43.2425C43.2795 15.214 43.3278 14.9739 43.3874 14.6756C43.4471 14.3774 43.5067 14.0435 43.5664 13.6742C43.6289 13.3078 43.68 12.9328 43.7198 12.5492L43.771 12.072H44.8619ZM49.25 13.3845C48.608 13.3845 48.0611 13.2097 47.6094 12.8603C47.1577 12.508 46.8125 11.9981 46.5739 11.3305C46.3352 10.66 46.2159 9.85036 46.2159 8.9015C46.2159 7.95832 46.3352 7.15292 46.5739 6.48531C46.8153 5.81485 47.1619 5.30349 47.6136 4.95122C48.0682 4.5961 48.6136 4.41855 49.25 4.41855C49.8864 4.41855 50.4304 4.5961 50.8821 4.95122C51.3366 5.30349 51.6832 5.81485 51.9219 6.48531C52.1634 7.15292 52.2841 7.95832 52.2841 8.9015C52.2841 9.85036 52.1648 10.66 51.9261 11.3305C51.6875 11.9981 51.3423 12.508 50.8906 12.8603C50.4389 13.2097 49.892 13.3845 49.25 13.3845ZM49.25 12.447C49.8864 12.447 50.3807 12.1401 50.733 11.5265C51.0852 10.9129 51.2614 10.0379 51.2614 8.9015C51.2614 8.14582 51.1804 7.50235 51.0185 6.9711C50.8594 6.43985 50.6293 6.03502 50.3281 5.75661C50.0298 5.4782 49.6705 5.339 49.25 5.339C48.6193 5.339 48.1264 5.65008 47.7713 6.27224C47.4162 6.89156 47.2386 7.76798 47.2386 8.9015C47.2386 9.65718 47.3182 10.2992 47.4773 10.8276C47.6364 11.356 47.8651 11.758 48.1634 12.0336C48.4645 12.3092 48.8267 12.447 49.25 12.447ZM56.75 13.3845C56.108 13.3845 55.5611 13.2097 55.1094 12.8603C54.6577 12.508 54.3125 11.9981 54.0739 11.3305C53.8352 10.66 53.7159 9.85036 53.7159 8.9015C53.7159 7.95832 53.8352 7.15292 54.0739 6.48531C54.3153 5.81485 54.6619 5.30349 55.1136 4.95122C55.5682 4.5961 56.1136 4.41855 56.75 4.41855C57.3864 4.41855 57.9304 4.5961 58.3821 4.95122C58.8366 5.30349 59.1832 5.81485 59.4219 6.48531C59.6634 7.15292 59.7841 7.95832 59.7841 8.9015C59.7841 9.85036 59.6648 10.66 59.4261 11.3305C59.1875 11.9981 58.8423 12.508 58.3906 12.8603C57.9389 13.2097 57.392 13.3845 56.75 13.3845ZM56.75 12.447C57.3864 12.447 57.8807 12.1401 58.233 11.5265C58.5852 10.9129 58.7614 10.0379 58.7614 8.9015C58.7614 8.14582 58.6804 7.50235 58.5185 6.9711C58.3594 6.43985 58.1293 6.03502 57.8281 5.75661C57.5298 5.4782 57.1705 5.339 56.75 5.339C56.1193 5.339 55.6264 5.65008 55.2713 6.27224C54.9162 6.89156 54.7386 7.76798 54.7386 8.9015C54.7386 9.65718 54.8182 10.2992 54.9773 10.8276C55.1364 11.356 55.3651 11.758 55.6634 12.0336C55.9645 12.3092 56.3267 12.447 56.75 12.447ZM64.25 13.3845C63.608 13.3845 63.0611 13.2097 62.6094 12.8603C62.1577 12.508 61.8125 11.9981 61.5739 11.3305C61.3352 10.66 61.2159 9.85036 61.2159 8.9015C61.2159 7.95832 61.3352 7.15292 61.5739 6.48531C61.8153 5.81485 62.1619 5.30349 62.6136 4.95122C63.0682 4.5961 63.6136 4.41855 64.25 4.41855C64.8864 4.41855 65.4304 4.5961 65.8821 4.95122C66.3366 5.30349 66.6832 5.81485 66.9219 6.48531C67.1634 7.15292 67.2841 7.95832 67.2841 8.9015C67.2841 9.85036 67.1648 10.66 66.9261 11.3305C66.6875 11.9981 66.3423 12.508 65.8906 12.8603C65.4389 13.2097 64.892 13.3845 64.25 13.3845ZM64.25 12.447C64.8864 12.447 65.3807 12.1401 65.733 11.5265C66.0852 10.9129 66.2614 10.0379 66.2614 8.9015C66.2614 8.14582 66.1804 7.50235 66.0185 6.9711C65.8594 6.43985 65.6293 6.03502 65.3281 5.75661C65.0298 5.4782 64.6705 5.339 64.25 5.339C63.6193 5.339 63.1264 5.65008 62.7713 6.27224C62.4162 6.89156 62.2386 7.76798 62.2386 8.9015C62.2386 9.65718 62.3182 10.2992 62.4773 10.8276C62.6364 11.356 62.8651 11.758 63.1634 12.0336C63.4645 12.3092 63.8267 12.447 64.25 12.447Z" fill="#98A2B3"/>
<path d="M76 9.26514H613" stroke="#E4E7EA" stroke-dasharray="4 4"/>
<path d="M6.22017 51.1918C6.16903 50.76 5.96165 50.4248 5.59801 50.1862C5.23438 49.9475 4.78835 49.8282 4.25994 49.8282C3.87358 49.8282 3.53551 49.8907 3.24574 50.0157C2.95881 50.1407 2.73438 50.3126 2.57244 50.5313C2.41335 50.7501 2.33381 50.9987 2.33381 51.2771C2.33381 51.51 2.3892 51.7103 2.5 51.8779C2.61364 52.0427 2.75852 52.1805 2.93466 52.2913C3.1108 52.3992 3.29545 52.4887 3.48864 52.5597C3.68182 52.6279 3.85938 52.6833 4.02131 52.7259L4.90767 52.9646C5.13494 53.0242 5.38778 53.1066 5.66619 53.2117C5.94744 53.3168 6.21591 53.4603 6.47159 53.6421C6.73011 53.8211 6.94318 54.0512 7.1108 54.3325C7.27841 54.6137 7.36222 54.9589 7.36222 55.368C7.36222 55.8396 7.23864 56.2657 6.99148 56.6464C6.74716 57.0271 6.3892 57.3296 5.91761 57.5541C5.44886 57.7785 4.87926 57.8907 4.20881 57.8907C3.58381 57.8907 3.04261 57.7899 2.58523 57.5882C2.13068 57.3865 1.77273 57.1052 1.51136 56.7444C1.25284 56.3836 1.10653 55.9646 1.07244 55.4873H2.16335C2.19176 55.8169 2.30256 56.0896 2.49574 56.3055C2.69176 56.5186 2.93892 56.6776 3.23722 56.7828C3.53835 56.885 3.86222 56.9362 4.20881 56.9362C4.61222 56.9362 4.97443 56.8708 5.29545 56.7401C5.61648 56.6066 5.87074 56.422 6.05824 56.1862C6.24574 55.9475 6.33949 55.6691 6.33949 55.3509C6.33949 55.0612 6.25852 54.8254 6.09659 54.6436C5.93466 54.4617 5.72159 54.314 5.45739 54.2004C5.19318 54.0867 4.90767 53.9873 4.60085 53.9021L3.52699 53.5953C2.84517 53.3992 2.3054 53.1194 1.90767 52.7558C1.50994 52.3921 1.31108 51.9163 1.31108 51.3282C1.31108 50.8396 1.44318 50.4134 1.70739 50.0498C1.97443 49.6833 2.33239 49.3992 2.78125 49.1975C3.23295 48.993 3.73722 48.8907 4.29403 48.8907C4.85653 48.8907 5.35653 48.9916 5.79403 49.1933C6.23153 49.3921 6.57813 49.6649 6.83381 50.0115C7.09233 50.358 7.22869 50.7515 7.2429 51.1918H6.22017ZM9.45774 57.7373H8.34979L11.5543 49.01H12.6452L15.8498 57.7373H14.7418L12.1339 50.3907H12.0657L9.45774 57.7373ZM9.86683 54.3282H14.3327V55.2657H9.86683V54.3282ZM17.2092 57.7373V49.01H20.158C20.8398 49.01 21.3995 49.1265 21.837 49.3595C22.2745 49.5896 22.5984 49.9063 22.8086 50.3097C23.0188 50.7132 23.1239 51.172 23.1239 51.6862C23.1239 52.2004 23.0188 52.6563 22.8086 53.0541C22.5984 53.4518 22.2759 53.7643 21.8413 53.9916C21.4066 54.216 20.8512 54.3282 20.1751 54.3282H17.7887V53.3737H20.141C20.6069 53.3737 20.9819 53.3055 21.266 53.1691C21.5529 53.0328 21.7603 52.8396 21.8881 52.5896C22.0188 52.3367 22.0842 52.0356 22.0842 51.6862C22.0842 51.3367 22.0188 51.0313 21.8881 50.77C21.7575 50.5086 21.5487 50.3069 21.2617 50.1649C20.9748 50.02 20.5955 49.9475 20.1239 49.9475H18.266V57.7373H17.2092ZM21.3171 53.8168L23.4648 57.7373H22.2376L20.1239 53.8168H21.3171ZM28.1065 57.7373V56.9703L30.9872 53.8168C31.3253 53.4475 31.6037 53.1265 31.8224 52.8538C32.0412 52.5782 32.2031 52.3197 32.3082 52.0782C32.4162 51.8339 32.4702 51.5782 32.4702 51.3112C32.4702 51.0044 32.3963 50.7387 32.2486 50.5143C32.1037 50.2899 31.9048 50.1166 31.652 49.9944C31.3991 49.8722 31.1151 49.8112 30.7997 49.8112C30.4645 49.8112 30.1719 49.8808 29.9219 50.02C29.6747 50.1563 29.483 50.3481 29.3466 50.5953C29.2131 50.8424 29.1463 51.1322 29.1463 51.4646H28.1406C28.1406 50.9532 28.2585 50.5043 28.4943 50.118C28.7301 49.7316 29.0511 49.4305 29.4574 49.2146C29.8665 48.9987 30.3253 48.8907 30.8338 48.8907C31.3452 48.8907 31.7983 48.9987 32.1932 49.2146C32.5881 49.4305 32.8977 49.7217 33.1222 50.0882C33.3466 50.4546 33.4588 50.8623 33.4588 51.3112C33.4588 51.6322 33.4006 51.9461 33.2841 52.2529C33.1705 52.5569 32.9716 52.8964 32.6875 53.2714C32.4062 53.6436 32.0156 54.0981 31.5156 54.635L29.5554 56.7316V56.7998H33.6122V57.7373H28.1065ZM38.0994 57.8566C37.5994 57.8566 37.1491 57.7572 36.7486 57.5583C36.348 57.3595 36.027 57.0867 35.7855 56.7401C35.544 56.3936 35.4119 55.9987 35.3892 55.5555H36.4119C36.4517 55.9504 36.6307 56.2771 36.9489 56.5356C37.2699 56.7913 37.6534 56.9191 38.0994 56.9191C38.4574 56.9191 38.7756 56.8353 39.054 56.6677C39.3352 56.5001 39.5554 56.27 39.7145 55.9774C39.8764 55.6819 39.9574 55.3481 39.9574 54.9759C39.9574 54.5953 39.8736 54.2558 39.706 53.9575C39.5412 53.6563 39.3139 53.4191 39.0241 53.2458C38.7344 53.0725 38.4034 52.9845 38.0312 52.9816C37.7642 52.9788 37.4901 53.02 37.2088 53.1052C36.9276 53.1876 36.696 53.2941 36.5142 53.4248L35.5256 53.3055L36.054 49.01H40.5881V49.9475H36.9403L36.6335 52.5214H36.6847C36.8636 52.3794 37.0881 52.2615 37.358 52.1677C37.6278 52.074 37.9091 52.0271 38.2017 52.0271C38.7358 52.0271 39.2116 52.1549 39.6293 52.4106C40.0497 52.6634 40.3793 53.01 40.6179 53.4504C40.8594 53.8907 40.9801 54.3936 40.9801 54.9589C40.9801 55.5157 40.8551 56.0129 40.6051 56.4504C40.358 56.885 40.017 57.2288 39.5824 57.4816C39.1477 57.7316 38.6534 57.8566 38.0994 57.8566ZM43.8619 56.5441L43.7937 57.0044C43.7454 57.3282 43.6715 57.6748 43.5721 58.0441C43.4755 58.4134 43.3746 58.7615 43.2695 59.0882C43.1644 59.4149 43.0778 59.6748 43.0096 59.868H42.2425C42.2795 59.6862 42.3278 59.4461 42.3874 59.1478C42.4471 58.8495 42.5067 58.5157 42.5664 58.1464C42.6289 57.7799 42.68 57.4049 42.7198 57.0214L42.771 56.5441H43.8619ZM48.25 57.8566C47.608 57.8566 47.0611 57.6819 46.6094 57.3325C46.1577 56.9802 45.8125 56.4703 45.5739 55.8026C45.3352 55.1322 45.2159 54.3225 45.2159 53.3737C45.2159 52.4305 45.3352 51.6251 45.5739 50.9575C45.8153 50.287 46.1619 49.7757 46.6136 49.4234C47.0682 49.0683 47.6136 48.8907 48.25 48.8907C48.8864 48.8907 49.4304 49.0683 49.8821 49.4234C50.3366 49.7757 50.6832 50.287 50.9219 50.9575C51.1634 51.6251 51.2841 52.4305 51.2841 53.3737C51.2841 54.3225 51.1648 55.1322 50.9261 55.8026C50.6875 56.4703 50.3423 56.9802 49.8906 57.3325C49.4389 57.6819 48.892 57.8566 48.25 57.8566ZM48.25 56.9191C48.8864 56.9191 49.3807 56.6123 49.733 55.9987C50.0852 55.385 50.2614 54.51 50.2614 53.3737C50.2614 52.618 50.1804 51.9745 50.0185 51.4433C49.8594 50.912 49.6293 50.5072 49.3281 50.2288C49.0298 49.9504 48.6705 49.8112 48.25 49.8112C47.6193 49.8112 47.1264 50.1222 46.7713 50.7444C46.4162 51.3637 46.2386 52.2401 46.2386 53.3737C46.2386 54.1293 46.3182 54.7714 46.4773 55.2998C46.6364 55.8282 46.8651 56.2302 47.1634 56.5058C47.4645 56.7813 47.8267 56.9191 48.25 56.9191ZM55.75 57.8566C55.108 57.8566 54.5611 57.6819 54.1094 57.3325C53.6577 56.9802 53.3125 56.4703 53.0739 55.8026C52.8352 55.1322 52.7159 54.3225 52.7159 53.3737C52.7159 52.4305 52.8352 51.6251 53.0739 50.9575C53.3153 50.287 53.6619 49.7757 54.1136 49.4234C54.5682 49.0683 55.1136 48.8907 55.75 48.8907C56.3864 48.8907 56.9304 49.0683 57.3821 49.4234C57.8366 49.7757 58.1832 50.287 58.4219 50.9575C58.6634 51.6251 58.7841 52.4305 58.7841 53.3737C58.7841 54.3225 58.6648 55.1322 58.4261 55.8026C58.1875 56.4703 57.8423 56.9802 57.3906 57.3325C56.9389 57.6819 56.392 57.8566 55.75 57.8566ZM55.75 56.9191C56.3864 56.9191 56.8807 56.6123 57.233 55.9987C57.5852 55.385 57.7614 54.51 57.7614 53.3737C57.7614 52.618 57.6804 51.9745 57.5185 51.4433C57.3594 50.912 57.1293 50.5072 56.8281 50.2288C56.5298 49.9504 56.1705 49.8112 55.75 49.8112C55.1193 49.8112 54.6264 50.1222 54.2713 50.7444C53.9162 51.3637 53.7386 52.2401 53.7386 53.3737C53.7386 54.1293 53.8182 54.7714 53.9773 55.2998C54.1364 55.8282 54.3651 56.2302 54.6634 56.5058C54.9645 56.7813 55.3267 56.9191 55.75 56.9191ZM63.25 57.8566C62.608 57.8566 62.0611 57.6819 61.6094 57.3325C61.1577 56.9802 60.8125 56.4703 60.5739 55.8026C60.3352 55.1322 60.2159 54.3225 60.2159 53.3737C60.2159 52.4305 60.3352 51.6251 60.5739 50.9575C60.8153 50.287 61.1619 49.7757 61.6136 49.4234C62.0682 49.0683 62.6136 48.8907 63.25 48.8907C63.8864 48.8907 64.4304 49.0683 64.8821 49.4234C65.3366 49.7757 65.6832 50.287 65.9219 50.9575C66.1634 51.6251 66.2841 52.4305 66.2841 53.3737C66.2841 54.3225 66.1648 55.1322 65.9261 55.8026C65.6875 56.4703 65.3423 56.9802 64.8906 57.3325C64.4389 57.6819 63.892 57.8566 63.25 57.8566ZM63.25 56.9191C63.8864 56.9191 64.3807 56.6123 64.733 55.9987C65.0852 55.385 65.2614 54.51 65.2614 53.3737C65.2614 52.618 65.1804 51.9745 65.0185 51.4433C64.8594 50.912 64.6293 50.5072 64.3281 50.2288C64.0298 49.9504 63.6705 49.8112 63.25 49.8112C62.6193 49.8112 62.1264 50.1222 61.7713 50.7444C61.4162 51.3637 61.2386 52.2401 61.2386 53.3737C61.2386 54.1293 61.3182 54.7714 61.4773 55.2998C61.6364 55.8282 61.8651 56.2302 62.1634 56.5058C62.4645 56.7813 62.8267 56.9191 63.25 56.9191Z" fill="#98A2B3"/>
<path d="M75 53.7373H613" stroke="#E4E7EA" stroke-dasharray="4 4"/>
<path d="M5.99751 95.6674C5.94638 95.2356 5.73899 94.9004 5.37536 94.6618C5.01172 94.4231 4.5657 94.3038 4.03729 94.3038C3.65092 94.3038 3.31286 94.3663 3.02308 94.4913C2.73615 94.6163 2.51172 94.7882 2.34979 95.0069C2.1907 95.2257 2.11115 95.4743 2.11115 95.7527C2.11115 95.9856 2.16655 96.1859 2.27734 96.3535C2.39098 96.5183 2.53587 96.6561 2.712 96.7669C2.88814 96.8748 3.0728 96.9643 3.26598 97.0353C3.45916 97.1035 3.63672 97.1589 3.79865 97.2015L4.68501 97.4402C4.91229 97.4998 5.16513 97.5822 5.44354 97.6873C5.72479 97.7924 5.99325 97.9359 6.24893 98.1177C6.50746 98.2967 6.72053 98.5268 6.88814 98.8081C7.05575 99.0893 7.13956 99.4345 7.13956 99.8436C7.13956 100.315 7.01598 100.741 6.76882 101.122C6.5245 101.503 6.16655 101.805 5.69496 102.03C5.22621 102.254 4.65661 102.366 3.98615 102.366C3.36115 102.366 2.81996 102.265 2.36257 102.064C1.90803 101.862 1.55007 101.581 1.28871 101.22C1.03018 100.859 0.883878 100.44 0.849787 99.9629H1.9407C1.96911 100.292 2.0799 100.565 2.27308 100.781C2.46911 100.994 2.71626 101.153 3.01456 101.258C3.3157 101.361 3.63956 101.412 3.98615 101.412C4.38956 101.412 4.75178 101.346 5.0728 101.216C5.39382 101.082 5.64808 100.898 5.83558 100.662C6.02308 100.423 6.11683 100.145 6.11683 99.8265C6.11683 99.5368 6.03587 99.301 5.87393 99.1191C5.712 98.9373 5.49893 98.7896 5.23473 98.676C4.97053 98.5623 4.68501 98.4629 4.3782 98.3777L3.30433 98.0708C2.62251 97.8748 2.08274 97.595 1.68501 97.2314C1.28729 96.8677 1.08842 96.3919 1.08842 95.8038C1.08842 95.3152 1.22053 94.889 1.48473 94.5254C1.75178 94.1589 2.10973 93.8748 2.55859 93.6731C3.0103 93.4686 3.51456 93.3663 4.07138 93.3663C4.63388 93.3663 5.13388 93.4672 5.57138 93.6689C6.00888 93.8677 6.35547 94.1404 6.61115 94.487C6.86967 94.8336 7.00604 95.2271 7.02024 95.6674H5.99751ZM9.23509 102.213H8.12713L11.3317 93.4856H12.4226L15.6271 102.213H14.5192L11.9112 94.8663H11.843L9.23509 102.213ZM9.64418 98.8038H14.1101V99.7413H9.64418V98.8038ZM16.9865 102.213V93.4856H19.9354C20.6172 93.4856 21.1768 93.6021 21.6143 93.835C22.0518 94.0652 22.3757 94.3819 22.5859 94.7853C22.7962 95.1887 22.9013 95.6475 22.9013 96.1618C22.9013 96.676 22.7962 97.1319 22.5859 97.5297C22.3757 97.9274 22.0533 98.2399 21.6186 98.4672C21.1839 98.6916 20.6286 98.8038 19.9524 98.8038H17.5661V97.8493H19.9183C20.3842 97.8493 20.7592 97.7811 21.0433 97.6447C21.3303 97.5083 21.5376 97.3152 21.6655 97.0652C21.7962 96.8123 21.8615 96.5112 21.8615 96.1618C21.8615 95.8123 21.7962 95.5069 21.6655 95.2456C21.5348 94.9842 21.326 94.7825 21.0391 94.6404C20.7521 94.4956 20.3729 94.4231 19.9013 94.4231H18.0433V102.213H16.9865ZM21.0945 98.2924L23.2422 102.213H22.0149L19.9013 98.2924H21.0945ZM27.8839 102.213V101.446L30.7646 98.2924C31.1026 97.9231 31.381 97.6021 31.5998 97.3294C31.8185 97.0538 31.9805 96.7953 32.0856 96.5538C32.1935 96.3095 32.2475 96.0538 32.2475 95.7868C32.2475 95.4799 32.1737 95.2143 32.0259 94.9899C31.881 94.7654 31.6822 94.5922 31.4293 94.47C31.1765 94.3478 30.8924 94.2868 30.5771 94.2868C30.2418 94.2868 29.9492 94.3564 29.6992 94.4956C29.4521 94.6319 29.2603 94.8237 29.1239 95.0708C28.9904 95.318 28.9237 95.6078 28.9237 95.9402H27.918C27.918 95.4288 28.0359 94.9799 28.2717 94.5936C28.5075 94.2072 28.8285 93.9061 29.2347 93.6902C29.6438 93.4743 30.1026 93.3663 30.6112 93.3663C31.1225 93.3663 31.5756 93.4743 31.9705 93.6902C32.3654 93.9061 32.6751 94.1973 32.8995 94.5637C33.1239 94.9302 33.2362 95.3379 33.2362 95.7868C33.2362 96.1078 33.1779 96.4217 33.0614 96.7285C32.9478 97.0325 32.7489 97.372 32.4648 97.747C32.1836 98.1191 31.793 98.5737 31.293 99.1106L29.3327 101.207V101.275H33.3896V102.213H27.8839ZM37.9961 102.332C37.354 102.332 36.8072 102.157 36.3555 101.808C35.9038 101.456 35.5586 100.946 35.32 100.278C35.0813 99.6078 34.962 98.7981 34.962 97.8493C34.962 96.9061 35.0813 96.1007 35.32 95.4331C35.5614 94.7626 35.908 94.2512 36.3597 93.899C36.8143 93.5439 37.3597 93.3663 37.9961 93.3663C38.6325 93.3663 39.1765 93.5439 39.6282 93.899C40.0827 94.2512 40.4293 94.7626 40.668 95.4331C40.9094 96.1007 41.0302 96.9061 41.0302 97.8493C41.0302 98.7981 40.9109 99.6078 40.6722 100.278C40.4336 100.946 40.0884 101.456 39.6367 101.808C39.185 102.157 38.6381 102.332 37.9961 102.332ZM37.9961 101.395C38.6325 101.395 39.1268 101.088 39.479 100.474C39.8313 99.8606 40.0075 98.9856 40.0075 97.8493C40.0075 97.0936 39.9265 96.4501 39.7646 95.9189C39.6055 95.3876 39.3754 94.9828 39.0742 94.7044C38.7759 94.426 38.4165 94.2868 37.9961 94.2868C37.3654 94.2868 36.8725 94.5978 36.5174 95.22C36.1623 95.8393 35.9847 96.7157 35.9847 97.8493C35.9847 98.6049 36.0643 99.247 36.2234 99.7754C36.3825 100.304 36.6112 100.706 36.9094 100.981C37.2106 101.257 37.5728 101.395 37.9961 101.395ZM43.8619 101.02L43.7937 101.48C43.7454 101.804 43.6715 102.15 43.5721 102.52C43.4755 102.889 43.3746 103.237 43.2695 103.564C43.1644 103.89 43.0778 104.15 43.0096 104.344H42.2425C42.2795 104.162 42.3278 103.922 42.3874 103.623C42.4471 103.325 42.5067 102.991 42.5664 102.622C42.6289 102.256 42.68 101.881 42.7198 101.497L42.771 101.02H43.8619ZM48.25 102.332C47.608 102.332 47.0611 102.157 46.6094 101.808C46.1577 101.456 45.8125 100.946 45.5739 100.278C45.3352 99.6078 45.2159 98.7981 45.2159 97.8493C45.2159 96.9061 45.3352 96.1007 45.5739 95.4331C45.8153 94.7626 46.1619 94.2512 46.6136 93.899C47.0682 93.5439 47.6136 93.3663 48.25 93.3663C48.8864 93.3663 49.4304 93.5439 49.8821 93.899C50.3366 94.2512 50.6832 94.7626 50.9219 95.4331C51.1634 96.1007 51.2841 96.9061 51.2841 97.8493C51.2841 98.7981 51.1648 99.6078 50.9261 100.278C50.6875 100.946 50.3423 101.456 49.8906 101.808C49.4389 102.157 48.892 102.332 48.25 102.332ZM48.25 101.395C48.8864 101.395 49.3807 101.088 49.733 100.474C50.0852 99.8606 50.2614 98.9856 50.2614 97.8493C50.2614 97.0936 50.1804 96.4501 50.0185 95.9189C49.8594 95.3876 49.6293 94.9828 49.3281 94.7044C49.0298 94.426 48.6705 94.2868 48.25 94.2868C47.6193 94.2868 47.1264 94.5978 46.7713 95.22C46.4162 95.8393 46.2386 96.7157 46.2386 97.8493C46.2386 98.6049 46.3182 99.247 46.4773 99.7754C46.6364 100.304 46.8651 100.706 47.1634 100.981C47.4645 101.257 47.8267 101.395 48.25 101.395ZM55.75 102.332C55.108 102.332 54.5611 102.157 54.1094 101.808C53.6577 101.456 53.3125 100.946 53.0739 100.278C52.8352 99.6078 52.7159 98.7981 52.7159 97.8493C52.7159 96.9061 52.8352 96.1007 53.0739 95.4331C53.3153 94.7626 53.6619 94.2512 54.1136 93.899C54.5682 93.5439 55.1136 93.3663 55.75 93.3663C56.3864 93.3663 56.9304 93.5439 57.3821 93.899C57.8366 94.2512 58.1832 94.7626 58.4219 95.4331C58.6634 96.1007 58.7841 96.9061 58.7841 97.8493C58.7841 98.7981 58.6648 99.6078 58.4261 100.278C58.1875 100.946 57.8423 101.456 57.3906 101.808C56.9389 102.157 56.392 102.332 55.75 102.332ZM55.75 101.395C56.3864 101.395 56.8807 101.088 57.233 100.474C57.5852 99.8606 57.7614 98.9856 57.7614 97.8493C57.7614 97.0936 57.6804 96.4501 57.5185 95.9189C57.3594 95.3876 57.1293 94.9828 56.8281 94.7044C56.5298 94.426 56.1705 94.2868 55.75 94.2868C55.1193 94.2868 54.6264 94.5978 54.2713 95.22C53.9162 95.8393 53.7386 96.7157 53.7386 97.8493C53.7386 98.6049 53.8182 99.247 53.9773 99.7754C54.1364 100.304 54.3651 100.706 54.6634 100.981C54.9645 101.257 55.3267 101.395 55.75 101.395ZM63.25 102.332C62.608 102.332 62.0611 102.157 61.6094 101.808C61.1577 101.456 60.8125 100.946 60.5739 100.278C60.3352 99.6078 60.2159 98.7981 60.2159 97.8493C60.2159 96.9061 60.3352 96.1007 60.5739 95.4331C60.8153 94.7626 61.1619 94.2512 61.6136 93.899C62.0682 93.5439 62.6136 93.3663 63.25 93.3663C63.8864 93.3663 64.4304 93.5439 64.8821 93.899C65.3366 94.2512 65.6832 94.7626 65.9219 95.4331C66.1634 96.1007 66.2841 96.9061 66.2841 97.8493C66.2841 98.7981 66.1648 99.6078 65.9261 100.278C65.6875 100.946 65.3423 101.456 64.8906 101.808C64.4389 102.157 63.892 102.332 63.25 102.332ZM63.25 101.395C63.8864 101.395 64.3807 101.088 64.733 100.474C65.0852 99.8606 65.2614 98.9856 65.2614 97.8493C65.2614 97.0936 65.1804 96.4501 65.0185 95.9189C64.8594 95.3876 64.6293 94.9828 64.3281 94.7044C64.0298 94.426 63.6705 94.2868 63.25 94.2868C62.6193 94.2868 62.1264 94.5978 61.7713 95.22C61.4162 95.8393 61.2386 96.7157 61.2386 97.8493C61.2386 98.6049 61.3182 99.247 61.4773 99.7754C61.6364 100.304 61.8651 100.706 62.1634 100.981C62.4645 101.257 62.8267 101.395 63.25 101.395Z" fill="#98A2B3"/>
<path d="M75 98.2129H613" stroke="#E4E7EA" stroke-dasharray="4 4"/>
<path d="M5.90767 140.139C5.85653 139.707 5.64915 139.372 5.28551 139.133C4.92188 138.895 4.47585 138.775 3.94744 138.775C3.56108 138.775 3.22301 138.838 2.93324 138.963C2.64631 139.088 2.42188 139.26 2.25994 139.479C2.10085 139.697 2.02131 139.946 2.02131 140.224C2.02131 140.457 2.0767 140.658 2.1875 140.825C2.30114 140.99 2.44602 141.128 2.62216 141.239C2.7983 141.347 2.98295 141.436 3.17614 141.507C3.36932 141.575 3.54688 141.631 3.70881 141.673L4.59517 141.912C4.82244 141.972 5.07528 142.054 5.35369 142.159C5.63494 142.264 5.90341 142.408 6.15909 142.589C6.41761 142.768 6.63068 142.998 6.7983 143.28C6.96591 143.561 7.04972 143.906 7.04972 144.315C7.04972 144.787 6.92614 145.213 6.67898 145.594C6.43466 145.974 6.0767 146.277 5.60511 146.501C5.13636 146.726 4.56676 146.838 3.89631 146.838C3.27131 146.838 2.73011 146.737 2.27273 146.535C1.81818 146.334 1.46023 146.052 1.19886 145.692C0.940341 145.331 0.794034 144.912 0.759943 144.435H1.85085C1.87926 144.764 1.99006 145.037 2.18324 145.253C2.37926 145.466 2.62642 145.625 2.92472 145.73C3.22585 145.832 3.54972 145.883 3.89631 145.883C4.29972 145.883 4.66193 145.818 4.98295 145.687C5.30398 145.554 5.55824 145.369 5.74574 145.133C5.93324 144.895 6.02699 144.616 6.02699 144.298C6.02699 144.008 5.94602 143.773 5.78409 143.591C5.62216 143.409 5.40909 143.261 5.14489 143.148C4.88068 143.034 4.59517 142.935 4.28835 142.849L3.21449 142.543C2.53267 142.347 1.9929 142.067 1.59517 141.703C1.19744 141.339 0.99858 140.864 0.99858 140.275C0.99858 139.787 1.13068 139.361 1.39489 138.997C1.66193 138.631 2.01989 138.347 2.46875 138.145C2.92045 137.94 3.42472 137.838 3.98153 137.838C4.54403 137.838 5.04403 137.939 5.48153 138.141C5.91903 138.339 6.26563 138.612 6.52131 138.959C6.77983 139.305 6.91619 139.699 6.9304 140.139H5.90767ZM9.14524 146.685H8.03729L11.2418 137.957H12.3327L15.5373 146.685H14.4293L11.8214 139.338H11.7532L9.14524 146.685ZM9.55433 143.275H14.0202V144.213H9.55433V143.275ZM16.8967 146.685V137.957H19.8455C20.5273 137.957 21.087 138.074 21.5245 138.307C21.962 138.537 22.2859 138.854 22.4961 139.257C22.7063 139.66 22.8114 140.119 22.8114 140.633C22.8114 141.148 22.7063 141.604 22.4961 142.001C22.2859 142.399 21.9634 142.712 21.5288 142.939C21.0941 143.163 20.5387 143.275 19.8626 143.275H17.4762V142.321H19.8285C20.2944 142.321 20.6694 142.253 20.9535 142.116C21.2404 141.98 21.4478 141.787 21.5756 141.537C21.7063 141.284 21.7717 140.983 21.7717 140.633C21.7717 140.284 21.7063 139.979 21.5756 139.717C21.445 139.456 21.2362 139.254 20.9492 139.112C20.6623 138.967 20.283 138.895 19.8114 138.895H17.9535V146.685H16.8967ZM21.0046 142.764L23.1523 146.685H21.9251L19.8114 142.764H21.0046ZM30.8622 137.957V146.685H29.8054V139.065H29.7543L27.6236 140.48V139.406L29.8054 137.957H30.8622ZM36.0994 146.804C35.5994 146.804 35.1491 146.704 34.7486 146.506C34.348 146.307 34.027 146.034 33.7855 145.687C33.544 145.341 33.4119 144.946 33.3892 144.503H34.4119C34.4517 144.898 34.6307 145.224 34.9489 145.483C35.2699 145.739 35.6534 145.866 36.0994 145.866C36.4574 145.866 36.7756 145.783 37.054 145.615C37.3352 145.447 37.5554 145.217 37.7145 144.925C37.8764 144.629 37.9574 144.295 37.9574 143.923C37.9574 143.543 37.8736 143.203 37.706 142.905C37.5412 142.604 37.3139 142.366 37.0241 142.193C36.7344 142.02 36.4034 141.932 36.0312 141.929C35.7642 141.926 35.4901 141.967 35.2088 142.052C34.9276 142.135 34.696 142.241 34.5142 142.372L33.5256 142.253L34.054 137.957H38.5881V138.895H34.9403L34.6335 141.469H34.6847C34.8636 141.327 35.0881 141.209 35.358 141.115C35.6278 141.021 35.9091 140.974 36.2017 140.974C36.7358 140.974 37.2116 141.102 37.6293 141.358C38.0497 141.611 38.3793 141.957 38.6179 142.398C38.8594 142.838 38.9801 143.341 38.9801 143.906C38.9801 144.463 38.8551 144.96 38.6051 145.398C38.358 145.832 38.017 146.176 37.5824 146.429C37.1477 146.679 36.6534 146.804 36.0994 146.804ZM41.8619 145.491L41.7937 145.952C41.7454 146.275 41.6715 146.622 41.5721 146.991C41.4755 147.361 41.3746 147.709 41.2695 148.035C41.1644 148.362 41.0778 148.622 41.0096 148.815H40.2425C40.2795 148.633 40.3278 148.393 40.3874 148.095C40.4471 147.797 40.5067 147.463 40.5664 147.094C40.6289 146.727 40.68 146.352 40.7198 145.969L40.771 145.491H41.8619ZM46.25 146.804C45.608 146.804 45.0611 146.629 44.6094 146.28C44.1577 145.927 43.8125 145.418 43.5739 144.75C43.3352 144.079 43.2159 143.27 43.2159 142.321C43.2159 141.378 43.3352 140.572 43.5739 139.905C43.8153 139.234 44.1619 138.723 44.6136 138.371C45.0682 138.016 45.6136 137.838 46.25 137.838C46.8864 137.838 47.4304 138.016 47.8821 138.371C48.3366 138.723 48.6832 139.234 48.9219 139.905C49.1634 140.572 49.2841 141.378 49.2841 142.321C49.2841 143.27 49.1648 144.079 48.9261 144.75C48.6875 145.418 48.3423 145.927 47.8906 146.28C47.4389 146.629 46.892 146.804 46.25 146.804ZM46.25 145.866C46.8864 145.866 47.3807 145.56 47.733 144.946C48.0852 144.332 48.2614 143.457 48.2614 142.321C48.2614 141.565 48.1804 140.922 48.0185 140.391C47.8594 139.859 47.6293 139.454 47.3281 139.176C47.0298 138.898 46.6705 138.758 46.25 138.758C45.6193 138.758 45.1264 139.07 44.7713 139.692C44.4162 140.311 44.2386 141.187 44.2386 142.321C44.2386 143.077 44.3182 143.719 44.4773 144.247C44.6364 144.775 44.8651 145.177 45.1634 145.453C45.4645 145.729 45.8267 145.866 46.25 145.866ZM53.75 146.804C53.108 146.804 52.5611 146.629 52.1094 146.28C51.6577 145.927 51.3125 145.418 51.0739 144.75C50.8352 144.079 50.7159 143.27 50.7159 142.321C50.7159 141.378 50.8352 140.572 51.0739 139.905C51.3153 139.234 51.6619 138.723 52.1136 138.371C52.5682 138.016 53.1136 137.838 53.75 137.838C54.3864 137.838 54.9304 138.016 55.3821 138.371C55.8366 138.723 56.1832 139.234 56.4219 139.905C56.6634 140.572 56.7841 141.378 56.7841 142.321C56.7841 143.27 56.6648 144.079 56.4261 144.75C56.1875 145.418 55.8423 145.927 55.3906 146.28C54.9389 146.629 54.392 146.804 53.75 146.804ZM53.75 145.866C54.3864 145.866 54.8807 145.56 55.233 144.946C55.5852 144.332 55.7614 143.457 55.7614 142.321C55.7614 141.565 55.6804 140.922 55.5185 140.391C55.3594 139.859 55.1293 139.454 54.8281 139.176C54.5298 138.898 54.1705 138.758 53.75 138.758C53.1193 138.758 52.6264 139.07 52.2713 139.692C51.9162 140.311 51.7386 141.187 51.7386 142.321C51.7386 143.077 51.8182 143.719 51.9773 144.247C52.1364 144.775 52.3651 145.177 52.6634 145.453C52.9645 145.729 53.3267 145.866 53.75 145.866ZM61.25 146.804C60.608 146.804 60.0611 146.629 59.6094 146.28C59.1577 145.927 58.8125 145.418 58.5739 144.75C58.3352 144.079 58.2159 143.27 58.2159 142.321C58.2159 141.378 58.3352 140.572 58.5739 139.905C58.8153 139.234 59.1619 138.723 59.6136 138.371C60.0682 138.016 60.6136 137.838 61.25 137.838C61.8864 137.838 62.4304 138.016 62.8821 138.371C63.3366 138.723 63.6832 139.234 63.9219 139.905C64.1634 140.572 64.2841 141.378 64.2841 142.321C64.2841 143.27 64.1648 144.079 63.9261 144.75C63.6875 145.418 63.3423 145.927 62.8906 146.28C62.4389 146.629 61.892 146.804 61.25 146.804ZM61.25 145.866C61.8864 145.866 62.3807 145.56 62.733 144.946C63.0852 144.332 63.2614 143.457 63.2614 142.321C63.2614 141.565 63.1804 140.922 63.0185 140.391C62.8594 139.859 62.6293 139.454 62.3281 139.176C62.0298 138.898 61.6705 138.758 61.25 138.758C60.6193 138.758 60.1264 139.07 59.7713 139.692C59.4162 140.311 59.2386 141.187 59.2386 142.321C59.2386 143.077 59.3182 143.719 59.4773 144.247C59.6364 144.775 59.8651 145.177 60.1634 145.453C60.4645 145.729 60.8267 145.866 61.25 145.866Z" fill="#98A2B3"/>
<path d="M73 142.685H613" stroke="#E4E7EA" stroke-dasharray="4 4"/>
<path d="M6.4858 184.611C6.43466 184.179 6.22727 183.844 5.86364 183.606C5.5 183.367 5.05398 183.248 4.52557 183.248C4.1392 183.248 3.80114 183.31 3.51136 183.435C3.22443 183.56 3 183.732 2.83807 183.951C2.67898 184.17 2.59943 184.418 2.59943 184.697C2.59943 184.929 2.65483 185.13 2.76562 185.297C2.87926 185.462 3.02415 185.6 3.20028 185.711C3.37642 185.819 3.56108 185.908 3.75426 185.979C3.94744 186.047 4.125 186.103 4.28693 186.145L5.1733 186.384C5.40057 186.444 5.65341 186.526 5.93182 186.631C6.21307 186.736 6.48153 186.88 6.73722 187.062C6.99574 187.241 7.20881 187.471 7.37642 187.752C7.54403 188.033 7.62784 188.378 7.62784 188.787C7.62784 189.259 7.50426 189.685 7.2571 190.066C7.01278 190.447 6.65483 190.749 6.18324 190.973C5.71449 191.198 5.14489 191.31 4.47443 191.31C3.84943 191.31 3.30824 191.209 2.85085 191.008C2.39631 190.806 2.03835 190.525 1.77699 190.164C1.51847 189.803 1.37216 189.384 1.33807 188.907H2.42898C2.45739 189.236 2.56818 189.509 2.76136 189.725C2.95739 189.938 3.20455 190.097 3.50284 190.202C3.80398 190.304 4.12784 190.356 4.47443 190.356C4.87784 190.356 5.24006 190.29 5.56108 190.16C5.8821 190.026 6.13636 189.841 6.32386 189.606C6.51136 189.367 6.60511 189.089 6.60511 188.77C6.60511 188.481 6.52415 188.245 6.36222 188.063C6.20028 187.881 5.98722 187.733 5.72301 187.62C5.45881 187.506 5.1733 187.407 4.86648 187.322L3.79261 187.015C3.1108 186.819 2.57102 186.539 2.1733 186.175C1.77557 185.812 1.5767 185.336 1.5767 184.748C1.5767 184.259 1.70881 183.833 1.97301 183.469C2.24006 183.103 2.59801 182.819 3.04688 182.617C3.49858 182.412 4.00284 182.31 4.55966 182.31C5.12216 182.31 5.62216 182.411 6.05966 182.613C6.49716 182.812 6.84375 183.084 7.09943 183.431C7.35795 183.777 7.49432 184.171 7.50852 184.611H6.4858ZM9.72337 191.157H8.61541L11.82 182.429H12.9109L16.1154 191.157H15.0075L12.3995 183.81H12.3313L9.72337 191.157ZM10.1325 187.748H14.5984V188.685H10.1325V187.748ZM17.4748 191.157V182.429H20.4237C21.1055 182.429 21.6651 182.546 22.1026 182.779C22.5401 183.009 22.864 183.326 23.0742 183.729C23.2844 184.133 23.3896 184.591 23.3896 185.106C23.3896 185.62 23.2844 186.076 23.0742 186.473C22.864 186.871 22.5415 187.184 22.1069 187.411C21.6722 187.635 21.1168 187.748 20.4407 187.748H18.0543V186.793H20.4066C20.8725 186.793 21.2475 186.725 21.5316 186.589C21.8185 186.452 22.0259 186.259 22.1538 186.009C22.2844 185.756 22.3498 185.455 22.3498 185.106C22.3498 184.756 22.2844 184.451 22.1538 184.189C22.0231 183.928 21.8143 183.726 21.5273 183.584C21.2404 183.439 20.8612 183.367 20.3896 183.367H18.5316V191.157H17.4748ZM21.5827 187.236L23.7305 191.157H22.5032L20.3896 187.236H21.5827ZM31.0994 191.276C30.5994 191.276 30.1491 191.177 29.7486 190.978C29.348 190.779 29.027 190.506 28.7855 190.16C28.544 189.813 28.4119 189.418 28.3892 188.975H29.4119C29.4517 189.37 29.6307 189.697 29.9489 189.955C30.2699 190.211 30.6534 190.339 31.0994 190.339C31.4574 190.339 31.7756 190.255 32.054 190.087C32.3352 189.92 32.5554 189.689 32.7145 189.397C32.8764 189.101 32.9574 188.768 32.9574 188.395C32.9574 188.015 32.8736 187.675 32.706 187.377C32.5412 187.076 32.3139 186.839 32.0241 186.665C31.7344 186.492 31.4034 186.404 31.0312 186.401C30.7642 186.398 30.4901 186.439 30.2088 186.525C29.9276 186.607 29.696 186.714 29.5142 186.844L28.5256 186.725L29.054 182.429H33.5881V183.367H29.9403L29.6335 185.941H29.6847C29.8636 185.799 30.0881 185.681 30.358 185.587C30.6278 185.493 30.9091 185.447 31.2017 185.447C31.7358 185.447 32.2116 185.574 32.6293 185.83C33.0497 186.083 33.3793 186.429 33.6179 186.87C33.8594 187.31 33.9801 187.813 33.9801 188.378C33.9801 188.935 33.8551 189.432 33.6051 189.87C33.358 190.304 33.017 190.648 32.5824 190.901C32.1477 191.151 31.6534 191.276 31.0994 191.276ZM36.8619 189.964L36.7937 190.424C36.7454 190.748 36.6715 191.094 36.5721 191.464C36.4755 191.833 36.3746 192.181 36.2695 192.508C36.1644 192.834 36.0778 193.094 36.0096 193.287H35.2425C35.2795 193.106 35.3278 192.866 35.3874 192.567C35.4471 192.269 35.5067 191.935 35.5664 191.566C35.6289 191.199 35.68 190.824 35.7198 190.441L35.771 189.964H36.8619ZM41.25 191.276C40.608 191.276 40.0611 191.101 39.6094 190.752C39.1577 190.4 38.8125 189.89 38.5739 189.222C38.3352 188.552 38.2159 187.742 38.2159 186.793C38.2159 185.85 38.3352 185.045 38.5739 184.377C38.8153 183.706 39.1619 183.195 39.6136 182.843C40.0682 182.488 40.6136 182.31 41.25 182.31C41.8864 182.31 42.4304 182.488 42.8821 182.843C43.3366 183.195 43.6832 183.706 43.9219 184.377C44.1634 185.045 44.2841 185.85 44.2841 186.793C44.2841 187.742 44.1648 188.552 43.9261 189.222C43.6875 189.89 43.3423 190.4 42.8906 190.752C42.4389 191.101 41.892 191.276 41.25 191.276ZM41.25 190.339C41.8864 190.339 42.3807 190.032 42.733 189.418C43.0852 188.804 43.2614 187.929 43.2614 186.793C43.2614 186.037 43.1804 185.394 43.0185 184.863C42.8594 184.331 42.6293 183.927 42.3281 183.648C42.0298 183.37 41.6705 183.231 41.25 183.231C40.6193 183.231 40.1264 183.542 39.7713 184.164C39.4162 184.783 39.2386 185.66 39.2386 186.793C39.2386 187.549 39.3182 188.191 39.4773 188.719C39.6364 189.248 39.8651 189.65 40.1634 189.925C40.4645 190.201 40.8267 190.339 41.25 190.339ZM48.75 191.276C48.108 191.276 47.5611 191.101 47.1094 190.752C46.6577 190.4 46.3125 189.89 46.0739 189.222C45.8352 188.552 45.7159 187.742 45.7159 186.793C45.7159 185.85 45.8352 185.045 46.0739 184.377C46.3153 183.706 46.6619 183.195 47.1136 182.843C47.5682 182.488 48.1136 182.31 48.75 182.31C49.3864 182.31 49.9304 182.488 50.3821 182.843C50.8366 183.195 51.1832 183.706 51.4219 184.377C51.6634 185.045 51.7841 185.85 51.7841 186.793C51.7841 187.742 51.6648 188.552 51.4261 189.222C51.1875 189.89 50.8423 190.4 50.3906 190.752C49.9389 191.101 49.392 191.276 48.75 191.276ZM48.75 190.339C49.3864 190.339 49.8807 190.032 50.233 189.418C50.5852 188.804 50.7614 187.929 50.7614 186.793C50.7614 186.037 50.6804 185.394 50.5185 184.863C50.3594 184.331 50.1293 183.927 49.8281 183.648C49.5298 183.37 49.1705 183.231 48.75 183.231C48.1193 183.231 47.6264 183.542 47.2713 184.164C46.9162 184.783 46.7386 185.66 46.7386 186.793C46.7386 187.549 46.8182 188.191 46.9773 188.719C47.1364 189.248 47.3651 189.65 47.6634 189.925C47.9645 190.201 48.3267 190.339 48.75 190.339ZM56.25 191.276C55.608 191.276 55.0611 191.101 54.6094 190.752C54.1577 190.4 53.8125 189.89 53.5739 189.222C53.3352 188.552 53.2159 187.742 53.2159 186.793C53.2159 185.85 53.3352 185.045 53.5739 184.377C53.8153 183.706 54.1619 183.195 54.6136 182.843C55.0682 182.488 55.6136 182.31 56.25 182.31C56.8864 182.31 57.4304 182.488 57.8821 182.843C58.3366 183.195 58.6832 183.706 58.9219 184.377C59.1634 185.045 59.2841 185.85 59.2841 186.793C59.2841 187.742 59.1648 188.552 58.9261 189.222C58.6875 189.89 58.3423 190.4 57.8906 190.752C57.4389 191.101 56.892 191.276 56.25 191.276ZM56.25 190.339C56.8864 190.339 57.3807 190.032 57.733 189.418C58.0852 188.804 58.2614 187.929 58.2614 186.793C58.2614 186.037 58.1804 185.394 58.0185 184.863C57.8594 184.331 57.6293 183.927 57.3281 183.648C57.0298 183.37 56.6705 183.231 56.25 183.231C55.6193 183.231 55.1264 183.542 54.7713 184.164C54.4162 184.783 54.2386 185.66 54.2386 186.793C54.2386 187.549 54.3182 188.191 54.4773 188.719C54.6364 189.248 54.8651 189.65 55.1634 189.925C55.4645 190.201 55.8267 190.339 56.25 190.339Z" fill="#98A2B3"/>
<path d="M68 187.157H613" stroke="#E4E7EA" stroke-dasharray="4 4"/>
<path d="M18.517 229.088C18.4659 228.656 18.2585 228.321 17.8949 228.082C17.5313 227.844 17.0852 227.724 16.5568 227.724C16.1705 227.724 15.8324 227.787 15.5426 227.912C15.2557 228.037 15.0313 228.209 14.8693 228.427C14.7102 228.646 14.6307 228.895 14.6307 229.173C14.6307 229.406 14.6861 229.606 14.7969 229.774C14.9105 229.939 15.0554 230.076 15.2315 230.187C15.4077 230.295 15.5923 230.385 15.7855 230.456C15.9787 230.524 16.1562 230.579 16.3182 230.622L17.2045 230.861C17.4318 230.92 17.6847 231.003 17.9631 231.108C18.2443 231.213 18.5128 231.356 18.7685 231.538C19.027 231.717 19.2401 231.947 19.4077 232.228C19.5753 232.51 19.6591 232.855 19.6591 233.264C19.6591 233.736 19.5355 234.162 19.2884 234.542C19.044 234.923 18.6861 235.226 18.2145 235.45C17.7457 235.674 17.1761 235.787 16.5057 235.787C15.8807 235.787 15.3395 235.686 14.8821 235.484C14.4276 235.282 14.0696 235.001 13.8082 234.64C13.5497 234.28 13.4034 233.861 13.3693 233.383H14.4602C14.4886 233.713 14.5994 233.986 14.7926 234.201C14.9886 234.415 15.2358 234.574 15.5341 234.679C15.8352 234.781 16.1591 234.832 16.5057 234.832C16.9091 234.832 17.2713 234.767 17.5923 234.636C17.9134 234.503 18.1676 234.318 18.3551 234.082C18.5426 233.844 18.6364 233.565 18.6364 233.247C18.6364 232.957 18.5554 232.721 18.3935 232.54C18.2315 232.358 18.0185 232.21 17.7543 232.096C17.4901 231.983 17.2045 231.883 16.8977 231.798L15.8239 231.491C15.142 231.295 14.6023 231.015 14.2045 230.652C13.8068 230.288 13.608 229.812 13.608 229.224C13.608 228.736 13.7401 228.309 14.0043 227.946C14.2713 227.579 14.6293 227.295 15.0781 227.094C15.5298 226.889 16.0341 226.787 16.5909 226.787C17.1534 226.787 17.6534 226.888 18.0909 227.089C18.5284 227.288 18.875 227.561 19.1307 227.907C19.3892 228.254 19.5256 228.648 19.5398 229.088H18.517ZM21.7546 235.633H20.6467L23.8512 226.906H24.9421L28.1467 235.633H27.0387L24.4308 228.287H24.3626L21.7546 235.633ZM22.1637 232.224H26.6296V233.162H22.1637V232.224ZM29.506 235.633V226.906H32.4549C33.1367 226.906 33.6964 227.023 34.1339 227.255C34.5714 227.486 34.8952 227.802 35.1055 228.206C35.3157 228.609 35.4208 229.068 35.4208 229.582C35.4208 230.096 35.3157 230.552 35.1055 230.95C34.8952 231.348 34.5728 231.66 34.1381 231.888C33.7035 232.112 33.1481 232.224 32.4719 232.224H30.0856V231.27H32.4379C32.9038 231.27 33.2788 231.201 33.5629 231.065C33.8498 230.929 34.0572 230.736 34.185 230.486C34.3157 230.233 34.381 229.932 34.381 229.582C34.381 229.233 34.3157 228.927 34.185 228.666C34.0543 228.405 33.8455 228.203 33.5586 228.061C33.2717 227.916 32.8924 227.844 32.4208 227.844H30.5629V235.633H29.506ZM33.614 231.713L35.7617 235.633H34.5344L32.4208 231.713H33.614ZM43.25 235.753C42.608 235.753 42.0611 235.578 41.6094 235.228C41.1577 234.876 40.8125 234.366 40.5739 233.699C40.3352 233.028 40.2159 232.219 40.2159 231.27C40.2159 230.326 40.3352 229.521 40.5739 228.853C40.8153 228.183 41.1619 227.672 41.6136 227.319C42.0682 226.964 42.6136 226.787 43.25 226.787C43.8864 226.787 44.4304 226.964 44.8821 227.319C45.3366 227.672 45.6832 228.183 45.9219 228.853C46.1634 229.521 46.2841 230.326 46.2841 231.27C46.2841 232.219 46.1648 233.028 45.9261 233.699C45.6875 234.366 45.3423 234.876 44.8906 235.228C44.4389 235.578 43.892 235.753 43.25 235.753ZM43.25 234.815C43.8864 234.815 44.3807 234.508 44.733 233.895C45.0852 233.281 45.2614 232.406 45.2614 231.27C45.2614 230.514 45.1804 229.871 45.0185 229.339C44.8594 228.808 44.6293 228.403 44.3281 228.125C44.0298 227.846 43.6705 227.707 43.25 227.707C42.6193 227.707 42.1264 228.018 41.7713 228.64C41.4162 229.26 41.2386 230.136 41.2386 231.27C41.2386 232.025 41.3182 232.667 41.4773 233.196C41.6364 233.724 41.8651 234.126 42.1634 234.402C42.4645 234.677 42.8267 234.815 43.25 234.815Z" fill="#98A2B3"/>
<path d="M55 231.633H613" stroke="#E4E7EA"/>
<path d="M71.885 271.554L78.0561 277.725L77.3089 278.473L71.9212 273.085L71.885 273.121L71.3788 275.628L70.6195 274.869L71.1377 272.302L71.885 271.554ZM76.1548 267.285L77.0467 266.393L84.2664 269.418L84.3387 269.346L81.3134 262.126L82.2054 261.234L88.3765 267.405L87.6774 268.104L82.9888 263.416L82.9285 263.476L85.6887 270.093L85.0137 270.768L78.3966 268.008L78.3364 268.068L83.025 272.757L82.3259 273.456L76.1548 267.285ZM91.2489 264.75C90.9556 265.043 90.6342 265.254 90.2846 265.382C89.9331 265.509 89.5815 265.537 89.23 265.467C88.8764 265.395 88.549 265.208 88.2477 264.906C87.9825 264.641 87.8198 264.374 87.7595 264.105C87.6972 263.834 87.7063 263.563 87.7866 263.294C87.867 263.025 87.9895 262.762 88.1543 262.505C88.319 262.244 88.4948 261.992 88.6816 261.749C88.9266 261.431 89.1275 261.176 89.2842 260.983C89.4409 260.786 89.5363 260.625 89.5705 260.498C89.6066 260.369 89.5675 260.248 89.453 260.133L89.4289 260.109C89.1315 259.812 88.8192 259.662 88.4917 259.66C88.1663 259.656 87.8399 259.818 87.5124 260.145C87.1729 260.485 86.9811 260.825 86.9369 261.167C86.8927 261.508 86.9158 261.803 87.0062 262.05L86.0902 262.484C85.9295 262.082 85.8712 261.702 85.9154 261.345C85.9596 260.983 86.0701 260.652 86.2469 260.35C86.4237 260.045 86.6286 259.776 86.8616 259.543C87.0102 259.394 87.1991 259.241 87.4281 259.085C87.6571 258.924 87.9162 258.808 88.2055 258.735C88.4968 258.661 88.8121 258.673 89.1516 258.771C89.4911 258.87 89.8447 259.103 90.2123 259.471L93.2617 262.52L92.5506 263.231L91.9238 262.604L91.8877 262.64C91.9399 262.789 91.967 262.977 91.969 263.204C91.971 263.431 91.9188 263.678 91.8123 263.945C91.7059 264.212 91.518 264.481 91.2489 264.75ZM90.7185 264.002C90.9998 263.721 91.1816 263.429 91.2639 263.126C91.3483 262.82 91.3523 262.531 91.276 262.258C91.2016 261.983 91.0681 261.749 90.8752 261.556L90.2244 260.905C90.2304 260.971 90.1972 261.071 90.1249 261.203C90.0526 261.332 89.9612 261.473 89.8507 261.628C89.7402 261.779 89.6307 261.924 89.5223 262.065C89.4138 262.202 89.3264 262.313 89.2601 262.399C89.0994 262.608 88.9658 262.82 88.8594 263.035C88.7529 263.246 88.7037 263.454 88.7117 263.659C88.7197 263.86 88.8142 264.051 88.9949 264.231C89.242 264.479 89.5203 264.574 89.8296 264.518C90.139 264.457 90.4353 264.286 90.7185 264.002ZM96.5876 262.665C96.467 262.786 96.3495 262.883 96.235 262.958C96.1225 263.034 96.0391 263.081 95.9849 263.099L95.539 262.292C95.7559 262.163 95.9246 262.026 96.0452 261.882C96.1657 261.737 96.224 261.56 96.2199 261.352C96.2199 261.143 96.1456 260.877 95.997 260.556L95.768 260.062L89.404 257.121L90.1754 256.35L95.1412 258.76L95.1894 258.712L92.7788 253.746L93.5502 252.975L96.8889 260.243C97.0395 260.57 97.1279 260.877 97.154 261.165C97.1822 261.454 97.148 261.723 97.0516 261.972C96.9572 262.219 96.8025 262.45 96.5876 262.665Z" fill="#98A2B3"/>
<path d="M127.705 278.623C127.307 279.021 126.885 279.307 126.437 279.482C125.991 279.655 125.555 279.711 125.129 279.651C124.703 279.587 124.32 279.401 123.981 279.093L124.74 278.334C124.955 278.517 125.195 278.62 125.46 278.644C125.723 278.667 125.992 278.619 126.265 278.503C126.538 278.386 126.793 278.21 127.03 277.972C127.295 277.707 127.484 277.426 127.597 277.129C127.709 276.831 127.741 276.542 127.693 276.261C127.645 275.98 127.512 275.731 127.295 275.514C127.068 275.287 126.812 275.143 126.527 275.083C126.24 275.02 125.938 275.049 125.623 275.167C125.308 275.286 124.993 275.502 124.68 275.815L124.186 276.309L123.523 275.646L124.017 275.152C124.262 274.907 124.433 274.648 124.529 274.375C124.628 274.099 124.649 273.829 124.592 273.564C124.538 273.297 124.403 273.055 124.186 272.838C123.977 272.629 123.749 272.493 123.502 272.431C123.255 272.369 123.003 272.379 122.748 272.461C122.495 272.542 122.255 272.695 122.028 272.922C121.815 273.135 121.654 273.375 121.543 273.642C121.433 273.906 121.391 274.17 121.42 274.435C121.446 274.698 121.556 274.937 121.751 275.152L121.028 275.875C120.716 275.54 120.531 275.159 120.47 274.733C120.408 274.305 120.456 273.875 120.615 273.444C120.776 273.01 121.034 272.615 121.389 272.259C121.771 271.878 122.176 271.628 122.604 271.509C123.03 271.389 123.441 271.381 123.839 271.485C124.237 271.589 124.581 271.787 124.873 272.079C125.22 272.426 125.425 272.814 125.487 273.242C125.552 273.668 125.475 274.083 125.258 274.489L125.307 274.537C125.761 274.212 126.231 274.073 126.717 274.122C127.201 274.168 127.639 274.387 128.031 274.778C128.366 275.114 128.576 275.507 128.66 275.957C128.745 276.403 128.707 276.859 128.546 277.325C128.385 277.791 128.105 278.224 127.705 278.623ZM127.262 266.555L128.154 265.663L135.374 268.689L135.446 268.616L132.421 261.397L133.313 260.505L139.484 266.676L138.785 267.375L134.096 262.686L134.036 262.747L136.796 269.364L136.121 270.039L129.504 267.278L129.444 267.339L134.132 272.027L133.433 272.726L127.262 266.555ZM142.356 264.02C142.063 264.314 141.742 264.525 141.392 264.653C141.04 264.78 140.689 264.808 140.337 264.738C139.984 264.665 139.656 264.478 139.355 264.177C139.09 263.912 138.927 263.645 138.867 263.376C138.805 263.104 138.814 262.834 138.894 262.565C138.974 262.296 139.097 262.033 139.262 261.776C139.426 261.514 139.602 261.262 139.789 261.019C140.034 260.702 140.235 260.447 140.392 260.254C140.548 260.057 140.644 259.895 140.678 259.769C140.714 259.64 140.675 259.519 140.56 259.404L140.536 259.38C140.239 259.083 139.927 258.933 139.599 258.931C139.274 258.927 138.947 259.089 138.62 259.416C138.28 259.756 138.089 260.096 138.044 260.438C138 260.779 138.023 261.073 138.114 261.321L137.198 261.754C137.037 261.353 136.979 260.973 137.023 260.615C137.067 260.254 137.178 259.922 137.354 259.621C137.531 259.316 137.736 259.047 137.969 258.814C138.118 258.665 138.306 258.512 138.535 258.356C138.764 258.195 139.024 258.078 139.313 258.006C139.604 257.932 139.92 257.944 140.259 258.042C140.599 258.141 140.952 258.374 141.32 258.741L144.369 261.791L143.658 262.502L143.031 261.875L142.995 261.911C143.047 262.06 143.074 262.248 143.076 262.475C143.078 262.702 143.026 262.949 142.92 263.216C142.813 263.483 142.625 263.751 142.356 264.02ZM141.826 263.273C142.107 262.992 142.289 262.7 142.371 262.396C142.456 262.091 142.46 261.802 142.383 261.528C142.309 261.253 142.175 261.019 141.983 260.826L141.332 260.176C141.338 260.242 141.305 260.341 141.232 260.474C141.16 260.602 141.069 260.744 140.958 260.899C140.848 261.049 140.738 261.195 140.63 261.336C140.521 261.472 140.434 261.584 140.368 261.67C140.207 261.879 140.073 262.091 139.967 262.306C139.86 262.517 139.811 262.725 139.819 262.93C139.827 263.131 139.922 263.321 140.102 263.502C140.349 263.749 140.628 263.845 140.937 263.788C141.246 263.728 141.543 263.556 141.826 263.273ZM147.695 261.936C147.574 262.057 147.457 262.154 147.342 262.228C147.23 262.305 147.147 262.352 147.092 262.37L146.646 261.562C146.863 261.434 147.032 261.297 147.153 261.153C147.273 261.008 147.331 260.831 147.327 260.622C147.327 260.413 147.253 260.148 147.104 259.827L146.875 259.333L140.511 256.392L141.283 255.62L146.249 258.031L146.297 257.983L143.886 253.017L144.658 252.245L147.996 259.513C148.147 259.841 148.235 260.148 148.261 260.435C148.29 260.725 148.255 260.994 148.159 261.243C148.065 261.49 147.91 261.721 147.695 261.936Z" fill="#98A2B3"/>
<path d="M178.101 278.606C177.844 278.855 177.543 279.06 177.197 279.22C176.852 279.381 176.465 279.456 176.037 279.446C175.607 279.434 175.141 279.304 174.639 279.055C174.135 278.803 173.597 278.393 173.027 277.822C172.48 277.276 172.047 276.74 171.728 276.216C171.407 275.69 171.199 275.185 171.104 274.7C171.008 274.214 171.022 273.758 171.147 273.332C171.273 272.905 171.51 272.517 171.858 272.169C172.203 271.824 172.58 271.586 172.988 271.455C173.395 271.321 173.807 271.29 174.223 271.365C174.639 271.439 175.032 271.611 175.401 271.88L174.666 272.615C174.32 272.406 173.958 272.309 173.578 272.323C173.199 272.337 172.846 272.507 172.521 272.832C172.042 273.31 171.874 273.895 172.014 274.586C172.157 275.275 172.603 275.996 173.352 276.749L173.4 276.701C173.342 276.418 173.33 276.139 173.364 275.864C173.398 275.584 173.477 275.317 173.599 275.062C173.722 274.807 173.889 274.574 174.1 274.363C174.453 274.009 174.865 273.774 175.335 273.658C175.803 273.539 176.28 273.546 176.766 273.679C177.25 273.81 177.691 274.074 178.089 274.471C178.471 274.853 178.735 275.288 178.882 275.776C179.026 276.262 179.037 276.753 178.915 277.25C178.792 277.742 178.521 278.194 178.101 278.606ZM177.438 277.943C177.691 277.69 177.855 277.399 177.929 277.072C178.006 276.742 177.996 276.413 177.899 276.084C177.805 275.752 177.627 275.456 177.366 275.195C177.111 274.94 176.821 274.765 176.498 274.67C176.175 274.572 175.851 274.56 175.528 274.634C175.206 274.706 174.919 274.869 174.666 275.122C174.475 275.313 174.336 275.529 174.247 275.77C174.157 276.009 174.115 276.256 174.121 276.511C174.129 276.765 174.182 277.011 174.28 277.25C174.377 277.487 174.517 277.698 174.702 277.882C174.947 278.128 175.233 278.299 175.561 278.398C175.89 278.494 176.221 278.507 176.552 278.437C176.886 278.365 177.181 278.2 177.438 277.943ZM177.587 266.609L178.478 265.717L185.698 268.743L185.771 268.67L182.745 261.451L183.637 260.559L189.808 266.73L189.109 267.429L184.421 262.74L184.36 262.8L187.12 269.418L186.446 270.092L179.828 267.332L179.768 267.393L184.457 272.081L183.758 272.78L177.587 266.609ZM192.681 264.074C192.387 264.368 192.066 264.578 191.716 264.707C191.365 264.834 191.013 264.862 190.662 264.791C190.308 264.719 189.981 264.532 189.679 264.231C189.414 263.966 189.252 263.699 189.191 263.429C189.129 263.158 189.138 262.888 189.218 262.619C189.299 262.35 189.421 262.087 189.586 261.829C189.751 261.568 189.927 261.316 190.113 261.073C190.358 260.756 190.559 260.501 190.716 260.308C190.873 260.111 190.968 259.949 191.002 259.823C191.038 259.694 190.999 259.573 190.885 259.458L190.861 259.434C190.563 259.137 190.251 258.987 189.924 258.985C189.598 258.981 189.272 259.143 188.944 259.47C188.605 259.81 188.413 260.15 188.369 260.492C188.325 260.833 188.348 261.127 188.438 261.374L187.522 261.808C187.361 261.407 187.303 261.027 187.347 260.669C187.391 260.308 187.502 259.976 187.679 259.675C187.855 259.37 188.06 259.1 188.293 258.867C188.442 258.719 188.631 258.566 188.86 258.409C189.089 258.249 189.348 258.132 189.637 258.06C189.929 257.986 190.244 257.998 190.583 258.096C190.923 258.194 191.276 258.427 191.644 258.795L194.693 261.844L193.982 262.556L193.356 261.929L193.319 261.965C193.372 262.114 193.399 262.301 193.401 262.528C193.403 262.755 193.351 263.003 193.244 263.27C193.138 263.537 192.95 263.805 192.681 264.074ZM192.15 263.327C192.432 263.046 192.613 262.753 192.696 262.45C192.78 262.145 192.784 261.856 192.708 261.582C192.633 261.307 192.5 261.073 192.307 260.88L191.656 260.229C191.662 260.296 191.629 260.395 191.557 260.528C191.484 260.656 191.393 260.798 191.283 260.953C191.172 261.103 191.063 261.249 190.954 261.389C190.846 261.526 190.758 261.638 190.692 261.724C190.531 261.933 190.398 262.145 190.291 262.36C190.185 262.571 190.135 262.779 190.144 262.983C190.152 263.184 190.246 263.375 190.427 263.556C190.674 263.803 190.952 263.899 191.261 263.842C191.571 263.782 191.867 263.61 192.15 263.327ZM198.019 261.99C197.899 262.11 197.781 262.208 197.667 262.282C197.554 262.358 197.471 262.406 197.417 262.424L196.971 261.616C197.188 261.488 197.356 261.351 197.477 261.206C197.598 261.062 197.656 260.885 197.652 260.676C197.652 260.467 197.577 260.202 197.429 259.881L197.2 259.386L190.836 256.446L191.607 255.674L196.573 258.085L196.621 258.037L194.211 253.071L194.982 252.299L198.321 259.567C198.471 259.895 198.56 260.202 198.586 260.489C198.614 260.779 198.58 261.048 198.483 261.297C198.389 261.544 198.234 261.775 198.019 261.99Z" fill="#98A2B3"/>
<path d="M222.055 272.35C222.31 272.099 222.612 271.894 222.959 271.735C223.307 271.577 223.694 271.502 224.122 271.512C224.548 271.52 225.012 271.649 225.514 271.898C226.017 272.147 226.551 272.555 227.117 273.122C227.666 273.67 228.101 274.209 228.422 274.74C228.743 275.266 228.952 275.772 229.049 276.258C229.147 276.742 229.133 277.198 229.007 277.626C228.882 278.052 228.646 278.439 228.299 278.786C227.953 279.132 227.576 279.372 227.169 279.507C226.761 279.637 226.348 279.666 225.93 279.594C225.512 279.518 225.117 279.341 224.743 279.064L225.478 278.328C225.828 278.545 226.193 278.648 226.575 278.636C226.957 278.62 227.31 278.449 227.636 278.124C228.112 277.647 228.279 277.064 228.139 276.373C228 275.68 227.551 274.954 226.792 274.194L226.744 274.242C226.8 274.524 226.812 274.803 226.78 275.08C226.748 275.357 226.67 275.624 226.548 275.879C226.425 276.134 226.258 276.368 226.045 276.581C225.691 276.934 225.279 277.171 224.809 277.292C224.339 277.408 223.862 277.401 223.378 277.271C222.894 277.136 222.453 276.87 222.055 276.472C221.677 276.095 221.416 275.665 221.272 275.183C221.127 274.696 221.115 274.206 221.235 273.712C221.358 273.216 221.631 272.762 222.055 272.35ZM222.718 273.013C222.465 273.266 222.3 273.557 222.224 273.887C222.148 274.212 222.157 274.541 222.251 274.872C222.345 275.2 222.521 275.492 222.778 275.749C223.035 276.006 223.326 276.184 223.649 276.282C223.973 276.377 224.295 276.388 224.616 276.316C224.938 276.239 225.225 276.075 225.478 275.821C225.669 275.631 225.81 275.416 225.9 275.177C225.988 274.935 226.029 274.688 226.021 274.435C226.012 274.178 225.96 273.931 225.864 273.694C225.765 273.455 225.625 273.244 225.442 273.061C225.201 272.82 224.917 272.652 224.589 272.558C224.264 272.462 223.934 272.45 223.601 272.522C223.269 272.592 222.975 272.756 222.718 273.013ZM227.965 266.609L228.857 265.717L236.076 268.743L236.149 268.67L233.123 261.451L234.015 260.559L240.187 266.73L239.487 267.429L234.799 262.74L234.739 262.8L237.499 269.418L236.824 270.092L230.207 267.332L230.146 267.393L234.835 272.081L234.136 272.78L227.965 266.609ZM243.059 264.074C242.766 264.368 242.444 264.578 242.095 264.707C241.743 264.834 241.392 264.862 241.04 264.791C240.686 264.719 240.359 264.532 240.058 264.231C239.793 263.966 239.63 263.699 239.57 263.429C239.507 263.158 239.516 262.888 239.597 262.619C239.677 262.35 239.8 262.087 239.964 261.829C240.129 261.568 240.305 261.316 240.492 261.073C240.737 260.756 240.938 260.501 241.094 260.308C241.251 260.111 241.346 259.949 241.381 259.823C241.417 259.694 241.377 259.573 241.263 259.458L241.239 259.434C240.942 259.137 240.629 258.987 240.302 258.985C239.976 258.981 239.65 259.143 239.322 259.47C238.983 259.81 238.791 260.15 238.747 260.492C238.703 260.833 238.726 261.127 238.816 261.374L237.9 261.808C237.74 261.407 237.681 261.027 237.725 260.669C237.77 260.308 237.88 259.976 238.057 259.675C238.234 259.37 238.439 259.1 238.672 258.867C238.82 258.719 239.009 258.566 239.238 258.409C239.467 258.249 239.726 258.132 240.016 258.06C240.307 257.986 240.622 257.998 240.962 258.096C241.301 258.194 241.655 258.427 242.022 258.795L245.072 261.844L244.361 262.556L243.734 261.929L243.698 261.965C243.75 262.114 243.777 262.301 243.779 262.528C243.781 262.755 243.729 263.003 243.622 263.27C243.516 263.537 243.328 263.805 243.059 264.074ZM242.529 263.327C242.81 263.046 242.992 262.753 243.074 262.45C243.158 262.145 243.162 261.856 243.086 261.582C243.012 261.307 242.878 261.073 242.685 260.88L242.034 260.229C242.04 260.296 242.007 260.395 241.935 260.528C241.863 260.656 241.771 260.798 241.661 260.953C241.55 261.103 241.441 261.249 241.332 261.389C241.224 261.526 241.136 261.638 241.07 261.724C240.909 261.933 240.776 262.145 240.669 262.36C240.563 262.571 240.514 262.779 240.522 262.983C240.53 263.184 240.624 263.375 240.805 263.556C241.052 263.803 241.33 263.899 241.64 263.842C241.949 263.782 242.245 263.61 242.529 263.327ZM248.398 261.99C248.277 262.11 248.16 262.208 248.045 262.282C247.933 262.358 247.849 262.406 247.795 262.424L247.349 261.616C247.566 261.488 247.735 261.351 247.855 261.206C247.976 261.062 248.034 260.885 248.03 260.676C248.03 260.467 247.956 260.202 247.807 259.881L247.578 259.386L241.214 256.446L241.985 255.674L246.951 258.085L246.999 258.037L244.589 253.071L245.36 252.299L248.699 259.567C248.85 259.895 248.938 260.202 248.964 260.489C248.992 260.779 248.958 261.048 248.862 261.297C248.767 261.544 248.613 261.775 248.398 261.99Z" fill="#98A2B3"/>
<path d="M270.829 274.123L277 280.294L276.253 281.041L270.865 275.654L270.829 275.69L270.323 278.197L269.564 277.437L270.082 274.87L270.829 274.123ZM278.775 278.519L278.233 277.977L278.04 273.71C278.018 273.21 277.988 272.786 277.949 272.438C277.909 272.089 277.841 271.792 277.745 271.547C277.648 271.297 277.506 271.078 277.317 270.89C277.1 270.673 276.86 270.537 276.597 270.483C276.335 270.427 276.072 270.445 275.807 270.537C275.542 270.629 275.298 270.787 275.075 271.01C274.838 271.247 274.68 271.503 274.602 271.779C274.523 272.05 274.523 272.321 274.602 272.592C274.682 272.861 274.84 273.113 275.075 273.348L274.364 274.06C274.002 273.698 273.768 273.297 273.662 272.857C273.555 272.417 273.569 271.977 273.704 271.537C273.84 271.096 274.088 270.695 274.448 270.335C274.81 269.974 275.206 269.73 275.638 269.603C276.07 269.476 276.495 269.463 276.913 269.564C277.331 269.664 277.698 269.873 278.016 270.191C278.243 270.418 278.424 270.681 278.558 270.98C278.693 271.275 278.792 271.656 278.856 272.122C278.921 272.584 278.966 273.182 278.992 273.915L279.088 276.784L279.137 276.832L282.005 273.963L282.668 274.626L278.775 278.519ZM280.237 264.715L281.128 263.824L288.348 266.849L288.42 266.777L285.395 259.557L286.287 258.665L292.458 264.836L291.759 265.535L287.071 260.846L287.01 260.907L289.77 267.524L289.095 268.199L282.478 265.439L282.418 265.499L287.107 270.188L286.408 270.887L280.237 264.715ZM295.331 262.181C295.037 262.474 294.716 262.685 294.366 262.813C294.015 262.94 293.663 262.968 293.312 262.898C292.958 262.825 292.631 262.639 292.329 262.337C292.064 262.072 291.902 261.805 291.841 261.536C291.779 261.265 291.788 260.994 291.868 260.725C291.949 260.456 292.071 260.193 292.236 259.936C292.401 259.675 292.576 259.422 292.763 259.179C293.008 258.862 293.209 258.607 293.366 258.414C293.523 258.217 293.618 258.055 293.652 257.929C293.688 257.8 293.649 257.679 293.535 257.564L293.511 257.54C293.213 257.243 292.901 257.093 292.573 257.091C292.248 257.087 291.922 257.249 291.594 257.576C291.255 257.916 291.063 258.256 291.019 258.598C290.974 258.939 290.998 259.234 291.088 259.481L290.172 259.915C290.011 259.513 289.953 259.133 289.997 258.776C290.041 258.414 290.152 258.083 290.329 257.781C290.505 257.476 290.71 257.207 290.943 256.974C291.092 256.825 291.281 256.672 291.51 256.516C291.739 256.355 291.998 256.239 292.287 256.166C292.578 256.092 292.894 256.104 293.233 256.202C293.573 256.301 293.926 256.534 294.294 256.901L297.343 259.951L296.632 260.662L296.006 260.035L295.969 260.071C296.022 260.22 296.049 260.408 296.051 260.635C296.053 260.862 296.001 261.109 295.894 261.376C295.788 261.643 295.6 261.911 295.331 262.181ZM294.8 261.433C295.081 261.152 295.263 260.86 295.346 260.556C295.43 260.251 295.434 259.962 295.358 259.689C295.283 259.413 295.15 259.179 294.957 258.987L294.306 258.336C294.312 258.402 294.279 258.501 294.207 258.634C294.134 258.763 294.043 258.904 293.932 259.059C293.822 259.21 293.712 259.355 293.604 259.496C293.496 259.632 293.408 259.744 293.342 259.83C293.181 260.039 293.048 260.251 292.941 260.466C292.835 260.677 292.785 260.885 292.793 261.09C292.801 261.291 292.896 261.482 293.077 261.662C293.324 261.909 293.602 262.005 293.911 261.949C294.221 261.888 294.517 261.717 294.8 261.433ZM300.669 260.096C300.549 260.217 300.431 260.314 300.317 260.388C300.204 260.465 300.121 260.512 300.067 260.53L299.621 259.723C299.838 259.594 300.006 259.457 300.127 259.313C300.247 259.168 300.306 258.991 300.302 258.782C300.302 258.574 300.227 258.308 300.079 257.987L299.85 257.493L293.486 254.552L294.257 253.78L299.223 256.191L299.271 256.143L296.861 251.177L297.632 250.406L300.971 257.674C301.121 258.001 301.21 258.308 301.236 258.596C301.264 258.885 301.23 259.154 301.133 259.403C301.039 259.65 300.884 259.881 300.669 260.096Z" fill="#98A2B3"/>
<path d="M321.195 274.135L327.366 280.306L326.619 281.054L321.231 275.666L321.195 275.702L320.689 278.209L319.929 277.45L320.448 274.883L321.195 274.135ZM331.154 276.687C330.8 277.041 330.412 277.289 329.988 277.432C329.564 277.574 329.144 277.609 328.728 277.534C328.312 277.46 327.94 277.274 327.61 276.977L328.333 276.254C328.641 276.505 328.998 276.609 329.406 276.567C329.814 276.521 330.175 276.34 330.491 276.025C330.744 275.771 330.91 275.487 330.988 275.172C331.068 274.854 331.061 274.536 330.967 274.217C330.873 273.893 330.694 273.6 330.431 273.337C330.161 273.068 329.862 272.887 329.533 272.794C329.203 272.698 328.875 272.691 328.547 272.773C328.22 272.856 327.924 273.027 327.658 273.289C327.468 273.475 327.303 273.698 327.164 273.957C327.024 274.215 326.935 274.454 326.899 274.675L326.116 275.289L323.452 271.878L326.658 268.672L327.321 269.335L324.742 271.915L326.345 273.951L326.381 273.915C326.407 273.688 326.482 273.446 326.607 273.189C326.731 272.932 326.897 272.7 327.104 272.493C327.482 272.115 327.909 271.869 328.385 271.755C328.861 271.636 329.339 271.648 329.819 271.791C330.301 271.932 330.742 272.202 331.142 272.602C331.535 272.995 331.799 273.435 331.931 273.921C332.064 274.403 332.066 274.888 331.937 275.374C331.807 275.858 331.545 276.296 331.154 276.687ZM330.627 264.703L331.519 263.811L338.739 266.836L338.811 266.764L335.786 259.544L336.678 258.652L342.849 264.824L342.15 265.523L337.461 260.834L337.401 260.894L340.161 267.511L339.486 268.186L332.869 265.426L332.809 265.487L337.497 270.175L336.798 270.874L330.627 264.703ZM345.721 262.168C345.428 262.461 345.107 262.672 344.757 262.801C344.405 262.928 344.054 262.956 343.702 262.885C343.349 262.813 343.021 262.626 342.72 262.325C342.455 262.06 342.292 261.793 342.232 261.523C342.17 261.252 342.179 260.982 342.259 260.713C342.339 260.444 342.462 260.18 342.627 259.923C342.791 259.662 342.967 259.41 343.154 259.167C343.399 258.85 343.6 258.594 343.757 258.402C343.913 258.205 344.009 258.043 344.043 257.916C344.079 257.788 344.04 257.666 343.925 257.552L343.901 257.528C343.604 257.23 343.292 257.081 342.964 257.079C342.639 257.075 342.312 257.237 341.985 257.564C341.645 257.903 341.454 258.244 341.409 258.585C341.365 258.927 341.388 259.221 341.479 259.468L340.563 259.902C340.402 259.5 340.344 259.121 340.388 258.763C340.432 258.402 340.543 258.07 340.719 257.769C340.896 257.464 341.101 257.194 341.334 256.961C341.483 256.813 341.671 256.66 341.9 256.503C342.129 256.343 342.389 256.226 342.678 256.154C342.969 256.079 343.285 256.091 343.624 256.19C343.964 256.288 344.317 256.521 344.685 256.889L347.734 259.938L347.023 260.65L346.396 260.023L346.36 260.059C346.412 260.208 346.439 260.395 346.441 260.622C346.443 260.849 346.391 261.096 346.285 261.364C346.178 261.631 345.99 261.899 345.721 262.168ZM345.191 261.421C345.472 261.14 345.654 260.847 345.736 260.544C345.821 260.239 345.825 259.949 345.748 259.676C345.674 259.401 345.54 259.167 345.348 258.974L344.697 258.323C344.703 258.39 344.67 258.489 344.597 258.622C344.525 258.75 344.434 258.892 344.323 259.046C344.213 259.197 344.103 259.343 343.995 259.483C343.886 259.62 343.799 259.731 343.733 259.818C343.572 260.027 343.438 260.239 343.332 260.454C343.225 260.665 343.176 260.872 343.184 261.077C343.192 261.278 343.287 261.469 343.467 261.65C343.714 261.897 343.993 261.992 344.302 261.936C344.611 261.876 344.908 261.704 345.191 261.421ZM351.06 260.084C350.939 260.204 350.822 260.302 350.707 260.376C350.595 260.452 350.512 260.5 350.457 260.518L350.011 259.71C350.228 259.582 350.397 259.445 350.518 259.3C350.638 259.156 350.696 258.979 350.692 258.77C350.692 258.561 350.618 258.296 350.469 257.975L350.24 257.48L343.876 254.539L344.648 253.768L349.614 256.179L349.662 256.13L347.251 251.165L348.023 250.393L351.361 257.661C351.512 257.989 351.6 258.296 351.626 258.583C351.655 258.872 351.62 259.142 351.524 259.391C351.43 259.638 351.275 259.869 351.06 260.084Z" fill="#98A2B3"/>
<path d="M371.54 274.168L377.711 280.34L376.964 281.087L371.576 275.699L371.54 275.735L371.034 278.242L370.275 277.483L370.793 274.916L371.54 274.168ZM381.547 276.672C381.133 277.086 380.694 277.379 380.23 277.549C379.766 277.716 379.316 277.758 378.88 277.676C378.442 277.591 378.058 277.382 377.726 277.046C377.463 276.787 377.273 276.495 377.157 276.169C377.038 275.842 376.995 275.513 377.027 275.184C377.059 274.85 377.168 274.551 377.353 274.286L377.316 274.25C376.945 274.469 376.544 274.538 376.114 274.458C375.682 274.375 375.304 274.169 374.978 273.84C374.663 273.529 374.462 273.169 374.376 272.761C374.289 272.353 374.315 271.938 374.454 271.514C374.595 271.088 374.846 270.694 375.207 270.333C375.565 269.975 375.955 269.727 376.379 269.588C376.803 269.45 377.219 269.424 377.627 269.51C378.037 269.594 378.399 269.792 378.715 270.104C379.04 270.433 379.243 270.815 379.323 271.249C379.404 271.678 379.337 272.076 379.124 272.442L379.161 272.478C379.424 272.295 379.72 272.19 380.049 272.162C380.377 272.131 380.705 272.175 381.035 272.291C381.362 272.406 381.658 272.592 381.921 272.852C382.252 273.187 382.459 273.575 382.541 274.015C382.624 274.451 382.582 274.901 382.415 275.365C382.248 275.825 381.959 276.261 381.547 276.672ZM380.884 276.009C381.163 275.73 381.359 275.444 381.472 275.151C381.584 274.857 381.613 274.573 381.559 274.298C381.505 274.023 381.368 273.774 381.149 273.551C380.914 273.32 380.648 273.174 380.351 273.114C380.054 273.054 379.751 273.075 379.444 273.177C379.138 273.277 378.855 273.458 378.594 273.719C378.331 273.983 378.147 274.269 378.043 274.578C377.94 274.886 377.919 275.188 377.979 275.485C378.042 275.78 378.19 276.044 378.425 276.275C378.644 276.498 378.89 276.637 379.164 276.693C379.439 276.748 379.724 276.718 380.019 276.603C380.315 276.489 380.603 276.291 380.884 276.009ZM377.955 273.081C378.176 272.86 378.328 272.62 378.41 272.36C378.495 272.099 378.507 271.84 378.446 271.583C378.386 271.326 378.251 271.09 378.04 270.875C377.829 270.668 377.598 270.535 377.347 270.477C377.093 270.417 376.839 270.43 376.584 270.516C376.327 270.601 376.085 270.756 375.858 270.983C375.627 271.214 375.468 271.46 375.382 271.719C375.294 271.976 375.281 272.23 375.343 272.481C375.403 272.73 375.539 272.958 375.75 273.165C375.961 273.38 376.194 273.519 376.449 273.581C376.706 273.641 376.965 273.629 377.226 273.545C377.487 273.46 377.73 273.306 377.955 273.081ZM381.039 264.67L381.931 263.778L389.15 266.803L389.223 266.731L386.197 259.511L387.089 258.619L393.26 264.79L392.561 265.49L387.873 260.801L387.812 260.861L390.572 267.478L389.898 268.153L383.28 265.393L383.22 265.453L387.909 270.142L387.21 270.841L381.039 264.67ZM396.133 262.135C395.839 262.428 395.518 262.639 395.168 262.768C394.817 262.894 394.465 262.922 394.114 262.852C393.76 262.78 393.433 262.593 393.131 262.292C392.866 262.027 392.704 261.759 392.643 261.49C392.581 261.219 392.59 260.949 392.67 260.68C392.751 260.41 392.873 260.147 393.038 259.89C393.203 259.629 393.379 259.377 393.565 259.134C393.81 258.816 394.011 258.561 394.168 258.368C394.325 258.172 394.42 258.01 394.454 257.883C394.49 257.755 394.451 257.633 394.337 257.519L394.313 257.495C394.015 257.197 393.703 257.048 393.376 257.046C393.05 257.042 392.724 257.203 392.396 257.531C392.057 257.87 391.865 258.211 391.821 258.552C391.777 258.894 391.8 259.188 391.89 259.435L390.974 259.869C390.813 259.467 390.755 259.088 390.799 258.73C390.843 258.368 390.954 258.037 391.131 257.736C391.307 257.43 391.512 257.161 391.745 256.928C391.894 256.78 392.083 256.627 392.312 256.47C392.541 256.309 392.8 256.193 393.089 256.121C393.381 256.046 393.696 256.058 394.035 256.157C394.375 256.255 394.728 256.488 395.096 256.856L398.145 259.905L397.434 260.616L396.808 259.99L396.771 260.026C396.824 260.174 396.851 260.362 396.853 260.589C396.855 260.816 396.803 261.063 396.696 261.33C396.59 261.598 396.402 261.866 396.133 262.135ZM395.602 261.388C395.884 261.107 396.065 260.814 396.148 260.511C396.232 260.206 396.236 259.916 396.16 259.643C396.085 259.368 395.952 259.134 395.759 258.941L395.108 258.29C395.114 258.356 395.081 258.456 395.009 258.588C394.936 258.717 394.845 258.859 394.735 259.013C394.624 259.164 394.515 259.31 394.406 259.45C394.298 259.587 394.21 259.698 394.144 259.785C393.983 259.994 393.85 260.206 393.743 260.421C393.637 260.631 393.587 260.839 393.596 261.044C393.604 261.245 393.698 261.436 393.879 261.617C394.126 261.864 394.404 261.959 394.713 261.903C395.023 261.843 395.319 261.671 395.602 261.388ZM401.471 260.051C401.351 260.171 401.233 260.269 401.119 260.343C401.006 260.419 400.923 260.466 400.869 260.485L400.423 259.677C400.64 259.548 400.808 259.412 400.929 259.267C401.05 259.123 401.108 258.946 401.104 258.737C401.104 258.528 401.029 258.263 400.881 257.941L400.652 257.447L394.288 254.506L395.059 253.735L400.025 256.145L400.073 256.097L397.663 251.131L398.434 250.36L401.773 257.628C401.923 257.955 402.012 258.263 402.038 258.55C402.066 258.839 402.032 259.108 401.935 259.358C401.841 259.605 401.686 259.836 401.471 260.051Z" fill="#98A2B3"/>
<path d="M425.965 282.463L425.423 281.921L425.23 277.654C425.208 277.154 425.178 276.73 425.14 276.383C425.1 276.033 425.031 275.736 424.935 275.491C424.838 275.242 424.696 275.023 424.507 274.834C424.29 274.617 424.05 274.481 423.787 274.427C423.526 274.371 423.263 274.389 422.997 274.481C422.732 274.574 422.488 274.732 422.265 274.954C422.028 275.192 421.87 275.448 421.792 275.723C421.714 275.994 421.714 276.265 421.792 276.536C421.872 276.806 422.03 277.058 422.265 277.293L421.554 278.004C421.192 277.642 420.958 277.242 420.852 276.802C420.745 276.362 420.76 275.922 420.894 275.482C421.031 275.04 421.279 274.639 421.638 274.28C422 273.918 422.397 273.674 422.829 273.547C423.261 273.421 423.685 273.408 424.103 273.508C424.521 273.609 424.889 273.817 425.206 274.135C425.433 274.362 425.614 274.625 425.748 274.924C425.883 275.22 425.983 275.6 426.047 276.066C426.111 276.528 426.156 277.126 426.182 277.859L426.279 280.728L426.327 280.776L429.196 277.907L429.859 278.57L425.965 282.463ZM427.101 268.985L433.273 275.156L432.525 275.904L427.138 270.516L427.101 270.552L426.595 273.059L425.836 272.3L426.354 269.733L427.101 268.985ZM431.371 264.715L432.263 263.824L439.483 266.849L439.555 266.777L436.53 259.557L437.422 258.665L443.593 264.836L442.894 265.535L438.205 260.846L438.145 260.907L440.905 267.524L440.23 268.199L433.613 265.439L433.553 265.499L438.241 270.188L437.542 270.887L431.371 264.715ZM446.465 262.181C446.172 262.474 445.851 262.685 445.501 262.813C445.149 262.94 444.798 262.968 444.446 262.898C444.093 262.825 443.765 262.639 443.464 262.337C443.199 262.072 443.036 261.805 442.976 261.536C442.914 261.265 442.923 260.994 443.003 260.725C443.083 260.456 443.206 260.193 443.371 259.936C443.535 259.675 443.711 259.422 443.898 259.179C444.143 258.862 444.344 258.607 444.501 258.414C444.657 258.217 444.753 258.055 444.787 257.929C444.823 257.8 444.784 257.679 444.669 257.564L444.645 257.54C444.348 257.243 444.036 257.093 443.708 257.091C443.383 257.087 443.056 257.249 442.729 257.576C442.389 257.916 442.197 258.256 442.153 258.598C442.109 258.939 442.132 259.234 442.223 259.481L441.307 259.915C441.146 259.513 441.088 259.133 441.132 258.776C441.176 258.414 441.286 258.083 441.463 257.781C441.64 257.476 441.845 257.207 442.078 256.974C442.227 256.825 442.415 256.672 442.644 256.516C442.873 256.355 443.133 256.239 443.422 256.166C443.713 256.092 444.029 256.104 444.368 256.202C444.708 256.301 445.061 256.534 445.429 256.901L448.478 259.951L447.767 260.662L447.14 260.035L447.104 260.071C447.156 260.22 447.183 260.408 447.185 260.635C447.187 260.862 447.135 261.109 447.029 261.376C446.922 261.643 446.734 261.911 446.465 262.181ZM445.935 261.433C446.216 261.152 446.398 260.86 446.48 260.556C446.565 260.251 446.569 259.962 446.492 259.689C446.418 259.413 446.284 259.179 446.092 258.987L445.441 258.336C445.447 258.402 445.414 258.501 445.341 258.634C445.269 258.763 445.178 258.904 445.067 259.059C444.957 259.21 444.847 259.355 444.739 259.496C444.63 259.632 444.543 259.744 444.477 259.83C444.316 260.039 444.182 260.251 444.076 260.466C443.969 260.677 443.92 260.885 443.928 261.09C443.936 261.291 444.031 261.482 444.211 261.662C444.458 261.909 444.737 262.005 445.046 261.949C445.355 261.888 445.652 261.717 445.935 261.433ZM451.804 260.096C451.683 260.217 451.566 260.314 451.451 260.388C451.339 260.465 451.256 260.512 451.201 260.53L450.755 259.723C450.972 259.594 451.141 259.457 451.262 259.313C451.382 259.168 451.44 258.991 451.436 258.782C451.436 258.574 451.362 258.308 451.213 257.987L450.984 257.493L444.62 254.552L445.392 253.78L450.358 256.191L450.406 256.143L447.995 251.177L448.767 250.406L452.105 257.674C452.256 258.001 452.344 258.308 452.37 258.596C452.399 258.885 452.364 259.154 452.268 259.403C452.174 259.65 452.019 259.881 451.804 260.096Z" fill="#98A2B3"/>
<path d="M475.66 283.148L475.118 282.605L474.925 278.338C474.903 277.838 474.873 277.414 474.834 277.067C474.794 276.717 474.726 276.42 474.63 276.175C474.533 275.926 474.39 275.707 474.202 275.518C473.985 275.301 473.745 275.165 473.481 275.111C473.22 275.055 472.957 275.073 472.692 275.165C472.427 275.258 472.183 275.416 471.96 275.639C471.723 275.876 471.565 276.132 471.487 276.407C471.408 276.678 471.408 276.949 471.487 277.22C471.567 277.49 471.725 277.742 471.96 277.977L471.249 278.688C470.887 278.326 470.653 277.926 470.547 277.486C470.44 277.046 470.454 276.606 470.589 276.166C470.725 275.724 470.973 275.323 471.333 274.964C471.695 274.602 472.091 274.358 472.523 274.231C472.955 274.105 473.38 274.092 473.798 274.192C474.216 274.293 474.583 274.502 474.901 274.819C475.128 275.046 475.309 275.309 475.443 275.608C475.578 275.904 475.677 276.284 475.741 276.75C475.806 277.212 475.851 277.81 475.877 278.543L475.973 281.412L476.022 281.46L478.89 278.591L479.553 279.254L475.66 283.148ZM479.255 277.022L478.64 276.407L477.061 269.404L477.507 268.958L478.459 269.91L478.158 270.212L479.351 275.503L479.399 275.551L483.052 271.899L483.714 272.562L479.255 277.022ZM483.425 275.382L481.973 273.93L481.687 273.644L477.254 269.211L477.965 268.5L484.136 274.671L483.425 275.382ZM482.433 264.032L483.325 263.14L490.545 266.166L490.617 266.093L487.592 258.874L488.484 257.982L494.655 264.153L493.956 264.852L489.267 260.163L489.207 260.224L491.967 266.841L491.292 267.516L484.675 264.755L484.615 264.816L489.303 269.504L488.604 270.203L482.433 264.032ZM497.527 261.497C497.234 261.791 496.912 262.002 496.563 262.13C496.211 262.257 495.86 262.285 495.508 262.215C495.155 262.142 494.827 261.955 494.526 261.654C494.261 261.389 494.098 261.122 494.038 260.853C493.976 260.581 493.985 260.311 494.065 260.042C494.145 259.773 494.268 259.51 494.433 259.253C494.597 258.991 494.773 258.739 494.96 258.496C495.205 258.179 495.406 257.924 495.562 257.731C495.719 257.534 495.815 257.372 495.849 257.246C495.885 257.117 495.846 256.996 495.731 256.881L495.707 256.857C495.41 256.56 495.097 256.41 494.77 256.408C494.445 256.404 494.118 256.566 493.791 256.893C493.451 257.233 493.259 257.573 493.215 257.915C493.171 258.256 493.194 258.55 493.284 258.798L492.368 259.231C492.208 258.83 492.149 258.45 492.194 258.092C492.238 257.731 492.348 257.399 492.525 257.098C492.702 256.793 492.907 256.524 493.14 256.291C493.289 256.142 493.477 255.989 493.706 255.833C493.935 255.672 494.194 255.555 494.484 255.483C494.775 255.409 495.09 255.421 495.43 255.519C495.769 255.618 496.123 255.851 496.491 256.218L499.54 259.268L498.829 259.979L498.202 259.352L498.166 259.388C498.218 259.537 498.245 259.725 498.247 259.952C498.249 260.179 498.197 260.426 498.091 260.693C497.984 260.96 497.796 261.228 497.527 261.497ZM496.997 260.75C497.278 260.469 497.46 260.177 497.542 259.873C497.627 259.568 497.631 259.279 497.554 259.005C497.48 258.73 497.346 258.496 497.153 258.303L496.503 257.653C496.509 257.719 496.476 257.818 496.403 257.951C496.331 258.079 496.239 258.221 496.129 258.376C496.018 258.526 495.909 258.672 495.801 258.813C495.692 258.949 495.605 259.061 495.538 259.147C495.378 259.356 495.244 259.568 495.138 259.783C495.031 259.994 494.982 260.202 494.99 260.407C494.998 260.607 495.092 260.798 495.273 260.979C495.52 261.226 495.799 261.322 496.108 261.265C496.417 261.205 496.714 261.033 496.997 260.75ZM502.866 259.413C502.745 259.534 502.628 259.631 502.513 259.705C502.401 259.782 502.317 259.829 502.263 259.847L501.817 259.039C502.034 258.911 502.203 258.774 502.323 258.63C502.444 258.485 502.502 258.308 502.498 258.099C502.498 257.89 502.424 257.625 502.275 257.304L502.046 256.81L495.682 253.869L496.454 253.097L501.419 255.508L501.468 255.46L499.057 250.494L499.828 249.722L503.167 256.99C503.318 257.318 503.406 257.625 503.432 257.912C503.46 258.202 503.426 258.471 503.33 258.72C503.235 258.967 503.081 259.198 502.866 259.413Z" fill="#98A2B3"/>
<path d="M526.27 282.916L525.728 282.373L525.535 278.106C525.513 277.606 525.483 277.182 525.445 276.835C525.404 276.485 525.336 276.188 525.24 275.943C525.143 275.694 525.001 275.475 524.812 275.286C524.595 275.069 524.355 274.933 524.092 274.879C523.831 274.823 523.567 274.841 523.302 274.933C523.037 275.026 522.793 275.184 522.57 275.407C522.333 275.644 522.175 275.9 522.097 276.175C522.019 276.446 522.019 276.717 522.097 276.988C522.177 277.258 522.335 277.51 522.57 277.745L521.859 278.456C521.497 278.094 521.263 277.694 521.157 277.254C521.05 276.814 521.064 276.374 521.199 275.934C521.336 275.492 521.584 275.091 521.943 274.732C522.305 274.37 522.702 274.126 523.133 273.999C523.565 273.873 523.99 273.86 524.408 273.96C524.826 274.061 525.194 274.27 525.511 274.587C525.738 274.814 525.919 275.077 526.053 275.376C526.188 275.672 526.287 276.052 526.352 276.518C526.416 276.98 526.461 277.578 526.487 278.311L526.584 281.18L526.632 281.228L529.5 278.36L530.163 279.022L526.27 282.916ZM531.601 277.585L528.901 269.365L528.853 269.317L525.671 272.499L525.008 271.836L528.961 267.882L529.66 268.582L532.384 276.802L531.601 277.585ZM532.579 264.264L533.471 263.372L540.691 266.398L540.763 266.325L537.738 259.106L538.63 258.214L544.801 264.385L544.102 265.084L539.413 260.395L539.353 260.456L542.113 267.073L541.438 267.748L534.821 264.988L534.761 265.048L539.449 269.736L538.75 270.435L532.579 264.264ZM547.673 261.729C547.38 262.023 547.059 262.234 546.709 262.362C546.358 262.489 546.006 262.517 545.654 262.447C545.301 262.374 544.973 262.187 544.672 261.886C544.407 261.621 544.244 261.354 544.184 261.085C544.122 260.813 544.131 260.543 544.211 260.274C544.291 260.005 544.414 259.742 544.579 259.485C544.743 259.223 544.919 258.971 545.106 258.728C545.351 258.411 545.552 258.156 545.709 257.963C545.865 257.766 545.961 257.604 545.995 257.478C546.031 257.349 545.992 257.228 545.877 257.113L545.853 257.089C545.556 256.792 545.244 256.642 544.916 256.64C544.591 256.636 544.264 256.798 543.937 257.125C543.597 257.465 543.406 257.805 543.361 258.147C543.317 258.488 543.34 258.783 543.431 259.03L542.515 259.463C542.354 259.062 542.296 258.682 542.34 258.324C542.384 257.963 542.495 257.631 542.671 257.33C542.848 257.025 543.053 256.756 543.286 256.523C543.435 256.374 543.624 256.221 543.853 256.065C544.082 255.904 544.341 255.787 544.63 255.715C544.921 255.641 545.237 255.653 545.576 255.751C545.916 255.85 546.269 256.083 546.637 256.45L549.686 259.5L548.975 260.211L548.348 259.584L548.312 259.62C548.364 259.769 548.391 259.957 548.393 260.184C548.395 260.411 548.343 260.658 548.237 260.925C548.13 261.192 547.942 261.46 547.673 261.729ZM547.143 260.982C547.424 260.701 547.606 260.409 547.688 260.105C547.773 259.8 547.777 259.511 547.7 259.238C547.626 258.962 547.493 258.728 547.3 258.535L546.649 257.885C546.655 257.951 546.622 258.05 546.549 258.183C546.477 258.311 546.386 258.453 546.275 258.608C546.165 258.758 546.055 258.904 545.947 259.045C545.838 259.181 545.751 259.293 545.685 259.379C545.524 259.588 545.39 259.8 545.284 260.015C545.177 260.226 545.128 260.434 545.136 260.639C545.144 260.84 545.239 261.03 545.419 261.211C545.666 261.458 545.945 261.554 546.254 261.497C546.563 261.437 546.86 261.265 547.143 260.982ZM553.012 259.645C552.891 259.766 552.774 259.863 552.659 259.937C552.547 260.014 552.464 260.061 552.409 260.079L551.963 259.271C552.18 259.143 552.349 259.006 552.47 258.862C552.59 258.717 552.648 258.54 552.644 258.331C552.644 258.122 552.57 257.857 552.421 257.536L552.192 257.042L545.828 254.101L546.6 253.329L551.566 255.74L551.614 255.692L549.203 250.726L549.975 249.954L553.313 257.222C553.464 257.55 553.552 257.857 553.578 258.144C553.607 258.434 553.572 258.703 553.476 258.952C553.382 259.199 553.227 259.43 553.012 259.645Z" fill="#98A2B3"/>
<path d="M578.458 281.275C578.06 281.673 577.637 281.959 577.189 282.134C576.743 282.307 576.307 282.363 575.881 282.303C575.455 282.238 575.073 282.053 574.733 281.745L575.493 280.986C575.708 281.169 575.948 281.272 576.213 281.296C576.476 281.318 576.744 281.271 577.017 281.155C577.29 281.038 577.546 280.861 577.783 280.624C578.048 280.359 578.237 280.078 578.349 279.781C578.462 279.483 578.494 279.194 578.446 278.913C578.397 278.632 578.265 278.382 578.048 278.166C577.821 277.939 577.565 277.795 577.279 277.735C576.992 277.672 576.691 277.7 576.375 277.819C576.06 277.937 575.746 278.153 575.432 278.467L574.938 278.961L574.275 278.298L574.769 277.804C575.014 277.559 575.185 277.3 575.282 277.026C575.38 276.751 575.401 276.481 575.345 276.216C575.291 275.949 575.155 275.707 574.938 275.49C574.729 275.281 574.501 275.145 574.254 275.083C574.007 275.021 573.756 275.031 573.501 275.113C573.248 275.193 573.008 275.347 572.781 275.574C572.568 275.787 572.406 276.027 572.296 276.294C572.185 276.557 572.144 276.822 572.172 277.087C572.198 277.35 572.309 277.589 572.503 277.804L571.78 278.527C571.469 278.192 571.283 277.811 571.223 277.385C571.161 276.957 571.209 276.527 571.367 276.095C571.528 275.662 571.786 275.267 572.142 274.911C572.524 274.53 572.928 274.279 573.356 274.161C573.782 274.04 574.194 274.032 574.592 274.137C574.989 274.241 575.334 274.439 575.625 274.73C575.973 275.078 576.178 275.466 576.24 275.894C576.304 276.319 576.228 276.735 576.011 277.141L576.059 277.189C576.513 276.864 576.983 276.725 577.469 276.773C577.953 276.82 578.391 277.039 578.783 277.43C579.119 277.766 579.328 278.158 579.413 278.608C579.497 279.054 579.459 279.51 579.298 279.976C579.138 280.443 578.857 280.875 578.458 281.275ZM583.788 275.945C583.334 276.399 582.824 276.662 582.257 276.734C581.689 276.805 581.084 276.688 580.443 276.385C579.801 276.079 579.144 275.591 578.473 274.92C577.806 274.253 577.321 273.599 577.017 272.959C576.714 272.314 576.597 271.707 576.668 271.139C576.738 270.566 576.998 270.055 577.448 269.605C577.898 269.155 578.408 268.896 578.979 268.827C579.549 268.755 580.156 268.872 580.799 269.177C581.442 269.478 582.097 269.962 582.764 270.629C583.434 271.3 583.923 271.957 584.228 272.6C584.531 273.241 584.648 273.846 584.578 274.414C584.505 274.981 584.242 275.491 583.788 275.945ZM583.125 275.282C583.575 274.832 583.708 274.265 583.523 273.582C583.338 272.899 582.844 272.156 582.04 271.353C581.506 270.818 580.994 270.42 580.504 270.159C580.015 269.896 579.566 269.773 579.157 269.789C578.749 269.803 578.396 269.958 578.099 270.256C577.653 270.702 577.525 271.27 577.713 271.961C577.9 272.65 578.394 273.396 579.196 274.197C579.73 274.731 580.24 275.129 580.727 275.39C581.213 275.651 581.659 275.774 582.064 275.758C582.472 275.74 582.826 275.581 583.125 275.282ZM583.318 263.904L584.21 263.012L591.43 266.037L591.502 265.965L588.477 258.745L589.369 257.853L595.54 264.024L594.841 264.723L590.152 260.035L590.092 260.095L592.852 266.712L592.177 267.387L585.56 264.627L585.5 264.687L590.188 269.376L589.489 270.075L583.318 263.904ZM598.412 261.369C598.119 261.662 597.797 261.873 597.448 262.002C597.096 262.128 596.745 262.156 596.393 262.086C596.04 262.014 595.712 261.827 595.411 261.526C595.146 261.26 594.983 260.993 594.923 260.724C594.86 260.453 594.869 260.183 594.95 259.914C595.03 259.644 595.153 259.381 595.317 259.124C595.482 258.863 595.658 258.611 595.845 258.368C596.09 258.05 596.291 257.795 596.447 257.602C596.604 257.406 596.7 257.244 596.734 257.117C596.77 256.989 596.731 256.867 596.616 256.753L596.592 256.729C596.295 256.431 595.982 256.282 595.655 256.28C595.329 256.276 595.003 256.437 594.676 256.765C594.336 257.104 594.144 257.445 594.1 257.786C594.056 258.128 594.079 258.422 594.169 258.669L593.253 259.103C593.093 258.701 593.034 258.322 593.079 257.964C593.123 257.602 593.233 257.271 593.41 256.97C593.587 256.664 593.792 256.395 594.025 256.162C594.173 256.013 594.362 255.861 594.591 255.704C594.82 255.543 595.079 255.427 595.369 255.355C595.66 255.28 595.975 255.292 596.315 255.391C596.654 255.489 597.008 255.722 597.375 256.09L600.425 259.139L599.714 259.85L599.087 259.224L599.051 259.26C599.103 259.408 599.13 259.596 599.132 259.823C599.134 260.05 599.082 260.297 598.976 260.564C598.869 260.832 598.681 261.1 598.412 261.369ZM597.882 260.622C598.163 260.34 598.345 260.048 598.427 259.745C598.511 259.439 598.515 259.15 598.439 258.877C598.365 258.602 598.231 258.368 598.038 258.175L597.388 257.524C597.394 257.59 597.36 257.69 597.288 257.822C597.216 257.951 597.124 258.093 597.014 258.247C596.903 258.398 596.794 258.544 596.685 258.684C596.577 258.821 596.49 258.932 596.423 259.019C596.263 259.228 596.129 259.439 596.023 259.654C595.916 259.865 595.867 260.073 595.875 260.278C595.883 260.479 595.977 260.67 596.158 260.851C596.405 261.098 596.683 261.193 596.993 261.137C597.302 261.077 597.598 260.905 597.882 260.622ZM603.751 259.285C603.63 259.405 603.513 259.503 603.398 259.577C603.286 259.653 603.202 259.7 603.148 259.718L602.702 258.911C602.919 258.782 603.088 258.646 603.208 258.501C603.329 258.356 603.387 258.18 603.383 257.971C603.383 257.762 603.309 257.497 603.16 257.175L602.931 256.681L596.567 253.74L597.339 252.969L602.304 255.379L602.353 255.331L599.942 250.365L600.713 249.594L604.052 256.862C604.203 257.189 604.291 257.497 604.317 257.784C604.345 258.073 604.311 258.342 604.215 258.592C604.12 258.839 603.966 259.07 603.751 259.285Z" fill="#98A2B3"/>
</svg>
