<svg width="613" height="299" viewBox="0 0 613 299" fill="none" xmlns="http://www.w3.org/2000/svg">
<path d="M4.65518 31.3562V40.0835H3.59837V32.4642H3.54723L1.41655 33.879V32.8051L3.59837 31.3562H4.65518ZM8.16655 38.8903L8.09837 39.3505C8.05007 39.6744 7.97621 40.021 7.87678 40.3903C7.78018 40.7596 7.67933 41.1076 7.57422 41.4343C7.46911 41.7611 7.38246 42.021 7.31428 42.2142H6.54723C6.58416 42.0324 6.63246 41.7923 6.69212 41.494C6.75178 41.1957 6.81143 40.8619 6.87109 40.4926C6.93359 40.1261 6.98473 39.7511 7.0245 39.3676L7.07564 38.8903H8.16655ZM12.5547 40.2028C11.9126 40.2028 11.3658 40.0281 10.9141 39.6787C10.4624 39.3264 10.1172 38.8165 9.87855 38.1488C9.63991 37.4784 9.5206 36.6687 9.5206 35.7199C9.5206 34.7767 9.63991 33.9713 9.87855 33.3037C10.12 32.6332 10.4666 32.1218 10.9183 31.7696C11.3729 31.4145 11.9183 31.2369 12.5547 31.2369C13.1911 31.2369 13.7351 31.4145 14.1868 31.7696C14.6413 32.1218 14.9879 32.6332 15.2266 33.3037C15.468 33.9713 15.5888 34.7767 15.5888 35.7199C15.5888 36.6687 15.4695 37.4784 15.2308 38.1488C14.9922 38.8165 14.647 39.3264 14.1953 39.6787C13.7436 40.0281 13.1967 40.2028 12.5547 40.2028ZM12.5547 39.2653C13.1911 39.2653 13.6854 38.9585 14.0376 38.3449C14.3899 37.7312 14.5661 36.8562 14.5661 35.7199C14.5661 34.9642 14.4851 34.3207 14.3232 33.7895C14.1641 33.2582 13.9339 32.8534 13.6328 32.575C13.3345 32.2966 12.9751 32.1574 12.5547 32.1574C11.924 32.1574 11.4311 32.4684 11.076 33.0906C10.7209 33.7099 10.5433 34.5863 10.5433 35.7199C10.5433 36.4755 10.6229 37.1176 10.782 37.646C10.9411 38.1744 11.1697 38.5764 11.468 38.852C11.7692 39.1275 12.1314 39.2653 12.5547 39.2653ZM20.0547 40.2028C19.4126 40.2028 18.8658 40.0281 18.4141 39.6787C17.9624 39.3264 17.6172 38.8165 17.3786 38.1488C17.1399 37.4784 17.0206 36.6687 17.0206 35.7199C17.0206 34.7767 17.1399 33.9713 17.3786 33.3037C17.62 32.6332 17.9666 32.1218 18.4183 31.7696C18.8729 31.4145 19.4183 31.2369 20.0547 31.2369C20.6911 31.2369 21.2351 31.4145 21.6868 31.7696C22.1413 32.1218 22.4879 32.6332 22.7266 33.3037C22.968 33.9713 23.0888 34.7767 23.0888 35.7199C23.0888 36.6687 22.9695 37.4784 22.7308 38.1488C22.4922 38.8165 22.147 39.3264 21.6953 39.6787C21.2436 40.0281 20.6967 40.2028 20.0547 40.2028ZM20.0547 39.2653C20.6911 39.2653 21.1854 38.9585 21.5376 38.3449C21.8899 37.7312 22.0661 36.8562 22.0661 35.7199C22.0661 34.9642 21.9851 34.3207 21.8232 33.7895C21.6641 33.2582 21.4339 32.8534 21.1328 32.575C20.8345 32.2966 20.4751 32.1574 20.0547 32.1574C19.424 32.1574 18.9311 32.4684 18.576 33.0906C18.2209 33.7099 18.0433 34.5863 18.0433 35.7199C18.0433 36.4755 18.1229 37.1176 18.282 37.646C18.4411 38.1744 18.6697 38.5764 18.968 38.852C19.2692 39.1275 19.6314 39.2653 20.0547 39.2653ZM27.5547 40.2028C26.9126 40.2028 26.3658 40.0281 25.9141 39.6787C25.4624 39.3264 25.1172 38.8165 24.8786 38.1488C24.6399 37.4784 24.5206 36.6687 24.5206 35.7199C24.5206 34.7767 24.6399 33.9713 24.8786 33.3037C25.12 32.6332 25.4666 32.1218 25.9183 31.7696C26.3729 31.4145 26.9183 31.2369 27.5547 31.2369C28.1911 31.2369 28.7351 31.4145 29.1868 31.7696C29.6413 32.1218 29.9879 32.6332 30.2266 33.3037C30.468 33.9713 30.5888 34.7767 30.5888 35.7199C30.5888 36.6687 30.4695 37.4784 30.2308 38.1488C29.9922 38.8165 29.647 39.3264 29.1953 39.6787C28.7436 40.0281 28.1967 40.2028 27.5547 40.2028ZM27.5547 39.2653C28.1911 39.2653 28.6854 38.9585 29.0376 38.3449C29.3899 37.7312 29.5661 36.8562 29.5661 35.7199C29.5661 34.9642 29.4851 34.3207 29.3232 33.7895C29.1641 33.2582 28.9339 32.8534 28.6328 32.575C28.3345 32.2966 27.9751 32.1574 27.5547 32.1574C26.924 32.1574 26.4311 32.4684 26.076 33.0906C25.7209 33.7099 25.5433 34.5863 25.5433 35.7199C25.5433 36.4755 25.6229 37.1176 25.782 37.646C25.9411 38.1744 26.1697 38.5764 26.468 38.852C26.7692 39.1275 27.1314 39.2653 27.5547 39.2653ZM32.6534 40.1517C32.4432 40.1517 32.2628 40.0764 32.1122 39.9258C31.9616 39.7753 31.8864 39.5949 31.8864 39.3846C31.8864 39.1744 31.9616 38.994 32.1122 38.8434C32.2628 38.6929 32.4432 38.6176 32.6534 38.6176C32.8636 38.6176 33.044 38.6929 33.1946 38.8434C33.3452 38.994 33.4205 39.1744 33.4205 39.3846C33.4205 39.5238 33.3849 39.6517 33.3139 39.7682C33.2457 39.8846 33.1534 39.9784 33.0369 40.0494C32.9233 40.1176 32.7955 40.1517 32.6534 40.1517ZM37.75 40.2028C37.108 40.2028 36.5611 40.0281 36.1094 39.6787C35.6577 39.3264 35.3125 38.8165 35.0739 38.1488C34.8352 37.4784 34.7159 36.6687 34.7159 35.7199C34.7159 34.7767 34.8352 33.9713 35.0739 33.3037C35.3153 32.6332 35.6619 32.1218 36.1136 31.7696C36.5682 31.4145 37.1136 31.2369 37.75 31.2369C38.3864 31.2369 38.9304 31.4145 39.3821 31.7696C39.8366 32.1218 40.1832 32.6332 40.4219 33.3037C40.6634 33.9713 40.7841 34.7767 40.7841 35.7199C40.7841 36.6687 40.6648 37.4784 40.4261 38.1488C40.1875 38.8165 39.8423 39.3264 39.3906 39.6787C38.9389 40.0281 38.392 40.2028 37.75 40.2028ZM37.75 39.2653C38.3864 39.2653 38.8807 38.9585 39.233 38.3449C39.5852 37.7312 39.7614 36.8562 39.7614 35.7199C39.7614 34.9642 39.6804 34.3207 39.5185 33.7895C39.3594 33.2582 39.1293 32.8534 38.8281 32.575C38.5298 32.2966 38.1705 32.1574 37.75 32.1574C37.1193 32.1574 36.6264 32.4684 36.2713 33.0906C35.9162 33.7099 35.7386 34.5863 35.7386 35.7199C35.7386 36.4755 35.8182 37.1176 35.9773 37.646C36.1364 38.1744 36.3651 38.5764 36.6634 38.852C36.9645 39.1275 37.3267 39.2653 37.75 39.2653ZM45.25 40.2028C44.608 40.2028 44.0611 40.0281 43.6094 39.6787C43.1577 39.3264 42.8125 38.8165 42.5739 38.1488C42.3352 37.4784 42.2159 36.6687 42.2159 35.7199C42.2159 34.7767 42.3352 33.9713 42.5739 33.3037C42.8153 32.6332 43.1619 32.1218 43.6136 31.7696C44.0682 31.4145 44.6136 31.2369 45.25 31.2369C45.8864 31.2369 46.4304 31.4145 46.8821 31.7696C47.3366 32.1218 47.6832 32.6332 47.9219 33.3037C48.1634 33.9713 48.2841 34.7767 48.2841 35.7199C48.2841 36.6687 48.1648 37.4784 47.9261 38.1488C47.6875 38.8165 47.3423 39.3264 46.8906 39.6787C46.4389 40.0281 45.892 40.2028 45.25 40.2028ZM45.25 39.2653C45.8864 39.2653 46.3807 38.9585 46.733 38.3449C47.0852 37.7312 47.2614 36.8562 47.2614 35.7199C47.2614 34.9642 47.1804 34.3207 47.0185 33.7895C46.8594 33.2582 46.6293 32.8534 46.3281 32.575C46.0298 32.2966 45.6705 32.1574 45.25 32.1574C44.6193 32.1574 44.1264 32.4684 43.7713 33.0906C43.4162 33.7099 43.2386 34.5863 43.2386 35.7199C43.2386 36.4755 43.3182 37.1176 43.4773 37.646C43.6364 38.1744 43.8651 38.5764 44.1634 38.852C44.4645 39.1275 44.8267 39.2653 45.25 39.2653Z" fill="#98A2B3"/>
<path d="M57 36.0835H613" stroke="#E4E7EA" stroke-dasharray="4 4"/>
<path d="M10.609 81.8227C10.0238 81.8227 9.50675 81.719 9.05788 81.5116C8.61186 81.3014 8.26385 81.013 8.01385 80.6466C7.76385 80.2772 7.64027 79.8568 7.64311 79.3852C7.64027 79.0159 7.71271 78.675 7.86044 78.3625C8.00817 78.0471 8.20987 77.7843 8.46555 77.5741C8.72408 77.361 9.01243 77.2261 9.33061 77.1693V77.1181C8.913 77.0102 8.58061 76.7758 8.33345 76.415C8.08629 76.0514 7.96413 75.638 7.96697 75.175C7.96413 74.7318 8.07635 74.3355 8.30362 73.986C8.53089 73.6366 8.84339 73.361 9.24112 73.1593C9.64169 72.9576 10.0977 72.8568 10.609 72.8568C11.1147 72.8568 11.5664 72.9576 11.9641 73.1593C12.3619 73.361 12.6744 73.6366 12.9016 73.986C13.1317 74.3355 13.2482 74.7318 13.2511 75.175C13.2482 75.638 13.1218 76.0514 12.8718 76.415C12.6246 76.7758 12.2965 77.0102 11.8874 77.1181V77.1693C12.2028 77.2261 12.4869 77.361 12.7397 77.5741C12.9925 77.7843 13.1942 78.0471 13.3448 78.3625C13.4954 78.675 13.5721 79.0159 13.5749 79.3852C13.5721 79.8568 13.4442 80.2772 13.1914 80.6466C12.9414 81.013 12.5934 81.3014 12.1474 81.5116C11.7042 81.719 11.1914 81.8227 10.609 81.8227ZM10.609 80.8852C11.0039 80.8852 11.3448 80.8213 11.6317 80.6934C11.9187 80.5656 12.1403 80.3852 12.2965 80.1522C12.4528 79.9193 12.5323 79.6466 12.5352 79.3341C12.5323 79.0045 12.4471 78.7133 12.2795 78.4605C12.1119 78.2076 11.8832 78.0088 11.5934 77.8639C11.3065 77.719 10.9783 77.6466 10.609 77.6466C10.2369 77.6466 9.90447 77.719 9.61186 77.8639C9.32209 78.0088 9.09339 78.2076 8.92578 78.4605C8.76101 78.7133 8.68004 79.0045 8.68288 79.3341C8.68004 79.6466 8.75533 79.9193 8.90874 80.1522C9.06499 80.3852 9.288 80.5656 9.57777 80.6934C9.86754 80.8213 10.2113 80.8852 10.609 80.8852ZM10.609 76.7431C10.9215 76.7431 11.1985 76.6806 11.44 76.5556C11.6843 76.4306 11.8761 76.2559 12.0153 76.0315C12.1545 75.8071 12.2255 75.5443 12.2283 75.2431C12.2255 74.9477 12.1559 74.6906 12.0195 74.4718C11.8832 74.2502 11.6942 74.0798 11.4528 73.9605C11.2113 73.8383 10.93 73.7772 10.609 73.7772C10.2823 73.7772 9.9968 73.8383 9.75249 73.9605C9.50817 74.0798 9.31925 74.2502 9.18572 74.4718C9.0522 74.6906 8.98686 74.9477 8.9897 75.2431C8.98686 75.5443 9.05362 75.8071 9.18999 76.0315C9.32919 76.2559 9.52095 76.4306 9.76527 76.5556C10.0096 76.6806 10.2908 76.7431 10.609 76.7431ZM18.0547 81.8227C17.4126 81.8227 16.8658 81.648 16.4141 81.2985C15.9624 80.9463 15.6172 80.4363 15.3786 79.7687C15.1399 79.0983 15.0206 78.2886 15.0206 77.3397C15.0206 76.3966 15.1399 75.5912 15.3786 74.9235C15.62 74.2531 15.9666 73.7417 16.4183 73.3894C16.8729 73.0343 17.4183 72.8568 18.0547 72.8568C18.6911 72.8568 19.2351 73.0343 19.6868 73.3894C20.1413 73.7417 20.4879 74.2531 20.7266 74.9235C20.968 75.5912 21.0888 76.3966 21.0888 77.3397C21.0888 78.2886 20.9695 79.0983 20.7308 79.7687C20.4922 80.4363 20.147 80.9463 19.6953 81.2985C19.2436 81.648 18.6967 81.8227 18.0547 81.8227ZM18.0547 80.8852C18.6911 80.8852 19.1854 80.5784 19.5376 79.9647C19.8899 79.3511 20.0661 78.4761 20.0661 77.3397C20.0661 76.5841 19.9851 75.9406 19.8232 75.4093C19.6641 74.8781 19.4339 74.4733 19.1328 74.1948C18.8345 73.9164 18.4751 73.7772 18.0547 73.7772C17.424 73.7772 16.9311 74.0883 16.576 74.7105C16.2209 75.3298 16.0433 76.2062 16.0433 77.3397C16.0433 78.0954 16.1229 78.7375 16.282 79.2659C16.4411 79.7943 16.6697 80.1963 16.968 80.4718C17.2692 80.7474 17.6314 80.8852 18.0547 80.8852ZM25.5547 81.8227C24.9126 81.8227 24.3658 81.648 23.9141 81.2985C23.4624 80.9463 23.1172 80.4363 22.8786 79.7687C22.6399 79.0983 22.5206 78.2886 22.5206 77.3397C22.5206 76.3966 22.6399 75.5912 22.8786 74.9235C23.12 74.2531 23.4666 73.7417 23.9183 73.3894C24.3729 73.0343 24.9183 72.8568 25.5547 72.8568C26.1911 72.8568 26.7351 73.0343 27.1868 73.3894C27.6413 73.7417 27.9879 74.2531 28.2266 74.9235C28.468 75.5912 28.5888 76.3966 28.5888 77.3397C28.5888 78.2886 28.4695 79.0983 28.2308 79.7687C27.9922 80.4363 27.647 80.9463 27.1953 81.2985C26.7436 81.648 26.1967 81.8227 25.5547 81.8227ZM25.5547 80.8852C26.1911 80.8852 26.6854 80.5784 27.0376 79.9647C27.3899 79.3511 27.5661 78.4761 27.5661 77.3397C27.5661 76.5841 27.4851 75.9406 27.3232 75.4093C27.1641 74.8781 26.9339 74.4733 26.6328 74.1948C26.3345 73.9164 25.9751 73.7772 25.5547 73.7772C24.924 73.7772 24.4311 74.0883 24.076 74.7105C23.7209 75.3298 23.5433 76.2062 23.5433 77.3397C23.5433 78.0954 23.6229 78.7375 23.782 79.2659C23.9411 79.7943 24.1697 80.1963 24.468 80.4718C24.7692 80.7474 25.1314 80.8852 25.5547 80.8852ZM30.6534 81.7716C30.4432 81.7716 30.2628 81.6963 30.1122 81.5457C29.9616 81.3951 29.8864 81.2147 29.8864 81.0045C29.8864 80.7943 29.9616 80.6139 30.1122 80.4633C30.2628 80.3127 30.4432 80.2375 30.6534 80.2375C30.8636 80.2375 31.044 80.3127 31.1946 80.4633C31.3452 80.6139 31.4205 80.7943 31.4205 81.0045C31.4205 81.1437 31.3849 81.2716 31.3139 81.388C31.2457 81.5045 31.1534 81.5983 31.0369 81.6693C30.9233 81.7375 30.7955 81.7716 30.6534 81.7716ZM35.75 81.8227C35.108 81.8227 34.5611 81.648 34.1094 81.2985C33.6577 80.9463 33.3125 80.4363 33.0739 79.7687C32.8352 79.0983 32.7159 78.2886 32.7159 77.3397C32.7159 76.3966 32.8352 75.5912 33.0739 74.9235C33.3153 74.2531 33.6619 73.7417 34.1136 73.3894C34.5682 73.0343 35.1136 72.8568 35.75 72.8568C36.3864 72.8568 36.9304 73.0343 37.3821 73.3894C37.8366 73.7417 38.1832 74.2531 38.4219 74.9235C38.6634 75.5912 38.7841 76.3966 38.7841 77.3397C38.7841 78.2886 38.6648 79.0983 38.4261 79.7687C38.1875 80.4363 37.8423 80.9463 37.3906 81.2985C36.9389 81.648 36.392 81.8227 35.75 81.8227ZM35.75 80.8852C36.3864 80.8852 36.8807 80.5784 37.233 79.9647C37.5852 79.3511 37.7614 78.4761 37.7614 77.3397C37.7614 76.5841 37.6804 75.9406 37.5185 75.4093C37.3594 74.8781 37.1293 74.4733 36.8281 74.1948C36.5298 73.9164 36.1705 73.7772 35.75 73.7772C35.1193 73.7772 34.6264 74.0883 34.2713 74.7105C33.9162 75.3298 33.7386 76.2062 33.7386 77.3397C33.7386 78.0954 33.8182 78.7375 33.9773 79.2659C34.1364 79.7943 34.3651 80.1963 34.6634 80.4718C34.9645 80.7474 35.3267 80.8852 35.75 80.8852ZM43.25 81.8227C42.608 81.8227 42.0611 81.648 41.6094 81.2985C41.1577 80.9463 40.8125 80.4363 40.5739 79.7687C40.3352 79.0983 40.2159 78.2886 40.2159 77.3397C40.2159 76.3966 40.3352 75.5912 40.5739 74.9235C40.8153 74.2531 41.1619 73.7417 41.6136 73.3894C42.0682 73.0343 42.6136 72.8568 43.25 72.8568C43.8864 72.8568 44.4304 73.0343 44.8821 73.3894C45.3366 73.7417 45.6832 74.2531 45.9219 74.9235C46.1634 75.5912 46.2841 76.3966 46.2841 77.3397C46.2841 78.2886 46.1648 79.0983 45.9261 79.7687C45.6875 80.4363 45.3423 80.9463 44.8906 81.2985C44.4389 81.648 43.892 81.8227 43.25 81.8227ZM43.25 80.8852C43.8864 80.8852 44.3807 80.5784 44.733 79.9647C45.0852 79.3511 45.2614 78.4761 45.2614 77.3397C45.2614 76.5841 45.1804 75.9406 45.0185 75.4093C44.8594 74.8781 44.6293 74.4733 44.3281 74.1948C44.0298 73.9164 43.6705 73.7772 43.25 73.7772C42.6193 73.7772 42.1264 74.0883 41.7713 74.7105C41.4162 75.3298 41.2386 76.2062 41.2386 77.3397C41.2386 78.0954 41.3182 78.7375 41.4773 79.2659C41.6364 79.7943 41.8651 80.1963 42.1634 80.4718C42.4645 80.7474 42.8267 80.8852 43.25 80.8852Z" fill="#98A2B3"/>
<path d="M55 77.7034H613" stroke="#E4E7EA" stroke-dasharray="4 4"/>
<path d="M10.6175 123.445C10.2596 123.439 9.90163 123.371 9.54368 123.24C9.18572 123.109 8.85902 122.889 8.56357 122.579C8.26811 122.267 8.03089 121.845 7.85192 121.314C7.67294 120.78 7.58345 120.109 7.58345 119.302C7.58345 118.53 7.65589 117.845 7.80078 117.248C7.94567 116.649 8.15589 116.145 8.43146 115.736C8.70703 115.324 9.03942 115.011 9.42862 114.798C9.82067 114.585 10.2624 114.479 10.7539 114.479C11.2425 114.479 11.6772 114.577 12.0579 114.773C12.4414 114.966 12.7539 115.236 12.9954 115.582C13.2369 115.929 13.3931 116.328 13.4641 116.78H12.4244C12.3278 116.388 12.1403 116.062 11.8619 115.804C11.5835 115.545 11.2141 115.416 10.7539 115.416C10.0778 115.416 9.5451 115.71 9.15589 116.298C8.76953 116.886 8.57493 117.712 8.57209 118.774H8.64027C8.79936 118.533 8.98828 118.327 9.20703 118.156C9.42862 117.983 9.67294 117.849 9.93999 117.756C10.207 117.662 10.4897 117.615 10.788 117.615C11.288 117.615 11.7454 117.74 12.1602 117.99C12.5749 118.237 12.9073 118.579 13.1573 119.017C13.4073 119.452 13.5323 119.95 13.5323 120.513C13.5323 121.052 13.4116 121.547 13.1701 121.996C12.9286 122.442 12.5891 122.797 12.1516 123.061C11.717 123.322 11.2056 123.45 10.6175 123.445ZM10.6175 122.507C10.9755 122.507 11.2965 122.418 11.5806 122.239C11.8675 122.06 12.0934 121.82 12.2582 121.518C12.4258 121.217 12.5096 120.882 12.5096 120.513C12.5096 120.152 12.4286 119.824 12.2667 119.528C12.1076 119.23 11.8874 118.993 11.6062 118.817C11.3278 118.641 11.0096 118.552 10.6516 118.552C10.3817 118.552 10.1303 118.606 9.89737 118.714C9.66442 118.82 9.45987 118.964 9.28374 119.149C9.11044 119.334 8.97408 119.545 8.87464 119.784C8.77521 120.02 8.7255 120.268 8.7255 120.53C8.7255 120.876 8.80646 121.2 8.96839 121.501C9.13317 121.802 9.3576 122.045 9.64169 122.23C9.92862 122.415 10.2539 122.507 10.6175 122.507ZM18.0547 123.445C17.4126 123.445 16.8658 123.27 16.4141 122.92C15.9624 122.568 15.6172 122.058 15.3786 121.391C15.1399 120.72 15.0206 119.91 15.0206 118.962C15.0206 118.018 15.1399 117.213 15.3786 116.545C15.62 115.875 15.9666 115.364 16.4183 115.011C16.8729 114.656 17.4183 114.479 18.0547 114.479C18.6911 114.479 19.2351 114.656 19.6868 115.011C20.1413 115.364 20.4879 115.875 20.7266 116.545C20.968 117.213 21.0888 118.018 21.0888 118.962C21.0888 119.91 20.9695 120.72 20.7308 121.391C20.4922 122.058 20.147 122.568 19.6953 122.92C19.2436 123.27 18.6967 123.445 18.0547 123.445ZM18.0547 122.507C18.6911 122.507 19.1854 122.2 19.5376 121.587C19.8899 120.973 20.0661 120.098 20.0661 118.962C20.0661 118.206 19.9851 117.562 19.8232 117.031C19.6641 116.5 19.4339 116.095 19.1328 115.817C18.8345 115.538 18.4751 115.399 18.0547 115.399C17.424 115.399 16.9311 115.71 16.576 116.332C16.2209 116.952 16.0433 117.828 16.0433 118.962C16.0433 119.717 16.1229 120.359 16.282 120.888C16.4411 121.416 16.6697 121.818 16.968 122.094C17.2692 122.369 17.6314 122.507 18.0547 122.507ZM25.5547 123.445C24.9126 123.445 24.3658 123.27 23.9141 122.92C23.4624 122.568 23.1172 122.058 22.8786 121.391C22.6399 120.72 22.5206 119.91 22.5206 118.962C22.5206 118.018 22.6399 117.213 22.8786 116.545C23.12 115.875 23.4666 115.364 23.9183 115.011C24.3729 114.656 24.9183 114.479 25.5547 114.479C26.1911 114.479 26.7351 114.656 27.1868 115.011C27.6413 115.364 27.9879 115.875 28.2266 116.545C28.468 117.213 28.5888 118.018 28.5888 118.962C28.5888 119.91 28.4695 120.72 28.2308 121.391C27.9922 122.058 27.647 122.568 27.1953 122.92C26.7436 123.27 26.1967 123.445 25.5547 123.445ZM25.5547 122.507C26.1911 122.507 26.6854 122.2 27.0376 121.587C27.3899 120.973 27.5661 120.098 27.5661 118.962C27.5661 118.206 27.4851 117.562 27.3232 117.031C27.1641 116.5 26.9339 116.095 26.6328 115.817C26.3345 115.538 25.9751 115.399 25.5547 115.399C24.924 115.399 24.4311 115.71 24.076 116.332C23.7209 116.952 23.5433 117.828 23.5433 118.962C23.5433 119.717 23.6229 120.359 23.782 120.888C23.9411 121.416 24.1697 121.818 24.468 122.094C24.7692 122.369 25.1314 122.507 25.5547 122.507ZM30.6534 123.393C30.4432 123.393 30.2628 123.318 30.1122 123.168C29.9616 123.017 29.8864 122.837 29.8864 122.626C29.8864 122.416 29.9616 122.236 30.1122 122.085C30.2628 121.935 30.4432 121.859 30.6534 121.859C30.8636 121.859 31.044 121.935 31.1946 122.085C31.3452 122.236 31.4205 122.416 31.4205 122.626C31.4205 122.766 31.3849 122.893 31.3139 123.01C31.2457 123.126 31.1534 123.22 31.0369 123.291C30.9233 123.359 30.7955 123.393 30.6534 123.393ZM35.75 123.445C35.108 123.445 34.5611 123.27 34.1094 122.92C33.6577 122.568 33.3125 122.058 33.0739 121.391C32.8352 120.72 32.7159 119.91 32.7159 118.962C32.7159 118.018 32.8352 117.213 33.0739 116.545C33.3153 115.875 33.6619 115.364 34.1136 115.011C34.5682 114.656 35.1136 114.479 35.75 114.479C36.3864 114.479 36.9304 114.656 37.3821 115.011C37.8366 115.364 38.1832 115.875 38.4219 116.545C38.6634 117.213 38.7841 118.018 38.7841 118.962C38.7841 119.91 38.6648 120.72 38.4261 121.391C38.1875 122.058 37.8423 122.568 37.3906 122.92C36.9389 123.27 36.392 123.445 35.75 123.445ZM35.75 122.507C36.3864 122.507 36.8807 122.2 37.233 121.587C37.5852 120.973 37.7614 120.098 37.7614 118.962C37.7614 118.206 37.6804 117.562 37.5185 117.031C37.3594 116.5 37.1293 116.095 36.8281 115.817C36.5298 115.538 36.1705 115.399 35.75 115.399C35.1193 115.399 34.6264 115.71 34.2713 116.332C33.9162 116.952 33.7386 117.828 33.7386 118.962C33.7386 119.717 33.8182 120.359 33.9773 120.888C34.1364 121.416 34.3651 121.818 34.6634 122.094C34.9645 122.369 35.3267 122.507 35.75 122.507ZM43.25 123.445C42.608 123.445 42.0611 123.27 41.6094 122.92C41.1577 122.568 40.8125 122.058 40.5739 121.391C40.3352 120.72 40.2159 119.91 40.2159 118.962C40.2159 118.018 40.3352 117.213 40.5739 116.545C40.8153 115.875 41.1619 115.364 41.6136 115.011C42.0682 114.656 42.6136 114.479 43.25 114.479C43.8864 114.479 44.4304 114.656 44.8821 115.011C45.3366 115.364 45.6832 115.875 45.9219 116.545C46.1634 117.213 46.2841 118.018 46.2841 118.962C46.2841 119.91 46.1648 120.72 45.9261 121.391C45.6875 122.058 45.3423 122.568 44.8906 122.92C44.4389 123.27 43.892 123.445 43.25 123.445ZM43.25 122.507C43.8864 122.507 44.3807 122.2 44.733 121.587C45.0852 120.973 45.2614 120.098 45.2614 118.962C45.2614 118.206 45.1804 117.562 45.0185 117.031C44.8594 116.5 44.6293 116.095 44.3281 115.817C44.0298 115.538 43.6705 115.399 43.25 115.399C42.6193 115.399 42.1264 115.71 41.7713 116.332C41.4162 116.952 41.2386 117.828 41.2386 118.962C41.2386 119.717 41.3182 120.359 41.4773 120.888C41.6364 121.416 41.8651 121.818 42.1634 122.094C42.4645 122.369 42.8267 122.507 43.25 122.507Z" fill="#98A2B3"/>
<path d="M55 119.325H613" stroke="#E4E7EA" stroke-dasharray="4 4"/>
<path d="M7.30433 163.157V162.288L11.1396 156.22H11.7702V157.566H11.3441L8.44638 162.151V162.22H13.6112V163.157H7.30433ZM11.4123 164.947V162.893V162.488V156.22H12.418V164.947H11.4123ZM18.0547 165.066C17.4126 165.066 16.8658 164.891 16.4141 164.542C15.9624 164.19 15.6172 163.68 15.3786 163.012C15.1399 162.342 15.0206 161.532 15.0206 160.583C15.0206 159.64 15.1399 158.835 15.3786 158.167C15.62 157.496 15.9666 156.985 16.4183 156.633C16.8729 156.278 17.4183 156.1 18.0547 156.1C18.6911 156.1 19.2351 156.278 19.6868 156.633C20.1413 156.985 20.4879 157.496 20.7266 158.167C20.968 158.835 21.0888 159.64 21.0888 160.583C21.0888 161.532 20.9695 162.342 20.7308 163.012C20.4922 163.68 20.147 164.19 19.6953 164.542C19.2436 164.891 18.6967 165.066 18.0547 165.066ZM18.0547 164.129C18.6911 164.129 19.1854 163.822 19.5376 163.208C19.8899 162.595 20.0661 161.72 20.0661 160.583C20.0661 159.827 19.9851 159.184 19.8232 158.653C19.6641 158.121 19.4339 157.717 19.1328 157.438C18.8345 157.16 18.4751 157.021 18.0547 157.021C17.424 157.021 16.9311 157.332 16.576 157.954C16.2209 158.573 16.0433 159.45 16.0433 160.583C16.0433 161.339 16.1229 161.981 16.282 162.509C16.4411 163.038 16.6697 163.44 16.968 163.715C17.2692 163.991 17.6314 164.129 18.0547 164.129ZM25.5547 165.066C24.9126 165.066 24.3658 164.891 23.9141 164.542C23.4624 164.19 23.1172 163.68 22.8786 163.012C22.6399 162.342 22.5206 161.532 22.5206 160.583C22.5206 159.64 22.6399 158.835 22.8786 158.167C23.12 157.496 23.4666 156.985 23.9183 156.633C24.3729 156.278 24.9183 156.1 25.5547 156.1C26.1911 156.1 26.7351 156.278 27.1868 156.633C27.6413 156.985 27.9879 157.496 28.2266 158.167C28.468 158.835 28.5888 159.64 28.5888 160.583C28.5888 161.532 28.4695 162.342 28.2308 163.012C27.9922 163.68 27.647 164.19 27.1953 164.542C26.7436 164.891 26.1967 165.066 25.5547 165.066ZM25.5547 164.129C26.1911 164.129 26.6854 163.822 27.0376 163.208C27.3899 162.595 27.5661 161.72 27.5661 160.583C27.5661 159.827 27.4851 159.184 27.3232 158.653C27.1641 158.121 26.9339 157.717 26.6328 157.438C26.3345 157.16 25.9751 157.021 25.5547 157.021C24.924 157.021 24.4311 157.332 24.076 157.954C23.7209 158.573 23.5433 159.45 23.5433 160.583C23.5433 161.339 23.6229 161.981 23.782 162.509C23.9411 163.038 24.1697 163.44 24.468 163.715C24.7692 163.991 25.1314 164.129 25.5547 164.129ZM30.6534 165.015C30.4432 165.015 30.2628 164.94 30.1122 164.789C29.9616 164.639 29.8864 164.458 29.8864 164.248C29.8864 164.038 29.9616 163.857 30.1122 163.707C30.2628 163.556 30.4432 163.481 30.6534 163.481C30.8636 163.481 31.044 163.556 31.1946 163.707C31.3452 163.857 31.4205 164.038 31.4205 164.248C31.4205 164.387 31.3849 164.515 31.3139 164.631C31.2457 164.748 31.1534 164.842 31.0369 164.913C30.9233 164.981 30.7955 165.015 30.6534 165.015ZM35.75 165.066C35.108 165.066 34.5611 164.891 34.1094 164.542C33.6577 164.19 33.3125 163.68 33.0739 163.012C32.8352 162.342 32.7159 161.532 32.7159 160.583C32.7159 159.64 32.8352 158.835 33.0739 158.167C33.3153 157.496 33.6619 156.985 34.1136 156.633C34.5682 156.278 35.1136 156.1 35.75 156.1C36.3864 156.1 36.9304 156.278 37.3821 156.633C37.8366 156.985 38.1832 157.496 38.4219 158.167C38.6634 158.835 38.7841 159.64 38.7841 160.583C38.7841 161.532 38.6648 162.342 38.4261 163.012C38.1875 163.68 37.8423 164.19 37.3906 164.542C36.9389 164.891 36.392 165.066 35.75 165.066ZM35.75 164.129C36.3864 164.129 36.8807 163.822 37.233 163.208C37.5852 162.595 37.7614 161.72 37.7614 160.583C37.7614 159.827 37.6804 159.184 37.5185 158.653C37.3594 158.121 37.1293 157.717 36.8281 157.438C36.5298 157.16 36.1705 157.021 35.75 157.021C35.1193 157.021 34.6264 157.332 34.2713 157.954C33.9162 158.573 33.7386 159.45 33.7386 160.583C33.7386 161.339 33.8182 161.981 33.9773 162.509C34.1364 163.038 34.3651 163.44 34.6634 163.715C34.9645 163.991 35.3267 164.129 35.75 164.129ZM43.25 165.066C42.608 165.066 42.0611 164.891 41.6094 164.542C41.1577 164.19 40.8125 163.68 40.5739 163.012C40.3352 162.342 40.2159 161.532 40.2159 160.583C40.2159 159.64 40.3352 158.835 40.5739 158.167C40.8153 157.496 41.1619 156.985 41.6136 156.633C42.0682 156.278 42.6136 156.1 43.25 156.1C43.8864 156.1 44.4304 156.278 44.8821 156.633C45.3366 156.985 45.6832 157.496 45.9219 158.167C46.1634 158.835 46.2841 159.64 46.2841 160.583C46.2841 161.532 46.1648 162.342 45.9261 163.012C45.6875 163.68 45.3423 164.19 44.8906 164.542C44.4389 164.891 43.892 165.066 43.25 165.066ZM43.25 164.129C43.8864 164.129 44.3807 163.822 44.733 163.208C45.0852 162.595 45.2614 161.72 45.2614 160.583C45.2614 159.827 45.1804 159.184 45.0185 158.653C44.8594 158.121 44.6293 157.717 44.3281 157.438C44.0298 157.16 43.6705 157.021 43.25 157.021C42.6193 157.021 42.1264 157.332 41.7713 157.954C41.4162 158.573 41.2386 159.45 41.2386 160.583C41.2386 161.339 41.3182 161.981 41.4773 162.509C41.6364 163.038 41.8651 163.44 42.1634 163.715C42.4645 163.991 42.8267 164.129 43.25 164.129Z" fill="#98A2B3"/>
<path d="M55 160.947H613" stroke="#E4E7EA" stroke-dasharray="4 4"/>
<path d="M7.94247 206.568V205.801L10.8232 202.648C11.1612 202.278 11.4396 201.957 11.6584 201.685C11.8771 201.409 12.0391 201.151 12.1442 200.909C12.2521 200.665 12.3061 200.409 12.3061 200.142C12.3061 199.835 12.2322 199.57 12.0845 199.345C11.9396 199.121 11.7408 198.947 11.4879 198.825C11.2351 198.703 10.951 198.642 10.6357 198.642C10.3004 198.642 10.0078 198.712 9.75781 198.851C9.51065 198.987 9.31889 199.179 9.18253 199.426C9.04901 199.673 8.98224 199.963 8.98224 200.295H7.97656C7.97656 199.784 8.09446 199.335 8.33026 198.949C8.56605 198.562 8.88707 198.261 9.29332 198.045C9.70241 197.829 10.1612 197.722 10.6697 197.722C11.1811 197.722 11.6342 197.829 12.0291 198.045C12.424 198.261 12.7337 198.552 12.9581 198.919C13.1825 199.285 13.2947 199.693 13.2947 200.142C13.2947 200.463 13.2365 200.777 13.12 201.084C13.0064 201.388 12.8075 201.727 12.5234 202.102C12.2422 202.474 11.8516 202.929 11.3516 203.466L9.39134 205.562V205.631H13.4482V206.568H7.94247ZM18.0547 206.687C17.4126 206.687 16.8658 206.513 16.4141 206.163C15.9624 205.811 15.6172 205.301 15.3786 204.633C15.1399 203.963 15.0206 203.153 15.0206 202.204C15.0206 201.261 15.1399 200.456 15.3786 199.788C15.62 199.118 15.9666 198.606 16.4183 198.254C16.8729 197.899 17.4183 197.722 18.0547 197.722C18.6911 197.722 19.2351 197.899 19.6868 198.254C20.1413 198.606 20.4879 199.118 20.7266 199.788C20.968 200.456 21.0888 201.261 21.0888 202.204C21.0888 203.153 20.9695 203.963 20.7308 204.633C20.4922 205.301 20.147 205.811 19.6953 206.163C19.2436 206.513 18.6967 206.687 18.0547 206.687ZM18.0547 205.75C18.6911 205.75 19.1854 205.443 19.5376 204.829C19.8899 204.216 20.0661 203.341 20.0661 202.204C20.0661 201.449 19.9851 200.805 19.8232 200.274C19.6641 199.743 19.4339 199.338 19.1328 199.06C18.8345 198.781 18.4751 198.642 18.0547 198.642C17.424 198.642 16.9311 198.953 16.576 199.575C16.2209 200.195 16.0433 201.071 16.0433 202.204C16.0433 202.96 16.1229 203.602 16.282 204.131C16.4411 204.659 16.6697 205.061 16.968 205.337C17.2692 205.612 17.6314 205.75 18.0547 205.75ZM25.5547 206.687C24.9126 206.687 24.3658 206.513 23.9141 206.163C23.4624 205.811 23.1172 205.301 22.8786 204.633C22.6399 203.963 22.5206 203.153 22.5206 202.204C22.5206 201.261 22.6399 200.456 22.8786 199.788C23.12 199.118 23.4666 198.606 23.9183 198.254C24.3729 197.899 24.9183 197.722 25.5547 197.722C26.1911 197.722 26.7351 197.899 27.1868 198.254C27.6413 198.606 27.9879 199.118 28.2266 199.788C28.468 200.456 28.5888 201.261 28.5888 202.204C28.5888 203.153 28.4695 203.963 28.2308 204.633C27.9922 205.301 27.647 205.811 27.1953 206.163C26.7436 206.513 26.1967 206.687 25.5547 206.687ZM25.5547 205.75C26.1911 205.75 26.6854 205.443 27.0376 204.829C27.3899 204.216 27.5661 203.341 27.5661 202.204C27.5661 201.449 27.4851 200.805 27.3232 200.274C27.1641 199.743 26.9339 199.338 26.6328 199.06C26.3345 198.781 25.9751 198.642 25.5547 198.642C24.924 198.642 24.4311 198.953 24.076 199.575C23.7209 200.195 23.5433 201.071 23.5433 202.204C23.5433 202.96 23.6229 203.602 23.782 204.131C23.9411 204.659 24.1697 205.061 24.468 205.337C24.7692 205.612 25.1314 205.75 25.5547 205.75ZM30.6534 206.636C30.4432 206.636 30.2628 206.561 30.1122 206.41C29.9616 206.26 29.8864 206.079 29.8864 205.869C29.8864 205.659 29.9616 205.479 30.1122 205.328C30.2628 205.177 30.4432 205.102 30.6534 205.102C30.8636 205.102 31.044 205.177 31.1946 205.328C31.3452 205.479 31.4205 205.659 31.4205 205.869C31.4205 206.008 31.3849 206.136 31.3139 206.253C31.2457 206.369 31.1534 206.463 31.0369 206.534C30.9233 206.602 30.7955 206.636 30.6534 206.636ZM35.75 206.687C35.108 206.687 34.5611 206.513 34.1094 206.163C33.6577 205.811 33.3125 205.301 33.0739 204.633C32.8352 203.963 32.7159 203.153 32.7159 202.204C32.7159 201.261 32.8352 200.456 33.0739 199.788C33.3153 199.118 33.6619 198.606 34.1136 198.254C34.5682 197.899 35.1136 197.722 35.75 197.722C36.3864 197.722 36.9304 197.899 37.3821 198.254C37.8366 198.606 38.1832 199.118 38.4219 199.788C38.6634 200.456 38.7841 201.261 38.7841 202.204C38.7841 203.153 38.6648 203.963 38.4261 204.633C38.1875 205.301 37.8423 205.811 37.3906 206.163C36.9389 206.513 36.392 206.687 35.75 206.687ZM35.75 205.75C36.3864 205.75 36.8807 205.443 37.233 204.829C37.5852 204.216 37.7614 203.341 37.7614 202.204C37.7614 201.449 37.6804 200.805 37.5185 200.274C37.3594 199.743 37.1293 199.338 36.8281 199.06C36.5298 198.781 36.1705 198.642 35.75 198.642C35.1193 198.642 34.6264 198.953 34.2713 199.575C33.9162 200.195 33.7386 201.071 33.7386 202.204C33.7386 202.96 33.8182 203.602 33.9773 204.131C34.1364 204.659 34.3651 205.061 34.6634 205.337C34.9645 205.612 35.3267 205.75 35.75 205.75ZM43.25 206.687C42.608 206.687 42.0611 206.513 41.6094 206.163C41.1577 205.811 40.8125 205.301 40.5739 204.633C40.3352 203.963 40.2159 203.153 40.2159 202.204C40.2159 201.261 40.3352 200.456 40.5739 199.788C40.8153 199.118 41.1619 198.606 41.6136 198.254C42.0682 197.899 42.6136 197.722 43.25 197.722C43.8864 197.722 44.4304 197.899 44.8821 198.254C45.3366 198.606 45.6832 199.118 45.9219 199.788C46.1634 200.456 46.2841 201.261 46.2841 202.204C46.2841 203.153 46.1648 203.963 45.9261 204.633C45.6875 205.301 45.3423 205.811 44.8906 206.163C44.4389 206.513 43.892 206.687 43.25 206.687ZM43.25 205.75C43.8864 205.75 44.3807 205.443 44.733 204.829C45.0852 204.216 45.2614 203.341 45.2614 202.204C45.2614 201.449 45.1804 200.805 45.0185 200.274C44.8594 199.743 44.6293 199.338 44.3281 199.06C44.0298 198.781 43.6705 198.642 43.25 198.642C42.6193 198.642 42.1264 198.953 41.7713 199.575C41.4162 200.195 41.2386 201.071 41.2386 202.204C41.2386 202.96 41.3182 203.602 41.4773 204.131C41.6364 204.659 41.8651 205.061 42.1634 205.337C42.4645 205.612 42.8267 205.75 43.25 205.75Z" fill="#98A2B3"/>
<path d="M55 202.568H613" stroke="#E4E7EA" stroke-dasharray="4 4"/>
<path d="M43.25 248.308C42.608 248.308 42.0611 248.133 41.6094 247.784C41.1577 247.432 40.8125 246.922 40.5739 246.254C40.3352 245.584 40.2159 244.774 40.2159 243.825C40.2159 242.882 40.3352 242.077 40.5739 241.409C40.8153 240.738 41.1619 240.227 41.6136 239.875C42.0682 239.52 42.6136 239.342 43.25 239.342C43.8864 239.342 44.4304 239.52 44.8821 239.875C45.3366 240.227 45.6832 240.738 45.9219 241.409C46.1634 242.077 46.2841 242.882 46.2841 243.825C46.2841 244.774 46.1648 245.584 45.9261 246.254C45.6875 246.922 45.3423 247.432 44.8906 247.784C44.4389 248.133 43.892 248.308 43.25 248.308ZM43.25 247.371C43.8864 247.371 44.3807 247.064 44.733 246.45C45.0852 245.836 45.2614 244.961 45.2614 243.825C45.2614 243.069 45.1804 242.426 45.0185 241.895C44.8594 241.363 44.6293 240.959 44.3281 240.68C44.0298 240.402 43.6705 240.263 43.25 240.263C42.6193 240.263 42.1264 240.574 41.7713 241.196C41.4162 241.815 41.2386 242.692 41.2386 243.825C41.2386 244.581 41.3182 245.223 41.4773 245.751C41.6364 246.28 41.8651 246.682 42.1634 246.957C42.4645 247.233 42.8267 247.371 43.25 247.371Z" fill="#98A2B3"/>
<path d="M55 244.189H613" stroke="#E4E7EA"/>
<path d="M71.885 279.654L78.0561 285.825L77.3088 286.573L71.9211 281.185L71.885 281.221L71.3787 283.728L70.6194 282.969L71.1377 280.401L71.885 279.654ZM76.1547 275.384L77.0466 274.493L84.2664 277.518L84.3387 277.445L81.3134 270.226L82.2053 269.334L88.3764 275.505L87.6773 276.204L82.9887 271.515L82.9285 271.576L85.6886 278.193L85.0136 278.868L78.3966 276.108L78.3363 276.168L83.0249 280.856L82.3258 281.556L76.1547 275.384ZM91.2488 272.85C90.9555 273.143 90.6341 273.354 90.2846 273.482C89.933 273.609 89.5815 273.637 89.2299 273.567C88.8764 273.494 88.5489 273.308 88.2476 273.006C87.9824 272.741 87.8197 272.474 87.7595 272.205C87.6972 271.934 87.7062 271.663 87.7866 271.394C87.8669 271.125 87.9895 270.862 88.1542 270.605C88.3189 270.344 88.4947 270.091 88.6815 269.848C88.9266 269.531 89.1275 269.276 89.2842 269.083C89.4408 268.886 89.5363 268.724 89.5704 268.598C89.6066 268.469 89.5674 268.348 89.4529 268.233L89.4288 268.209C89.1315 267.912 88.8191 267.762 88.4917 267.76C88.1662 267.756 87.8398 267.918 87.5124 268.245C87.1729 268.585 86.981 268.925 86.9368 269.267C86.8926 269.608 86.9158 269.903 87.0061 270.15L86.0901 270.584C85.9294 270.182 85.8712 269.802 85.9154 269.445C85.9595 269.083 86.07 268.752 86.2468 268.45C86.4236 268.145 86.6285 267.876 86.8615 267.643C87.0102 267.494 87.199 267.341 87.428 267.185C87.657 267.024 87.9161 266.907 88.2054 266.835C88.4967 266.761 88.8121 266.773 89.1516 266.871C89.4911 266.97 89.8446 267.203 90.2122 267.57L93.2616 270.62L92.5505 271.331L91.9238 270.704L91.8876 270.74C91.9398 270.889 91.9669 271.077 91.969 271.304C91.971 271.531 91.9187 271.778 91.8123 272.045C91.7058 272.312 91.518 272.58 91.2488 272.85ZM90.7185 272.102C90.9997 271.821 91.1815 271.529 91.2639 271.225C91.3482 270.92 91.3522 270.631 91.2759 270.358C91.2016 270.082 91.068 269.848 90.8751 269.656L90.2243 269.005C90.2303 269.071 90.1972 269.17 90.1249 269.303C90.0525 269.432 89.9611 269.573 89.8506 269.728C89.7402 269.878 89.6307 270.024 89.5222 270.165C89.4137 270.301 89.3263 270.413 89.2601 270.499C89.0993 270.708 88.9658 270.92 88.8593 271.135C88.7528 271.346 88.7036 271.554 88.7116 271.759C88.7197 271.96 88.8141 272.15 88.9949 272.331C89.242 272.578 89.5202 272.674 89.8296 272.618C90.1389 272.557 90.4352 272.386 90.7185 272.102ZM96.5875 270.765C96.467 270.886 96.3494 270.983 96.2349 271.057C96.1225 271.134 96.0391 271.181 95.9848 271.199L95.5389 270.392C95.7558 270.263 95.9246 270.126 96.0451 269.982C96.1656 269.837 96.2239 269.66 96.2199 269.451C96.2199 269.242 96.1456 268.977 95.9969 268.656L95.7679 268.162L89.4039 265.221L90.1753 264.449L95.1411 266.86L95.1894 266.812L92.7788 261.846L93.5501 261.075L96.8888 268.342C97.0395 268.67 97.1279 268.977 97.154 269.265C97.1821 269.554 97.148 269.823 97.0515 270.072C96.9571 270.319 96.8024 270.55 96.5875 270.765Z" fill="#98A2B3"/>
<path d="M127.705 286.723C127.307 287.121 126.884 287.407 126.437 287.582C125.991 287.755 125.555 287.811 125.129 287.751C124.703 287.686 124.32 287.501 123.981 287.193L124.74 286.434C124.955 286.617 125.195 286.72 125.46 286.744C125.723 286.766 125.992 286.719 126.265 286.603C126.538 286.486 126.793 286.309 127.03 286.072C127.295 285.807 127.484 285.526 127.597 285.229C127.709 284.931 127.741 284.642 127.693 284.361C127.645 284.08 127.512 283.83 127.295 283.614C127.068 283.387 126.812 283.243 126.527 283.183C126.24 283.12 125.938 283.148 125.623 283.267C125.308 283.386 124.993 283.601 124.68 283.915L124.186 284.409L123.523 283.746L124.017 283.252C124.262 283.007 124.433 282.748 124.529 282.475C124.628 282.199 124.649 281.929 124.592 281.664C124.538 281.397 124.403 281.155 124.186 280.938C123.977 280.729 123.749 280.593 123.502 280.531C123.255 280.469 123.003 280.479 122.748 280.561C122.495 280.641 122.255 280.795 122.028 281.022C121.815 281.235 121.654 281.475 121.543 281.742C121.433 282.005 121.391 282.27 121.419 282.535C121.446 282.798 121.556 283.037 121.751 283.252L121.028 283.975C120.716 283.64 120.531 283.259 120.47 282.833C120.408 282.405 120.456 281.975 120.615 281.543C120.776 281.11 121.034 280.715 121.389 280.359C121.771 279.978 122.176 279.727 122.604 279.609C123.03 279.488 123.441 279.48 123.839 279.585C124.237 279.689 124.581 279.887 124.873 280.178C125.22 280.526 125.425 280.914 125.487 281.342C125.552 281.767 125.475 282.183 125.258 282.589L125.307 282.637C125.761 282.312 126.231 282.173 126.717 282.221C127.201 282.268 127.639 282.487 128.031 282.878C128.366 283.214 128.576 283.606 128.66 284.056C128.745 284.502 128.706 284.958 128.546 285.424C128.385 285.891 128.105 286.323 127.705 286.723ZM127.262 274.655L128.154 273.763L135.374 276.789L135.446 276.716L132.421 269.496L133.313 268.605L139.484 274.776L138.785 275.475L134.096 270.786L134.036 270.846L136.796 277.463L136.121 278.138L129.504 275.378L129.444 275.439L134.132 280.127L133.433 280.826L127.262 274.655ZM142.356 272.12C142.063 272.414 141.742 272.624 141.392 272.753C141.04 272.88 140.689 272.908 140.337 272.837C139.984 272.765 139.656 272.578 139.355 272.277C139.09 272.012 138.927 271.745 138.867 271.475C138.805 271.204 138.814 270.934 138.894 270.665C138.974 270.396 139.097 270.133 139.262 269.875C139.426 269.614 139.602 269.362 139.789 269.119C140.034 268.802 140.235 268.547 140.392 268.354C140.548 268.157 140.644 267.995 140.678 267.869C140.714 267.74 140.675 267.618 140.56 267.504L140.536 267.48C140.239 267.183 139.927 267.033 139.599 267.031C139.274 267.027 138.947 267.189 138.62 267.516C138.28 267.856 138.088 268.196 138.044 268.538C138 268.879 138.023 269.173 138.114 269.42L137.198 269.854C137.037 269.453 136.979 269.073 137.023 268.715C137.067 268.354 137.177 268.022 137.354 267.721C137.531 267.416 137.736 267.146 137.969 266.913C138.118 266.765 138.306 266.612 138.535 266.455C138.764 266.295 139.024 266.178 139.313 266.106C139.604 266.032 139.92 266.044 140.259 266.142C140.598 266.24 140.952 266.473 141.32 266.841L144.369 269.89L143.658 270.602L143.031 269.975L142.995 270.011C143.047 270.16 143.074 270.347 143.076 270.574C143.078 270.801 143.026 271.049 142.92 271.316C142.813 271.583 142.625 271.851 142.356 272.12ZM141.826 271.373C142.107 271.092 142.289 270.799 142.371 270.496C142.456 270.191 142.46 269.902 142.383 269.628C142.309 269.353 142.175 269.119 141.983 268.926L141.332 268.275C141.338 268.342 141.305 268.441 141.232 268.574C141.16 268.702 141.069 268.844 140.958 268.999C140.848 269.149 140.738 269.295 140.63 269.435C140.521 269.572 140.434 269.684 140.367 269.77C140.207 269.979 140.073 270.191 139.967 270.406C139.86 270.617 139.811 270.825 139.819 271.029C139.827 271.23 139.922 271.421 140.102 271.602C140.349 271.849 140.628 271.944 140.937 271.888C141.246 271.828 141.543 271.656 141.826 271.373ZM147.695 270.036C147.574 270.156 147.457 270.254 147.342 270.328C147.23 270.404 147.147 270.452 147.092 270.47L146.646 269.662C146.863 269.534 147.032 269.397 147.153 269.252C147.273 269.108 147.331 268.931 147.327 268.722C147.327 268.513 147.253 268.248 147.104 267.927L146.875 267.432L140.511 264.492L141.283 263.72L146.249 266.131L146.297 266.082L143.886 261.117L144.658 260.345L147.996 267.613C148.147 267.941 148.235 268.248 148.261 268.535C148.29 268.825 148.255 269.094 148.159 269.343C148.065 269.59 147.91 269.821 147.695 270.036Z" fill="#98A2B3"/>
<path d="M178.101 286.705C177.844 286.955 177.543 287.159 177.197 287.32C176.852 287.481 176.465 287.556 176.037 287.546C175.607 287.534 175.141 287.404 174.639 287.154C174.135 286.903 173.597 286.493 173.027 285.922C172.48 285.376 172.047 284.84 171.728 284.316C171.407 283.79 171.199 283.284 171.104 282.8C171.008 282.314 171.022 281.858 171.146 281.432C171.273 281.004 171.51 280.617 171.858 280.269C172.203 279.924 172.58 279.686 172.988 279.555C173.395 279.42 173.807 279.39 174.223 279.465C174.639 279.539 175.032 279.711 175.401 279.98L174.666 280.715C174.32 280.506 173.958 280.409 173.578 280.423C173.198 280.437 172.846 280.607 172.521 280.932C172.042 281.41 171.874 281.995 172.014 282.686C172.157 283.375 172.603 284.096 173.352 284.849L173.4 284.801C173.342 284.518 173.33 284.239 173.364 283.963C173.398 283.684 173.477 283.417 173.599 283.162C173.722 282.907 173.889 282.674 174.099 282.463C174.453 282.109 174.865 281.874 175.335 281.758C175.803 281.639 176.28 281.646 176.766 281.779C177.25 281.909 177.691 282.174 178.089 282.571C178.471 282.953 178.735 283.388 178.881 283.876C179.026 284.362 179.037 284.853 178.915 285.35C178.792 285.842 178.521 286.294 178.101 286.705ZM177.438 286.043C177.691 285.789 177.855 285.499 177.929 285.172C178.006 284.842 177.996 284.513 177.899 284.183C177.805 283.852 177.627 283.556 177.366 283.294C177.111 283.039 176.821 282.865 176.498 282.77C176.175 282.672 175.851 282.66 175.528 282.734C175.206 282.806 174.919 282.969 174.666 283.222C174.475 283.413 174.335 283.629 174.247 283.87C174.157 284.109 174.115 284.356 174.121 284.611C174.129 284.864 174.182 285.11 174.28 285.35C174.377 285.587 174.517 285.797 174.702 285.982C174.947 286.227 175.233 286.399 175.561 286.498C175.89 286.594 176.221 286.607 176.552 286.537C176.886 286.464 177.181 286.3 177.438 286.043ZM177.587 274.709L178.478 273.817L185.698 276.842L185.77 276.77L182.745 269.55L183.637 268.658L189.808 274.83L189.109 275.529L184.421 270.84L184.36 270.9L187.12 277.517L186.445 278.192L179.828 275.432L179.768 275.492L184.457 280.181L183.758 280.88L177.587 274.709ZM192.681 272.174C192.387 272.467 192.066 272.678 191.716 272.807C191.365 272.933 191.013 272.962 190.662 272.891C190.308 272.819 189.981 272.632 189.679 272.331C189.414 272.066 189.252 271.798 189.191 271.529C189.129 271.258 189.138 270.988 189.218 270.719C189.299 270.45 189.421 270.186 189.586 269.929C189.751 269.668 189.926 269.416 190.113 269.173C190.358 268.856 190.559 268.6 190.716 268.408C190.873 268.211 190.968 268.049 191.002 267.922C191.038 267.794 190.999 267.672 190.885 267.558L190.861 267.534C190.563 267.236 190.251 267.087 189.923 267.085C189.598 267.081 189.272 267.242 188.944 267.57C188.605 267.909 188.413 268.25 188.369 268.591C188.324 268.933 188.348 269.227 188.438 269.474L187.522 269.908C187.361 269.506 187.303 269.127 187.347 268.769C187.391 268.408 187.502 268.076 187.679 267.775C187.855 267.469 188.06 267.2 188.293 266.967C188.442 266.819 188.631 266.666 188.86 266.509C189.089 266.349 189.348 266.232 189.637 266.16C189.928 266.085 190.244 266.097 190.583 266.196C190.923 266.294 191.276 266.527 191.644 266.895L194.693 269.944L193.982 270.655L193.356 270.029L193.319 270.065C193.372 270.214 193.399 270.401 193.401 270.628C193.403 270.855 193.351 271.102 193.244 271.37C193.138 271.637 192.95 271.905 192.681 272.174ZM192.15 271.427C192.431 271.146 192.613 270.853 192.696 270.55C192.78 270.245 192.784 269.955 192.708 269.682C192.633 269.407 192.5 269.173 192.307 268.98L191.656 268.329C191.662 268.396 191.629 268.495 191.557 268.628C191.484 268.756 191.393 268.898 191.282 269.052C191.172 269.203 191.062 269.349 190.954 269.489C190.846 269.626 190.758 269.737 190.692 269.824C190.531 270.033 190.398 270.245 190.291 270.46C190.185 270.671 190.135 270.878 190.143 271.083C190.151 271.284 190.246 271.475 190.427 271.656C190.674 271.903 190.952 271.998 191.261 271.942C191.571 271.882 191.867 271.71 192.15 271.427ZM198.019 270.09C197.899 270.21 197.781 270.308 197.667 270.382C197.554 270.458 197.471 270.506 197.417 270.524L196.971 269.716C197.188 269.588 197.356 269.451 197.477 269.306C197.597 269.162 197.656 268.985 197.652 268.776C197.652 268.567 197.577 268.302 197.429 267.98L197.2 267.486L190.836 264.545L191.607 263.774L196.573 266.185L196.621 266.136L194.211 261.171L194.982 260.399L198.321 267.667C198.471 267.995 198.56 268.302 198.586 268.589C198.614 268.878 198.58 269.148 198.483 269.397C198.389 269.644 198.234 269.875 198.019 270.09Z" fill="#98A2B3"/>
<path d="M222.055 280.45C222.31 280.199 222.611 279.994 222.959 279.835C223.307 279.677 223.694 279.602 224.122 279.612C224.548 279.62 225.012 279.749 225.514 279.998C226.016 280.247 226.551 280.655 227.117 281.221C227.666 281.77 228.101 282.309 228.422 282.839C228.743 283.366 228.952 283.872 229.049 284.358C229.147 284.842 229.133 285.298 229.007 285.726C228.882 286.152 228.646 286.539 228.298 286.886C227.953 287.232 227.576 287.472 227.169 287.606C226.761 287.737 226.348 287.766 225.93 287.694C225.512 287.617 225.116 287.441 224.743 287.163L225.478 286.428C225.828 286.645 226.193 286.748 226.575 286.736C226.957 286.72 227.31 286.549 227.636 286.223C228.112 285.747 228.279 285.164 228.139 284.473C228 283.78 227.551 283.053 226.792 282.294L226.744 282.342C226.8 282.624 226.812 282.903 226.78 283.18C226.748 283.457 226.67 283.723 226.548 283.978C226.425 284.234 226.258 284.468 226.045 284.681C225.691 285.034 225.279 285.271 224.809 285.392C224.339 285.508 223.862 285.501 223.378 285.371C222.894 285.236 222.453 284.97 222.055 284.572C221.677 284.194 221.416 283.765 221.272 283.282C221.127 282.796 221.115 282.306 221.235 281.812C221.358 281.316 221.631 280.862 222.055 280.45ZM222.718 281.113C222.465 281.366 222.3 281.657 222.224 281.987C222.147 282.312 222.156 282.641 222.251 282.972C222.345 283.3 222.521 283.592 222.778 283.849C223.035 284.106 223.326 284.284 223.649 284.382C223.972 284.477 224.295 284.488 224.616 284.415C224.938 284.339 225.225 284.174 225.478 283.921C225.669 283.73 225.81 283.515 225.9 283.276C225.988 283.035 226.028 282.788 226.02 282.535C226.012 282.278 225.96 282.031 225.864 281.794C225.765 281.555 225.625 281.344 225.442 281.161C225.201 280.92 224.917 280.752 224.589 280.658C224.264 280.561 223.934 280.549 223.601 280.622C223.269 280.692 222.975 280.856 222.718 281.113ZM227.965 274.709L228.857 273.817L236.076 276.842L236.149 276.77L233.123 269.55L234.015 268.658L240.186 274.83L239.487 275.529L234.799 270.84L234.739 270.9L237.499 277.517L236.824 278.192L230.207 275.432L230.146 275.492L234.835 280.181L234.136 280.88L227.965 274.709ZM243.059 272.174C242.766 272.467 242.444 272.678 242.095 272.807C241.743 272.933 241.391 272.962 241.04 272.891C240.686 272.819 240.359 272.632 240.058 272.331C239.792 272.066 239.63 271.798 239.569 271.529C239.507 271.258 239.516 270.988 239.597 270.719C239.677 270.45 239.8 270.186 239.964 269.929C240.129 269.668 240.305 269.416 240.492 269.173C240.737 268.856 240.938 268.6 241.094 268.408C241.251 268.211 241.346 268.049 241.38 267.922C241.417 267.794 241.377 267.672 241.263 267.558L241.239 267.534C240.942 267.236 240.629 267.087 240.302 267.085C239.976 267.081 239.65 267.242 239.322 267.57C238.983 267.909 238.791 268.25 238.747 268.591C238.703 268.933 238.726 269.227 238.816 269.474L237.9 269.908C237.739 269.506 237.681 269.127 237.725 268.769C237.77 268.408 237.88 268.076 238.057 267.775C238.234 267.469 238.439 267.2 238.672 266.967C238.82 266.819 239.009 266.666 239.238 266.509C239.467 266.349 239.726 266.232 240.015 266.16C240.307 266.085 240.622 266.097 240.962 266.196C241.301 266.294 241.655 266.527 242.022 266.895L245.072 269.944L244.361 270.655L243.734 270.029L243.698 270.065C243.75 270.214 243.777 270.401 243.779 270.628C243.781 270.855 243.729 271.102 243.622 271.37C243.516 271.637 243.328 271.905 243.059 272.174ZM242.528 271.427C242.81 271.146 242.992 270.853 243.074 270.55C243.158 270.245 243.162 269.955 243.086 269.682C243.012 269.407 242.878 269.173 242.685 268.98L242.034 268.329C242.04 268.396 242.007 268.495 241.935 268.628C241.863 268.756 241.771 268.898 241.661 269.052C241.55 269.203 241.441 269.349 241.332 269.489C241.224 269.626 241.136 269.737 241.07 269.824C240.909 270.033 240.776 270.245 240.669 270.46C240.563 270.671 240.514 270.878 240.522 271.083C240.53 271.284 240.624 271.475 240.805 271.656C241.052 271.903 241.33 271.998 241.64 271.942C241.949 271.882 242.245 271.71 242.528 271.427ZM248.398 270.09C248.277 270.21 248.159 270.308 248.045 270.382C247.932 270.458 247.849 270.506 247.795 270.524L247.349 269.716C247.566 269.588 247.735 269.451 247.855 269.306C247.976 269.162 248.034 268.985 248.03 268.776C248.03 268.567 247.956 268.302 247.807 267.98L247.578 267.486L241.214 264.545L241.985 263.774L246.951 266.185L246.999 266.136L244.589 261.171L245.36 260.399L248.699 267.667C248.85 267.995 248.938 268.302 248.964 268.589C248.992 268.878 248.958 269.148 248.862 269.397C248.767 269.644 248.612 269.875 248.398 270.09Z" fill="#98A2B3"/>
<path d="M270.829 282.223L277 288.394L276.253 289.141L270.865 283.754L270.829 283.79L270.323 286.297L269.564 285.537L270.082 282.97L270.829 282.223ZM278.775 286.619L278.233 286.077L278.04 281.81C278.018 281.31 277.988 280.886 277.949 280.539C277.909 280.189 277.841 279.892 277.744 279.647C277.648 279.398 277.505 279.179 277.317 278.99C277.1 278.773 276.86 278.637 276.596 278.583C276.335 278.527 276.072 278.545 275.807 278.637C275.542 278.73 275.298 278.887 275.075 279.11C274.838 279.347 274.68 279.603 274.602 279.879C274.523 280.15 274.523 280.421 274.602 280.692C274.682 280.961 274.84 281.213 275.075 281.449L274.364 282.16C274.002 281.798 273.768 281.397 273.662 280.957C273.555 280.517 273.569 280.077 273.704 279.638C273.84 279.196 274.088 278.795 274.448 278.435C274.81 278.074 275.206 277.83 275.638 277.703C276.07 277.577 276.495 277.563 276.913 277.664C277.331 277.764 277.698 277.973 278.016 278.291C278.243 278.518 278.423 278.781 278.558 279.08C278.693 279.375 278.792 279.756 278.856 280.222C278.921 280.684 278.966 281.282 278.992 282.015L279.088 284.884L279.137 284.932L282.005 282.063L282.668 282.726L278.775 286.619ZM280.236 272.816L281.128 271.924L288.348 274.949L288.42 274.877L285.395 267.657L286.287 266.765L292.458 272.936L291.759 273.635L287.07 268.947L287.01 269.007L289.77 275.624L289.095 276.299L282.478 273.539L282.418 273.599L287.107 278.288L286.408 278.987L280.236 272.816ZM295.331 270.281C295.037 270.574 294.716 270.785 294.366 270.913C294.015 271.04 293.663 271.068 293.312 270.998C292.958 270.926 292.631 270.739 292.329 270.437C292.064 270.172 291.901 269.905 291.841 269.636C291.779 269.365 291.788 269.094 291.868 268.825C291.949 268.556 292.071 268.293 292.236 268.036C292.401 267.775 292.576 267.523 292.763 267.28C293.008 266.962 293.209 266.707 293.366 266.514C293.523 266.317 293.618 266.156 293.652 266.029C293.688 265.9 293.649 265.779 293.535 265.664L293.511 265.64C293.213 265.343 292.901 265.193 292.573 265.191C292.248 265.187 291.922 265.349 291.594 265.676C291.255 266.016 291.063 266.356 291.019 266.698C290.974 267.039 290.997 267.334 291.088 267.581L290.172 268.015C290.011 267.613 289.953 267.233 289.997 266.876C290.041 266.514 290.152 266.183 290.329 265.881C290.505 265.576 290.71 265.307 290.943 265.074C291.092 264.925 291.281 264.773 291.51 264.616C291.739 264.455 291.998 264.339 292.287 264.266C292.578 264.192 292.894 264.204 293.233 264.302C293.573 264.401 293.926 264.634 294.294 265.002L297.343 268.051L296.632 268.762L296.005 268.135L295.969 268.171C296.022 268.32 296.049 268.508 296.051 268.735C296.053 268.962 296 269.209 295.894 269.476C295.788 269.743 295.6 270.012 295.331 270.281ZM294.8 269.533C295.081 269.252 295.263 268.96 295.346 268.657C295.43 268.351 295.434 268.062 295.358 267.789C295.283 267.514 295.15 267.28 294.957 267.087L294.306 266.436C294.312 266.502 294.279 266.602 294.207 266.734C294.134 266.863 294.043 267.004 293.932 267.159C293.822 267.31 293.712 267.455 293.604 267.596C293.495 267.733 293.408 267.844 293.342 267.93C293.181 268.139 293.047 268.351 292.941 268.566C292.835 268.777 292.785 268.985 292.793 269.19C292.801 269.391 292.896 269.582 293.077 269.762C293.324 270.01 293.602 270.105 293.911 270.049C294.221 269.988 294.517 269.817 294.8 269.533ZM300.669 268.196C300.549 268.317 300.431 268.414 300.317 268.489C300.204 268.565 300.121 268.612 300.067 268.63L299.621 267.823C299.838 267.694 300.006 267.557 300.127 267.413C300.247 267.268 300.306 267.091 300.302 266.883C300.302 266.674 300.227 266.408 300.079 266.087L299.85 265.593L293.486 262.652L294.257 261.881L299.223 264.291L299.271 264.243L296.86 259.277L297.632 258.506L300.971 265.774C301.121 266.101 301.21 266.408 301.236 266.696C301.264 266.985 301.23 267.254 301.133 267.503C301.039 267.75 300.884 267.981 300.669 268.196Z" fill="#98A2B3"/>
<path d="M321.195 282.235L327.366 288.406L326.619 289.154L321.231 283.766L321.195 283.802L320.689 286.309L319.929 285.55L320.448 282.983L321.195 282.235ZM331.154 284.788C330.8 285.141 330.411 285.389 329.988 285.532C329.564 285.674 329.144 285.709 328.728 285.634C328.312 285.56 327.94 285.374 327.61 285.077L328.333 284.354C328.641 284.605 328.998 284.709 329.406 284.667C329.814 284.621 330.175 284.44 330.491 284.125C330.744 283.872 330.91 283.587 330.988 283.272C331.068 282.955 331.061 282.636 330.967 282.317C330.872 281.993 330.694 281.7 330.431 281.437C330.161 281.168 329.862 280.987 329.533 280.894C329.203 280.798 328.875 280.791 328.547 280.873C328.22 280.956 327.924 281.127 327.658 281.389C327.468 281.575 327.303 281.798 327.164 282.058C327.024 282.315 326.935 282.554 326.899 282.775L326.116 283.389L323.452 279.978L326.658 276.772L327.321 277.435L324.742 280.015L326.345 282.052L326.381 282.015C326.407 281.788 326.482 281.546 326.607 281.289C326.731 281.032 326.897 280.8 327.104 280.593C327.482 280.215 327.908 279.969 328.385 279.855C328.861 279.736 329.339 279.748 329.819 279.891C330.301 280.032 330.742 280.302 331.142 280.702C331.535 281.095 331.799 281.535 331.931 282.021C332.064 282.504 332.066 282.988 331.937 283.474C331.807 283.958 331.545 284.396 331.154 284.788ZM330.627 272.803L331.519 271.911L338.739 274.937L338.811 274.864L335.786 267.644L336.678 266.753L342.849 272.924L342.15 273.623L337.461 268.934L337.401 268.994L340.161 275.612L339.486 276.286L332.869 273.526L332.809 273.587L337.497 278.275L336.798 278.974L330.627 272.803ZM345.721 270.268C345.428 270.562 345.107 270.772 344.757 270.901C344.405 271.028 344.054 271.056 343.702 270.985C343.349 270.913 343.021 270.726 342.72 270.425C342.455 270.16 342.292 269.893 342.232 269.623C342.17 269.352 342.179 269.082 342.259 268.813C342.339 268.544 342.462 268.281 342.627 268.023C342.791 267.762 342.967 267.51 343.154 267.267C343.399 266.95 343.6 266.695 343.757 266.502C343.913 266.305 344.009 266.143 344.043 266.017C344.079 265.888 344.04 265.766 343.925 265.652L343.901 265.628C343.604 265.331 343.292 265.181 342.964 265.179C342.639 265.175 342.312 265.337 341.985 265.664C341.645 266.004 341.453 266.344 341.409 266.686C341.365 267.027 341.388 267.321 341.479 267.568L340.563 268.002C340.402 267.601 340.344 267.221 340.388 266.863C340.432 266.502 340.542 266.17 340.719 265.869C340.896 265.564 341.101 265.294 341.334 265.061C341.483 264.913 341.671 264.76 341.9 264.603C342.129 264.443 342.389 264.326 342.678 264.254C342.969 264.18 343.285 264.192 343.624 264.29C343.963 264.388 344.317 264.621 344.685 264.989L347.734 268.038L347.023 268.75L346.396 268.123L346.36 268.159C346.412 268.308 346.439 268.495 346.441 268.722C346.443 268.949 346.391 269.197 346.285 269.464C346.178 269.731 345.99 269.999 345.721 270.268ZM345.191 269.521C345.472 269.24 345.654 268.947 345.736 268.644C345.821 268.339 345.825 268.05 345.748 267.776C345.674 267.501 345.54 267.267 345.348 267.074L344.697 266.423C344.703 266.49 344.67 266.589 344.597 266.722C344.525 266.85 344.434 266.992 344.323 267.147C344.213 267.297 344.103 267.443 343.995 267.583C343.886 267.72 343.799 267.832 343.732 267.918C343.572 268.127 343.438 268.339 343.332 268.554C343.225 268.765 343.176 268.973 343.184 269.177C343.192 269.378 343.287 269.569 343.467 269.75C343.714 269.997 343.993 270.093 344.302 270.036C344.611 269.976 344.908 269.804 345.191 269.521ZM351.06 268.184C350.939 268.304 350.822 268.402 350.707 268.476C350.595 268.552 350.512 268.6 350.457 268.618L350.011 267.81C350.228 267.682 350.397 267.545 350.518 267.4C350.638 267.256 350.696 267.079 350.692 266.87C350.692 266.661 350.618 266.396 350.469 266.075L350.24 265.58L343.876 262.64L344.648 261.868L349.614 264.279L349.662 264.23L347.251 259.265L348.023 258.493L351.361 265.761C351.512 266.089 351.6 266.396 351.626 266.683C351.655 266.973 351.62 267.242 351.524 267.491C351.43 267.738 351.275 267.969 351.06 268.184Z" fill="#98A2B3"/>
<path d="M371.54 282.269L377.711 288.44L376.964 289.187L371.576 283.799L371.54 283.835L371.034 286.342L370.274 285.583L370.793 283.016L371.54 282.269ZM381.547 284.773C381.133 285.186 380.694 285.479 380.23 285.649C379.766 285.816 379.316 285.858 378.88 285.776C378.442 285.692 378.058 285.482 377.726 285.146C377.463 284.887 377.273 284.595 377.157 284.269C377.038 283.942 376.995 283.613 377.027 283.284C377.059 282.95 377.168 282.651 377.353 282.386L377.316 282.35C376.945 282.569 376.544 282.638 376.114 282.558C375.682 282.475 375.304 282.27 374.978 281.94C374.663 281.629 374.462 281.269 374.375 280.861C374.289 280.454 374.315 280.038 374.454 279.614C374.594 279.188 374.846 278.794 375.207 278.433C375.565 278.075 375.955 277.827 376.379 277.688C376.803 277.55 377.219 277.524 377.627 277.61C378.037 277.694 378.399 277.892 378.714 278.204C379.04 278.533 379.243 278.915 379.323 279.349C379.404 279.779 379.337 280.176 379.124 280.542L379.16 280.578C379.424 280.395 379.72 280.29 380.049 280.262C380.377 280.232 380.705 280.275 381.035 280.391C381.362 280.506 381.657 280.693 381.921 280.952C382.252 281.287 382.459 281.675 382.541 282.115C382.624 282.551 382.581 283.001 382.415 283.465C382.248 283.925 381.959 284.361 381.547 284.773ZM380.884 284.11C381.163 283.83 381.359 283.544 381.472 283.251C381.584 282.958 381.613 282.673 381.559 282.398C381.505 282.123 381.368 281.874 381.149 281.651C380.914 281.42 380.648 281.274 380.351 281.214C380.053 281.154 379.751 281.175 379.444 281.277C379.138 281.378 378.855 281.558 378.594 281.82C378.331 282.083 378.147 282.369 378.043 282.678C377.94 282.986 377.919 283.288 377.979 283.585C378.042 283.881 378.19 284.144 378.425 284.375C378.644 284.598 378.89 284.737 379.163 284.794C379.439 284.848 379.724 284.818 380.019 284.703C380.315 284.589 380.603 284.391 380.884 284.11ZM377.955 281.181C378.176 280.96 378.328 280.72 378.41 280.461C378.495 280.199 378.507 279.94 378.446 279.683C378.386 279.426 378.25 279.19 378.04 278.975C377.829 278.768 377.598 278.636 377.346 278.577C377.093 278.517 376.839 278.53 376.584 278.616C376.327 278.701 376.085 278.857 375.858 279.084C375.627 279.315 375.468 279.56 375.382 279.819C375.293 280.076 375.28 280.33 375.343 280.581C375.403 280.83 375.539 281.058 375.749 281.265C375.96 281.48 376.193 281.619 376.449 281.681C376.706 281.741 376.965 281.729 377.226 281.645C377.487 281.56 377.73 281.406 377.955 281.181ZM381.038 272.77L381.93 271.878L389.15 274.903L389.222 274.831L386.197 267.611L387.089 266.719L393.26 272.891L392.561 273.59L387.872 268.901L387.812 268.961L390.572 275.578L389.897 276.253L383.28 273.493L383.22 273.553L387.909 278.242L387.21 278.941L381.038 272.77ZM396.133 270.235C395.839 270.528 395.518 270.739 395.168 270.868C394.817 270.994 394.465 271.023 394.114 270.952C393.76 270.88 393.433 270.693 393.131 270.392C392.866 270.127 392.703 269.859 392.643 269.59C392.581 269.319 392.59 269.049 392.67 268.78C392.751 268.511 392.873 268.247 393.038 267.99C393.203 267.729 393.378 267.477 393.565 267.234C393.81 266.917 394.011 266.661 394.168 266.469C394.325 266.272 394.42 266.11 394.454 265.983C394.49 265.855 394.451 265.733 394.337 265.619L394.313 265.595C394.015 265.297 393.703 265.148 393.375 265.146C393.05 265.142 392.724 265.303 392.396 265.631C392.057 265.97 391.865 266.311 391.821 266.652C391.776 266.994 391.799 267.288 391.89 267.535L390.974 267.969C390.813 267.567 390.755 267.188 390.799 266.83C390.843 266.469 390.954 266.137 391.131 265.836C391.307 265.53 391.512 265.261 391.745 265.028C391.894 264.88 392.083 264.727 392.312 264.57C392.541 264.41 392.8 264.293 393.089 264.221C393.38 264.146 393.696 264.158 394.035 264.257C394.375 264.355 394.728 264.588 395.096 264.956L398.145 268.005L397.434 268.716L396.807 268.09L396.771 268.126C396.824 268.275 396.851 268.462 396.853 268.689C396.855 268.916 396.802 269.163 396.696 269.431C396.59 269.698 396.402 269.966 396.133 270.235ZM395.602 269.488C395.883 269.207 396.065 268.914 396.148 268.611C396.232 268.306 396.236 268.016 396.16 267.743C396.085 267.468 395.952 267.234 395.759 267.041L395.108 266.39C395.114 266.457 395.081 266.556 395.009 266.689C394.936 266.817 394.845 266.959 394.734 267.113C394.624 267.264 394.514 267.41 394.406 267.55C394.297 267.687 394.21 267.798 394.144 267.885C393.983 268.094 393.849 268.306 393.743 268.521C393.637 268.732 393.587 268.939 393.595 269.144C393.603 269.345 393.698 269.536 393.879 269.717C394.126 269.964 394.404 270.059 394.713 270.003C395.023 269.943 395.319 269.771 395.602 269.488ZM401.471 268.151C401.351 268.271 401.233 268.369 401.119 268.443C401.006 268.519 400.923 268.567 400.869 268.585L400.423 267.777C400.64 267.649 400.808 267.512 400.929 267.367C401.049 267.223 401.108 267.046 401.104 266.837C401.104 266.628 401.029 266.363 400.881 266.041L400.652 265.547L394.288 262.606L395.059 261.835L400.025 264.246L400.073 264.197L397.662 259.232L398.434 258.46L401.773 265.728C401.923 266.056 402.012 266.363 402.038 266.65C402.066 266.939 402.032 267.209 401.935 267.458C401.841 267.705 401.686 267.936 401.471 268.151Z" fill="#98A2B3"/>
<path d="M425.965 290.564L425.423 290.021L425.23 285.754C425.208 285.254 425.178 284.83 425.14 284.483C425.1 284.133 425.031 283.836 424.935 283.591C424.838 283.342 424.696 283.123 424.507 282.934C424.29 282.717 424.05 282.582 423.787 282.527C423.526 282.471 423.263 282.489 422.997 282.582C422.732 282.674 422.488 282.832 422.265 283.055C422.028 283.292 421.87 283.548 421.792 283.823C421.714 284.094 421.714 284.365 421.792 284.637C421.872 284.906 422.03 285.158 422.265 285.393L421.554 286.104C421.192 285.742 420.958 285.342 420.852 284.902C420.745 284.462 420.76 284.022 420.894 283.582C421.031 283.14 421.279 282.739 421.638 282.38C422 282.018 422.397 281.774 422.829 281.647C423.261 281.521 423.685 281.508 424.103 281.608C424.521 281.709 424.889 281.918 425.206 282.235C425.433 282.462 425.614 282.725 425.748 283.024C425.883 283.32 425.983 283.7 426.047 284.166C426.111 284.628 426.156 285.226 426.182 285.959L426.279 288.828L426.327 288.876L429.196 286.008L429.859 286.67L425.965 290.564ZM427.101 277.085L433.273 283.256L432.525 284.004L427.138 278.616L427.101 278.652L426.595 281.159L425.836 280.4L426.354 277.833L427.101 277.085ZM431.371 272.816L432.263 271.924L439.483 274.949L439.555 274.877L436.53 267.657L437.422 266.765L443.593 272.936L442.894 273.635L438.205 268.947L438.145 269.007L440.905 275.624L440.23 276.299L433.613 273.539L433.553 273.599L438.241 278.288L437.542 278.987L431.371 272.816ZM446.465 270.281C446.172 270.574 445.851 270.785 445.501 270.913C445.149 271.04 444.798 271.068 444.446 270.998C444.093 270.926 443.765 270.739 443.464 270.437C443.199 270.172 443.036 269.905 442.976 269.636C442.914 269.365 442.923 269.094 443.003 268.825C443.083 268.556 443.206 268.293 443.371 268.036C443.535 267.775 443.711 267.523 443.898 267.28C444.143 266.962 444.344 266.707 444.501 266.514C444.657 266.317 444.753 266.156 444.787 266.029C444.823 265.9 444.784 265.779 444.669 265.664L444.645 265.64C444.348 265.343 444.036 265.193 443.708 265.191C443.383 265.187 443.056 265.349 442.729 265.676C442.389 266.016 442.197 266.356 442.153 266.698C442.109 267.039 442.132 267.334 442.223 267.581L441.307 268.015C441.146 267.613 441.088 267.233 441.132 266.876C441.176 266.514 441.286 266.183 441.463 265.881C441.64 265.576 441.845 265.307 442.078 265.074C442.227 264.925 442.415 264.773 442.644 264.616C442.873 264.455 443.133 264.339 443.422 264.266C443.713 264.192 444.029 264.204 444.368 264.302C444.708 264.401 445.061 264.634 445.429 265.002L448.478 268.051L447.767 268.762L447.14 268.135L447.104 268.171C447.156 268.32 447.183 268.508 447.185 268.735C447.187 268.962 447.135 269.209 447.029 269.476C446.922 269.743 446.734 270.012 446.465 270.281ZM445.935 269.533C446.216 269.252 446.398 268.96 446.48 268.657C446.565 268.351 446.569 268.062 446.492 267.789C446.418 267.514 446.284 267.28 446.092 267.087L445.441 266.436C445.447 266.502 445.414 266.602 445.341 266.734C445.269 266.863 445.178 267.004 445.067 267.159C444.957 267.31 444.847 267.455 444.739 267.596C444.63 267.733 444.543 267.844 444.477 267.93C444.316 268.139 444.182 268.351 444.076 268.566C443.969 268.777 443.92 268.985 443.928 269.19C443.936 269.391 444.031 269.582 444.211 269.762C444.458 270.01 444.737 270.105 445.046 270.049C445.355 269.988 445.652 269.817 445.935 269.533ZM451.804 268.196C451.683 268.317 451.566 268.414 451.451 268.489C451.339 268.565 451.256 268.612 451.201 268.63L450.755 267.823C450.972 267.694 451.141 267.557 451.262 267.413C451.382 267.268 451.44 267.091 451.436 266.883C451.436 266.674 451.362 266.408 451.213 266.087L450.984 265.593L444.62 262.652L445.392 261.881L450.358 264.291L450.406 264.243L447.995 259.277L448.767 258.506L452.105 265.774C452.256 266.101 452.344 266.408 452.37 266.696C452.399 266.985 452.364 267.254 452.268 267.503C452.174 267.75 452.019 267.981 451.804 268.196Z" fill="#98A2B3"/>
<path d="M475.66 291.247L475.118 290.705L474.925 286.438C474.903 285.938 474.872 285.514 474.834 285.166C474.794 284.817 474.726 284.52 474.629 284.274C474.533 284.025 474.39 283.806 474.202 283.618C473.985 283.401 473.745 283.265 473.481 283.211C473.22 283.155 472.957 283.173 472.692 283.265C472.427 283.357 472.183 283.515 471.96 283.738C471.723 283.975 471.565 284.231 471.487 284.507C471.408 284.778 471.408 285.049 471.487 285.32C471.567 285.589 471.725 285.841 471.96 286.076L471.249 286.788C470.887 286.426 470.653 286.025 470.546 285.585C470.44 285.145 470.454 284.705 470.589 284.265C470.725 283.824 470.973 283.423 471.333 283.063C471.695 282.702 472.091 282.458 472.523 282.331C472.955 282.204 473.38 282.191 473.798 282.292C474.216 282.392 474.583 282.601 474.901 282.919C475.128 283.146 475.308 283.409 475.443 283.708C475.578 284.003 475.677 284.384 475.741 284.85C475.806 285.312 475.851 285.91 475.877 286.643L475.973 289.511L476.022 289.56L478.89 286.691L479.553 287.354L475.66 291.247ZM479.255 285.121L478.64 284.507L477.061 277.504L477.507 277.058L478.459 278.01L478.158 278.311L479.351 283.603L479.399 283.651L483.051 279.999L483.714 280.662L479.255 285.121ZM483.425 283.482L481.973 282.03L481.686 281.743L477.254 277.311L477.965 276.6L484.136 282.771L483.425 283.482ZM482.433 272.132L483.325 271.24L490.545 274.265L490.617 274.193L487.592 266.973L488.484 266.081L494.655 272.252L493.956 272.951L489.267 268.263L489.207 268.323L491.967 274.94L491.292 275.615L484.675 272.855L484.615 272.915L489.303 277.604L488.604 278.303L482.433 272.132ZM497.527 269.597C497.234 269.89 496.912 270.101 496.563 270.23C496.211 270.356 495.86 270.384 495.508 270.314C495.155 270.242 494.827 270.055 494.526 269.754C494.261 269.489 494.098 269.221 494.038 268.952C493.975 268.681 493.984 268.411 494.065 268.142C494.145 267.872 494.268 267.609 494.432 267.352C494.597 267.091 494.773 266.839 494.96 266.596C495.205 266.278 495.406 266.023 495.562 265.83C495.719 265.634 495.814 265.472 495.849 265.345C495.885 265.217 495.846 265.095 495.731 264.981L495.707 264.957C495.41 264.659 495.097 264.51 494.77 264.508C494.444 264.504 494.118 264.665 493.791 264.993C493.451 265.332 493.259 265.673 493.215 266.014C493.171 266.356 493.194 266.65 493.284 266.897L492.368 267.331C492.208 266.929 492.149 266.55 492.194 266.192C492.238 265.83 492.348 265.499 492.525 265.198C492.702 264.892 492.907 264.623 493.14 264.39C493.288 264.241 493.477 264.089 493.706 263.932C493.935 263.771 494.194 263.655 494.484 263.583C494.775 263.508 495.09 263.52 495.43 263.619C495.769 263.717 496.123 263.95 496.49 264.318L499.54 267.367L498.829 268.078L498.202 267.452L498.166 267.488C498.218 267.636 498.245 267.824 498.247 268.051C498.249 268.278 498.197 268.525 498.09 268.792C497.984 269.06 497.796 269.328 497.527 269.597ZM496.997 268.85C497.278 268.568 497.46 268.276 497.542 267.973C497.626 267.668 497.63 267.378 497.554 267.105C497.48 266.83 497.346 266.596 497.153 266.403L496.503 265.752C496.509 265.818 496.475 265.918 496.403 266.05C496.331 266.179 496.239 266.321 496.129 266.475C496.018 266.626 495.909 266.772 495.8 266.912C495.692 267.049 495.605 267.16 495.538 267.247C495.378 267.456 495.244 267.668 495.138 267.882C495.031 268.093 494.982 268.301 494.99 268.506C494.998 268.707 495.092 268.898 495.273 269.079C495.52 269.326 495.798 269.421 496.108 269.365C496.417 269.305 496.713 269.133 496.997 268.85ZM502.866 267.513C502.745 267.633 502.628 267.731 502.513 267.805C502.401 267.881 502.317 267.928 502.263 267.947L501.817 267.139C502.034 267.01 502.203 266.874 502.323 266.729C502.444 266.585 502.502 266.408 502.498 266.199C502.498 265.99 502.424 265.725 502.275 265.403L502.046 264.909L495.682 261.968L496.454 261.197L501.419 263.607L501.468 263.559L499.057 258.593L499.828 257.822L503.167 265.09C503.318 265.417 503.406 265.725 503.432 266.012C503.46 266.301 503.426 266.57 503.33 266.82C503.235 267.067 503.081 267.298 502.866 267.513Z" fill="#98A2B3"/>
<path d="M526.27 291.015L525.728 290.473L525.535 286.206C525.513 285.706 525.483 285.282 525.445 284.934C525.404 284.585 525.336 284.288 525.24 284.043C525.143 283.793 525.001 283.574 524.812 283.386C524.595 283.169 524.355 283.033 524.092 282.979C523.831 282.923 523.567 282.941 523.302 283.033C523.037 283.125 522.793 283.283 522.57 283.506C522.333 283.743 522.175 283.999 522.097 284.275C522.019 284.546 522.019 284.817 522.097 285.088C522.177 285.357 522.335 285.609 522.57 285.844L521.859 286.556C521.497 286.194 521.263 285.793 521.157 285.353C521.05 284.913 521.064 284.473 521.199 284.033C521.336 283.592 521.584 283.191 521.943 282.831C522.305 282.47 522.702 282.226 523.133 282.099C523.565 281.972 523.99 281.959 524.408 282.06C524.826 282.16 525.194 282.369 525.511 282.687C525.738 282.914 525.919 283.177 526.053 283.476C526.188 283.771 526.287 284.152 526.352 284.618C526.416 285.08 526.461 285.678 526.487 286.411L526.584 289.28L526.632 289.328L529.5 286.459L530.163 287.122L526.27 291.015ZM531.601 285.685L528.901 277.465L528.853 277.416L525.671 280.598L525.008 279.935L528.961 275.982L529.66 276.681L532.384 284.901L531.601 285.685ZM532.579 272.364L533.471 271.472L540.691 274.497L540.763 274.425L537.738 267.205L538.63 266.313L544.801 272.484L544.102 273.184L539.413 268.495L539.353 268.555L542.113 275.172L541.438 275.847L534.821 273.087L534.761 273.147L539.449 277.836L538.75 278.535L532.579 272.364ZM547.673 269.829C547.38 270.122 547.059 270.333 546.709 270.462C546.358 270.588 546.006 270.617 545.654 270.546C545.301 270.474 544.973 270.287 544.672 269.986C544.407 269.721 544.244 269.453 544.184 269.184C544.122 268.913 544.131 268.643 544.211 268.374C544.291 268.104 544.414 267.841 544.579 267.584C544.743 267.323 544.919 267.071 545.106 266.828C545.351 266.51 545.552 266.255 545.709 266.063C545.865 265.866 545.961 265.704 545.995 265.577C546.031 265.449 545.992 265.327 545.877 265.213L545.853 265.189C545.556 264.891 545.244 264.742 544.916 264.74C544.591 264.736 544.264 264.897 543.937 265.225C543.597 265.564 543.406 265.905 543.361 266.246C543.317 266.588 543.34 266.882 543.431 267.129L542.515 267.563C542.354 267.161 542.296 266.782 542.34 266.424C542.384 266.063 542.495 265.731 542.671 265.43C542.848 265.124 543.053 264.855 543.286 264.622C543.435 264.474 543.624 264.321 543.853 264.164C544.082 264.003 544.341 263.887 544.63 263.815C544.921 263.74 545.237 263.752 545.576 263.851C545.916 263.949 546.269 264.182 546.637 264.55L549.686 267.599L548.975 268.31L548.348 267.684L548.312 267.72C548.364 267.868 548.391 268.056 548.393 268.283C548.395 268.51 548.343 268.757 548.237 269.025C548.13 269.292 547.942 269.56 547.673 269.829ZM547.143 269.082C547.424 268.801 547.606 268.508 547.688 268.205C547.773 267.9 547.777 267.61 547.7 267.337C547.626 267.062 547.493 266.828 547.3 266.635L546.649 265.984C546.655 266.05 546.622 266.15 546.549 266.282C546.477 266.411 546.386 266.553 546.275 266.707C546.165 266.858 546.055 267.004 545.947 267.144C545.838 267.281 545.751 267.392 545.685 267.479C545.524 267.688 545.39 267.9 545.284 268.115C545.177 268.325 545.128 268.533 545.136 268.738C545.144 268.939 545.239 269.13 545.419 269.311C545.666 269.558 545.945 269.653 546.254 269.597C546.563 269.537 546.86 269.365 547.143 269.082ZM553.012 267.745C552.891 267.865 552.774 267.963 552.659 268.037C552.547 268.113 552.464 268.16 552.409 268.179L551.963 267.371C552.18 267.242 552.349 267.106 552.47 266.961C552.59 266.817 552.648 266.64 552.644 266.431C552.644 266.222 552.57 265.957 552.421 265.635L552.192 265.141L545.828 262.2L546.6 261.429L551.566 263.839L551.614 263.791L549.203 258.825L549.975 258.054L553.313 265.322C553.464 265.649 553.552 265.957 553.578 266.244C553.607 266.533 553.572 266.803 553.476 267.052C553.382 267.299 553.227 267.53 553.012 267.745Z" fill="#98A2B3"/>
<path d="M578.457 289.375C578.06 289.773 577.637 290.059 577.189 290.234C576.743 290.406 576.307 290.463 575.881 290.402C575.455 290.338 575.073 290.152 574.733 289.845L575.492 289.086C575.707 289.268 575.947 289.372 576.213 289.396C576.476 289.418 576.744 289.371 577.017 289.254C577.29 289.138 577.545 288.961 577.783 288.724C578.048 288.459 578.237 288.178 578.349 287.88C578.462 287.583 578.494 287.294 578.445 287.012C578.397 286.731 578.265 286.482 578.048 286.265C577.821 286.038 577.565 285.894 577.279 285.834C576.992 285.772 576.691 285.8 576.375 285.919C576.06 286.037 575.746 286.253 575.432 286.566L574.938 287.061L574.275 286.398L574.769 285.904C575.014 285.658 575.185 285.399 575.282 285.126C575.38 284.851 575.401 284.581 575.345 284.316C575.291 284.048 575.155 283.806 574.938 283.589C574.729 283.38 574.501 283.245 574.254 283.183C574.007 283.12 573.756 283.13 573.501 283.213C573.248 283.293 573.008 283.447 572.781 283.674C572.568 283.887 572.406 284.127 572.295 284.394C572.185 284.657 572.144 284.921 572.172 285.186C572.198 285.45 572.308 285.689 572.503 285.904L571.78 286.627C571.469 286.291 571.283 285.911 571.223 285.485C571.16 285.057 571.209 284.627 571.367 284.195C571.528 283.761 571.786 283.366 572.142 283.011C572.523 282.629 572.928 282.379 573.356 282.261C573.782 282.14 574.194 282.132 574.592 282.236C574.989 282.341 575.334 282.539 575.625 282.83C575.973 283.178 576.177 283.565 576.24 283.993C576.304 284.419 576.228 284.835 576.011 285.241L576.059 285.289C576.513 284.963 576.983 284.825 577.469 284.873C577.953 284.919 578.391 285.138 578.783 285.53C579.118 285.865 579.328 286.258 579.413 286.708C579.497 287.154 579.459 287.61 579.298 288.076C579.137 288.542 578.857 288.975 578.457 289.375ZM583.788 284.044C583.334 284.498 582.824 284.762 582.257 284.834C581.689 284.904 581.084 284.788 580.443 284.484C579.8 284.179 579.144 283.691 578.473 283.02C577.806 282.353 577.32 281.699 577.017 281.058C576.714 280.413 576.597 279.807 576.668 279.238C576.738 278.666 576.998 278.154 577.448 277.704C577.898 277.255 578.408 276.995 578.979 276.927C579.549 276.855 580.156 276.971 580.799 277.277C581.442 277.578 582.096 278.062 582.763 278.729C583.434 279.4 583.923 280.057 584.228 280.7C584.531 281.34 584.648 281.945 584.577 282.514C584.505 283.08 584.242 283.59 583.788 284.044ZM583.125 283.381C583.575 282.931 583.708 282.365 583.523 281.682C583.338 280.999 582.844 280.256 582.04 279.452C581.506 278.918 580.994 278.52 580.503 278.259C580.015 277.996 579.566 277.872 579.157 277.888C578.749 277.902 578.396 278.058 578.099 278.355C577.653 278.801 577.524 279.37 577.713 280.061C577.9 280.75 578.394 281.495 579.196 282.297C579.73 282.831 580.24 283.229 580.726 283.49C581.213 283.751 581.659 283.874 582.064 283.858C582.472 283.839 582.826 283.681 583.125 283.381ZM583.318 272.003L584.21 271.112L591.429 274.137L591.502 274.065L588.477 266.845L589.368 265.953L595.54 272.124L594.84 272.823L590.152 268.134L590.092 268.195L592.852 274.812L592.177 275.487L585.56 272.727L585.499 272.787L590.188 277.475L589.489 278.175L583.318 272.003ZM598.412 269.469C598.119 269.762 597.797 269.973 597.448 270.101C597.096 270.228 596.745 270.256 596.393 270.186C596.039 270.113 595.712 269.927 595.411 269.625C595.146 269.36 594.983 269.093 594.923 268.824C594.86 268.553 594.869 268.282 594.95 268.013C595.03 267.744 595.153 267.481 595.317 267.224C595.482 266.963 595.658 266.71 595.845 266.467C596.09 266.15 596.291 265.895 596.447 265.702C596.604 265.505 596.699 265.343 596.734 265.217C596.77 265.088 596.731 264.967 596.616 264.852L596.592 264.828C596.295 264.531 595.982 264.381 595.655 264.379C595.329 264.375 595.003 264.537 594.675 264.864C594.336 265.204 594.144 265.544 594.1 265.886C594.056 266.227 594.079 266.522 594.169 266.769L593.253 267.203C593.093 266.801 593.034 266.421 593.078 266.064C593.123 265.702 593.233 265.371 593.41 265.069C593.587 264.764 593.792 264.495 594.025 264.262C594.173 264.113 594.362 263.96 594.591 263.804C594.82 263.643 595.079 263.526 595.369 263.454C595.66 263.38 595.975 263.392 596.315 263.49C596.654 263.589 597.008 263.822 597.375 264.189L600.425 267.239L599.714 267.95L599.087 267.323L599.051 267.359C599.103 267.508 599.13 267.696 599.132 267.923C599.134 268.15 599.082 268.397 598.975 268.664C598.869 268.931 598.681 269.199 598.412 269.469ZM597.882 268.721C598.163 268.44 598.345 268.148 598.427 267.844C598.511 267.539 598.515 267.25 598.439 266.977C598.365 266.701 598.231 266.467 598.038 266.275L597.387 265.624C597.393 265.69 597.36 265.789 597.288 265.922C597.216 266.051 597.124 266.192 597.014 266.347C596.903 266.498 596.794 266.643 596.685 266.784C596.577 266.92 596.489 267.032 596.423 267.118C596.262 267.327 596.129 267.539 596.022 267.754C595.916 267.965 595.867 268.173 595.875 268.378C595.883 268.579 595.977 268.769 596.158 268.95C596.405 269.197 596.683 269.293 596.993 269.237C597.302 269.176 597.598 269.005 597.882 268.721ZM603.751 267.384C603.63 267.505 603.513 267.602 603.398 267.676C603.286 267.753 603.202 267.8 603.148 267.818L602.702 267.011C602.919 266.882 603.088 266.745 603.208 266.601C603.329 266.456 603.387 266.279 603.383 266.07C603.383 265.861 603.309 265.596 603.16 265.275L602.931 264.781L596.567 261.84L597.338 261.068L602.304 263.479L602.352 263.431L599.942 258.465L600.713 257.694L604.052 264.962C604.203 265.289 604.291 265.596 604.317 265.884C604.345 266.173 604.311 266.442 604.215 266.691C604.12 266.938 603.966 267.169 603.751 267.384Z" fill="#98A2B3"/>
</svg>
