<svg width="12" height="12" viewBox="0 0 12 12" fill="none" xmlns="http://www.w3.org/2000/svg">
<path d="M5.78564 11.5C2.73486 11.5 0.285645 9.05078 0.285645 6C0.285645 2.9707 2.73486 0.5 5.78564 0.5C8.81494 0.5 11.2856 2.9707 11.2856 6C11.2856 9.05078 8.81494 11.5 5.78564 11.5ZM5.27002 6C5.27002 6.17188 5.35596 6.34375 5.48486 6.42969L7.54736 7.80469C7.78369 7.97656 8.10596 7.91211 8.25635 7.67578C8.42822 7.43945 8.36377 7.11719 8.12744 6.94531L6.30127 5.74219V3.07812C6.30127 2.79883 6.06494 2.5625 5.76416 2.5625C5.48486 2.5625 5.24854 2.79883 5.24854 3.07812L5.27002 6Z" fill="#D4547D"/>
</svg>
