<svg width="9" height="12" viewBox="0 0 9 12" fill="none" xmlns="http://www.w3.org/2000/svg">
<path d="M0.0356445 1.01562C0.0356445 0.736328 0.250488 0.5 0.55127 0.5H7.77002C8.04932 0.5 8.28564 0.736328 8.28564 1.01562C8.28564 1.31641 8.04932 1.53125 7.77002 1.53125H7.59814V1.93945C7.59814 2.82031 7.23291 3.63672 6.63135 4.25977L4.86963 6L6.63135 7.76172C7.23291 8.36328 7.59814 9.20117 7.59814 10.0605V10.4688H7.77002C8.04932 10.4688 8.28564 10.7051 8.28564 10.9844C8.28564 11.2852 8.04932 11.5 7.77002 11.5H0.55127C0.250488 11.5 0.0356445 11.2852 0.0356445 10.9844C0.0356445 10.7051 0.250488 10.4688 0.55127 10.4688H0.723145V10.0605C0.723145 9.20117 1.06689 8.36328 1.66846 7.76172L3.43018 6L1.66846 4.25977C1.06689 3.63672 0.723145 2.82031 0.723145 1.93945V1.53125H0.55127C0.250488 1.53125 0.0356445 1.31641 0.0356445 1.01562ZM2.1626 8.75H6.13721C6.07275 8.66406 5.98682 8.57812 5.90088 8.49219L4.16064 6.73047L2.39893 8.49219C2.31299 8.57812 2.22705 8.66406 2.1626 8.75ZM6.13721 3.25C6.39502 2.88477 6.56689 2.43359 6.56689 1.93945V1.53125H1.75439V1.93945C1.75439 2.43359 1.90479 2.88477 2.1626 3.25H6.13721Z" fill="#D4547D"/>
</svg>
