<svg width="25" height="24" viewBox="0 0 25 24" fill="none" xmlns="http://www.w3.org/2000/svg">
<path d="M0.299927 12.0001C0.299927 5.37267 5.67251 9.15527e-05 12.2999 9.15527e-05C18.9273 9.15527e-05 24.2999 5.37267 24.2999 12.0001C24.2999 18.6275 18.9273 24.0001 12.2999 24.0001C5.67251 24.0001 0.299927 18.6275 0.299927 12.0001Z" fill="#667085"/>
<path d="M17.6332 18.0001V16.6668C17.6332 15.9595 17.3523 15.2812 16.8522 14.7811C16.3521 14.281 15.6738 14.0001 14.9666 14.0001H9.63322C8.92598 14.0001 8.2477 14.281 7.7476 14.7811C7.2475 15.2812 6.96655 15.9595 6.96655 16.6668V18.0001M14.9666 8.66676C14.9666 10.1395 13.7726 11.3334 12.2999 11.3334C10.8271 11.3334 9.63322 10.1395 9.63322 8.66676C9.63322 7.194 10.8271 6.00009 12.2999 6.00009C13.7726 6.00009 14.9666 7.194 14.9666 8.66676Z" stroke="white" stroke-linecap="round" stroke-linejoin="round"/>
</svg>
