<svg width="60" height="60" viewBox="0 0 60 60" fill="none" xmlns="http://www.w3.org/2000/svg">
<path d="M30 60C46.5685 60 60 46.5685 60 30C60 13.4315 46.5685 0 30 0C13.4315 0 0 13.4315 0 30C0 46.5685 13.4315 60 30 60Z" fill="#32BA7C"/>
<path d="M22.3359 43.5325L37.7618 58.9584C50.5378 55.5514 60.0016 43.9111 60.0016 29.9994C60.0016 29.7155 60.0016 29.4316 60.0016 29.1477L47.888 17.9805L22.3359 43.5325Z" fill="#0AA06E"/>
<path d="M30.7564 36.7186C32.0813 38.0435 32.0813 40.3148 30.7564 41.6397L28.0119 44.3842C26.687 45.7091 24.4157 45.7091 23.0907 44.3842L11.0718 32.2706C9.74689 30.9457 9.74689 28.6744 11.0718 27.3495L13.8163 24.605C15.1412 23.2801 17.4125 23.2801 18.7374 24.605L30.7564 36.7186Z" fill="white"/>
<path d="M41.2592 15.8042C42.5841 14.4793 44.8554 14.4793 46.1803 15.8042L48.9248 18.5487C50.2497 19.8736 50.2497 22.1449 48.9248 23.4699L28.1046 44.1954C26.7797 45.5203 24.5084 45.5203 23.1835 44.1954L20.439 41.4509C19.1141 40.126 19.1141 37.8547 20.439 36.5298L41.2592 15.8042Z" fill="white"/>
</svg>
