<svg width="20" height="20" viewBox="0 0 20 20" fill="none" xmlns="http://www.w3.org/2000/svg">
<path d="M10.625 6.66667C10.625 6.32149 10.3452 6.04167 10 6.04167C9.65482 6.04167 9.375 6.32149 9.375 6.66667V12.4468C9.36315 12.4376 9.35107 12.428 9.33874 12.4181C9.06988 12.2022 8.75027 11.8811 8.27545 11.402L7.11058 10.2267C6.86759 9.98154 6.47187 9.97977 6.2267 10.2228C5.98154 10.4657 5.97977 10.8615 6.22276 11.1066L7.41305 12.3076C7.85586 12.7544 8.22519 13.1271 8.55603 13.3928C8.90305 13.6714 9.26776 13.8834 9.71209 13.9401C9.80767 13.9522 9.90384 13.9583 10 13.9583C10.0962 13.9583 10.1923 13.9522 10.2879 13.9401C10.7322 13.8834 11.0969 13.6714 11.444 13.3928C11.7748 13.1271 12.1441 12.7544 12.5869 12.3076L13.7772 11.1066C14.0202 10.8615 14.0185 10.4657 13.7733 10.2228C13.5281 9.97977 13.1324 9.98154 12.8894 10.2267L11.7246 11.402C11.2497 11.8811 10.9301 12.2022 10.6613 12.4181C10.6489 12.428 10.6368 12.4376 10.625 12.4468V6.66667Z" fill="#98A2B3"/>
<path fill-rule="evenodd" clip-rule="evenodd" d="M13.7196 1.97811C12.7678 1.87499 11.5682 1.87499 10.0377 1.875H9.96229C8.43185 1.87499 7.23218 1.87499 6.2804 1.97811C5.30912 2.08334 4.52213 2.30194 3.8502 2.79013C3.44341 3.08568 3.08568 3.44341 2.79013 3.8502C2.30194 4.52213 2.08334 5.30912 1.97811 6.2804C1.87499 7.23218 1.87499 8.43185 1.875 9.96229V10.0377C1.87499 11.5682 1.87499 12.7678 1.97811 13.7196C2.08334 14.6909 2.30194 15.4779 2.79013 16.1498C3.08567 16.5566 3.44341 16.9143 3.8502 17.2099C4.52213 17.6981 5.30912 17.9167 6.2804 18.0219C7.23216 18.125 8.4318 18.125 9.96221 18.125H10.0377C11.5681 18.125 12.7678 18.125 13.7196 18.0219C14.6909 17.9167 15.4779 17.6981 16.1498 17.2099C16.5566 16.9143 16.9143 16.5566 17.2099 16.1498C17.6981 15.4779 17.9167 14.6909 18.0219 13.7196C18.125 12.7678 18.125 11.5682 18.125 10.0378V9.96227C18.125 8.43187 18.125 7.23216 18.0219 6.2804C17.9167 5.30912 17.6981 4.52213 17.2099 3.8502C16.9143 3.44341 16.5566 3.08567 16.1498 2.79013C15.4779 2.30194 14.6909 2.08334 13.7196 1.97811ZM4.58493 3.8014C5.00826 3.49383 5.55011 3.31454 6.41504 3.22083C7.29166 3.12586 8.42369 3.125 10 3.125C11.5763 3.125 12.7083 3.12586 13.585 3.22083C14.4499 3.31454 14.9917 3.49383 15.4151 3.8014C15.7157 4.01985 15.9802 4.28426 16.1986 4.58493C16.5062 5.00826 16.6855 5.55011 16.7792 6.41504C16.8741 7.29166 16.875 8.42369 16.875 10C16.875 11.5763 16.8741 12.7083 16.7792 13.585C16.6855 14.4499 16.5062 14.9917 16.1986 15.4151C15.9802 15.7157 15.7157 15.9802 15.4151 16.1986C14.9917 16.5062 14.4499 16.6855 13.585 16.7792C12.7083 16.8741 11.5763 16.875 10 16.875C8.42369 16.875 7.29166 16.8741 6.41504 16.7792C5.55011 16.6855 5.00826 16.5062 4.58493 16.1986C4.28426 15.9802 4.01985 15.7157 3.8014 15.4151C3.49383 14.9917 3.31454 14.4499 3.22083 13.585C3.12586 12.7083 3.125 11.5763 3.125 10C3.125 8.42369 3.12586 7.29166 3.22083 6.41504C3.31454 5.55011 3.49383 5.00826 3.8014 4.58493C4.01985 4.28426 4.28426 4.01985 4.58493 3.8014Z" fill="#98A2B3"/>
</svg>
