<svg width="20" height="20" viewBox="0 0 20 20" fill="none" xmlns="http://www.w3.org/2000/svg">
<path fill-rule="evenodd" clip-rule="evenodd" d="M9.16669 0.208252C4.67937 0.208252 1.04169 3.84594 1.04169 8.33325C1.04169 12.8206 4.67937 16.4583 9.16669 16.4583C13.654 16.4583 17.2917 12.8206 17.2917 8.33325C17.2917 3.84594 13.654 0.208252 9.16669 0.208252ZM2.29169 8.33325C2.29169 4.53629 5.36973 1.45825 9.16669 1.45825C12.9636 1.45825 16.0417 4.53629 16.0417 8.33325C16.0417 12.1302 12.9636 15.2083 9.16669 15.2083C5.36973 15.2083 2.29169 12.1302 2.29169 8.33325Z" fill="#98A2B3"/>
<path d="M16.2754 14.5581C16.0313 14.314 15.6355 14.314 15.3915 14.558C15.1474 14.8021 15.1474 15.1979 15.3915 15.4419L18.7247 18.7752C18.9688 19.0193 19.3645 19.0193 19.6086 18.7752C19.8527 18.5312 19.8527 18.1354 19.6086 17.8913L16.2754 14.5581Z" fill="#98A2B3"/>
</svg>
