<svg width="24" height="24" viewBox="0 0 24 24" fill="none" xmlns="http://www.w3.org/2000/svg">
<path d="M10.8328 1.30776C10.5042 0.729389 9.96479 0.299915 9.32689 0.108854C8.68898 -0.0822066 8.00184 -0.020114 7.40866 0.282191L6.604 0.692419C6.50383 0.745034 6.41563 0.81774 6.34492 0.905979C6.27422 0.994219 6.22253 1.09609 6.1931 1.2052C6.14676 1.30722 6.12279 1.41795 6.12279 1.52997C6.12279 1.64199 6.14676 1.75272 6.1931 1.85473C6.40922 2.25257 6.45847 2.71974 6.33007 3.15379C6.19988 3.58489 5.90456 3.9473 5.50828 4.16227C5.1098 4.37803 4.64187 4.42721 4.20712 4.29901C3.99017 4.23663 3.78772 4.13202 3.61143 3.99122C3.43513 3.85041 3.28847 3.67618 3.17989 3.47855C3.06741 3.28137 2.88366 3.1346 2.66628 3.06833C2.45604 2.99262 2.22593 2.99262 2.0157 3.06833L1.26239 3.47855C0.968131 3.65619 0.713164 3.89176 0.513017 4.17092C0.31287 4.45009 0.171731 4.76701 0.0981962 5.10238C-0.0842196 5.74866 -0.0106587 6.44024 0.303643 7.03387L4.32697 14.418C4.4064 14.5595 4.5238 14.676 4.66595 14.7545C4.8081 14.833 4.96938 14.8704 5.13163 14.8624C5.29252 14.8466 5.44605 14.7873 5.57575 14.6909C5.70545 14.5945 5.80641 14.4647 5.86781 14.3154L10.2678 3.39309C10.409 3.01864 10.6051 2.66724 10.8499 2.35043C10.9313 2.18808 10.9722 2.00852 10.9692 1.827C10.9663 1.64548 10.9194 1.46736 10.8328 1.30776Z" fill="#E4E7EA"/>
<path d="M23.7588 6.81166C23.4926 6.18298 22.9878 5.68517 22.3549 5.42714L21.5673 5.10238C21.3529 5.01765 21.1141 5.01765 20.8996 5.10238C20.6959 5.19123 20.5358 5.35723 20.4545 5.56388C20.3716 5.77482 20.2475 5.96719 20.0894 6.12981C19.9313 6.29242 19.7425 6.42203 19.5338 6.51111C19.3251 6.60018 19.1007 6.64693 18.8737 6.64864C18.6468 6.65035 18.4217 6.60699 18.2117 6.52108C17.7923 6.3504 17.4577 6.02071 17.2812 5.60423C17.1047 5.18775 17.1007 4.71842 17.2701 4.29901C17.3118 4.19465 17.3325 4.08309 17.3309 3.97074C17.3294 3.85839 17.3057 3.74744 17.2612 3.64425C17.2166 3.54105 17.1522 3.44763 17.0714 3.36934C16.9907 3.29105 16.8953 3.22942 16.7907 3.18798L16.0032 2.86321C15.6916 2.73205 15.3569 2.66448 15.0187 2.66448C14.6806 2.66448 14.3459 2.73205 14.0343 2.86321C13.41 3.1311 12.9175 3.63511 12.6647 4.26483L7.22034 17.8366C7.08619 18.1539 7.01657 18.4946 7.01553 18.839C7.01449 19.1834 7.08205 19.5246 7.21428 19.8427C7.34651 20.1608 7.54077 20.4495 7.78576 20.692C8.03075 20.9345 8.32158 21.1259 8.64134 21.2551L15.0102 23.802C15.3189 23.9326 15.6507 24 15.986 24C16.3214 24 16.6532 23.9326 16.9619 23.802C17.5916 23.5362 18.0902 23.0322 18.3487 22.4003L23.7759 8.91408C23.9264 8.5835 24.0029 8.22411 23.9999 7.86098C23.997 7.49786 23.9147 7.13975 23.7588 6.81166Z" fill="#E4E7EA"/>
</svg>
