<svg width="16" height="16" viewBox="0 0 16 16" fill="none" xmlns="http://www.w3.org/2000/svg">
<path d="M11.7065 6.33417C11.8907 6.12843 11.8732 5.81233 11.6675 5.62813C11.4618 5.44394 11.1457 5.4614 10.9615 5.66714L8.71535 8.17592C8.26022 8.68428 7.95372 9.02483 7.69166 9.24509C7.44203 9.45491 7.2954 9.50065 7.16732 9.50065C7.03923 9.50065 6.89261 9.45491 6.64297 9.24509C6.38092 9.02483 6.07441 8.68428 5.61928 8.17592L5.03983 7.52871C4.85564 7.32298 4.53954 7.30551 4.3338 7.48971C4.12807 7.6739 4.11061 7.99001 4.2948 8.19574L4.89899 8.87059C5.3229 9.3441 5.67648 9.73906 5.99955 10.0106C6.34131 10.2979 6.70994 10.5007 7.16732 10.5007C7.6247 10.5007 7.99332 10.2979 8.33508 10.0106C8.65815 9.73906 9.01172 9.34412 9.43561 8.87062L11.7065 6.33417Z" fill="#475467"/>
<path fill-rule="evenodd" clip-rule="evenodd" d="M8.00065 0.833984C4.04261 0.833984 0.833984 4.04261 0.833984 8.00065C0.833984 11.9587 4.04261 15.1673 8.00065 15.1673C11.9587 15.1673 15.1673 11.9587 15.1673 8.00065C15.1673 4.04261 11.9587 0.833984 8.00065 0.833984ZM1.83398 8.00065C1.83398 4.5949 4.5949 1.83398 8.00065 1.83398C11.4064 1.83398 14.1673 4.5949 14.1673 8.00065C14.1673 11.4064 11.4064 14.1673 8.00065 14.1673C4.5949 14.1673 1.83398 11.4064 1.83398 8.00065Z" fill="#475467"/>
</svg>
