<svg width="19" height="21" viewBox="0 0 19 21" fill="none" xmlns="http://www.w3.org/2000/svg">
<path d="M10.5557 6.95619C10.2796 7.43448 10.4435 8.04607 10.9218 8.32222C11.4001 8.59836 12.0117 8.43448 12.2878 7.95619C12.5639 7.4779 12.4001 6.86631 11.9218 6.59017C11.4435 6.31402 10.8319 6.4779 10.5557 6.95619Z" fill="#E4E7EA"/>
<path fill-rule="evenodd" clip-rule="evenodd" d="M8.81183 1.1074C10.5362 0.563366 11.5866 0.231994 12.5315 0.250757C14.504 0.289925 16.3188 1.33765 17.3389 3.02633C17.8277 3.83526 18.0658 4.91056 18.4569 6.67593L18.5079 6.90598C18.6611 7.59702 18.7554 8.02221 18.7853 8.44884C18.847 9.33077 18.7045 10.2151 18.3689 11.033C18.2066 11.4286 17.9835 11.8027 17.621 12.4106L15.0538 16.7165C14.2367 18.0874 13.7381 18.924 13.1053 19.4997C11.7072 20.7717 9.77323 21.2754 7.93224 20.8469C7.09904 20.653 6.25571 20.166 4.87372 19.3678L4.61202 19.2167C3.2298 18.4189 2.3863 17.9321 1.80176 17.3075C0.510197 15.9274 -0.0205925 14.0007 0.381998 12.1539C0.564204 11.318 1.03938 10.4679 1.81807 9.07487L4.26344 4.69863C4.60865 4.08072 4.82107 3.70051 5.08255 3.36209C5.62309 2.66249 6.31767 2.09696 7.11232 1.70945C7.49671 1.522 7.91208 1.39107 8.58714 1.17826L8.81183 1.1074ZM9.25671 6.20619C8.56636 7.40192 8.97604 8.9309 10.1718 9.62125C11.3675 10.3116 12.8965 9.90192 13.5868 8.70619C14.2772 7.51046 13.8675 5.98148 12.6718 5.29113C11.476 4.60077 9.94707 5.01046 9.25671 6.20619Z" fill="#E4E7EA"/>
</svg>
