<svg width="24" height="24" viewBox="0 0 24 24" fill="none" xmlns="http://www.w3.org/2000/svg">
<path d="M8.69827 2.28564C7.60413 2.28693 6.55518 2.71378 5.7815 3.47257C5.00783 4.23136 4.5726 5.26013 4.57129 6.33322V20.9045C4.57141 21.0517 4.61247 21.1962 4.69005 21.3222C4.76763 21.4483 4.8788 21.5512 5.01159 21.6199C5.14437 21.6886 5.29375 21.7204 5.44363 21.7121C5.59352 21.7037 5.73824 21.6554 5.86221 21.5723L7.6005 20.4075L9.33878 21.5723C9.47612 21.6646 9.63868 21.7139 9.80513 21.7139C9.97158 21.7139 10.1341 21.6646 10.2715 21.5723L12.0048 20.4075L13.7381 21.5723C13.8756 21.6648 14.0383 21.7142 14.2049 21.7142C14.3715 21.7142 14.5342 21.6648 14.6717 21.5723L16.405 20.4083L18.1383 21.5715C18.2622 21.6543 18.4068 21.7024 18.5565 21.7107C18.7062 21.719 18.8553 21.6872 18.988 21.6186C19.1206 21.55 19.2317 21.4473 19.3093 21.3215C19.3869 21.1957 19.4281 21.0515 19.4284 20.9045V6.33322C19.4271 5.26013 18.9919 4.23136 18.2182 3.47257C17.4445 2.71378 16.3956 2.28693 15.3014 2.28564L8.69827 2.28564ZM13.6507 13.6189H8.69827C8.47936 13.6189 8.26942 13.5336 8.11463 13.3818C7.95984 13.2299 7.87288 13.024 7.87288 12.8093C7.87288 12.5946 7.95984 12.3887 8.11463 12.2369C8.26942 12.0851 8.47936 11.9998 8.69827 11.9998H13.6507C13.8696 11.9998 14.0795 12.0851 14.2343 12.2369C14.3891 12.3887 14.4761 12.5946 14.4761 12.8093C14.4761 13.024 14.3891 13.2299 14.2343 13.3818C14.0795 13.5336 13.8696 13.6189 13.6507 13.6189ZM16.1268 9.57128C16.1268 9.78598 16.0399 9.99188 15.8851 10.1437C15.7303 10.2955 15.5204 10.3808 15.3014 10.3808H8.69827C8.47936 10.3808 8.26942 10.2955 8.11463 10.1437C7.95984 9.99188 7.87288 9.78598 7.87288 9.57128C7.87288 9.35659 7.95984 9.15068 8.11463 8.99887C8.26942 8.84706 8.47936 8.76177 8.69827 8.76177H15.3014C15.5204 8.76177 15.7303 8.84706 15.8851 8.99887C16.0399 9.15068 16.1268 9.35659 16.1268 9.57128Z" fill="#f19a23"/>
</svg>
