<svg width="24" height="24" viewBox="0 0 24 24" fill="none" xmlns="http://www.w3.org/2000/svg">
<path d="M8.69827 2.28613C7.60413 2.28742 6.55518 2.71427 5.7815 3.47306C5.00783 4.23185 4.5726 5.26062 4.57129 6.33371V20.905C4.57141 21.0522 4.61247 21.1966 4.69005 21.3227C4.76763 21.4488 4.8788 21.5517 5.01159 21.6204C5.14437 21.6891 5.29375 21.7209 5.44363 21.7126C5.59352 21.7042 5.73824 21.6559 5.86221 21.5728L7.6005 20.4079L9.33878 21.5728C9.47612 21.6651 9.63868 21.7144 9.80513 21.7144C9.97158 21.7144 10.1341 21.6651 10.2715 21.5728L12.0048 20.4079L13.7381 21.5728C13.8756 21.6652 14.0383 21.7147 14.2049 21.7147C14.3715 21.7147 14.5342 21.6652 14.6717 21.5728L16.405 20.4088L18.1383 21.572C18.2622 21.6548 18.4068 21.7029 18.5565 21.7112C18.7062 21.7195 18.8553 21.6877 18.988 21.6191C19.1206 21.5505 19.2317 21.4478 19.3093 21.322C19.3869 21.1962 19.4281 21.052 19.4284 20.905V6.33371C19.4271 5.26062 18.9919 4.23185 18.2182 3.47306C17.4445 2.71427 16.3956 2.28742 15.3014 2.28613L8.69827 2.28613ZM13.6507 13.6193H8.69827C8.47936 13.6193 8.26942 13.5341 8.11463 13.3822C7.95984 13.2304 7.87288 13.0245 7.87288 12.8098C7.87288 12.5951 7.95984 12.3892 8.11463 12.2374C8.26942 12.0856 8.47936 12.0003 8.69827 12.0003H13.6507C13.8696 12.0003 14.0795 12.0856 14.2343 12.2374C14.3891 12.3892 14.4761 12.5951 14.4761 12.8098C14.4761 13.0245 14.3891 13.2304 14.2343 13.3822C14.0795 13.5341 13.8696 13.6193 13.6507 13.6193ZM16.1268 9.57177C16.1268 9.78647 16.0399 9.99237 15.8851 10.1442C15.7303 10.296 15.5204 10.3813 15.3014 10.3813H8.69827C8.47936 10.3813 8.26942 10.296 8.11463 10.1442C7.95984 9.99237 7.87288 9.78647 7.87288 9.57177C7.87288 9.35707 7.95984 9.15117 8.11463 8.99936C8.26942 8.84754 8.47936 8.76226 8.69827 8.76226H15.3014C15.5204 8.76226 15.7303 8.84754 15.8851 8.99936C16.0399 9.15117 16.1268 9.35707 16.1268 9.57177Z" fill="#E4E7EA"/>
</svg>
