<svg width="46" height="32" viewBox="0 0 46 32" fill="none" xmlns="http://www.w3.org/2000/svg">
<rect x="0.5" y="0.5" width="45" height="31" rx="3.5" fill="white"/>
<path d="M20.2283 17.3438H5V21.9923H20.2283V17.3438Z" fill="#84B740"/>
<path d="M20.2283 11H5V15.6527H20.2283V11Z" fill="#259BD6"/>
<path d="M35.4565 21.0472L35.3887 21.0596C35.1536 21.1011 35.0677 21.1176 34.8959 21.1176C34.498 21.1176 34.0278 20.9312 34.0278 20.0528C34.0278 19.6012 34.1091 19.0005 34.8507 19.0005H34.8552C34.9818 19.0088 35.1265 19.0212 35.3978 19.0958L35.4565 19.1124V21.0472ZM35.5786 16.6679L35.4565 16.6886V18.3127L35.348 18.2837L35.3164 18.2754C35.1943 18.2423 34.914 18.1677 34.6427 18.1677C33.1596 18.1677 32.8477 19.1952 32.8477 20.057C32.8477 21.2378 33.5711 21.9173 34.8326 21.9173C35.3661 21.9173 35.7595 21.8675 36.1574 21.7474C36.5236 21.6397 36.6547 21.4864 36.6547 21.1591V16.498C36.3021 16.5561 35.9358 16.6141 35.5786 16.6679Z" fill="#27292D"/>
<path d="M39.8652 21.0757L39.8019 21.0922L39.5758 21.1461C39.3633 21.1958 39.1734 21.2248 39.0287 21.2248C38.6806 21.2248 38.4726 21.0674 38.4726 20.7981C38.4726 20.6241 38.5585 20.3299 39.1282 20.3299H39.8652V21.0757ZM39.3452 18.1465C38.8885 18.1465 38.4183 18.2211 37.835 18.3868L37.4552 18.4904L37.5818 19.2776L37.9526 19.1657C38.3414 19.0497 38.8252 18.9751 39.187 18.9751C39.3497 18.9751 39.8471 18.9751 39.8471 19.4681V19.6836H39.1553C37.8938 19.6836 37.3105 20.0523 37.3105 20.8437C37.3105 21.519 37.8486 21.925 38.7529 21.925C39.0332 21.925 39.4221 21.8753 39.7567 21.8007L39.7748 21.7966L39.7928 21.8007L39.9059 21.8173C40.2586 21.8753 40.6248 21.9333 40.982 21.9954V19.4101C40.982 18.5732 40.4304 18.1465 39.3452 18.1465Z" fill="#27292D"/>
<path d="M31.08 21.0757L31.0167 21.0922L30.7907 21.1461C30.5781 21.1958 30.3928 21.2248 30.2436 21.2248C29.8954 21.2248 29.6874 21.0674 29.6874 20.7981C29.6874 20.6241 29.7733 20.3299 30.3385 20.3299H31.0755L31.08 21.0757ZM30.5646 18.1465C30.1034 18.1465 29.6377 18.2211 29.0544 18.3868L28.6746 18.4904L28.8012 19.2776L29.172 19.1657C29.5608 19.0497 30.0446 18.9751 30.4063 18.9751C30.5691 18.9751 31.0665 18.9751 31.0665 19.4681V19.6836H30.3747C29.1132 19.6836 28.5254 20.0523 28.5254 20.8437C28.5254 21.519 29.0634 21.925 29.9723 21.925C30.2526 21.925 30.6414 21.8753 30.976 21.8007L30.9941 21.7966L31.0122 21.8007L31.1207 21.8173C31.4779 21.8753 31.8396 21.9333 32.1968 21.9996V19.4143C32.2014 18.5691 31.6497 18.1465 30.5646 18.1465Z" fill="#27292D"/>
<path d="M26.3193 18.1545C25.745 18.1545 25.2703 18.3285 25.0939 18.4031L25.0487 18.4238L25.008 18.3948C24.7639 18.2333 24.4067 18.1504 23.9093 18.1504C23.4707 18.1504 23.0593 18.2084 22.6117 18.3285C22.2273 18.4363 22.0781 18.6061 22.0781 18.9252V21.8792H23.2808V19.1489L23.3396 19.1323C23.5838 19.0577 23.7285 19.0453 23.8686 19.0453C24.2168 19.0453 24.3931 19.2152 24.3931 19.5466V21.8833H25.5777V19.501C25.5777 19.3602 25.5461 19.2773 25.5416 19.2607L25.5009 19.1903L25.5823 19.1572C25.7631 19.0826 25.9621 19.0453 26.1701 19.0453C26.4097 19.0453 26.6946 19.1323 26.6946 19.5466V21.8833H27.8747V19.4389C27.8747 18.573 27.3683 18.1545 26.3193 18.1545Z" fill="#27292D"/>
<path d="M38.9793 14.0328C38.8029 14.0328 38.509 14.0162 38.2784 13.9748L38.2106 13.9623V12.3672C38.2106 12.2347 38.1835 12.1518 38.179 12.1394L38.1428 12.0731L38.2197 12.0441C38.2377 12.0358 38.2558 12.0316 38.2784 12.0234L38.292 12.0151C38.3191 12.0068 38.3463 11.9985 38.3734 11.9902C38.3869 11.9861 38.396 11.9819 38.405 11.9819C38.6718 11.9156 38.916 11.9239 39.0245 11.9156H39.029C39.766 11.9156 39.8519 12.5164 39.8519 12.968C39.8474 13.8463 39.3726 14.0328 38.9793 14.0328ZM38.9747 11C38.9657 11 38.9521 11 38.9431 11C38.2513 11 37.5414 11.174 37.2882 11.5137C37.1526 11.6795 37.0757 11.8866 37.0712 12.1311V13.7759C37.0712 13.9168 37.0395 13.9706 37.035 13.9831L36.9943 14.0535H34.8105V12.91H34.8059C34.7788 11.7043 34.0011 11.0414 32.8753 11.0414H32.7441H31.7766C31.7313 11.3356 31.6952 11.5427 31.65 11.8369H32.7441C33.3184 11.8369 33.6213 12.2844 33.6213 12.9721V14.1239L33.5444 14.0866C33.5309 14.0825 33.4359 14.0535 33.2867 14.0535H31.3967C31.3606 14.2731 31.3154 14.5589 31.2656 14.8448H37.0757C37.2747 14.8075 37.5053 14.7744 37.7042 14.7454C37.9981 14.878 38.5452 14.9484 38.9205 14.9484C40.182 14.9484 41.0004 14.1736 41.0004 12.9804C40.9958 11.7996 40.2046 11.0249 38.9747 11Z" fill="#27292D"/>
<path d="M28.788 15.3289H28.8423C30.1037 15.3289 30.6915 14.9477 30.6915 14.0073C30.6915 13.3319 30.1535 12.7933 29.2492 12.7933H28.0872C27.739 12.7933 27.531 12.611 27.531 12.3044C27.531 12.0973 27.6169 11.8404 28.1866 11.8404H30.7277C30.782 11.538 30.8091 11.3474 30.8588 11.0449H28.2183C26.9884 11.0449 26.369 11.5172 26.369 12.3044C26.369 13.0833 26.9071 13.4894 27.8114 13.4894H28.9734C29.3215 13.4894 29.5295 13.7421 29.5295 14.0073C29.5295 14.1813 29.4436 14.5417 28.8784 14.5417H28.684L24.9628 14.5334H24.2846C23.7104 14.5334 23.308 14.2351 23.308 13.5432V13.0668C23.308 12.3459 23.6199 11.8984 24.2846 11.8984H25.3878C25.4376 11.5918 25.4692 11.3971 25.5144 11.1071H24.1399H24.0088C22.8829 11.1071 22.1053 11.799 22.0781 13.0046V13.0502V13.5432C22.1053 14.7489 22.8829 15.3248 24.0088 15.3248H24.1399H25.1075L27.1241 15.3289H28.3268H28.788Z" fill="#27292D"/>
<rect x="0.5" y="0.5" width="45" height="31" rx="3.5" stroke="#F2F4F7"/>
</svg>
