<svg width="100" height="101" viewBox="0 0 100 101" fill="none" xmlns="http://www.w3.org/2000/svg">
<g clip-path="url(#clip0_208_30131)">
<path d="M84.1488 50.8907V50.8909L60.9756 72.7763L93.9024 100.215V41.6787L84.1488 50.8907Z" fill="#BF3B54"/>
<path d="M6.09766 41.6787V100.215L39.0245 72.7763L6.09766 41.6787Z" fill="#D88998"/>
<path d="M39.0245 72.7754L6.09766 100.214H50.0001V83.1412L39.0245 72.7754Z" fill="#BF3B54"/>
<path d="M50 83.1412V100.214H93.9024L60.9756 72.7754L50 83.1412Z" fill="#CC6276"/>
<path d="M15.852 32.4658L6.09766 41.6783H15.8513L15.852 32.4658Z" fill="#D88998"/>
<path d="M93.9026 41.6778L84.1477 32.4648L84.1484 41.6778H93.9026Z" fill="#D88998"/>
<path d="M50.0002 0.214844L34.4424 14.9083L65.5187 14.8714L50.0002 0.214844Z" fill="#D88998"/>
<path d="M84.1489 50.8907L93.9026 41.6787H84.1484L84.1489 50.8907Z" fill="#CC6276"/>
<path d="M50.0001 83.1421L15.8503 50.8897L15.8513 41.6787H6.09766L39.0245 72.7763L50.0001 83.1421Z" fill="#CC6276"/>
<path d="M15.8503 50.8889L50.0001 83.1413L60.9757 72.7755L84.1489 50.8901V50.8899L84.1484 41.6779L84.1477 32.465L84.1464 14.8486L65.5186 14.8711L34.4423 14.9079L15.8538 14.9301L15.852 32.4655L15.8513 41.6779L15.8503 50.8889ZM28.0489 44.1169H71.9513V51.434H28.0489V44.1169ZM28.0489 36.7999V29.4828H71.9513V36.7999H28.0489Z" fill="#D0D5DD"/>
<path d="M71.9513 29.4834H28.0488V36.8005H71.9513V29.4834Z" fill="white"/>
<path d="M71.9513 44.1172H28.0488V51.4343H71.9513V44.1172Z" fill="white"/>
</g>
<defs>
<clipPath id="clip0_208_30131">
<rect width="100" height="100" fill="white" transform="translate(0 0.214844)"/>
</clipPath>
</defs>
</svg>
