<svg width="40" height="31" viewBox="0 0 40 31" fill="none" xmlns="http://www.w3.org/2000/svg">
<path d="M25.8976 27.0051C25.9544 28.2432 26.2113 29.2552 26.6666 30.0429H17.8634C17.5217 29.3958 17.3225 28.3829 17.2648 27.0051L17.1368 23.5871C17.08 22.0678 16.7311 21.0344 16.0901 20.4861C15.4491 19.9378 14.416 19.6637 12.9916 19.6637H8.54719V30.0438H0V0H14.9578C18.8325 0 21.6957 0.829555 23.5474 2.48956C25.3711 4.17715 26.2826 6.31512 26.2826 8.90348C26.2826 10.4504 25.8769 11.8434 25.0646 13.0806C24.2524 14.3178 23.0777 15.2747 21.5388 15.9494C23.0777 16.5119 24.1388 17.3281 24.7229 18.3962C25.3071 19.4652 25.6416 20.9979 25.7272 22.9952L25.8985 27.0033L25.8976 27.0051ZM8.54719 13.5025H13.6759C16.2118 13.5025 17.4793 12.349 17.4793 10.0428C17.4793 7.73658 16.2118 6.58304 13.6759 6.58304H8.54719V13.5025Z" fill="white"/>
<path d="M28.723 25.996L34.362 30.708L40 25.996L34.362 21.2839L28.723 25.996Z" fill="#B21432"/>
</svg>
