<svg width="52" height="52" viewBox="0 0 52 52" fill="none" xmlns="http://www.w3.org/2000/svg">
<rect width="52" height="52" rx="26" fill="#1D2939"/>
<g clip-path="url(#clip0_235_26889)">
<path fill-rule="evenodd" clip-rule="evenodd" d="M11.6133 14.9034H18.8842V32.6044C18.8842 34.4948 20.3016 36.0844 21.0334 36.0844H11.6133C11.6133 36.0844 13.9455 35.3972 13.9455 32.6475V18.8133C13.9455 16.9658 12.8481 15.1612 11.6133 14.9034ZM20.6216 14.9893H27.5723V21.434C27.5723 21.434 27.0234 15.8486 20.6216 14.9893ZM21.5362 25.859C21.5362 25.859 25.1946 26.0739 25.926 22.7226V29.1241C25.926 29.1241 25.2403 25.9878 21.5362 25.859ZM29.5385 14.8604C31.0932 14.9892 39.7815 14.6885 39.7815 19.8442C39.7815 24.1404 34.2025 24.6132 33.1052 24.7851C33.1052 24.7851 40.9245 25.5154 40.9245 30.3275C40.9245 35.1393 35.666 36.1274 29.8129 36.1274C29.8129 36.1274 34.6143 34.8817 34.6143 30.5422C34.6143 26.2027 31.6877 24.7851 30.3159 24.7851C30.3159 24.7851 33.8825 24.5273 33.8825 19.9302C33.8825 15.3331 29.8586 15.0324 29.5385 14.8604Z" fill="white"/>
</g>
<defs>
<clipPath id="clip0_235_26889">
<rect width="31.6522" height="21.4783" fill="white" transform="translate(10.1739 14.6958)"/>
</clipPath>
</defs>
</svg>
