<svg width="152" height="123" viewBox="0 0 152 123" fill="none" xmlns="http://www.w3.org/2000/svg">
<circle cx="65" cy="59" r="52" fill="#EAECF0"/>
<circle cx="10" cy="26" r="5" fill="#F2F4F7"/>
<circle cx="7" cy="116" r="7" fill="#F2F4F7"/>
<circle cx="134" cy="42" r="7" fill="#F2F4F7"/>
<circle cx="123" cy="15" r="4" fill="#F2F4F7"/>
<path d="M21.4883 44.8456C21.4883 56.3742 26.068 67.4306 34.22 75.5826C42.3719 83.7346 53.4283 88.3143 64.9569 88.3143C76.4856 88.3143 87.542 83.7346 95.6939 75.5826C103.846 67.4306 108.426 56.3742 108.426 44.8456C108.426 33.317 103.846 22.2606 95.6939 14.1086C87.542 5.95668 76.4856 1.37695 64.9569 1.37695C53.4283 1.37695 42.3719 5.95668 34.22 14.1086C26.068 22.2606 21.4883 33.317 21.4883 44.8456Z" fill="url(#paint0_linear_674_38943)" stroke="#D0D5DD" stroke-width="0.5"/>
<path d="M64.9573 14.3172C75.3198 14.3184 85.337 18.0421 93.1841 24.8099C101.031 31.5777 106.186 40.9393 107.709 51.1892C108.618 45.0459 108.192 38.7788 106.461 32.8149C104.73 26.851 101.733 21.3302 97.6761 16.6286C93.6189 11.927 88.5961 8.15496 82.9497 5.56941C77.3034 2.98385 71.1661 1.64551 64.956 1.64551C58.7458 1.64551 52.6086 2.98385 46.9622 5.56941C41.3159 8.15496 36.2931 11.927 32.2359 16.6286C28.1786 21.3302 25.1823 26.851 23.4509 32.8149C21.7196 38.7788 21.2938 45.0459 22.2026 51.1892C23.7255 40.9386 28.8805 31.5764 36.7283 24.8084C44.5761 18.0404 54.5942 14.3172 64.9573 14.3172Z" fill="url(#paint1_linear_674_38943)"/>
<path d="M70.0693 36.7441C70.0693 38.0334 70.5815 39.2699 71.4932 40.1816C72.4049 41.0933 73.6414 41.6055 74.9307 41.6055C76.22 41.6055 77.4565 41.0933 78.3681 40.1816C79.2798 39.2699 79.792 38.0334 79.792 36.7441C79.792 35.4548 79.2798 34.2183 78.3681 33.3067C77.4565 32.395 76.22 31.8828 74.9307 31.8828C73.6414 31.8828 72.4049 32.395 71.4932 33.3067C70.5815 34.2183 70.0693 35.4548 70.0693 36.7441Z" fill="#D0D5DD"/>
<path d="M37.1545 36.7441C37.1545 37.3825 37.2803 38.0147 37.5246 38.6045C37.7689 39.1943 38.127 39.7302 38.5784 40.1816C39.0298 40.633 39.5657 40.9911 40.1555 41.2354C40.7453 41.4797 41.3775 41.6055 42.0159 41.6055C42.6543 41.6055 43.2864 41.4797 43.8762 41.2354C44.466 40.9911 45.002 40.633 45.4534 40.1816C45.9048 39.7302 46.2629 39.1943 46.5072 38.6045C46.7515 38.0147 46.8772 37.3825 46.8772 36.7441C46.8772 36.1057 46.7515 35.4736 46.5072 34.8838C46.2629 34.294 45.9048 33.7581 45.4534 33.3067C45.002 32.8552 44.466 32.4972 43.8762 32.2529C43.2864 32.0086 42.6543 31.8828 42.0159 31.8828C41.3775 31.8828 40.7453 32.0086 40.1555 32.2529C39.5657 32.4972 39.0298 32.8552 38.5784 33.3067C38.127 33.7581 37.7689 34.294 37.5246 34.8838C37.2803 35.4736 37.1545 36.1057 37.1545 36.7441Z" fill="#D0D5DD"/>
<path d="M73.688 55.2832C73.7147 57.2982 73.3408 59.2984 72.5882 61.1677C71.8355 63.037 70.7191 64.7382 69.3036 66.1725C67.8882 67.6068 66.2019 68.7457 64.3427 69.523C62.4835 70.3004 60.4885 70.7006 58.4733 70.7006C56.4582 70.7006 54.4631 70.3004 52.6039 69.523C50.7447 68.7457 49.0585 67.6068 47.643 66.1725C46.2275 64.7382 45.1111 63.037 44.3585 61.1677C43.6058 59.2984 43.232 57.2982 43.2587 55.2832H73.688Z" fill="#D0D5DD"/>
<ellipse cx="64.5" cy="95.5" rx="22.5" ry="2.5" fill="#D0D5DD" fill-opacity="0.72"/>
<defs>
<linearGradient id="paint0_linear_674_38943" x1="-27.8993" y1="-19.3988" x2="145.321" y2="100.724" gradientUnits="userSpaceOnUse">
<stop stop-color="#D0D5DD"/>
<stop offset="0.747235" stop-color="white" stop-opacity="0.72"/>
</linearGradient>
<linearGradient id="paint1_linear_674_38943" x1="53.5656" y1="6.32598" x2="78.1621" y2="92.4363" gradientUnits="userSpaceOnUse">
<stop stop-color="#D3D5DA"/>
<stop offset="0.782694" stop-color="white" stop-opacity="0.49"/>
</linearGradient>
</defs>
</svg>
