<svg width="141" height="121" viewBox="0 0 141 121" fill="none" xmlns="http://www.w3.org/2000/svg">
<circle cx="65" cy="52" r="52" fill="#EAECF0"/>
<circle cx="10" cy="19" r="5" fill="#F2F4F7"/>
<circle cx="7" cy="109" r="7" fill="#F2F4F7"/>
<circle cx="134" cy="35" r="7" fill="#F2F4F7"/>
<circle cx="123" cy="8" r="4" fill="#F2F4F7"/>
<g filter="url(#filter0_dd_994_46451)">
<path fill-rule="evenodd" clip-rule="evenodd" d="M78.3697 40.2277C78.3697 47.5704 72.516 53.4581 65.2157 53.4581C57.9153 53.4581 52.0616 47.5704 52.0616 40.2277C52.0616 32.8821 57.9153 27 65.2157 27C72.516 27 78.3697 32.8821 78.3697 40.2277ZM65.2159 77.0001C54.4934 77.0001 45.338 75.3002 45.338 68.5006C45.338 61.6982 54.4347 59.9364 65.2159 59.9364C75.9383 59.9364 85.0938 61.6363 85.0938 68.4387C85.0938 75.2383 75.9971 77.0001 65.2159 77.0001ZM83.9906 40.4664C83.9906 44.2096 82.8742 47.6966 80.9155 50.5954C80.714 50.8938 80.8931 51.2962 81.2484 51.3581C81.7381 51.4426 82.2446 51.4904 82.7594 51.5045C87.894 51.6396 92.5025 48.3158 93.7757 43.3118C95.6616 35.879 90.1241 29.206 83.0728 29.206C82.3061 29.206 81.573 29.2876 80.8595 29.434C80.7616 29.4565 80.658 29.5015 80.6021 29.5888C80.5349 29.6957 80.5853 29.8393 80.6524 29.9321C82.7706 32.9182 83.9906 36.56 83.9906 40.4664ZM92.494 56.7269C95.9441 57.4052 98.2134 58.7898 99.1536 60.8021C99.9483 62.4542 99.9483 64.3708 99.1536 66.02C97.7153 69.1412 93.0788 70.1431 91.2768 70.402C90.9047 70.4583 90.6053 70.1347 90.6445 69.7604C91.5651 61.1117 84.2423 57.0111 82.348 56.0683C82.2669 56.0261 82.2501 55.9614 82.2585 55.922C82.2641 55.8938 82.2976 55.8488 82.3592 55.8404C86.4585 55.7644 90.8655 56.3272 92.494 56.7269ZM47.9911 51.5041C48.506 51.49 49.0097 51.445 49.5021 51.3577C49.8575 51.2958 50.0366 50.8934 49.8351 50.595C47.8764 47.6962 46.76 44.2092 46.76 40.466C46.76 36.5596 47.98 32.9178 50.0981 29.9317C50.1653 29.8389 50.2129 29.6953 50.1485 29.5884C50.0925 29.5039 49.9862 29.4561 49.8911 29.4336C49.1748 29.2872 48.4416 29.2056 47.675 29.2056C40.6237 29.2056 35.0862 35.8786 36.9749 43.3114C38.248 48.3154 42.8566 51.6392 47.9911 51.5041ZM48.4904 55.9204C48.4988 55.9626 48.482 56.0245 48.4037 56.0695C46.5066 57.0123 39.1838 61.1129 40.1044 69.7587C40.1436 70.1359 39.847 70.4567 39.4748 70.4032C37.6728 70.1443 33.0363 69.1424 31.5981 66.0212C30.8006 64.3692 30.8006 62.4554 31.5981 60.8033C32.5383 58.791 34.8048 57.4064 38.2549 56.7253C39.8862 56.3284 44.2904 55.7656 48.3925 55.8416C48.4541 55.85 48.4848 55.895 48.4904 55.9204Z" fill="url(#paint0_linear_994_46451)"/>
</g>
<defs>
<filter id="filter0_dd_994_46451" x="7" y="23" width="116.75" height="98" filterUnits="userSpaceOnUse" color-interpolation-filters="sRGB">
<feFlood flood-opacity="0" result="BackgroundImageFix"/>
<feColorMatrix in="SourceAlpha" type="matrix" values="0 0 0 0 0 0 0 0 0 0 0 0 0 0 0 0 0 0 127 0" result="hardAlpha"/>
<feOffset dy="8"/>
<feGaussianBlur stdDeviation="4"/>
<feColorMatrix type="matrix" values="0 0 0 0 0.0627451 0 0 0 0 0.0941176 0 0 0 0 0.156863 0 0 0 0.05 0"/>
<feBlend mode="normal" in2="BackgroundImageFix" result="effect1_dropShadow_994_46451"/>
<feColorMatrix in="SourceAlpha" type="matrix" values="0 0 0 0 0 0 0 0 0 0 0 0 0 0 0 0 0 0 127 0" result="hardAlpha"/>
<feOffset dy="20"/>
<feGaussianBlur stdDeviation="12"/>
<feColorMatrix type="matrix" values="0 0 0 0 0.0627451 0 0 0 0 0.0941176 0 0 0 0 0.156863 0 0 0 0.05 0"/>
<feBlend mode="normal" in2="effect1_dropShadow_994_46451" result="effect2_dropShadow_994_46451"/>
<feBlend mode="normal" in="SourceGraphic" in2="effect2_dropShadow_994_46451" result="shape"/>
</filter>
<linearGradient id="paint0_linear_994_46451" x1="-8.48023" y1="14.8375" x2="98.3869" y2="116.736" gradientUnits="userSpaceOnUse">
<stop offset="0.0633177" stop-color="#D0D5DD"/>
<stop offset="0.450567" stop-color="white" stop-opacity="0.72"/>
</linearGradient>
</defs>
</svg>
