<svg width="152" height="130" viewBox="0 0 152 130" fill="none" xmlns="http://www.w3.org/2000/svg">
<circle cx="70" cy="52" r="52" fill="#EAECF0"/>
<circle cx="15" cy="19" r="5" fill="#F2F4F7"/>
<circle cx="12" cy="109" r="7" fill="#F2F4F7"/>
<circle cx="139" cy="35" r="7" fill="#F2F4F7"/>
<circle cx="128" cy="8" r="4" fill="#F2F4F7"/>
<g filter="url(#filter0_dd_1258_50994)">
<path d="M94 31.5998C93.9996 30.5693 93.5598 29.5812 92.7771 28.8525C91.9944 28.1238 90.9329 27.7143 89.826 27.714H87.4613C85.7646 24.7776 83.2451 22.3239 80.1707 20.6135C77.0962 18.9032 73.5816 18 70 18C66.4184 18 62.9038 18.9032 59.8293 20.6135C56.7549 22.3239 54.2355 24.7776 52.5387 27.714H50.174C49.0671 27.7143 48.0056 28.1238 47.2229 28.8525C46.4402 29.5812 46.0004 30.5693 46 31.5998V82.1142C46.0004 83.1447 46.4402 84.1328 47.2229 84.8615C48.0056 85.5902 49.0671 85.9997 50.174 86H89.826C90.9329 85.9997 91.9944 85.5902 92.7771 84.8615C93.5598 84.1328 93.9996 83.1447 94 82.1142V31.5998ZM77.3041 27.714H62.6959C62.1426 27.714 61.6119 27.5094 61.2207 27.1451C60.8294 26.7809 60.6096 26.2868 60.6096 25.7717C60.6096 25.2566 60.8294 24.7626 61.2207 24.3983C61.6119 24.0341 62.1426 23.8295 62.6959 23.8295H77.3041C77.8574 23.8295 78.3881 24.0341 78.7794 24.3983C79.1706 24.7626 79.3904 25.2566 79.3904 25.7717C79.3904 26.2868 79.1706 26.7809 78.7794 27.1451C78.3881 27.5094 77.8574 27.714 77.3041 27.714Z" fill="url(#paint0_linear_1258_50994)"/>
</g>
<path d="M93.4326 31.5998C93.4323 30.5693 92.9976 29.5812 92.2242 28.8525C91.4507 28.1238 90.4018 27.7143 89.308 27.714H86.9712C85.2945 24.7776 82.8049 22.3239 79.7668 20.6135C76.7287 18.9032 73.2555 18 69.7163 18C66.1771 18 62.704 18.9032 59.6658 20.6135C56.6277 22.3239 54.1381 24.7776 52.4614 27.714H50.1246C49.0308 27.7143 47.9819 28.1238 47.2085 28.8525C46.435 29.5812 46.0004 30.5693 46 31.5998V82.1142C46.0004 83.1447 46.435 84.1328 47.2085 84.8615C47.9819 85.5902 49.0308 85.9997 50.1246 86H89.308C90.4018 85.9997 91.4507 85.5902 92.2242 84.8615C92.9976 84.1328 93.4323 83.1447 93.4326 82.1142V31.5998ZM76.9341 27.714H62.4985C61.9518 27.714 61.4274 27.5094 61.0407 27.1451C60.6541 26.7809 60.4369 26.2868 60.4369 25.7717C60.4369 25.2566 60.6541 24.7626 61.0407 24.3983C61.4274 24.0341 61.9518 23.8295 62.4985 23.8295H76.9341C77.4809 23.8295 78.0053 24.0341 78.3919 24.3983C78.7785 24.7626 78.9957 25.2566 78.9957 25.7717C78.9957 26.2868 78.7785 26.7809 78.3919 27.1451C78.0053 27.5094 77.4809 27.714 76.9341 27.714Z" fill="url(#paint1_linear_1258_50994)"/>
<ellipse cx="70.0002" cy="38" rx="6.35294" ry="6" fill="#D0D5DD"/>
<path d="M58 58.667V58.036C58 55.0208 59.2643 52.129 61.5147 49.9969C63.7652 47.8648 66.8174 46.667 70 46.667C73.1826 46.667 76.2348 47.8648 78.4853 49.9969C80.7357 52.129 82 55.0208 82 58.036V58.667H58Z" fill="url(#paint2_linear_1258_50994)"/>
<path fill-rule="evenodd" clip-rule="evenodd" d="M58 66.1575C58 65.7021 58.3656 65.333 58.8167 65.333H81.1833C81.6344 65.333 82 65.7021 82 66.1575C82 66.6128 81.6344 66.982 81.1833 66.982H58.8167C58.3656 66.982 58 66.6128 58 66.1575ZM62.9702 71.1752C62.9702 70.7199 63.3358 70.3507 63.7868 70.3507H76.2131C76.6642 70.3507 77.0298 70.7199 77.0298 71.1752C77.0298 71.6305 76.6642 71.9997 76.2131 71.9997H63.7868C63.3358 71.9997 62.9702 71.6305 62.9702 71.1752Z" fill="#D0D5DD"/>
<defs>
<filter id="filter0_dd_1258_50994" x="22" y="14" width="96" height="116" filterUnits="userSpaceOnUse" color-interpolation-filters="sRGB">
<feFlood flood-opacity="0" result="BackgroundImageFix"/>
<feColorMatrix in="SourceAlpha" type="matrix" values="0 0 0 0 0 0 0 0 0 0 0 0 0 0 0 0 0 0 127 0" result="hardAlpha"/>
<feOffset dy="8"/>
<feGaussianBlur stdDeviation="4"/>
<feColorMatrix type="matrix" values="0 0 0 0 0.0627451 0 0 0 0 0.0941176 0 0 0 0 0.156863 0 0 0 0.08 0"/>
<feBlend mode="normal" in2="BackgroundImageFix" result="effect1_dropShadow_1258_50994"/>
<feColorMatrix in="SourceAlpha" type="matrix" values="0 0 0 0 0 0 0 0 0 0 0 0 0 0 0 0 0 0 127 0" result="hardAlpha"/>
<feOffset dy="20"/>
<feGaussianBlur stdDeviation="12"/>
<feColorMatrix type="matrix" values="0 0 0 0 0.0627451 0 0 0 0 0.0941176 0 0 0 0 0.156863 0 0 0 0.08 0"/>
<feBlend mode="normal" in2="effect1_dropShadow_1258_50994" result="effect2_dropShadow_1258_50994"/>
<feBlend mode="normal" in="SourceGraphic" in2="effect2_dropShadow_1258_50994" result="shape"/>
</filter>
<linearGradient id="paint0_linear_1258_50994" x1="47.6716" y1="85.1951" x2="43.2206" y2="23.2158" gradientUnits="userSpaceOnUse">
<stop stop-color="#E4E7EC"/>
<stop offset="1" stop-color="#F9FAFB"/>
</linearGradient>
<linearGradient id="paint1_linear_1258_50994" x1="47.6518" y1="85.1951" x2="43.1482" y2="23.2234" gradientUnits="userSpaceOnUse">
<stop stop-color="#E4E7EC"/>
<stop offset="1" stop-color="#F9FAFB"/>
</linearGradient>
<linearGradient id="paint2_linear_1258_50994" x1="66.8374" y1="47.8007" x2="67" y2="70.001" gradientUnits="userSpaceOnUse">
<stop stop-color="#D3D5DA"/>
<stop offset="0.782694" stop-color="white" stop-opacity="0.49"/>
</linearGradient>
</defs>
</svg>
