<svg width="52" height="52" viewBox="0 0 52 52" fill="none" xmlns="http://www.w3.org/2000/svg">
<path fill-rule="evenodd" clip-rule="evenodd" d="M24.0498 2.70898C16.6928 2.70898 11.0006 9.15705 11.9131 16.4573L12.085 17.8328C12.3366 19.8455 11.6014 21.8559 10.1107 23.2315C7.02177 26.082 6.16356 30.6189 7.99797 34.4007L8.2219 34.8623C9.83847 38.195 13.1208 40.3776 16.7851 40.6058L17.193 41.3052C19.3874 45.067 22.8065 47.1257 26.3967 47.1257C29.9869 47.1257 33.4059 45.067 35.6003 41.3052L36.0146 40.5949C39.093 40.3517 41.8998 38.6786 43.5739 36.0482C46.1351 32.0238 45.4568 26.7443 41.9613 23.4981L41.8662 23.4098C41.4401 23.0141 41.0719 22.5705 40.7659 22.0918C40.2825 21.3356 39.2776 21.1145 38.5215 21.5978C37.7653 22.0812 37.5442 23.0861 38.0275 23.8422C38.4803 24.5506 39.025 25.2065 39.6546 25.7912L39.7497 25.8795C42.0959 28.0584 42.5512 31.602 40.8321 34.3033C39.6142 36.2169 37.5031 37.3757 35.2348 37.3757H35.0942C35.0881 37.3755 35.082 37.3755 35.0759 37.3754C35.0624 37.3753 35.049 37.3754 35.0355 37.3757H17.7578C17.7383 37.3753 17.7188 37.3753 17.6992 37.3757H17.4231C14.7503 37.3757 12.3125 35.8487 11.146 33.4439L10.9221 32.9823C9.71294 30.4895 10.2786 27.4989 12.3148 25.62C14.5763 23.5331 15.6916 20.4831 15.31 17.4297L15.138 16.0542C14.468 10.6937 18.6477 5.95898 24.0498 5.95898H27.7395C30.163 5.95898 32.3356 6.90719 33.9418 8.43916C34.5913 9.05857 35.6199 9.03422 36.2393 8.38477C36.8587 7.73533 36.8343 6.70672 36.1849 6.08732C34.0006 4.0041 31.0342 2.70898 27.7395 2.70898H24.0498ZM26.3967 43.8757C24.4009 43.8757 22.2715 42.874 20.6263 40.6257H32.1671C30.5218 42.874 28.3925 43.8757 26.3967 43.8757Z" fill="#475467"/>
<path d="M41.5636 15.1673C41.5636 17.5606 39.6235 19.5007 37.2303 19.5007C34.8371 19.5007 32.897 17.5606 32.897 15.1673C32.897 12.7741 34.8371 10.834 37.2303 10.834C39.6235 10.834 41.5636 12.7741 41.5636 15.1673Z" fill="#475467"/>
</svg>
