<svg width="17" height="16" viewBox="0 0 17 16" fill="none" xmlns="http://www.w3.org/2000/svg">
<g clip-path="url(#clip0_1524_6036)">
<path d="M12.8337 9.33346C12.285 9.33707 11.7459 9.47802 11.2657 9.74346L9.03366 7.06679L14.0117 1.09346L12.9877 0.240128L8.16699 6.02546L3.34566 0.240128L2.32166 1.09346L7.30033 7.06679L5.06833 9.74346C4.58796 9.47834 4.04898 9.33741 3.50033 9.33346C2.84106 9.33346 2.19659 9.52896 1.64843 9.89523C1.10026 10.2615 0.673021 10.7821 0.420729 11.3912C0.168436 12.0003 0.102425 12.6705 0.231043 13.3171C0.35966 13.9637 0.677129 14.5576 1.1433 15.0238C1.60948 15.49 2.20342 15.8075 2.85003 15.9361C3.49663 16.0647 4.16685 15.9987 4.77594 15.7464C5.38503 15.4941 5.90562 15.0669 6.27189 14.5187C6.63816 13.9705 6.83366 13.3261 6.83366 12.6668C6.82984 11.9135 6.56823 11.1841 6.09233 10.6001L8.16699 8.10813L10.241 10.6001C9.76571 11.1844 9.50438 11.9136 9.50033 12.6668C9.50033 13.3261 9.69582 13.9705 10.0621 14.5187C10.4284 15.0669 10.949 15.4941 11.558 15.7464C12.1671 15.9987 12.8374 16.0647 13.484 15.9361C14.1306 15.8075 14.7245 15.49 15.1907 15.0238C15.6569 14.5576 15.9743 13.9637 16.1029 13.3171C16.2316 12.6705 16.1656 12.0003 15.9133 11.3912C15.661 10.7821 15.2337 10.2615 14.6856 9.89523C14.1374 9.52896 13.4929 9.33346 12.8337 9.33346ZM3.50033 14.6668C3.10476 14.6668 2.71808 14.5495 2.38919 14.3297C2.06029 14.11 1.80394 13.7976 1.65257 13.4322C1.50119 13.0667 1.46159 12.6646 1.53876 12.2766C1.61593 11.8887 1.80641 11.5323 2.08611 11.2526C2.36582 10.9729 2.72218 10.7824 3.11015 10.7052C3.49811 10.6281 3.90024 10.6677 4.26569 10.819C4.63115 10.9704 4.9435 11.2268 5.16327 11.5557C5.38303 11.8846 5.50033 12.2712 5.50033 12.6668C5.50033 13.1972 5.28961 13.7059 4.91454 14.081C4.53947 14.4561 4.03076 14.6668 3.50033 14.6668ZM12.8337 14.6668C12.4381 14.6668 12.0514 14.5495 11.7225 14.3297C11.3936 14.11 11.1373 13.7976 10.9859 13.4322C10.8345 13.0667 10.7949 12.6646 10.8721 12.2766C10.9493 11.8887 11.1397 11.5323 11.4194 11.2526C11.6992 10.9729 12.0555 10.7824 12.4435 10.7052C12.8314 10.6281 13.2336 10.6677 13.599 10.819C13.9645 10.9704 14.2768 11.2268 14.4966 11.5557C14.7164 11.8846 14.8337 12.2712 14.8337 12.6668C14.8337 13.1972 14.6229 13.7059 14.2479 14.081C13.8728 14.4561 13.3641 14.6668 12.8337 14.6668Z" fill="#B21432"/>
</g>
<defs>
<clipPath id="clip0_1524_6036">
<rect width="16" height="16" fill="white" transform="translate(0.166992 0.00012207)"/>
</clipPath>
</defs>
</svg>
