<svg width="17" height="16" viewBox="0 0 17 16" fill="none" xmlns="http://www.w3.org/2000/svg">
<g clip-path="url(#clip0_1524_1563)">
<path d="M13.0002 13.3335H3.66683C2.7831 13.3324 1.93587 12.9809 1.31098 12.356C0.686084 11.7311 0.334555 10.8839 0.333496 10.0001L0.333496 6.00013C0.334555 5.1164 0.686084 4.26917 1.31098 3.64427C1.93587 3.01938 2.7831 2.66785 3.66683 2.66679H13.0002C13.8839 2.66785 14.7311 3.01938 15.356 3.64427C15.9809 4.26917 16.3324 5.1164 16.3335 6.00013V10.0001C16.3324 10.8839 15.9809 11.7311 15.356 12.356C14.7311 12.9809 13.8839 13.3324 13.0002 13.3335ZM3.66683 4.00013C3.1364 4.00013 2.62769 4.21084 2.25262 4.58591C1.87754 4.96099 1.66683 5.46969 1.66683 6.00013V10.0001C1.66683 10.5306 1.87754 11.0393 2.25262 11.4143C2.62769 11.7894 3.1364 12.0001 3.66683 12.0001H13.0002C13.5306 12.0001 14.0393 11.7894 14.4144 11.4143C14.7894 11.0393 15.0002 10.5306 15.0002 10.0001V6.00013C15.0002 5.46969 14.7894 4.96099 14.4144 4.58591C14.0393 4.21084 13.5306 4.00013 13.0002 4.00013H3.66683ZM8.3335 10.6668C7.80608 10.6668 7.29051 10.5104 6.85198 10.2174C6.41344 9.92436 6.07165 9.50789 5.86982 9.02062C5.66798 8.53335 5.61517 7.99717 5.71807 7.47989C5.82096 6.9626 6.07494 6.48745 6.44788 6.11451C6.82082 5.74157 7.29597 5.48759 7.81326 5.3847C8.33054 5.28181 8.86672 5.33461 9.35399 5.53645C9.84126 5.73828 10.2577 6.08008 10.5507 6.51861C10.8438 6.95714 11.0002 7.47271 11.0002 8.00013C11.0002 8.70737 10.7192 9.38565 10.2191 9.88575C9.71902 10.3858 9.04074 10.6668 8.3335 10.6668ZM8.3335 6.66679C8.06979 6.66679 7.812 6.74499 7.59274 6.8915C7.37347 7.03801 7.20257 7.24625 7.10166 7.48988C7.00074 7.73352 6.97434 8.00161 7.02578 8.26025C7.07723 8.51889 7.20422 8.75647 7.39069 8.94294C7.57716 9.12941 7.81473 9.25639 8.07338 9.30784C8.33202 9.35929 8.60011 9.33288 8.84374 9.23197C9.08738 9.13105 9.29561 8.96015 9.44212 8.74089C9.58863 8.52162 9.66683 8.26384 9.66683 8.00013C9.66683 7.6465 9.52635 7.30737 9.27631 7.05732C9.02626 6.80727 8.68712 6.66679 8.3335 6.66679ZM3.66683 5.33346C3.53498 5.33346 3.40608 5.37256 3.29645 5.44581C3.18682 5.51907 3.10137 5.62319 3.05091 5.745C3.00045 5.86682 2.98725 6.00087 3.01297 6.13019C3.0387 6.25951 3.10219 6.3783 3.19543 6.47153C3.28866 6.56477 3.40745 6.62826 3.53677 6.65398C3.66609 6.67971 3.80013 6.66651 3.92195 6.61605C4.04377 6.56559 4.14789 6.48014 4.22114 6.37051C4.2944 6.26087 4.3335 6.13198 4.3335 6.00013C4.3335 5.82332 4.26326 5.65375 4.13823 5.52872C4.01321 5.4037 3.84364 5.33346 3.66683 5.33346ZM12.3335 6.00013C12.3335 6.13198 12.3726 6.26087 12.4458 6.37051C12.5191 6.48014 12.6232 6.56559 12.745 6.61605C12.8669 6.66651 13.0009 6.67971 13.1302 6.65398C13.2595 6.62826 13.3783 6.56477 13.4716 6.47153C13.5648 6.3783 13.6283 6.25951 13.654 6.13019C13.6797 6.00087 13.6665 5.86682 13.6161 5.745C13.5656 5.62319 13.4802 5.51907 13.3705 5.44581C13.2609 5.37256 13.132 5.33346 13.0002 5.33346C12.8234 5.33346 12.6538 5.4037 12.5288 5.52872C12.4037 5.65375 12.3335 5.82332 12.3335 6.00013ZM3.66683 9.33346C3.53498 9.33346 3.40608 9.37256 3.29645 9.44581C3.18682 9.51907 3.10137 9.62319 3.05091 9.745C3.00045 9.86682 2.98725 10.0009 3.01297 10.1302C3.0387 10.2595 3.10219 10.3783 3.19543 10.4715C3.28866 10.5648 3.40745 10.6283 3.53677 10.654C3.66609 10.6797 3.80013 10.6665 3.92195 10.616C4.04377 10.5656 4.14789 10.4801 4.22114 10.3705C4.2944 10.2609 4.3335 10.132 4.3335 10.0001C4.3335 9.82332 4.26326 9.65375 4.13823 9.52872C4.01321 9.4037 3.84364 9.33346 3.66683 9.33346ZM12.3335 10.0001C12.3335 10.132 12.3726 10.2609 12.4458 10.3705C12.5191 10.4801 12.6232 10.5656 12.745 10.616C12.8669 10.6665 13.0009 10.6797 13.1302 10.654C13.2595 10.6283 13.3783 10.5648 13.4716 10.4715C13.5648 10.3783 13.6283 10.2595 13.654 10.1302C13.6797 10.0009 13.6665 9.86682 13.6161 9.745C13.5656 9.62319 13.4802 9.51907 13.3705 9.44581C13.2609 9.37256 13.132 9.33346 13.0002 9.33346C12.8234 9.33346 12.6538 9.4037 12.5288 9.52872C12.4037 9.65375 12.3335 9.82332 12.3335 10.0001Z" fill="#B21432"/>
</g>
<defs>
<clipPath id="clip0_1524_1563">
<rect width="16" height="16" fill="white" transform="translate(0.333496 0.00012207)"/>
</clipPath>
</defs>
</svg>
