<svg width="16" height="16" viewBox="0 0 16 16" fill="none" xmlns="http://www.w3.org/2000/svg">
<g clip-path="url(#clip0_1524_1567)">
<path d="M11.9998 16.0001H3.99984C3.11611 15.9991 2.26888 15.6475 1.64398 15.0226C1.01909 14.3978 0.667562 13.5505 0.666504 12.6668V3.33346C0.667562 2.44973 1.01909 1.60249 1.64398 0.977602C2.26888 0.35271 3.11611 0.00118064 3.99984 0.00012207L11.9998 0.00012207C12.8836 0.00118064 13.7308 0.35271 14.3557 0.977602C14.9806 1.60249 15.3321 2.44973 15.3332 3.33346V12.6668C15.3321 13.5505 14.9806 14.3978 14.3557 15.0226C13.7308 15.6475 12.8836 15.9991 11.9998 16.0001ZM3.99984 1.33346C3.4694 1.33346 2.9607 1.54417 2.58562 1.91924C2.21055 2.29431 1.99984 2.80302 1.99984 3.33346V12.6668C1.99984 13.1972 2.21055 13.7059 2.58562 14.081C2.9607 14.4561 3.4694 14.6668 3.99984 14.6668H11.9998C12.5303 14.6668 13.039 14.4561 13.4141 14.081C13.7891 13.7059 13.9998 13.1972 13.9998 12.6668V3.33346C13.9998 2.80302 13.7891 2.29431 13.4141 1.91924C13.039 1.54417 12.5303 1.33346 11.9998 1.33346H3.99984ZM10.6665 6.66679H5.33317C4.80274 6.66679 4.29403 6.45608 3.91896 6.081C3.54388 5.70593 3.33317 5.19722 3.33317 4.66679C3.33317 4.13636 3.54388 3.62765 3.91896 3.25258C4.29403 2.8775 4.80274 2.66679 5.33317 2.66679H10.6665C11.1969 2.66679 11.7056 2.8775 12.0807 3.25258C12.4558 3.62765 12.6665 4.13636 12.6665 4.66679C12.6665 5.19722 12.4558 5.70593 12.0807 6.081C11.7056 6.45608 11.1969 6.66679 10.6665 6.66679ZM5.33317 4.00012C5.15636 4.00012 4.98679 4.07036 4.86177 4.19538C4.73674 4.32041 4.6665 4.48998 4.6665 4.66679C4.6665 4.8436 4.73674 5.01317 4.86177 5.13819C4.98679 5.26322 5.15636 5.33346 5.33317 5.33346H10.6665C10.8433 5.33346 11.0129 5.26322 11.1379 5.13819C11.2629 5.01317 11.3332 4.8436 11.3332 4.66679C11.3332 4.48998 11.2629 4.32041 11.1379 4.19538C11.0129 4.07036 10.8433 4.00012 10.6665 4.00012H5.33317ZM3.99984 8.66679C3.86798 8.66679 3.73909 8.70589 3.62946 8.77914C3.51982 8.8524 3.43438 8.95652 3.38392 9.07833C3.33346 9.20015 3.32026 9.3342 3.34598 9.46352C3.3717 9.59284 3.4352 9.71163 3.52843 9.80486C3.62167 9.8981 3.74046 9.96159 3.86978 9.98731C3.9991 10.013 4.13314 9.99983 4.25496 9.94938C4.37678 9.89892 4.4809 9.81347 4.55415 9.70384C4.6274 9.5942 4.6665 9.46531 4.6665 9.33346C4.6665 9.15664 4.59627 8.98708 4.47124 8.86205C4.34622 8.73703 4.17665 8.66679 3.99984 8.66679ZM6.6665 8.66679C6.53465 8.66679 6.40576 8.70589 6.29612 8.77914C6.18649 8.8524 6.10104 8.95652 6.05058 9.07833C6.00013 9.20015 5.98692 9.3342 6.01265 9.46352C6.03837 9.59284 6.10186 9.71163 6.1951 9.80486C6.28833 9.8981 6.40712 9.96159 6.53644 9.98731C6.66576 10.013 6.79981 9.99983 6.92163 9.94938C7.04344 9.89892 7.14756 9.81347 7.22082 9.70384C7.29407 9.5942 7.33317 9.46531 7.33317 9.33346C7.33317 9.15664 7.26293 8.98708 7.13791 8.86205C7.01288 8.73703 6.84332 8.66679 6.6665 8.66679ZM9.33317 8.66679C9.20132 8.66679 9.07242 8.70589 8.96279 8.77914C8.85316 8.8524 8.76771 8.95652 8.71725 9.07833C8.66679 9.20015 8.65359 9.3342 8.67931 9.46352C8.70504 9.59284 8.76853 9.71163 8.86177 9.80486C8.955 9.8981 9.07379 9.96159 9.20311 9.98731C9.33243 10.013 9.46648 9.99983 9.58829 9.94938C9.71011 9.89892 9.81423 9.81347 9.88748 9.70384C9.96074 9.5942 9.99984 9.46531 9.99984 9.33346C9.99984 9.15664 9.9296 8.98708 9.80457 8.86205C9.67955 8.73703 9.50998 8.66679 9.33317 8.66679ZM3.99984 11.3335C3.86798 11.3335 3.73909 11.3726 3.62946 11.4458C3.51982 11.5191 3.43438 11.6232 3.38392 11.745C3.33346 11.8668 3.32026 12.0009 3.34598 12.1302C3.3717 12.2595 3.4352 12.3783 3.52843 12.4715C3.62167 12.5648 3.74046 12.6283 3.86978 12.654C3.9991 12.6797 4.13314 12.6665 4.25496 12.616C4.37678 12.5656 4.4809 12.4801 4.55415 12.3705C4.6274 12.2609 4.6665 12.132 4.6665 12.0001C4.6665 11.8233 4.59627 11.6537 4.47124 11.5287C4.34622 11.4037 4.17665 11.3335 3.99984 11.3335ZM6.6665 11.3335C6.53465 11.3335 6.40576 11.3726 6.29612 11.4458C6.18649 11.5191 6.10104 11.6232 6.05058 11.745C6.00013 11.8668 5.98692 12.0009 6.01265 12.1302C6.03837 12.2595 6.10186 12.3783 6.1951 12.4715C6.28833 12.5648 6.40712 12.6283 6.53644 12.654C6.66576 12.6797 6.79981 12.6665 6.92163 12.616C7.04344 12.5656 7.14756 12.4801 7.22082 12.3705C7.29407 12.2609 7.33317 12.132 7.33317 12.0001C7.33317 11.8233 7.26293 11.6537 7.13791 11.5287C7.01288 11.4037 6.84332 11.3335 6.6665 11.3335ZM11.9998 8.66679C11.868 8.66679 11.7391 8.70589 11.6295 8.77914C11.5198 8.8524 11.4344 8.95652 11.3839 9.07833C11.3335 9.20015 11.3203 9.3342 11.346 9.46352C11.3717 9.59284 11.4352 9.71163 11.5284 9.80486C11.6217 9.8981 11.7405 9.96159 11.8698 9.98731C11.9991 10.013 12.1331 9.99983 12.255 9.94938C12.3768 9.89892 12.4809 9.81347 12.5542 9.70384C12.6274 9.5942 12.6665 9.46531 12.6665 9.33346C12.6665 9.15664 12.5963 8.98708 12.4712 8.86205C12.3462 8.73703 12.1766 8.66679 11.9998 8.66679ZM12.6665 12.0001C12.6665 11.8233 12.5963 11.6537 12.4712 11.5287C12.3462 11.4037 12.1766 11.3335 11.9998 11.3335H9.33317C9.15636 11.3335 8.98679 11.4037 8.86177 11.5287C8.73674 11.6537 8.6665 11.8233 8.6665 12.0001C8.6665 12.1769 8.73674 12.3465 8.86177 12.4715C8.98679 12.5966 9.15636 12.6668 9.33317 12.6668H11.9998C12.1766 12.6668 12.3462 12.5966 12.4712 12.4715C12.5963 12.3465 12.6665 12.1769 12.6665 12.0001Z" fill="#B21432"/>
</g>
<defs>
<clipPath id="clip0_1524_1567">
<rect width="16" height="16" fill="white"/>
</clipPath>
</defs>
</svg>
