<svg width="20" height="20" viewBox="0 0 20 20" fill="none" xmlns="http://www.w3.org/2000/svg">
<g clip-path="url(#clip0_1530_56698)">
<path d="M14.9997 20.0002H4.99967C3.89501 19.9988 2.83597 19.5594 2.05486 18.7783C1.27374 17.9972 0.834331 16.9381 0.833008 15.8335V4.16682C0.834331 3.06216 1.27374 2.00312 2.05486 1.222C2.83597 0.440888 3.89501 0.0014758 4.99967 0.000152588L14.9997 0.000152588C16.1043 0.0014758 17.1634 0.440888 17.9445 1.222C18.7256 2.00312 19.165 3.06216 19.1663 4.16682V15.8335C19.165 16.9381 18.7256 17.9972 17.9445 18.7783C17.1634 19.5594 16.1043 19.9988 14.9997 20.0002ZM4.99967 1.66682C4.33663 1.66682 3.70075 1.93021 3.23191 2.39905C2.76307 2.86789 2.49967 3.50378 2.49967 4.16682V15.8335C2.49967 16.4965 2.76307 17.1324 3.23191 17.6013C3.70075 18.0701 4.33663 18.3335 4.99967 18.3335H14.9997C15.6627 18.3335 16.2986 18.0701 16.7674 17.6013C17.2363 17.1324 17.4997 16.4965 17.4997 15.8335V4.16682C17.4997 3.50378 17.2363 2.86789 16.7674 2.39905C16.2986 1.93021 15.6627 1.66682 14.9997 1.66682H4.99967ZM13.333 8.33349H6.66634C6.0033 8.33349 5.36741 8.07009 4.89857 7.60125C4.42973 7.13241 4.16634 6.49653 4.16634 5.83349C4.16634 5.17044 4.42973 4.53456 4.89857 4.06572C5.36741 3.59688 6.0033 3.33349 6.66634 3.33349H13.333C13.996 3.33349 14.6319 3.59688 15.1008 4.06572C15.5696 4.53456 15.833 5.17044 15.833 5.83349C15.833 6.49653 15.5696 7.13241 15.1008 7.60125C14.6319 8.07009 13.996 8.33349 13.333 8.33349ZM6.66634 5.00015C6.44533 5.00015 6.23337 5.08795 6.07709 5.24423C5.9208 5.40051 5.83301 5.61247 5.83301 5.83349C5.83301 6.0545 5.9208 6.26646 6.07709 6.42274C6.23337 6.57902 6.44533 6.66682 6.66634 6.66682H13.333C13.554 6.66682 13.766 6.57902 13.9223 6.42274C14.0785 6.26646 14.1663 6.0545 14.1663 5.83349C14.1663 5.61247 14.0785 5.40051 13.9223 5.24423C13.766 5.08795 13.554 5.00015 13.333 5.00015H6.66634ZM4.99967 10.8335C4.83486 10.8335 4.67374 10.8824 4.5367 10.9739C4.39966 11.0655 4.29285 11.1956 4.22977 11.3479C4.1667 11.5002 4.1502 11.6677 4.18235 11.8294C4.21451 11.991 4.29387 12.1395 4.41042 12.2561C4.52696 12.3726 4.67545 12.452 4.8371 12.4841C4.99875 12.5163 5.16631 12.4998 5.31858 12.4367C5.47085 12.3736 5.601 12.2668 5.69257 12.1298C5.78413 11.9928 5.83301 11.8316 5.83301 11.6668C5.83301 11.4458 5.74521 11.2338 5.58893 11.0776C5.43265 10.9213 5.22069 10.8335 4.99967 10.8335ZM8.33301 10.8335C8.16819 10.8335 8.00707 10.8824 7.87003 10.9739C7.73299 11.0655 7.62618 11.1956 7.56311 11.3479C7.50003 11.5002 7.48353 11.6677 7.51569 11.8294C7.54784 11.991 7.62721 12.1395 7.74375 12.2561C7.8603 12.3726 8.00878 12.452 8.17043 12.4841C8.33208 12.5163 8.49964 12.4998 8.65191 12.4367C8.80418 12.3736 8.93433 12.2668 9.0259 12.1298C9.11747 11.9928 9.16634 11.8316 9.16634 11.6668C9.16634 11.4458 9.07854 11.2338 8.92226 11.0776C8.76598 10.9213 8.55402 10.8335 8.33301 10.8335ZM11.6663 10.8335C11.5015 10.8335 11.3404 10.8824 11.2034 10.9739C11.0663 11.0655 10.9595 11.1956 10.8964 11.3479C10.8334 11.5002 10.8169 11.6677 10.849 11.8294C10.8812 11.991 10.9605 12.1395 11.0771 12.2561C11.1936 12.3726 11.3421 12.452 11.5038 12.4841C11.6654 12.5163 11.833 12.4998 11.9852 12.4367C12.1375 12.3736 12.2677 12.2668 12.3592 12.1298C12.4508 11.9928 12.4997 11.8316 12.4997 11.6668C12.4997 11.4458 12.4119 11.2338 12.2556 11.0776C12.0993 10.9213 11.8874 10.8335 11.6663 10.8335ZM4.99967 14.1668C4.83486 14.1668 4.67374 14.2157 4.5367 14.3073C4.39966 14.3988 4.29285 14.529 4.22977 14.6812C4.1667 14.8335 4.1502 15.0011 4.18235 15.1627C4.21451 15.3244 4.29387 15.4729 4.41042 15.5894C4.52696 15.706 4.67545 15.7853 4.8371 15.8175C4.99875 15.8496 5.16631 15.8331 5.31858 15.7701C5.47085 15.707 5.601 15.6002 5.69257 15.4631C5.78413 15.3261 5.83301 15.165 5.83301 15.0002C5.83301 14.7791 5.74521 14.5672 5.58893 14.4109C5.43265 14.2546 5.22069 14.1668 4.99967 14.1668ZM8.33301 14.1668C8.16819 14.1668 8.00707 14.2157 7.87003 14.3073C7.73299 14.3988 7.62618 14.529 7.56311 14.6812C7.50003 14.8335 7.48353 15.0011 7.51569 15.1627C7.54784 15.3244 7.62721 15.4729 7.74375 15.5894C7.8603 15.706 8.00878 15.7853 8.17043 15.8175C8.33208 15.8496 8.49964 15.8331 8.65191 15.7701C8.80418 15.707 8.93433 15.6002 9.0259 15.4631C9.11747 15.3261 9.16634 15.165 9.16634 15.0002C9.16634 14.7791 9.07854 14.5672 8.92226 14.4109C8.76598 14.2546 8.55402 14.1668 8.33301 14.1668ZM14.9997 10.8335C14.8349 10.8335 14.6737 10.8824 14.5367 10.9739C14.3997 11.0655 14.2928 11.1956 14.2298 11.3479C14.1667 11.5002 14.1502 11.6677 14.1824 11.8294C14.2145 11.991 14.2939 12.1395 14.4104 12.2561C14.527 12.3726 14.6754 12.452 14.8371 12.4841C14.9987 12.5163 15.1663 12.4998 15.3186 12.4367C15.4708 12.3736 15.601 12.2668 15.6926 12.1298C15.7841 11.9928 15.833 11.8316 15.833 11.6668C15.833 11.4458 15.7452 11.2338 15.5889 11.0776C15.4326 10.9213 15.2207 10.8335 14.9997 10.8335ZM15.833 15.0002C15.833 14.7791 15.7452 14.5672 15.5889 14.4109C15.4326 14.2546 15.2207 14.1668 14.9997 14.1668H11.6663C11.4453 14.1668 11.2334 14.2546 11.0771 14.4109C10.9208 14.5672 10.833 14.7791 10.833 15.0002C10.833 15.2212 10.9208 15.4331 11.0771 15.5894C11.2334 15.7457 11.4453 15.8335 11.6663 15.8335H14.9997C15.2207 15.8335 15.4326 15.7457 15.5889 15.5894C15.7452 15.4331 15.833 15.2212 15.833 15.0002Z" fill="#98A2B3"/>
</g>
<defs>
<clipPath id="clip0_1530_56698">
<rect width="20" height="20" fill="white"/>
</clipPath>
</defs>
</svg>
