<svg width="46" height="32" viewBox="0 0 46 32" fill="none" xmlns="http://www.w3.org/2000/svg">
<rect x="0.5" y="0.5" width="45" height="31" rx="5.5" fill="white"/>
<path fill-rule="evenodd" clip-rule="evenodd" d="M12.6958 11.1249C12.309 11.5941 11.6902 11.9641 11.0714 11.9113C10.994 11.2769 11.297 10.6028 11.6515 10.1865C12.0383 9.70406 12.7151 9.36042 13.263 9.33398C13.3275 9.99482 13.0761 10.6424 12.6958 11.1249ZM13.2565 12.0368C12.7114 12.0047 12.2139 12.2049 11.8121 12.3666C11.5536 12.4707 11.3346 12.5589 11.168 12.5589C10.9811 12.5589 10.7531 12.466 10.4971 12.3618C10.1617 12.2252 9.77817 12.069 9.37602 12.0765C8.45423 12.0897 7.59691 12.625 7.12635 13.4774C6.15944 15.1824 6.87495 17.7068 7.80963 19.0946C8.2673 19.7819 8.81521 20.5352 9.53717 20.5088C9.85478 20.4965 10.0833 20.3971 10.3197 20.2942C10.5919 20.1758 10.8747 20.0528 11.3163 20.0528C11.7425 20.0528 12.0129 20.1726 12.2725 20.2876C12.5194 20.397 12.7564 20.502 13.1083 20.4956C13.856 20.4824 14.3266 19.8083 14.7842 19.121C15.2781 18.3834 15.4952 17.6635 15.5281 17.5542L15.532 17.5416C15.5312 17.5408 15.5251 17.5379 15.5144 17.5329L15.5143 17.5329C15.3492 17.4554 14.0873 16.8631 14.0752 15.2749C14.063 13.9419 15.0761 13.2665 15.2356 13.1601L15.2356 13.1601C15.2453 13.1537 15.2518 13.1493 15.2548 13.147C14.6102 12.169 13.6046 12.0633 13.2565 12.0368ZM18.4327 20.4229V10.1204H22.2037C24.1504 10.1204 25.5105 11.4949 25.5105 13.5039C25.5105 15.5128 24.1246 16.9006 22.1521 16.9006H19.9927V20.4229H18.4327ZM19.9926 11.4685H21.791C23.1447 11.4685 23.9182 12.2086 23.9182 13.5105C23.9182 14.8123 23.1447 15.5591 21.7846 15.5591H19.9926V11.4685ZM30.661 19.1871C30.2484 19.9933 29.3395 20.5022 28.3597 20.5022C26.9094 20.5022 25.8973 19.6167 25.8973 18.2818C25.8973 16.9601 26.8771 16.2001 28.6885 16.0878L30.6352 15.9688V15.4005C30.6352 14.5612 30.1002 14.1053 29.1461 14.1053C28.3597 14.1053 27.786 14.5216 27.67 15.156H26.2648C26.3099 13.8211 27.5346 12.8497 29.1913 12.8497C30.9768 12.8497 32.1371 13.8079 32.1371 15.2948V20.4229H30.6932V19.1871H30.661ZM28.7786 19.2796C27.9471 19.2796 27.4185 18.8699 27.4185 18.2421C27.4185 17.5945 27.9277 17.2178 28.9011 17.1583L30.6351 17.046V17.6275C30.6351 18.5924 29.8358 19.2796 28.7786 19.2796ZM36.9264 20.826C36.3012 22.6301 35.5857 23.2248 34.0644 23.2248C33.9484 23.2248 33.5616 23.2116 33.4714 23.1852V21.9494C33.5681 21.9626 33.8066 21.9759 33.929 21.9759C34.6188 21.9759 35.0055 21.6785 35.244 20.9053L35.3858 20.4493L32.743 12.9488H34.3738L36.2109 19.0351H36.2432L38.0803 12.9488H39.666L36.9264 20.826Z" fill="black"/>
<rect x="0.5" y="0.5" width="45" height="31" rx="5.5" stroke="#F2F4F7"/>
</svg>
