<svg width="18" height="18" viewBox="0 0 18 18" fill="none" xmlns="http://www.w3.org/2000/svg">
<path d="M13.375 5.25V4C13.375 3.33696 13.1116 2.70107 12.6428 2.23223C12.1739 1.76339 11.538 1.5 10.875 1.5H7.125C6.46196 1.5 5.82607 1.76339 5.35723 2.23223C4.88839 2.70107 4.625 3.33696 4.625 4V5.25C3.7965 5.25099 3.00222 5.58055 2.41639 6.16639C1.83055 6.75222 1.50099 7.5465 1.5 8.375L1.5 11.5C1.50099 12.3285 1.83055 13.1228 2.41639 13.7086C3.00222 14.2944 3.7965 14.624 4.625 14.625C4.625 15.1223 4.82254 15.5992 5.17417 15.9508C5.52581 16.3025 6.00272 16.5 6.5 16.5H11.5C11.9973 16.5 12.4742 16.3025 12.8258 15.9508C13.1775 15.5992 13.375 15.1223 13.375 14.625C14.2035 14.624 14.9978 14.2944 15.5836 13.7086C16.1694 13.1228 16.499 12.3285 16.5 11.5V8.375C16.499 7.5465 16.1694 6.75222 15.5836 6.16639C14.9978 5.58055 14.2035 5.25099 13.375 5.25ZM5.875 4C5.875 3.66848 6.0067 3.35054 6.24112 3.11612C6.47554 2.8817 6.79348 2.75 7.125 2.75H10.875C11.2065 2.75 11.5245 2.8817 11.7589 3.11612C11.9933 3.35054 12.125 3.66848 12.125 4V5.25H5.875V4ZM12.125 14.625C12.125 14.7908 12.0592 14.9497 11.9419 15.0669C11.8247 15.1842 11.6658 15.25 11.5 15.25H6.5C6.33424 15.25 6.17527 15.1842 6.05806 15.0669C5.94085 14.9497 5.875 14.7908 5.875 14.625V12.125C5.875 11.9592 5.94085 11.8003 6.05806 11.6831C6.17527 11.5658 6.33424 11.5 6.5 11.5H11.5C11.6658 11.5 11.8247 11.5658 11.9419 11.6831C12.0592 11.8003 12.125 11.9592 12.125 12.125V14.625ZM15.25 11.5C15.25 11.9973 15.0525 12.4742 14.7008 12.8258C14.3492 13.1775 13.8723 13.375 13.375 13.375V12.125C13.375 11.6277 13.1775 11.1508 12.8258 10.7992C12.4742 10.4475 11.9973 10.25 11.5 10.25H6.5C6.00272 10.25 5.52581 10.4475 5.17417 10.7992C4.82254 11.1508 4.625 11.6277 4.625 12.125V13.375C4.12772 13.375 3.65081 13.1775 3.29917 12.8258C2.94754 12.4742 2.75 11.9973 2.75 11.5V8.375C2.75 7.87772 2.94754 7.40081 3.29917 7.04917C3.65081 6.69754 4.12772 6.5 4.625 6.5H13.375C13.8723 6.5 14.3492 6.69754 14.7008 7.04917C15.0525 7.40081 15.25 7.87772 15.25 8.375V11.5Z" fill="#475467"/>
<path d="M12.9375 7.5H11.8125C11.6633 7.5 11.5202 7.57902 11.4148 7.71967C11.3093 7.86032 11.25 8.05109 11.25 8.25C11.25 8.44891 11.3093 8.63968 11.4148 8.78033C11.5202 8.92098 11.6633 9 11.8125 9H12.9375C13.0867 9 13.2298 8.92098 13.3352 8.78033C13.4407 8.63968 13.5 8.44891 13.5 8.25C13.5 8.05109 13.4407 7.86032 13.3352 7.71967C13.2298 7.57902 13.0867 7.5 12.9375 7.5Z" fill="#475467"/>
</svg>
