<svg width="141" height="141" viewBox="0 0 141 141" fill="none" xmlns="http://www.w3.org/2000/svg">
<path d="M141 0H0V141H141V0Z" fill="white"/>
<path d="M19.053 15.2432H15.2422V19.054H19.053V15.2432Z" fill="black"/>
<path d="M19.053 19.0537H15.2422V22.8645H19.053V19.0537Z" fill="black"/>
<path d="M19.053 22.8652H15.2422V26.676H19.053V22.8652Z" fill="black"/>
<path d="M19.053 26.6758H15.2422V30.4866H19.053V26.6758Z" fill="black"/>
<path d="M19.053 30.4863H15.2422V34.2971H19.053V30.4863Z" fill="black"/>
<path d="M19.053 34.2969H15.2422V38.1077H19.053V34.2969Z" fill="black"/>
<path d="M19.053 38.1084H15.2422V41.9192H19.053V38.1084Z" fill="black"/>
<path d="M19.053 64.7842H15.2422V68.595H19.053V64.7842Z" fill="black"/>
<path d="M19.053 68.5947H15.2422V72.4055H19.053V68.5947Z" fill="black"/>
<path d="M19.053 76.2158H15.2422V80.0266H19.053V76.2158Z" fill="black"/>
<path d="M19.053 83.8379H15.2422V87.6487H19.053V83.8379Z" fill="black"/>
<path d="M19.053 87.6484H15.2422V91.4592H19.053V87.6484Z" fill="black"/>
<path d="M19.053 99.0811H15.2422V102.892H19.053V99.0811Z" fill="black"/>
<path d="M19.053 102.892H15.2422V106.702H19.053V102.892Z" fill="black"/>
<path d="M19.053 106.702H15.2422V110.513H19.053V106.702Z" fill="black"/>
<path d="M19.053 110.514H15.2422V114.324H19.053V110.514Z" fill="black"/>
<path d="M19.053 114.324H15.2422V118.135H19.053V114.324Z" fill="black"/>
<path d="M19.053 118.135H15.2422V121.946H19.053V118.135Z" fill="black"/>
<path d="M19.053 121.946H15.2422V125.757H19.053V121.946Z" fill="black"/>
<path d="M22.8655 15.2432H19.0547V19.054H22.8655V15.2432Z" fill="black"/>
<path d="M22.8655 38.1084H19.0547V41.9192H22.8655V38.1084Z" fill="black"/>
<path d="M22.8655 45.7295H19.0547V49.5403H22.8655V45.7295Z" fill="black"/>
<path d="M22.8655 53.3516H19.0547V57.1624H22.8655V53.3516Z" fill="black"/>
<path d="M22.8655 64.7842H19.0547V68.595H22.8655V64.7842Z" fill="black"/>
<path d="M22.8655 68.5947H19.0547V72.4055H22.8655V68.5947Z" fill="black"/>
<path d="M22.8655 72.4053H19.0547V76.2161H22.8655V72.4053Z" fill="black"/>
<path d="M22.8655 80.0273H19.0547V83.8382H22.8655V80.0273Z" fill="black"/>
<path d="M22.8655 83.8379H19.0547V87.6487H22.8655V83.8379Z" fill="black"/>
<path d="M22.8655 87.6484H19.0547V91.4592H22.8655V87.6484Z" fill="black"/>
<path d="M22.8655 99.0811H19.0547V102.892H22.8655V99.0811Z" fill="black"/>
<path d="M22.8655 121.946H19.0547V125.757H22.8655V121.946Z" fill="black"/>
<path d="M26.6741 15.2432H22.8633V19.054H26.6741V15.2432Z" fill="black"/>
<path d="M26.6741 22.8652H22.8633V26.676H26.6741V22.8652Z" fill="black"/>
<path d="M26.6741 26.6758H22.8633V30.4866H26.6741V26.6758Z" fill="black"/>
<path d="M26.6741 30.4863H22.8633V34.2971H26.6741V30.4863Z" fill="black"/>
<path d="M26.6741 38.1084H22.8633V41.9192H26.6741V38.1084Z" fill="black"/>
<path d="M26.6741 49.54H22.8633V53.3508H26.6741V49.54Z" fill="black"/>
<path d="M26.6741 64.7842H22.8633V68.595H26.6741V64.7842Z" fill="black"/>
<path d="M26.6741 68.5947H22.8633V72.4055H26.6741V68.5947Z" fill="black"/>
<path d="M26.6741 76.2158H22.8633V80.0266H26.6741V76.2158Z" fill="black"/>
<path d="M26.6741 80.0273H22.8633V83.8382H26.6741V80.0273Z" fill="black"/>
<path d="M26.6741 83.8379H22.8633V87.6487H26.6741V83.8379Z" fill="black"/>
<path d="M26.6741 87.6484H22.8633V91.4592H26.6741V87.6484Z" fill="black"/>
<path d="M26.6741 91.459H22.8633V95.2698H26.6741V91.459Z" fill="black"/>
<path d="M26.6741 99.0811H22.8633V102.892H26.6741V99.0811Z" fill="black"/>
<path d="M26.6741 106.702H22.8633V110.513H26.6741V106.702Z" fill="black"/>
<path d="M26.6741 110.514H22.8633V114.324H26.6741V110.514Z" fill="black"/>
<path d="M26.6741 114.324H22.8633V118.135H26.6741V114.324Z" fill="black"/>
<path d="M26.6741 121.946H22.8633V125.757H26.6741V121.946Z" fill="black"/>
<path d="M30.4866 15.2432H26.6758V19.054H30.4866V15.2432Z" fill="black"/>
<path d="M30.4866 22.8652H26.6758V26.676H30.4866V22.8652Z" fill="black"/>
<path d="M30.4866 26.6758H26.6758V30.4866H30.4866V26.6758Z" fill="black"/>
<path d="M30.4866 30.4863H26.6758V34.2971H30.4866V30.4863Z" fill="black"/>
<path d="M30.4866 38.1084H26.6758V41.9192H30.4866V38.1084Z" fill="black"/>
<path d="M30.4866 57.1621H26.6758V60.9729H30.4866V57.1621Z" fill="black"/>
<path d="M30.4866 68.5947H26.6758V72.4055H30.4866V68.5947Z" fill="black"/>
<path d="M30.4866 72.4053H26.6758V76.2161H30.4866V72.4053Z" fill="black"/>
<path d="M30.4866 76.2158H26.6758V80.0266H30.4866V76.2158Z" fill="black"/>
<path d="M30.4866 91.459H26.6758V95.2698H30.4866V91.459Z" fill="black"/>
<path d="M30.4866 99.0811H26.6758V102.892H30.4866V99.0811Z" fill="black"/>
<path d="M30.4866 106.702H26.6758V110.513H30.4866V106.702Z" fill="black"/>
<path d="M30.4866 110.514H26.6758V114.324H30.4866V110.514Z" fill="black"/>
<path d="M30.4866 114.324H26.6758V118.135H30.4866V114.324Z" fill="black"/>
<path d="M30.4866 121.946H26.6758V125.757H30.4866V121.946Z" fill="black"/>
<path d="M34.2952 15.2432H30.4844V19.054H34.2952V15.2432Z" fill="black"/>
<path d="M34.2952 22.8652H30.4844V26.676H34.2952V22.8652Z" fill="black"/>
<path d="M34.2952 26.6758H30.4844V30.4866H34.2952V26.6758Z" fill="black"/>
<path d="M34.2952 30.4863H30.4844V34.2971H34.2952V30.4863Z" fill="black"/>
<path d="M34.2952 38.1084H30.4844V41.9192H34.2952V38.1084Z" fill="black"/>
<path d="M34.2952 45.7295H30.4844V49.5403H34.2952V45.7295Z" fill="black"/>
<path d="M34.2952 49.54H30.4844V53.3508H34.2952V49.54Z" fill="black"/>
<path d="M34.2952 53.3516H30.4844V57.1624H34.2952V53.3516Z" fill="black"/>
<path d="M34.2952 57.1621H30.4844V60.9729H34.2952V57.1621Z" fill="black"/>
<path d="M34.2952 64.7842H30.4844V68.595H34.2952V64.7842Z" fill="black"/>
<path d="M34.2952 68.5947H30.4844V72.4055H34.2952V68.5947Z" fill="black"/>
<path d="M34.2952 72.4053H30.4844V76.2161H34.2952V72.4053Z" fill="black"/>
<path d="M34.2952 76.2158H30.4844V80.0266H34.2952V76.2158Z" fill="black"/>
<path d="M34.2952 99.0811H30.4844V102.892H34.2952V99.0811Z" fill="black"/>
<path d="M34.2952 106.702H30.4844V110.513H34.2952V106.702Z" fill="black"/>
<path d="M34.2952 110.514H30.4844V114.324H34.2952V110.514Z" fill="black"/>
<path d="M34.2952 114.324H30.4844V118.135H34.2952V114.324Z" fill="black"/>
<path d="M34.2952 121.946H30.4844V125.757H34.2952V121.946Z" fill="black"/>
<path d="M38.1077 15.2432H34.2969V19.054H38.1077V15.2432Z" fill="black"/>
<path d="M38.1077 38.1084H34.2969V41.9192H38.1077V38.1084Z" fill="black"/>
<path d="M38.1077 49.54H34.2969V53.3508H38.1077V49.54Z" fill="black"/>
<path d="M38.1077 57.1621H34.2969V60.9729H38.1077V57.1621Z" fill="black"/>
<path d="M38.1077 60.9727H34.2969V64.7835H38.1077V60.9727Z" fill="black"/>
<path d="M38.1077 64.7842H34.2969V68.595H38.1077V64.7842Z" fill="black"/>
<path d="M38.1077 68.5947H34.2969V72.4055H38.1077V68.5947Z" fill="black"/>
<path d="M38.1077 72.4053H34.2969V76.2161H38.1077V72.4053Z" fill="black"/>
<path d="M38.1077 76.2158H34.2969V80.0266H38.1077V76.2158Z" fill="black"/>
<path d="M38.1077 83.8379H34.2969V87.6487H38.1077V83.8379Z" fill="black"/>
<path d="M38.1077 91.459H34.2969V95.2698H38.1077V91.459Z" fill="black"/>
<path d="M38.1077 99.0811H34.2969V102.892H38.1077V99.0811Z" fill="black"/>
<path d="M38.1077 121.946H34.2969V125.757H38.1077V121.946Z" fill="black"/>
<path d="M41.9163 15.2432H38.1055V19.054H41.9163V15.2432Z" fill="black"/>
<path d="M41.9163 19.0537H38.1055V22.8645H41.9163V19.0537Z" fill="black"/>
<path d="M41.9163 22.8652H38.1055V26.676H41.9163V22.8652Z" fill="black"/>
<path d="M41.9163 26.6758H38.1055V30.4866H41.9163V26.6758Z" fill="black"/>
<path d="M41.9163 30.4863H38.1055V34.2971H41.9163V30.4863Z" fill="black"/>
<path d="M41.9163 34.2969H38.1055V38.1077H41.9163V34.2969Z" fill="black"/>
<path d="M41.9163 38.1084H38.1055V41.9192H41.9163V38.1084Z" fill="black"/>
<path d="M41.9163 45.7295H38.1055V49.5403H41.9163V45.7295Z" fill="black"/>
<path d="M41.9163 53.3516H38.1055V57.1624H41.9163V53.3516Z" fill="black"/>
<path d="M41.9163 60.9727H38.1055V64.7835H41.9163V60.9727Z" fill="black"/>
<path d="M41.9163 68.5947H38.1055V72.4055H41.9163V68.5947Z" fill="black"/>
<path d="M41.9163 76.2158H38.1055V80.0266H41.9163V76.2158Z" fill="black"/>
<path d="M41.9163 83.8379H38.1055V87.6487H41.9163V83.8379Z" fill="black"/>
<path d="M41.9163 91.459H38.1055V95.2698H41.9163V91.459Z" fill="black"/>
<path d="M41.9163 99.0811H38.1055V102.892H41.9163V99.0811Z" fill="black"/>
<path d="M41.9163 102.892H38.1055V106.702H41.9163V102.892Z" fill="black"/>
<path d="M41.9163 106.702H38.1055V110.513H41.9163V106.702Z" fill="black"/>
<path d="M41.9163 110.514H38.1055V114.324H41.9163V110.514Z" fill="black"/>
<path d="M41.9163 114.324H38.1055V118.135H41.9163V114.324Z" fill="black"/>
<path d="M41.9163 118.135H38.1055V121.946H41.9163V118.135Z" fill="black"/>
<path d="M41.9163 121.946H38.1055V125.757H41.9163V121.946Z" fill="black"/>
<path d="M45.7288 49.54H41.918V53.3508H45.7288V49.54Z" fill="black"/>
<path d="M45.7288 53.3516H41.918V57.1624H45.7288V53.3516Z" fill="black"/>
<path d="M45.7288 57.1621H41.918V60.9729H45.7288V57.1621Z" fill="black"/>
<path d="M45.7288 64.7842H41.918V68.595H45.7288V64.7842Z" fill="black"/>
<path d="M45.7288 76.2158H41.918V80.0266H45.7288V76.2158Z" fill="black"/>
<path d="M45.7288 91.459H41.918V95.2698H45.7288V91.459Z" fill="black"/>
<path d="M49.5413 22.8652H45.7305V26.676H49.5413V22.8652Z" fill="black"/>
<path d="M49.5413 30.4863H45.7305V34.2971H49.5413V30.4863Z" fill="black"/>
<path d="M49.5413 34.2969H45.7305V38.1077H49.5413V34.2969Z" fill="black"/>
<path d="M49.5413 38.1084H45.7305V41.9192H49.5413V38.1084Z" fill="black"/>
<path d="M49.5413 45.7295H45.7305V49.5403H49.5413V45.7295Z" fill="black"/>
<path d="M49.5413 53.3516H45.7305V57.1624H49.5413V53.3516Z" fill="black"/>
<path d="M49.5413 60.9727H45.7305V64.7835H49.5413V60.9727Z" fill="black"/>
<path d="M49.5413 64.7842H45.7305V68.595H49.5413V64.7842Z" fill="black"/>
<path d="M49.5413 68.5947H45.7305V72.4055H49.5413V68.5947Z" fill="black"/>
<path d="M49.5413 72.4053H45.7305V76.2161H49.5413V72.4053Z" fill="black"/>
<path d="M49.5413 76.2158H45.7305V80.0266H49.5413V76.2158Z" fill="black"/>
<path d="M49.5413 80.0273H45.7305V83.8382H49.5413V80.0273Z" fill="black"/>
<path d="M49.5413 83.8379H45.7305V87.6487H49.5413V83.8379Z" fill="black"/>
<path d="M49.5413 87.6484H45.7305V91.4592H49.5413V87.6484Z" fill="black"/>
<path d="M49.5413 91.459H45.7305V95.2698H49.5413V91.459Z" fill="black"/>
<path d="M49.5413 95.2705H45.7305V99.0813H49.5413V95.2705Z" fill="black"/>
<path d="M49.5413 106.702H45.7305V110.513H49.5413V106.702Z" fill="black"/>
<path d="M49.5413 118.135H45.7305V121.946H49.5413V118.135Z" fill="black"/>
<path d="M53.3499 15.2432H49.5391V19.054H53.3499V15.2432Z" fill="black"/>
<path d="M53.3499 19.0537H49.5391V22.8645H53.3499V19.0537Z" fill="black"/>
<path d="M53.3499 22.8652H49.5391V26.676H53.3499V22.8652Z" fill="black"/>
<path d="M53.3499 30.4863H49.5391V34.2971H53.3499V30.4863Z" fill="black"/>
<path d="M53.3499 41.9189H49.5391V45.7298H53.3499V41.9189Z" fill="black"/>
<path d="M53.3499 49.54H49.5391V53.3508H53.3499V49.54Z" fill="black"/>
<path d="M53.3499 60.9727H49.5391V64.7835H53.3499V60.9727Z" fill="black"/>
<path d="M53.3499 72.4053H49.5391V76.2161H53.3499V72.4053Z" fill="black"/>
<path d="M53.3499 76.2158H49.5391V80.0266H53.3499V76.2158Z" fill="black"/>
<path d="M53.3499 80.0273H49.5391V83.8382H53.3499V80.0273Z" fill="black"/>
<path d="M53.3499 83.8379H49.5391V87.6487H53.3499V83.8379Z" fill="black"/>
<path d="M53.3499 91.459H49.5391V95.2698H53.3499V91.459Z" fill="black"/>
<path d="M53.3499 95.2705H49.5391V99.0813H53.3499V95.2705Z" fill="black"/>
<path d="M53.3499 99.0811H49.5391V102.892H53.3499V99.0811Z" fill="black"/>
<path d="M53.3499 102.892H49.5391V106.702H53.3499V102.892Z" fill="black"/>
<path d="M53.3499 106.702H49.5391V110.513H53.3499V106.702Z" fill="black"/>
<path d="M53.3499 110.514H49.5391V114.324H53.3499V110.514Z" fill="black"/>
<path d="M53.3499 114.324H49.5391V118.135H53.3499V114.324Z" fill="black"/>
<path d="M53.3499 118.135H49.5391V121.946H53.3499V118.135Z" fill="black"/>
<path d="M53.3499 121.946H49.5391V125.757H53.3499V121.946Z" fill="black"/>
<path d="M57.1624 22.8652H53.3516V26.676H57.1624V22.8652Z" fill="black"/>
<path d="M57.1624 26.6758H53.3516V30.4866H57.1624V26.6758Z" fill="black"/>
<path d="M57.1624 30.4863H53.3516V34.2971H57.1624V30.4863Z" fill="black"/>
<path d="M57.1624 38.1084H53.3516V41.9192H57.1624V38.1084Z" fill="black"/>
<path d="M57.1624 49.54H53.3516V53.3508H57.1624V49.54Z" fill="black"/>
<path d="M57.1624 60.9727H53.3516V64.7835H57.1624V60.9727Z" fill="black"/>
<path d="M57.1624 68.5947H53.3516V72.4055H57.1624V68.5947Z" fill="black"/>
<path d="M57.1624 72.4053H53.3516V76.2161H57.1624V72.4053Z" fill="black"/>
<path d="M57.1624 76.2158H53.3516V80.0266H57.1624V76.2158Z" fill="black"/>
<path d="M57.1624 83.8379H53.3516V87.6487H57.1624V83.8379Z" fill="black"/>
<path d="M57.1624 87.6484H53.3516V91.4592H57.1624V87.6484Z" fill="black"/>
<path d="M57.1624 91.459H53.3516V95.2698H57.1624V91.459Z" fill="black"/>
<path d="M57.1624 95.2705H53.3516V99.0813H57.1624V95.2705Z" fill="black"/>
<path d="M57.1624 99.0811H53.3516V102.892H57.1624V99.0811Z" fill="black"/>
<path d="M57.1624 102.892H53.3516V106.702H57.1624V102.892Z" fill="black"/>
<path d="M57.1624 114.324H53.3516V118.135H57.1624V114.324Z" fill="black"/>
<path d="M60.971 19.0537H57.1602V22.8645H60.971V19.0537Z" fill="black"/>
<path d="M60.971 22.8652H57.1602V26.676H60.971V22.8652Z" fill="black"/>
<path d="M60.971 53.3516H57.1602V57.1624H60.971V53.3516Z" fill="black"/>
<path d="M60.971 57.1621H57.1602V60.9729H60.971V57.1621Z" fill="black"/>
<path d="M60.971 60.9727H57.1602V64.7835H60.971V60.9727Z" fill="black"/>
<path d="M60.971 64.7842H57.1602V68.595H60.971V64.7842Z" fill="black"/>
<path d="M60.971 72.4053H57.1602V76.2161H60.971V72.4053Z" fill="black"/>
<path d="M60.971 87.6484H57.1602V91.4592H60.971V87.6484Z" fill="black"/>
<path d="M60.971 91.459H57.1602V95.2698H60.971V91.459Z" fill="black"/>
<path d="M60.971 95.2705H57.1602V99.0813H60.971V95.2705Z" fill="black"/>
<path d="M60.971 102.892H57.1602V106.702H60.971V102.892Z" fill="black"/>
<path d="M60.971 114.324H57.1602V118.135H60.971V114.324Z" fill="black"/>
<path d="M60.971 121.946H57.1602V125.757H60.971V121.946Z" fill="black"/>
<path d="M64.7835 22.8652H60.9727V26.676H64.7835V22.8652Z" fill="black"/>
<path d="M64.7835 26.6758H60.9727V30.4866H64.7835V26.6758Z" fill="black"/>
<path d="M64.7835 30.4863H60.9727V34.2971H64.7835V30.4863Z" fill="black"/>
<path d="M64.7835 34.2969H60.9727V38.1077H64.7835V34.2969Z" fill="black"/>
<path d="M64.7835 38.1084H60.9727V41.9192H64.7835V38.1084Z" fill="black"/>
<path d="M64.7835 57.1621H60.9727V60.9729H64.7835V57.1621Z" fill="black"/>
<path d="M64.7835 91.459H60.9727V95.2698H64.7835V91.459Z" fill="black"/>
<path d="M64.7835 95.2705H60.9727V99.0813H64.7835V95.2705Z" fill="black"/>
<path d="M64.7835 106.702H60.9727V110.513H64.7835V106.702Z" fill="black"/>
<path d="M64.7835 114.324H60.9727V118.135H64.7835V114.324Z" fill="black"/>
<path d="M64.7835 121.946H60.9727V125.757H64.7835V121.946Z" fill="black"/>
<path d="M68.5921 15.2432H64.7812V19.054H68.5921V15.2432Z" fill="black"/>
<path d="M68.5921 19.0537H64.7812V22.8645H68.5921V19.0537Z" fill="black"/>
<path d="M68.5921 22.8652H64.7812V26.676H68.5921V22.8652Z" fill="black"/>
<path d="M68.5921 26.6758H64.7812V30.4866H68.5921V26.6758Z" fill="black"/>
<path d="M68.5921 30.4863H64.7812V34.2971H68.5921V30.4863Z" fill="black"/>
<path d="M68.5921 34.2969H64.7812V38.1077H68.5921V34.2969Z" fill="black"/>
<path d="M68.5921 45.7295H64.7812V49.5403H68.5921V45.7295Z" fill="black"/>
<path d="M68.5921 49.54H64.7812V53.3508H68.5921V49.54Z" fill="black"/>
<path d="M68.5921 64.7842H64.7812V68.595H68.5921V64.7842Z" fill="black"/>
<path d="M68.5921 68.5947H64.7812V72.4055H68.5921V68.5947Z" fill="black"/>
<path d="M68.5921 76.2158H64.7812V80.0266H68.5921V76.2158Z" fill="black"/>
<path d="M68.5921 80.0273H64.7812V83.8382H68.5921V80.0273Z" fill="black"/>
<path d="M68.5921 91.459H64.7812V95.2698H68.5921V91.459Z" fill="black"/>
<path d="M68.5921 99.0811H64.7812V102.892H68.5921V99.0811Z" fill="black"/>
<path d="M68.5921 106.702H64.7812V110.513H68.5921V106.702Z" fill="black"/>
<path d="M68.5921 118.135H64.7812V121.946H68.5921V118.135Z" fill="black"/>
<path d="M72.4046 15.2432H68.5938V19.054H72.4046V15.2432Z" fill="black"/>
<path d="M72.4046 22.8652H68.5938V26.676H72.4046V22.8652Z" fill="black"/>
<path d="M72.4046 26.6758H68.5938V30.4866H72.4046V26.6758Z" fill="black"/>
<path d="M72.4046 38.1084H68.5938V41.9192H72.4046V38.1084Z" fill="black"/>
<path d="M72.4046 41.9189H68.5938V45.7298H72.4046V41.9189Z" fill="black"/>
<path d="M72.4046 45.7295H68.5938V49.5403H72.4046V45.7295Z" fill="black"/>
<path d="M72.4046 53.3516H68.5938V57.1624H72.4046V53.3516Z" fill="black"/>
<path d="M72.4046 60.9727H68.5938V64.7835H72.4046V60.9727Z" fill="black"/>
<path d="M72.4046 64.7842H68.5938V68.595H72.4046V64.7842Z" fill="black"/>
<path d="M72.4046 76.2158H68.5938V80.0266H72.4046V76.2158Z" fill="black"/>
<path d="M72.4046 91.459H68.5938V95.2698H72.4046V91.459Z" fill="black"/>
<path d="M72.4046 102.892H68.5938V106.702H72.4046V102.892Z" fill="black"/>
<path d="M72.4046 106.702H68.5938V110.513H72.4046V106.702Z" fill="black"/>
<path d="M72.4046 114.324H68.5938V118.135H72.4046V114.324Z" fill="black"/>
<path d="M72.4046 118.135H68.5938V121.946H72.4046V118.135Z" fill="black"/>
<path d="M76.2171 22.8652H72.4062V26.676H76.2171V22.8652Z" fill="black"/>
<path d="M76.2171 26.6758H72.4062V30.4866H76.2171V26.6758Z" fill="black"/>
<path d="M76.2171 41.9189H72.4062V45.7298H76.2171V41.9189Z" fill="black"/>
<path d="M76.2171 60.9727H72.4062V64.7835H76.2171V60.9727Z" fill="black"/>
<path d="M76.2171 68.5947H72.4062V72.4055H76.2171V68.5947Z" fill="black"/>
<path d="M76.2171 91.459H72.4062V95.2698H76.2171V91.459Z" fill="black"/>
<path d="M76.2171 95.2705H72.4062V99.0813H76.2171V95.2705Z" fill="black"/>
<path d="M76.2171 99.0811H72.4062V102.892H76.2171V99.0811Z" fill="black"/>
<path d="M76.2171 102.892H72.4062V106.702H76.2171V102.892Z" fill="black"/>
<path d="M76.2171 114.324H72.4062V118.135H76.2171V114.324Z" fill="black"/>
<path d="M76.2171 118.135H72.4062V121.946H76.2171V118.135Z" fill="black"/>
<path d="M80.0257 15.2432H76.2148V19.054H80.0257V15.2432Z" fill="black"/>
<path d="M80.0257 19.0537H76.2148V22.8645H80.0257V19.0537Z" fill="black"/>
<path d="M80.0257 22.8652H76.2148V26.676H80.0257V22.8652Z" fill="black"/>
<path d="M80.0257 26.6758H76.2148V30.4866H80.0257V26.6758Z" fill="black"/>
<path d="M80.0257 30.4863H76.2148V34.2971H80.0257V30.4863Z" fill="black"/>
<path d="M80.0257 38.1084H76.2148V41.9192H80.0257V38.1084Z" fill="black"/>
<path d="M80.0257 49.54H76.2148V53.3508H80.0257V49.54Z" fill="black"/>
<path d="M80.0257 64.7842H76.2148V68.595H80.0257V64.7842Z" fill="black"/>
<path d="M80.0257 68.5947H76.2148V72.4055H80.0257V68.5947Z" fill="black"/>
<path d="M80.0257 80.0273H76.2148V83.8382H80.0257V80.0273Z" fill="black"/>
<path d="M80.0257 83.8379H76.2148V87.6487H80.0257V83.8379Z" fill="black"/>
<path d="M80.0257 95.2705H76.2148V99.0813H80.0257V95.2705Z" fill="black"/>
<path d="M80.0257 102.892H76.2148V106.702H80.0257V102.892Z" fill="black"/>
<path d="M80.0257 106.702H76.2148V110.513H80.0257V106.702Z" fill="black"/>
<path d="M80.0257 118.135H76.2148V121.946H80.0257V118.135Z" fill="black"/>
<path d="M83.8382 15.2432H80.0273V19.054H83.8382V15.2432Z" fill="black"/>
<path d="M83.8382 19.0537H80.0273V22.8645H83.8382V19.0537Z" fill="black"/>
<path d="M83.8382 22.8652H80.0273V26.676H83.8382V22.8652Z" fill="black"/>
<path d="M83.8382 30.4863H80.0273V34.2971H83.8382V30.4863Z" fill="black"/>
<path d="M83.8382 34.2969H80.0273V38.1077H83.8382V34.2969Z" fill="black"/>
<path d="M83.8382 53.3516H80.0273V57.1624H83.8382V53.3516Z" fill="black"/>
<path d="M83.8382 57.1621H80.0273V60.9729H83.8382V57.1621Z" fill="black"/>
<path d="M83.8382 68.5947H80.0273V72.4055H83.8382V68.5947Z" fill="black"/>
<path d="M83.8382 72.4053H80.0273V76.2161H83.8382V72.4053Z" fill="black"/>
<path d="M83.8382 87.6484H80.0273V91.4592H83.8382V87.6484Z" fill="black"/>
<path d="M83.8382 91.459H80.0273V95.2698H83.8382V91.459Z" fill="black"/>
<path d="M83.8382 95.2705H80.0273V99.0813H83.8382V95.2705Z" fill="black"/>
<path d="M83.8382 110.514H80.0273V114.324H83.8382V110.514Z" fill="black"/>
<path d="M83.8382 114.324H80.0273V118.135H83.8382V114.324Z" fill="black"/>
<path d="M83.8382 118.135H80.0273V121.946H83.8382V118.135Z" fill="black"/>
<path d="M83.8382 121.946H80.0273V125.757H83.8382V121.946Z" fill="black"/>
<path d="M87.6467 19.0537H83.8359V22.8645H87.6467V19.0537Z" fill="black"/>
<path d="M87.6467 30.4863H83.8359V34.2971H87.6467V30.4863Z" fill="black"/>
<path d="M87.6467 38.1084H83.8359V41.9192H87.6467V38.1084Z" fill="black"/>
<path d="M87.6467 49.54H83.8359V53.3508H87.6467V49.54Z" fill="black"/>
<path d="M87.6467 64.7842H83.8359V68.595H87.6467V64.7842Z" fill="black"/>
<path d="M87.6467 72.4053H83.8359V76.2161H87.6467V72.4053Z" fill="black"/>
<path d="M87.6467 76.2158H83.8359V80.0266H87.6467V76.2158Z" fill="black"/>
<path d="M87.6467 83.8379H83.8359V87.6487H87.6467V83.8379Z" fill="black"/>
<path d="M87.6467 87.6484H83.8359V91.4592H87.6467V87.6484Z" fill="black"/>
<path d="M87.6467 95.2705H83.8359V99.0813H87.6467V95.2705Z" fill="black"/>
<path d="M87.6467 99.0811H83.8359V102.892H87.6467V99.0811Z" fill="black"/>
<path d="M87.6467 110.514H83.8359V114.324H87.6467V110.514Z" fill="black"/>
<path d="M91.4592 15.2432H87.6484V19.054H91.4592V15.2432Z" fill="black"/>
<path d="M91.4592 19.0537H87.6484V22.8645H91.4592V19.0537Z" fill="black"/>
<path d="M91.4592 34.2969H87.6484V38.1077H91.4592V34.2969Z" fill="black"/>
<path d="M91.4592 45.7295H87.6484V49.5403H91.4592V45.7295Z" fill="black"/>
<path d="M91.4592 49.54H87.6484V53.3508H91.4592V49.54Z" fill="black"/>
<path d="M91.4592 53.3516H87.6484V57.1624H91.4592V53.3516Z" fill="black"/>
<path d="M91.4592 57.1621H87.6484V60.9729H91.4592V57.1621Z" fill="black"/>
<path d="M91.4592 80.0273H87.6484V83.8382H91.4592V80.0273Z" fill="black"/>
<path d="M91.4592 91.459H87.6484V95.2698H91.4592V91.459Z" fill="black"/>
<path d="M91.4592 99.0811H87.6484V102.892H91.4592V99.0811Z" fill="black"/>
<path d="M91.4592 102.892H87.6484V106.702H91.4592V102.892Z" fill="black"/>
<path d="M91.4592 106.702H87.6484V110.513H91.4592V106.702Z" fill="black"/>
<path d="M91.4592 110.514H87.6484V114.324H91.4592V110.514Z" fill="black"/>
<path d="M95.2678 15.2432H91.457V19.054H95.2678V15.2432Z" fill="black"/>
<path d="M95.2678 26.6758H91.457V30.4866H95.2678V26.6758Z" fill="black"/>
<path d="M95.2678 30.4863H91.457V34.2971H95.2678V30.4863Z" fill="black"/>
<path d="M95.2678 34.2969H91.457V38.1077H95.2678V34.2969Z" fill="black"/>
<path d="M95.2678 38.1084H91.457V41.9192H95.2678V38.1084Z" fill="black"/>
<path d="M95.2678 45.7295H91.457V49.5403H95.2678V45.7295Z" fill="black"/>
<path d="M95.2678 57.1621H91.457V60.9729H95.2678V57.1621Z" fill="black"/>
<path d="M95.2678 60.9727H91.457V64.7835H95.2678V60.9727Z" fill="black"/>
<path d="M95.2678 64.7842H91.457V68.595H95.2678V64.7842Z" fill="black"/>
<path d="M95.2678 68.5947H91.457V72.4055H95.2678V68.5947Z" fill="black"/>
<path d="M95.2678 80.0273H91.457V83.8382H95.2678V80.0273Z" fill="black"/>
<path d="M95.2678 83.8379H91.457V87.6487H95.2678V83.8379Z" fill="black"/>
<path d="M95.2678 91.459H91.457V95.2698H95.2678V91.459Z" fill="black"/>
<path d="M95.2678 95.2705H91.457V99.0813H95.2678V95.2705Z" fill="black"/>
<path d="M95.2678 99.0811H91.457V102.892H95.2678V99.0811Z" fill="black"/>
<path d="M95.2678 102.892H91.457V106.702H95.2678V102.892Z" fill="black"/>
<path d="M95.2678 106.702H91.457V110.513H95.2678V106.702Z" fill="black"/>
<path d="M99.0803 45.7295H95.2695V49.5403H99.0803V45.7295Z" fill="black"/>
<path d="M99.0803 57.1621H95.2695V60.9729H99.0803V57.1621Z" fill="black"/>
<path d="M99.0803 68.5947H95.2695V72.4055H99.0803V68.5947Z" fill="black"/>
<path d="M99.0803 83.8379H95.2695V87.6487H99.0803V83.8379Z" fill="black"/>
<path d="M99.0803 87.6484H95.2695V91.4592H99.0803V87.6484Z" fill="black"/>
<path d="M99.0803 91.459H95.2695V95.2698H99.0803V91.459Z" fill="black"/>
<path d="M99.0803 106.702H95.2695V110.513H99.0803V106.702Z" fill="black"/>
<path d="M99.0803 110.514H95.2695V114.324H99.0803V110.514Z" fill="black"/>
<path d="M99.0803 114.324H95.2695V118.135H99.0803V114.324Z" fill="black"/>
<path d="M102.889 15.2432H99.0781V19.054H102.889V15.2432Z" fill="black"/>
<path d="M102.889 19.0537H99.0781V22.8645H102.889V19.0537Z" fill="black"/>
<path d="M102.889 22.8652H99.0781V26.676H102.889V22.8652Z" fill="black"/>
<path d="M102.889 26.6758H99.0781V30.4866H102.889V26.6758Z" fill="black"/>
<path d="M102.889 30.4863H99.0781V34.2971H102.889V30.4863Z" fill="black"/>
<path d="M102.889 34.2969H99.0781V38.1077H102.889V34.2969Z" fill="black"/>
<path d="M102.889 38.1084H99.0781V41.9192H102.889V38.1084Z" fill="black"/>
<path d="M102.889 49.54H99.0781V53.3508H102.889V49.54Z" fill="black"/>
<path d="M102.889 64.7842H99.0781V68.595H102.889V64.7842Z" fill="black"/>
<path d="M102.889 68.5947H99.0781V72.4055H102.889V68.5947Z" fill="black"/>
<path d="M102.889 72.4053H99.0781V76.2161H102.889V72.4053Z" fill="black"/>
<path d="M102.889 83.8379H99.0781V87.6487H102.889V83.8379Z" fill="black"/>
<path d="M102.889 87.6484H99.0781V91.4592H102.889V87.6484Z" fill="black"/>
<path d="M102.889 91.459H99.0781V95.2698H102.889V91.459Z" fill="black"/>
<path d="M102.889 99.0811H99.0781V102.892H102.889V99.0811Z" fill="black"/>
<path d="M102.889 106.702H99.0781V110.513H102.889V106.702Z" fill="black"/>
<path d="M102.889 121.946H99.0781V125.757H102.889V121.946Z" fill="black"/>
<path d="M106.701 15.2432H102.891V19.054H106.701V15.2432Z" fill="black"/>
<path d="M106.701 38.1084H102.891V41.9192H106.701V38.1084Z" fill="black"/>
<path d="M106.701 45.7295H102.891V49.5403H106.701V45.7295Z" fill="black"/>
<path d="M106.701 49.54H102.891V53.3508H106.701V49.54Z" fill="black"/>
<path d="M106.701 57.1621H102.891V60.9729H106.701V57.1621Z" fill="black"/>
<path d="M106.701 64.7842H102.891V68.595H106.701V64.7842Z" fill="black"/>
<path d="M106.701 76.2158H102.891V80.0266H106.701V76.2158Z" fill="black"/>
<path d="M106.701 80.0273H102.891V83.8382H106.701V80.0273Z" fill="black"/>
<path d="M106.701 87.6484H102.891V91.4592H106.701V87.6484Z" fill="black"/>
<path d="M106.701 91.459H102.891V95.2698H106.701V91.459Z" fill="black"/>
<path d="M106.701 106.702H102.891V110.513H106.701V106.702Z" fill="black"/>
<path d="M110.514 15.2432H106.703V19.054H110.514V15.2432Z" fill="black"/>
<path d="M110.514 22.8652H106.703V26.676H110.514V22.8652Z" fill="black"/>
<path d="M110.514 26.6758H106.703V30.4866H110.514V26.6758Z" fill="black"/>
<path d="M110.514 30.4863H106.703V34.2971H110.514V30.4863Z" fill="black"/>
<path d="M110.514 38.1084H106.703V41.9192H110.514V38.1084Z" fill="black"/>
<path d="M110.514 45.7295H106.703V49.5403H110.514V45.7295Z" fill="black"/>
<path d="M110.514 49.54H106.703V53.3508H110.514V49.54Z" fill="black"/>
<path d="M110.514 53.3516H106.703V57.1624H110.514V53.3516Z" fill="black"/>
<path d="M110.514 64.7842H106.703V68.595H110.514V64.7842Z" fill="black"/>
<path d="M110.514 68.5947H106.703V72.4055H110.514V68.5947Z" fill="black"/>
<path d="M110.514 80.0273H106.703V83.8382H110.514V80.0273Z" fill="black"/>
<path d="M110.514 83.8379H106.703V87.6487H110.514V83.8379Z" fill="black"/>
<path d="M110.514 91.459H106.703V95.2698H110.514V91.459Z" fill="black"/>
<path d="M110.514 95.2705H106.703V99.0813H110.514V95.2705Z" fill="black"/>
<path d="M110.514 99.0811H106.703V102.892H110.514V99.0811Z" fill="black"/>
<path d="M110.514 102.892H106.703V106.702H110.514V102.892Z" fill="black"/>
<path d="M110.514 106.702H106.703V110.513H110.514V106.702Z" fill="black"/>
<path d="M114.323 15.2432H110.512V19.054H114.323V15.2432Z" fill="black"/>
<path d="M114.323 22.8652H110.512V26.676H114.323V22.8652Z" fill="black"/>
<path d="M114.323 26.6758H110.512V30.4866H114.323V26.6758Z" fill="black"/>
<path d="M114.323 30.4863H110.512V34.2971H114.323V30.4863Z" fill="black"/>
<path d="M114.323 38.1084H110.512V41.9192H114.323V38.1084Z" fill="black"/>
<path d="M114.323 53.3516H110.512V57.1624H114.323V53.3516Z" fill="black"/>
<path d="M114.323 57.1621H110.512V60.9729H114.323V57.1621Z" fill="black"/>
<path d="M114.323 68.5947H110.512V72.4055H114.323V68.5947Z" fill="black"/>
<path d="M114.323 72.4053H110.512V76.2161H114.323V72.4053Z" fill="black"/>
<path d="M114.323 80.0273H110.512V83.8382H114.323V80.0273Z" fill="black"/>
<path d="M114.323 87.6484H110.512V91.4592H114.323V87.6484Z" fill="black"/>
<path d="M114.323 91.459H110.512V95.2698H114.323V91.459Z" fill="black"/>
<path d="M114.323 95.2705H110.512V99.0813H114.323V95.2705Z" fill="black"/>
<path d="M114.323 99.0811H110.512V102.892H114.323V99.0811Z" fill="black"/>
<path d="M114.323 102.892H110.512V106.702H114.323V102.892Z" fill="black"/>
<path d="M114.323 106.702H110.512V110.513H114.323V106.702Z" fill="black"/>
<path d="M114.323 114.324H110.512V118.135H114.323V114.324Z" fill="black"/>
<path d="M114.323 118.135H110.512V121.946H114.323V118.135Z" fill="black"/>
<path d="M118.135 15.2432H114.324V19.054H118.135V15.2432Z" fill="black"/>
<path d="M118.135 22.8652H114.324V26.676H118.135V22.8652Z" fill="black"/>
<path d="M118.135 26.6758H114.324V30.4866H118.135V26.6758Z" fill="black"/>
<path d="M118.135 30.4863H114.324V34.2971H118.135V30.4863Z" fill="black"/>
<path d="M118.135 38.1084H114.324V41.9192H118.135V38.1084Z" fill="black"/>
<path d="M118.135 45.7295H114.324V49.5403H118.135V45.7295Z" fill="black"/>
<path d="M118.135 49.54H114.324V53.3508H118.135V49.54Z" fill="black"/>
<path d="M118.135 64.7842H114.324V68.595H118.135V64.7842Z" fill="black"/>
<path d="M118.135 80.0273H114.324V83.8382H118.135V80.0273Z" fill="black"/>
<path d="M118.135 83.8379H114.324V87.6487H118.135V83.8379Z" fill="black"/>
<path d="M118.135 91.459H114.324V95.2698H118.135V91.459Z" fill="black"/>
<path d="M118.135 95.2705H114.324V99.0813H118.135V95.2705Z" fill="black"/>
<path d="M118.135 99.0811H114.324V102.892H118.135V99.0811Z" fill="black"/>
<path d="M118.135 110.514H114.324V114.324H118.135V110.514Z" fill="black"/>
<path d="M121.944 15.2432H118.133V19.054H121.944V15.2432Z" fill="black"/>
<path d="M121.944 38.1084H118.133V41.9192H121.944V38.1084Z" fill="black"/>
<path d="M121.944 57.1621H118.133V60.9729H121.944V57.1621Z" fill="black"/>
<path d="M121.944 60.9727H118.133V64.7835H121.944V60.9727Z" fill="black"/>
<path d="M121.944 76.2158H118.133V80.0266H121.944V76.2158Z" fill="black"/>
<path d="M121.944 91.459H118.133V95.2698H121.944V91.459Z" fill="black"/>
<path d="M121.944 102.892H118.133V106.702H121.944V102.892Z" fill="black"/>
<path d="M121.944 106.702H118.133V110.513H121.944V106.702Z" fill="black"/>
<path d="M121.944 110.514H118.133V114.324H121.944V110.514Z" fill="black"/>
<path d="M121.944 114.324H118.133V118.135H121.944V114.324Z" fill="black"/>
<path d="M121.944 118.135H118.133V121.946H121.944V118.135Z" fill="black"/>
<path d="M121.944 121.946H118.133V125.757H121.944V121.946Z" fill="black"/>
<path d="M125.756 15.2432H121.945V19.054H125.756V15.2432Z" fill="black"/>
<path d="M125.756 19.0537H121.945V22.8645H125.756V19.0537Z" fill="black"/>
<path d="M125.756 22.8652H121.945V26.676H125.756V22.8652Z" fill="black"/>
<path d="M125.756 26.6758H121.945V30.4866H125.756V26.6758Z" fill="black"/>
<path d="M125.756 30.4863H121.945V34.2971H125.756V30.4863Z" fill="black"/>
<path d="M125.756 34.2969H121.945V38.1077H125.756V34.2969Z" fill="black"/>
<path d="M125.756 38.1084H121.945V41.9192H125.756V38.1084Z" fill="black"/>
<path d="M125.756 49.54H121.945V53.3508H125.756V49.54Z" fill="black"/>
<path d="M125.756 53.3516H121.945V57.1624H125.756V53.3516Z" fill="black"/>
<path d="M125.756 57.1621H121.945V60.9729H125.756V57.1621Z" fill="black"/>
<path d="M125.756 64.7842H121.945V68.595H125.756V64.7842Z" fill="black"/>
<path d="M125.756 68.5947H121.945V72.4055H125.756V68.5947Z" fill="black"/>
<path d="M125.756 72.4053H121.945V76.2161H125.756V72.4053Z" fill="black"/>
<path d="M125.756 83.8379H121.945V87.6487H125.756V83.8379Z" fill="black"/>
<path d="M125.756 95.2705H121.945V99.0813H125.756V95.2705Z" fill="black"/>
<path d="M125.756 99.0811H121.945V102.892H125.756V99.0811Z" fill="black"/>
<path d="M125.756 102.892H121.945V106.702H125.756V102.892Z" fill="black"/>
<path d="M125.756 114.324H121.945V118.135H125.756V114.324Z" fill="black"/>
<path d="M125.756 118.135H121.945V121.946H125.756V118.135Z" fill="black"/>
</svg>
