<svg width="20" height="20" viewBox="0 0 20 20" fill="none" xmlns="http://www.w3.org/2000/svg">
<path fill-rule="evenodd" clip-rule="evenodd" d="M3.34326 0.835796C3.3448 0.490622 3.06622 0.209554 2.72105 0.208014C2.37588 0.206474 2.09481 0.485045 2.09327 0.83022L2.08572 2.52108C2.0829 3.15015 2.08054 3.6748 2.12661 4.09663C2.17493 4.53907 2.28292 4.94685 2.55706 5.30108C2.61641 5.37777 2.68054 5.45052 2.74903 5.51889C2.81665 5.5864 2.88852 5.64966 2.96423 5.70825C3.31847 5.98239 3.72624 6.09039 4.16869 6.1387C4.59051 6.18477 5.11515 6.18241 5.74421 6.17959L7.4351 6.17205C7.78027 6.17051 8.05884 5.88944 8.0573 5.54426C8.05576 5.19909 7.77469 4.92052 7.42952 4.92206L5.77476 4.92944C5.10024 4.93245 4.64717 4.93353 4.30439 4.89609C4.27861 4.89328 4.25394 4.89028 4.23032 4.88712C5.64332 3.29392 7.70393 2.29134 9.99935 2.29134C14.2565 2.29134 17.7077 5.74248 17.7077 9.99967C17.7077 10.3449 17.9875 10.6247 18.3327 10.6247C18.6779 10.6247 18.9577 10.3449 18.9577 9.99967C18.9577 5.05212 14.9469 1.04134 9.99935 1.04134C7.37205 1.04134 5.00846 2.17307 3.37064 3.97365L3.36922 3.96093C3.33179 3.61815 3.33286 3.16507 3.33587 2.49056L3.34326 0.835796Z" fill="#98A2B3"/>
<path d="M2.29102 9.99967C2.29102 9.6545 2.01119 9.37467 1.66602 9.37467C1.32084 9.37467 1.04102 9.6545 1.04102 9.99967C1.04102 14.9472 5.0518 18.958 9.99935 18.958C12.5974 18.958 14.9377 17.8513 16.5732 16.0855C16.5996 16.4138 16.5985 16.8395 16.5958 17.4418L16.5884 19.0965C16.5869 19.4417 16.8654 19.7228 17.2106 19.7243C17.5558 19.7259 17.8369 19.4473 17.8384 19.1021L17.8459 17.4113C17.8488 16.7822 17.8511 16.2575 17.8051 15.8357C17.7567 15.3933 17.6487 14.9855 17.3746 14.6313C17.3231 14.5648 17.2681 14.5012 17.2097 14.441C17.1343 14.3631 17.0533 14.2906 16.9674 14.2241C16.6132 13.9499 16.2054 13.842 15.763 13.7936C15.3412 13.7476 14.8165 13.7499 14.1875 13.7527L12.4966 13.7603C12.1514 13.7618 11.8728 14.0429 11.8744 14.3881C11.8759 14.7332 12.157 15.0118 12.5021 15.0103L14.1569 15.0029C14.8314 14.9999 15.2845 14.9988 15.6273 15.0362C15.6965 15.0438 15.7576 15.0526 15.812 15.0626C14.398 16.6846 12.3185 17.708 9.99935 17.708C5.74215 17.708 2.29102 14.2569 2.29102 9.99967Z" fill="#98A2B3"/>
</svg>
