<svg width="24" height="24" viewBox="0 0 24 24" fill="none" xmlns="http://www.w3.org/2000/svg">
<g clip-path="url(#clip0_235_26912)">
<path d="M17.994 15.3658C17.9391 16.9547 17.5424 18.513 16.831 19.9348C16.1755 21.1744 15.1913 22.2095 13.9863 22.9265C12.7814 23.6436 11.4021 24.0149 10 23.9998H9.00002V18.4998C8.99555 17.5729 8.62536 16.6853 7.96995 16.0298C7.31454 15.3744 6.4269 15.0043 5.50002 14.9998H1.75834e-05V13.9998C-0.0151207 12.5977 0.356212 11.2185 1.07328 10.0135C1.79035 8.80847 2.82544 7.82425 4.06502 7.16879C5.48678 6.45738 7.04515 6.06071 8.63402 6.00579C10.0909 4.12402 11.9618 2.60332 14.1015 1.56171C16.2413 0.520112 18.5923 -0.0143612 20.972 -0.000214605C21.368 -0.00271682 21.7606 0.0729683 22.1273 0.222501C22.4939 0.372034 22.8275 0.592474 23.1088 0.871181C23.3901 1.14989 23.6136 1.48138 23.7666 1.84665C23.9195 2.21193 23.9988 2.60379 24 2.99979C24.017 5.384 23.4839 7.74001 22.4422 9.88471C21.4006 12.0294 19.8784 13.905 17.994 15.3658ZM2.08402 12.9998H4.34602C5.08866 11.3458 5.96105 9.75313 6.95502 8.23679C6.26463 8.3974 5.59565 8.63908 4.96202 8.95679C4.19996 9.3592 3.54272 9.93448 3.04295 10.6366C2.54318 11.3386 2.21477 12.148 2.08402 12.9998ZM15.763 17.0448C14.2467 18.0388 12.654 18.9111 11 19.6538V21.9158C11.8518 21.785 12.6612 21.4566 13.3633 20.9569C14.0653 20.4571 14.6406 19.7998 15.043 19.0378C15.3607 18.4041 15.6024 17.7352 15.763 17.0448ZM22 2.97179C21.9927 2.71145 21.8842 2.46423 21.6974 2.28271C21.5107 2.10119 21.2605 1.99968 21 1.99979C15.84 2.14679 12.35 4.12379 8.98202 8.82178C8.04216 10.175 7.21569 11.6035 6.51102 13.0928C7.60294 13.2961 8.6077 13.8253 9.39308 14.6107C10.1785 15.3961 10.7077 16.4009 10.911 17.4928C12.4003 16.7881 13.8288 15.9616 15.182 15.0218C19.876 11.6498 21.853 8.15979 22 2.97179ZM6.12202 17.8788C6.68079 18.4433 6.99422 19.2055 6.99422 19.9998C6.99422 20.7941 6.68079 21.5563 6.12202 22.1208C5.21502 23.0268 2.50002 23.5858 1.37402 23.7848L-0.0319824 24.0318L0.215018 22.6258C0.415018 21.4998 0.973018 18.7848 1.87902 17.8778C2.45077 17.3324 3.2106 17.0283 4.00072 17.0285C4.79084 17.0287 5.55053 17.3332 6.12202 17.8788ZM5.00002 19.9998C5.00037 19.8684 4.97466 19.7383 4.92437 19.6169C4.87407 19.4956 4.80019 19.3854 4.70702 19.2928C4.51949 19.1053 4.26518 19 4.00002 19C3.73485 19 3.48055 19.1053 3.29302 19.2928C2.91176 19.981 2.64399 20.7263 2.50002 21.4998C3.27382 21.3552 4.01934 21.0871 4.70802 20.7058C4.80089 20.6132 4.87452 20.5032 4.92463 20.382C4.97475 20.2608 5.00037 20.1309 5.00002 19.9998Z" fill="#344054"/>
</g>
<defs>
<clipPath id="clip0_235_26912">
<rect width="24" height="24" fill="white"/>
</clipPath>
</defs>
</svg>
