<svg width="20" height="20" viewBox="0 0 20 20" fill="none" xmlns="http://www.w3.org/2000/svg">
<path fill-rule="evenodd" clip-rule="evenodd" d="M12.561 4.33879C11.1176 3.5158 9.99648 2.87653 9.08593 2.46181C8.17196 2.04555 7.3786 1.81047 6.60717 1.89055C5.38282 2.01763 4.26823 2.65202 3.54187 3.63934C3.08308 4.26297 2.89205 5.0634 2.79999 6.05435C2.70831 7.04133 2.70831 8.32054 2.70831 9.9657V10.0343C2.70831 11.6794 2.70831 12.9586 2.79999 13.9456C2.89205 14.9366 3.08308 15.737 3.54187 16.3606C4.26823 17.3479 5.38282 17.9823 6.60717 18.1094C7.3786 18.1895 8.17196 17.9544 9.08592 17.5381C9.99647 17.1234 11.1176 16.4842 12.561 15.6612L12.6196 15.6278C14.0629 14.8049 15.1841 14.1656 16.0031 13.5941C16.8245 13.021 17.43 12.4585 17.7474 11.7544C18.2508 10.6378 18.2508 9.36217 17.7474 8.24561C17.43 7.54141 16.8245 6.97897 16.0031 6.40586C15.1841 5.83438 14.0629 5.1951 12.6196 4.37217L12.561 4.33879ZM6.73622 3.13387C7.16947 3.08889 7.71251 3.20983 8.56782 3.59938C9.4204 3.98769 10.4924 4.59821 11.9711 5.44134C13.4499 6.2845 14.5212 6.89604 15.2879 7.43099C16.0577 7.96817 16.4327 8.37069 16.6079 8.75935C16.964 9.54925 16.964 10.4507 16.6079 11.2406C16.4327 11.6293 16.0577 12.0318 15.2879 12.569C14.5212 13.1039 13.4499 13.7155 11.9711 14.5586C10.4924 15.4018 9.4204 16.0123 8.56782 16.4006C7.71251 16.7901 7.16947 16.9111 6.73622 16.8661C5.85901 16.775 5.06447 16.3209 4.54875 15.6199C4.29555 15.2757 4.13058 14.7552 4.04463 13.83C3.95896 12.9077 3.95831 11.6866 3.95831 9.99998C3.95831 8.31335 3.95896 7.09225 4.04463 6.16997C4.13058 5.24481 4.29555 4.72425 4.54875 4.38008C5.06447 3.67908 5.85901 3.22492 6.73622 3.13387Z" fill="#98A2B3" stroke="#98A2B3" stroke-width="0.4"/>
</svg>
