<svg width="20" height="20" viewBox="0 0 20 20" fill="none" xmlns="http://www.w3.org/2000/svg">
<path d="M3.13076e-05 9.98827C-0.00847387 12.1253 1.71702 13.8645 3.85405 13.873C4.83823 13.8769 5.78694 13.5057 6.50704 12.8348L12.2733 15.4383C12.2332 15.6538 12.2112 15.8724 12.2075 16.0916C12.2007 18.2434 13.9395 19.9932 16.0912 20C18.243 20.0068 19.9928 18.268 19.9996 16.1163C20.0064 13.9646 18.2676 12.2148 16.1159 12.2079C14.8303 12.2039 13.6255 12.8342 12.8959 13.8927L7.47834 11.4465C7.86314 10.5173 7.86463 9.47363 7.48252 8.54337L12.8926 6.08471C14.1108 7.84664 16.5267 8.28735 18.2886 7.06912C20.0506 5.85089 20.4912 3.43503 19.273 1.6731C18.0548 -0.0888417 15.6389 -0.52955 13.8769 0.68868C12.8276 1.41419 12.2022 2.60925 12.2042 3.88495C12.2077 4.10452 12.23 4.32335 12.2708 4.53914L6.51952 7.15257C4.96132 5.68941 2.51202 5.76646 1.04886 7.32467C0.371684 8.04589 -0.00363606 8.99898 3.13076e-05 9.98827Z" fill="#98A2B3"/>
</svg>
