<svg width="32" height="32" viewBox="0 0 32 32" fill="none" xmlns="http://www.w3.org/2000/svg">
<path d="M6.6665 21C6.11422 21 5.6665 20.5523 5.6665 20C5.6665 19.4477 6.11422 19 6.6665 19L25.3332 19C25.8855 19 26.3332 19.4477 26.3332 20C26.3332 20.5523 25.8855 21 25.3332 21L6.6665 21Z" fill="#98A2B3"/>
<path d="M6.6665 13C6.11422 13 5.6665 12.5523 5.6665 12C5.6665 11.4477 6.11422 11 6.6665 11L25.3332 11C25.8855 11 26.3332 11.4477 26.3332 12C26.3332 12.5523 25.8855 13 25.3332 13L6.6665 13Z" fill="#98A2B3"/>
</svg>
