<svg width="16" height="16" viewBox="0 0 16 16" fill="none" xmlns="http://www.w3.org/2000/svg">
<g clip-path="url(#clip0_1159_85278)">
<path d="M11.7055 6.33368C11.8897 6.12794 11.8723 5.81184 11.6665 5.62765C11.4608 5.44345 11.1447 5.46091 10.9605 5.66665L8.71438 8.17544C8.25924 8.68379 7.95274 9.02435 7.69069 9.2446C7.44105 9.45442 7.29443 9.50016 7.16634 9.50016C7.03826 9.50016 6.89163 9.45442 6.64199 9.2446C6.37994 9.02434 6.07344 8.68379 5.6183 8.17543L5.03886 7.52822C4.85466 7.32249 4.53856 7.30503 4.33283 7.48922C4.12709 7.67342 4.10963 7.98952 4.29382 8.19525L4.89802 8.8701C5.32192 9.34361 5.6755 9.73857 5.99858 10.0101C6.34033 10.2974 6.70896 10.5002 7.16634 10.5002C7.62372 10.5002 7.99235 10.2974 8.33411 10.0101C8.65717 9.73858 9.01074 9.34363 9.43464 8.87014L11.7055 6.33368Z" fill="#475467"/>
<path fill-rule="evenodd" clip-rule="evenodd" d="M7.99967 0.833496C4.04163 0.833496 0.833008 4.04212 0.833008 8.00016C0.833008 11.9582 4.04163 15.1668 7.99967 15.1668C11.9577 15.1668 15.1663 11.9582 15.1663 8.00016C15.1663 4.04212 11.9577 0.833496 7.99967 0.833496ZM1.83301 8.00016C1.83301 4.59441 4.59392 1.8335 7.99967 1.8335C11.4054 1.8335 14.1663 4.59441 14.1663 8.00016C14.1663 11.4059 11.4054 14.1668 7.99967 14.1668C4.59392 14.1668 1.83301 11.4059 1.83301 8.00016Z" fill="#475467"/>
</g>
<defs>
<clipPath id="clip0_1159_85278">
<rect width="16" height="16" fill="white"/>
</clipPath>
</defs>
</svg>
