<svg xmlns="http://www.w3.org/2000/svg" xmlns:xlink="http://www.w3.org/1999/xlink" viewBox="0 0 400 400"><defs><style>.a,.h,.i{fill:none;}.b{isolation:isolate;}.c{fill:#f39200;}.d,.r{fill:#fff;}.e{fill:#c4af99;}.f{fill:#3a9dc5;}.g{clip-path:url(#a);}.h,.i{stroke:#000;stroke-linecap:round;stroke-miterlimit:10;}.h{stroke-width:1.5px;}.i{stroke-width:0.5px;}.j{fill:url(#d);}.k{fill:#ebf2f6;}.l{fill:url(#e);}.m,.q{opacity:0.3;}.m{mix-blend-mode:multiply;fill:url(#f);}.n{fill:url(#g);}.o{fill:#c5ccd0;}.p{fill:url(#h);}.q{mix-blend-mode:screen;fill:url(#i);}.r{fill-rule:evenodd;}.s{fill:url(#j);}.t{clip-path:url(#k);}.u{clip-path:url(#l);}.v{clip-path:url(#m);}.w{clip-path:url(#o);}.x{clip-path:url(#p);}</style><clipPath id="a"><rect class="a" x="-20.03" y="144.77" width="432" height="207.3"/></clipPath><linearGradient id="d" x1="-8075.24" y1="194.32" x2="-8072.38" y2="194.32" gradientTransform="matrix(-1, 0, 0, 1, -7720.47, 0)" gradientUnits="userSpaceOnUse"><stop offset="0" stop-color="#9a9fa1"/><stop offset="0.2" stop-color="#c3c9cc"/><stop offset="1" stop-color="#dee5e9"/></linearGradient><linearGradient id="e" x1="-8074.66" y1="151.15" x2="-8072.96" y2="151.15" xlink:href="#d"/><linearGradient id="f" x1="-8073.81" y1="135.75" x2="-8073.81" y2="126.64" gradientTransform="matrix(-1, 0, 0, 1, -7720.47, 0)" gradientUnits="userSpaceOnUse"><stop offset="0" stop-color="#fff"/><stop offset="1"/></linearGradient><linearGradient id="g" x1="-8666.67" y1="2310.92" x2="-8666.67" y2="2337.14" gradientTransform="matrix(-0.87, 0.5, 0, 1, -7150.89, 2126.01)" gradientUnits="userSpaceOnUse"><stop offset="0" stop-color="#ebf2f6"/><stop offset="1" stop-color="#dee5e9"/></linearGradient><linearGradient id="h" x1="-8666.67" y1="2311.61" x2="-8666.67" y2="2336.89" gradientTransform="matrix(-0.87, 0.5, 0, 1, -7150.89, 2126.01)" gradientUnits="userSpaceOnUse"><stop offset="0" stop-color="#1861b8"/><stop offset="1" stop-color="#0f55a8"/></linearGradient><linearGradient id="i" x1="-8091.89" y1="90.16" x2="-8066.53" y2="122.67" xlink:href="#f"/><linearGradient id="j" x1="355.79" y1="115.24" x2="358.12" y2="115.24" gradientTransform="matrix(1, 0, 0, 1, 0, 0)" xlink:href="#h"/><clipPath id="k"><circle class="a" cx="-331.71" cy="98.24" r="69.74"/></clipPath><clipPath id="l"><circle class="a" cx="100.56" cy="98.24" r="69.74"/></clipPath><clipPath id="m"><rect class="a" x="-586.52" y="-70.55" width="1027.03" height="492.83"/></clipPath><clipPath id="o"><circle class="a" cx="535.15" cy="107.35" r="78.85"/></clipPath><clipPath id="p"><rect class="a" x="192.57" y="-56.26" width="684.69" height="328.56"/></clipPath></defs><g class="b"><path class="c" d="M369.66,204.46v4l-11.54,6.66v-4Zm0,0"/><path class="c" d="M134.94,344l-11.6,6.7v-4.06l11.6-6.7Zm0,0"/><path class="d" d="M369.66,204.46l-11.54,6.66-88.74-.51L134.06,288.73l.07,4,.81,47.22-11.6,6.7-3.52-2,10-5.77-.88-51.24,138.41-79.9,88.74.5,10.06-5.8Zm0,0"/><path class="e" d="M129.81,338.87l-10,5.77L22.29,288.33,268.61,146.11l97.53,56.32-10.06,5.8-88.74-.5-138.41,79.9Zm0,0"/><path class="f" d="M134.94,344V340l-.81-47.22,135.25-78.08,88.74.5Zm0,0"/><path class="c" d="M269.38,210.61l88.74.51v4l-88.74-.5Zm0,0"/><path class="c" d="M269.38,210.61v4.06L134.13,292.75l-.07-4Zm0,0"/><g class="g"><path class="h" d="M369.66,204.46v4M123.34,350.73l11.6-6.7"/></g><path class="i" d="M369.66,204.46l-11.54,6.66M119.82,344.64l10-5.77M366.14,202.43l-10.06,5.8"/><line class="h" x1="134.94" y1="339.97" x2="134.94" y2="344.03"/><path class="i" d="M358.12,211.12l-88.74-.51m88.74.51v4m0,0-88.74-.5m0-4.06v4.06"/><g class="g"><path class="h" d="M123.34,346.67l-3.52-2m3.52,2v4.06"/></g><path class="i" d="M123.34,346.67l11.6-6.7m-.88-51.24,135.32-78.12"/><path class="h" d="M134.94,344,358.12,215.17m11.54-6.66-11.54,6.66"/><g class="g"><line class="i" x1="128.93" y1="287.63" x2="129.81" y2="338.87"/><path class="h" d="M366.14,202.43l-97.53-56.32M119.82,344.64,22.29,288.33M268.61,146.11,22.29,288.33"/></g><line class="i" x1="356.08" y1="208.23" x2="267.34" y2="207.73"/><path class="h" d="M369.66,204.46l-3.52-2M134.94,340l-.81-47.22m0,0-.07-4"/><path class="i" d="M269.38,214.67,134.13,292.75m-5.2-5.12,138.41-79.9"/><path class="j" d="M352.33,184.16a2.25,2.25,0,0,1,2,0,.73.73,0,0,1,.42.59v19.14a.71.71,0,0,1-.42.58,2.25,2.25,0,0,1-2,0,.71.71,0,0,1-.42-.58V184.75A.73.73,0,0,1,352.33,184.16Z"/><path class="k" d="M352.33,184.16c-.56.33-.56.85,0,1.17a2.25,2.25,0,0,0,2,0c.56-.32.56-.84,0-1.17A2.25,2.25,0,0,0,352.33,184.16Z"/><path class="l" d="M352.74,117.3a1.28,1.28,0,0,1,1.2,0,.43.43,0,0,1,.25.34v67a.43.43,0,0,1-.25.34,1.27,1.27,0,0,1-1.2,0,.41.41,0,0,1-.25-.34v-67A.41.41,0,0,1,352.74,117.3Z"/><rect class="m" x="352.49" y="126.63" width="1.7" height="9.12"/><path class="n" d="M342.85,135.87c0,.61.44.86,1,.56l21.25-12.27a2.13,2.13,0,0,0,1-1.68V97.94c0-.61-.44-.86-1-.56l-21.25,12.27a2.17,2.17,0,0,0-1,1.68Z"/><path class="o" d="M343.3,109.4l21.25-12.27a.69.69,0,0,1,.68-.07l.5.24h0a.74.74,0,0,0-.66.08l-21.25,12.27a2.17,2.17,0,0,0-1,1.68v24.54a.69.69,0,0,0,.28.62h0l-.49-.24a.65.65,0,0,1-.31-.63V111.07A2.16,2.16,0,0,1,343.3,109.4Z"/><path class="p" d="M365.07,123.43a.73.73,0,0,0,.34-.58V98.3c0-.21-.15-.3-.34-.19l-21.25,12.27a.77.77,0,0,0-.34.59v24.54a.21.21,0,0,0,.34.19Z"/><path class="q" d="M342.85,119.82v-8.49a2.17,2.17,0,0,1,1-1.68l21.25-12.27c.53-.3,1,0,1,.56v15.19A62.74,62.74,0,0,0,342.85,119.82Z"/><path class="d" d="M364,113.12l-1.11.13-.62-.7v0c0-.26,0-.44-.2-.51a1.82,1.82,0,0,0,.62-1.07.58.58,0,0,0-.13-.54.37.37,0,0,0-.27-.11.74.74,0,0,0-.34.06,1.89,1.89,0,0,0-1,1.33c-.05.36.08.59.32.65a1.51,1.51,0,0,0-.43.79h0l-1.26,1.55-.22,1.59a.35.35,0,0,0,0,.18.2.2,0,0,0,.26.11h0l.06,0a.83.83,0,0,0,.46-.6l.18-1.21.34-.42-.28,2a.5.5,0,0,0,.1.44l-.05.2-1,3.52a.44.44,0,0,0,0,.4.24.24,0,0,0,.23.09h.06l.18-.07a1.17,1.17,0,0,0,.5-.65l.89-3.05.63.39.35,1.52c.05.23.27.27.52.13l.11-.07a1,1,0,0,0,.41-.87l-.4-1.75-1.12-.71,0-.12.25-1.72.24.28,1.34-.16h0a.81.81,0,0,0,.51-.5C364.29,113.28,364.2,113.1,364,113.12Z"/><path class="r" d="M348.61,119c-.11.09-.32.18-.44.26,1.65-.94,4.37-2.37,6-3.46l-.42.24c-.17-.27-.42-1.35-.56-1.45l-.06,0c-.11-.06-.37.13-.55.24-.84.48-1.72,1-2.56,1.47-.2.12-.42.26-.63.37s-.29.5-.36.66,0,0,0,.15-.08.37-.13.56l0,.12-.22.88Z"/><path class="r" d="M346.13,121.89a1.88,1.88,0,0,0-.69.65c-.47.94.71.17,1,0a14.41,14.41,0,0,0-1.08,1.86c-.06.26-.06,2.07-.06,2.46,0,.57-.14,2,.35,1.87a6.55,6.55,0,0,0,1.1-.62c.4-.32.31-.64.33-1.09,1.43-.92,6.68-4,8.09-4.67,0,.4-.06.81.29.72a5.57,5.57,0,0,0,1.14-.67c.61-.57.3-2.6.31-3.37,0-1.33,0-1.68-1.09-1.9.35-.22,1.4-.7,1.07-1.17-.11-.15-.75,0-1,.39-.48.84-.43.21-.87-.17-.51-.73-.64-.64-2.24.3-.53.28-1.1.59-1.63.9s-2.66,1.6-3.12,2a6.71,6.71,0,0,0-1.24,2.29c-.32.82-.26,0-.71.26Zm.71.33c1.35-.76,2.88-1.84,4.3-2.65s2.92-1.54,4.36-2.35l-.78-1.06c-.14-.15-.14-.24-.45-.11a55.73,55.73,0,0,0-6.14,3.54c-.43.3-.43.47-.76,1.26a11.67,11.67,0,0,0-.53,1.37Zm2.12,1.83c0,.39.33.53.72.3l3-1.72a1.52,1.52,0,0,0,.72-1.13V121c0-.4-.33-.53-.72-.31l-3,1.72a1.52,1.52,0,0,0-.72,1.14Zm-.92.53a1.92,1.92,0,0,0,.4-.66,8.36,8.36,0,0,0-2.6,1.23c-.23,1.47,1.74-.08,2.2-.57Zm5.86-3.81a.41.41,0,0,0,.39.2c.47,0,2.44-.77,2.21-2a10.85,10.85,0,0,0-2.6,1.78Z"/><polygon class="d" points="355.62 116.38 356.39 114.6 358.31 113.5 358.31 120.09 357.22 120.72 357.13 117.86 357.08 117.55 356.97 117.32 356.75 117.13 356.58 117.05 356.41 116.94 356.84 116.67 357.02 116.44 357.14 116.19 357.18 115.95 357.02 115.76 356.74 115.7 356.42 115.82 356.08 116.01 355.62 116.38"/><polygon class="s" points="355.99 115.9 356.52 114.69 358.12 113.76 358.12 115.93 357.15 116.49 356.74 116.73 357.05 116.28 357.02 115.98 356.9 115.81 356.62 115.86 356.25 116.02 355.79 116.34 355.99 115.9"/><g class="u"><path class="c" d="M339.91,71.34V81L312.49,96.83V87.18Zm0,0"/><path class="d" d="M339.91,71.34,312.49,87.18,101.5,86-220.2,271.71l.16,9.55,1.93,112.26-27.58,15.92-8.35-4.83,23.74-13.7-2.09-121.82,329-190,211,1.21,23.91-13.81Zm0,0"/><path class="e" d="M-230.3,390.91-254,404.61-485.92,270.74,99.68-67.35,331.55,66.52,307.64,80.33l-211-1.21-329,190Zm0,0"/><path class="f" d="M-218.11,403.17v-9.65L-220,281.26,101.5,95.62l211,1.21Zm0,0"/><path class="c" d="M101.5,86l211,1.21v9.65l-211-1.21Zm0,0"/><path class="c" d="M101.5,86v9.65L-220,281.26l-.16-9.55Zm0,0"/><g class="v"><path class="h" d="M339.91,71.34V81m-585.6,338.1,27.58-15.92"/></g><path class="i" d="M339.91,71.34,312.49,87.18M-254,404.61l23.74-13.7M331.55,66.52,307.64,80.33"/><path class="i" d="M312.49,87.18,101.5,86m211,1.21v9.65m0,0-211-1.21m0-9.65v9.65"/><path class="i" d="M-245.69,409.44l27.58-15.92m-2.09-121.81L101.5,86"/><path class="h" d="M-218.11,403.17,312.49,96.83M339.91,81,312.49,96.83"/><g class="v"><path class="h" d="M331.55,66.52,99.68-67.35M-254,404.61-485.92,270.74M99.68-67.35l-585.6,338.09"/></g><line class="i" x1="307.64" y1="80.33" x2="96.65" y2="79.12"/><path class="h" d="M339.91,71.34l-8.36-4.82m-549.66,327L-220,281.26m0,0-.16-9.55"/><path class="i" d="M101.5,95.62-220,281.26m-12.35-12.17,329-190"/></g><g class="w"><path class="e" d="M788.67,44.32,648,43.52,594,74.68l-69.63-8L468.7,98.8,482.63,139l-54,31.16,1.4,81.21-15.83,9.14L259.63,171.27,650-54.13,804.62,35.12Zm0,0"/><g class="x"><path class="h" d="M650-54.13l-390.4,225.4M810.19,38.34l-5.57-3.22"/></g><g class="x"><path class="h" d="M414.22,260.52,259.63,171.27m160.16,98.89,18.38-10.61m-18.38,4.18v6.43M810.19,44.77,791.9,55.32m18.29-17v6.43"/></g></g></g></svg>