<svg xmlns="http://www.w3.org/2000/svg" xmlns:xlink="http://www.w3.org/1999/xlink" viewBox="0 0 400 400"><defs><style>.a,.e,.f{fill:none;}.b{isolation:isolate;}.c{fill:#c4af99;}.d{fill:#3a9dc5;}.e,.f{stroke:#000;stroke-linecap:round;stroke-miterlimit:10;}.e{stroke-width:1.5px;}.f{stroke-width:0.5px;}.g{clip-path:url(#a);}.h{fill:url(#b);}.i{fill:#ebf2f6;}.j{fill:url(#c);}.k,.o{opacity:0.3;}.k{mix-blend-mode:multiply;fill:url(#d);}.l{fill:url(#e);}.m{fill:#c5ccd0;}.n{fill:url(#f);}.o{mix-blend-mode:screen;fill:url(#g);}.p,.q{fill:#fff;}.q{fill-rule:evenodd;}.r{fill:url(#h);}.s{clip-path:url(#i);}.t{clip-path:url(#j);}.u{clip-path:url(#k);}.v{fill:#f39200;}.w{clip-path:url(#l);}</style><clipPath id="a"><rect class="a" x="-23.65" y="143.02" width="432" height="207.3"/></clipPath><linearGradient id="b" x1="-7235.24" y1="194.32" x2="-7232.38" y2="194.32" gradientTransform="matrix(-1, 0, 0, 1, -6880.47, 0)" gradientUnits="userSpaceOnUse"><stop offset="0" stop-color="#9a9fa1"/><stop offset="0.2" stop-color="#c3c9cc"/><stop offset="1" stop-color="#dee5e9"/></linearGradient><linearGradient id="c" x1="-7234.66" y1="151.15" x2="-7232.96" y2="151.15" xlink:href="#b"/><linearGradient id="d" x1="-7233.81" y1="135.75" x2="-7233.81" y2="126.64" gradientTransform="matrix(-1, 0, 0, 1, -6880.47, 0)" gradientUnits="userSpaceOnUse"><stop offset="0" stop-color="#fff"/><stop offset="1"/></linearGradient><linearGradient id="e" x1="-7761.68" y1="2068.42" x2="-7761.68" y2="2094.65" gradientTransform="matrix(-0.87, 0.5, 0, 1, -6367.17, 1916.01)" gradientUnits="userSpaceOnUse"><stop offset="0" stop-color="#ebf2f6"/><stop offset="1" stop-color="#dee5e9"/></linearGradient><linearGradient id="f" x1="-7761.68" y1="2069.11" x2="-7761.68" y2="2094.4" gradientTransform="matrix(-0.87, 0.5, 0, 1, -6367.17, 1916.01)" gradientUnits="userSpaceOnUse"><stop offset="0" stop-color="#1861b8"/><stop offset="1" stop-color="#0f55a8"/></linearGradient><linearGradient id="g" x1="-7251.89" y1="90.16" x2="-7226.53" y2="122.67" xlink:href="#d"/><linearGradient id="h" x1="355.79" y1="115.24" x2="358.12" y2="115.24" gradientTransform="matrix(1, 0, 0, 1, 0, 0)" xlink:href="#f"/><clipPath id="i"><circle class="a" cx="88.29" cy="98.24" r="69.74"/></clipPath><clipPath id="j"><rect class="a" x="-605.49" y="-69.72" width="1027.03" height="492.83"/></clipPath><clipPath id="k"><circle class="a" cx="520.56" cy="98.24" r="69.74"/></clipPath><clipPath id="l"><rect class="a" x="-166.52" y="-70.55" width="1027.03" height="492.83"/></clipPath></defs><g class="b"><path class="c" d="M366,202.71l-11.53,6.65-88.75-.5L130.43,287l.88,51.24-11.6,6.7-101-58.34L265,144.36Zm0,0"/><path class="d" d="M265.75,208.86l88.75.5L131.31,338.22,130.43,287Zm0,0"/><line class="e" x1="366.03" y1="202.71" x2="354.5" y2="209.36"/><line class="f" x1="354.5" y1="209.36" x2="265.75" y2="208.86"/><g class="g"><path class="e" d="M119.71,344.92l11.6-6.7m-11.6,6.7-101-58.34M265,144.36,18.67,286.58M366,202.71,265,144.36"/></g><line class="f" x1="131.31" y1="338.22" x2="130.43" y2="286.98"/><line class="e" x1="131.31" y1="338.22" x2="354.5" y2="209.36"/><line class="f" x1="130.43" y1="286.98" x2="265.75" y2="208.86"/><path class="h" d="M352.33,184.16a2.25,2.25,0,0,1,2,0,.73.73,0,0,1,.42.59v19.14a.71.71,0,0,1-.42.58,2.25,2.25,0,0,1-2,0,.71.71,0,0,1-.42-.58V184.75A.73.73,0,0,1,352.33,184.16Z"/><path class="i" d="M352.33,184.16c-.56.33-.56.85,0,1.17a2.25,2.25,0,0,0,2,0c.56-.32.56-.84,0-1.17A2.25,2.25,0,0,0,352.33,184.16Z"/><path class="j" d="M352.74,117.3a1.28,1.28,0,0,1,1.2,0,.43.43,0,0,1,.25.34v67a.43.43,0,0,1-.25.34,1.27,1.27,0,0,1-1.2,0,.41.41,0,0,1-.25-.34v-67A.41.41,0,0,1,352.74,117.3Z"/><rect class="k" x="352.49" y="126.63" width="1.7" height="9.12"/><path class="l" d="M342.85,135.87c0,.61.44.86,1,.56l21.25-12.27a2.13,2.13,0,0,0,1-1.68V97.94c0-.61-.44-.86-1-.56l-21.25,12.27a2.17,2.17,0,0,0-1,1.68Z"/><path class="m" d="M343.3,109.4l21.25-12.27a.69.69,0,0,1,.68-.07l.5.24h0a.74.74,0,0,0-.66.08l-21.25,12.27a2.17,2.17,0,0,0-1,1.68v24.54a.69.69,0,0,0,.28.62h0l-.49-.24a.65.65,0,0,1-.31-.63V111.07A2.16,2.16,0,0,1,343.3,109.4Z"/><path class="n" d="M365.07,123.43a.73.73,0,0,0,.34-.58V98.3c0-.21-.15-.3-.34-.19l-21.25,12.27a.77.77,0,0,0-.34.59v24.54a.21.21,0,0,0,.34.19Z"/><path class="o" d="M342.85,119.82v-8.49a2.17,2.17,0,0,1,1-1.68l21.25-12.27c.53-.3,1,0,1,.56v15.19A62.74,62.74,0,0,0,342.85,119.82Z"/><path class="p" d="M364,113.12l-1.11.13-.62-.7v0c0-.26,0-.44-.2-.51a1.82,1.82,0,0,0,.62-1.07.58.58,0,0,0-.13-.54.37.37,0,0,0-.27-.11.74.74,0,0,0-.34.06,1.89,1.89,0,0,0-1,1.33c-.05.36.08.59.32.65a1.51,1.51,0,0,0-.43.79h0l-1.26,1.55-.22,1.59a.35.35,0,0,0,0,.18.2.2,0,0,0,.26.11h0l.06,0a.83.83,0,0,0,.46-.6l.18-1.21.34-.42-.28,2a.5.5,0,0,0,.1.44l-.05.2-1,3.52a.44.44,0,0,0,0,.4.24.24,0,0,0,.23.09h.06l.18-.07a1.17,1.17,0,0,0,.5-.65l.89-3.05.63.39.35,1.52c.05.23.27.27.52.13l.11-.07a1,1,0,0,0,.41-.87l-.4-1.75-1.12-.71,0-.12.25-1.72.24.28,1.34-.16h0a.81.81,0,0,0,.51-.5C364.29,113.28,364.2,113.1,364,113.12Z"/><path class="q" d="M348.61,119c-.11.09-.32.18-.44.26,1.65-.94,4.37-2.37,6-3.46l-.42.24c-.17-.27-.42-1.35-.56-1.45l-.06,0c-.11-.06-.37.13-.55.24-.84.48-1.72,1-2.56,1.47-.2.12-.42.26-.63.37s-.29.5-.36.66,0,0,0,.15-.08.37-.13.56l0,.12-.22.88Z"/><path class="q" d="M346.13,121.89a1.88,1.88,0,0,0-.69.65c-.47.94.71.17,1,0a14.41,14.41,0,0,0-1.08,1.86c-.06.26-.06,2.07-.06,2.46,0,.57-.14,2,.35,1.87a6.55,6.55,0,0,0,1.1-.62c.4-.32.31-.64.33-1.09,1.43-.92,6.68-4,8.09-4.67,0,.4-.06.81.29.72a5.57,5.57,0,0,0,1.14-.67c.61-.57.3-2.6.31-3.37,0-1.33,0-1.68-1.09-1.9.35-.22,1.4-.7,1.07-1.17-.11-.15-.75,0-1,.39-.48.84-.43.21-.87-.17-.51-.73-.64-.64-2.24.3-.53.28-1.1.59-1.63.9s-2.66,1.6-3.12,2a6.71,6.71,0,0,0-1.24,2.29c-.32.82-.26,0-.71.26Zm.71.33c1.35-.76,2.88-1.84,4.3-2.65s2.92-1.54,4.36-2.35l-.78-1.06c-.14-.15-.14-.24-.45-.11a55.73,55.73,0,0,0-6.14,3.54c-.43.3-.43.47-.76,1.26a11.67,11.67,0,0,0-.53,1.37Zm2.12,1.83c0,.39.33.53.72.3l3-1.72a1.52,1.52,0,0,0,.72-1.13V121c0-.4-.33-.53-.72-.31l-3,1.72a1.52,1.52,0,0,0-.72,1.14Zm-.92.53a1.92,1.92,0,0,0,.4-.66,8.36,8.36,0,0,0-2.6,1.23c-.23,1.47,1.74-.08,2.2-.57Zm5.86-3.81a.41.41,0,0,0,.39.2c.47,0,2.44-.77,2.21-2a10.85,10.85,0,0,0-2.6,1.78Z"/><polygon class="p" points="355.62 116.38 356.39 114.6 358.31 113.5 358.31 120.09 357.22 120.72 357.13 117.86 357.08 117.55 356.97 117.32 356.75 117.13 356.58 117.05 356.41 116.94 356.84 116.67 357.02 116.44 357.14 116.19 357.18 115.95 357.02 115.76 356.74 115.7 356.42 115.82 356.08 116.01 355.62 116.38"/><polygon class="r" points="355.99 115.9 356.52 114.69 358.12 113.76 358.12 115.93 357.15 116.49 356.74 116.73 357.05 116.28 357.02 115.98 356.9 115.81 356.62 115.86 356.25 116.02 355.79 116.34 355.99 115.9"/><g class="s"><path class="c" d="M320.94,72.17,293.52,88l-211-1.21-321.7,185.74,2.09,121.81-27.58,15.92-240.23-138.7L80.71-66.52Zm0,0"/><path class="d" d="M82.53,86.8l211,1.21-530.6,306.34-2.09-121.81Zm0,0"/><line class="e" x1="320.94" y1="72.17" x2="293.52" y2="88.01"/><line class="f" x1="293.52" y1="88.01" x2="82.53" y2="86.8"/><g class="t"><path class="e" d="M-264.66,410.27l27.58-15.92m-27.58,15.92-240.23-138.7M80.71-66.52l-585.6,338.09M320.94,72.17,80.71-66.52"/></g><line class="e" x1="-237.08" y1="394.35" x2="293.52" y2="88.01"/><line class="f" x1="-239.17" y1="272.54" x2="82.53" y2="86.8"/></g><g class="u"><path class="v" d="M201.89,403.17l-27.58,15.92v-9.65l27.58-15.92Zm0,0"/><path class="p" d="M759.91,71.34,732.49,87.18,521.5,86,199.8,271.71l.16,9.55,1.93,112.26-27.58,15.92L166,404.61l23.74-13.7-2.09-121.82,329-190,211,1.21,23.91-13.81Zm0,0"/><path class="c" d="M189.7,390.91,166,404.61-65.92,270.74,519.68-67.35,751.55,66.52,727.64,80.33l-211-1.21-329,190Zm0,0"/><path class="d" d="M201.89,403.17v-9.65L200,281.26,521.5,95.62l211,1.21Zm0,0"/><path class="v" d="M521.5,86v9.65L200,281.26l-.16-9.55Zm0,0"/><g class="w"><path class="e" d="M759.91,71.34V81m-585.6,338.1,27.58-15.92"/></g><path class="f" d="M759.91,71.34,732.49,87.18M166,404.61l23.74-13.7M751.55,66.52,727.64,80.33"/><line class="e" x1="201.89" y1="393.52" x2="201.89" y2="403.17"/><path class="f" d="M174.31,409.44l27.58-15.92M199.8,271.71,521.5,86"/><path class="e" d="M201.89,403.17,732.49,96.83M759.91,81,732.49,96.83"/><g class="w"><line class="f" x1="187.61" y1="269.09" x2="189.7" y2="390.91"/><path class="e" d="M751.55,66.52,519.68-67.35M166,404.61-65.92,270.74M519.68-67.35-65.92,270.74"/></g><path class="e" d="M759.91,71.34l-8.36-4.82m-549.66,327L200,281.26m0,0-.16-9.55"/><path class="f" d="M521.5,95.62,200,281.26m-12.35-12.17,329-190"/></g></g></svg>